<?xml version="1.0" encoding="utf-8" standalone="yes"?>
<!DOCTYPE svg PUBLIC "-//W3C//DTD SVG 1.1//EN" "http://www.w3.org/Graphics/SVG/1.1/DTD/svg11.dtd">
<svg width="852" height="790" viewBox="0 0 852 790" style="fill:none;stroke:none;fill-rule:evenodd;clip-rule:evenodd;stroke-linecap:round;stroke-linejoin:round;stroke-miterlimit:1.5;" version="1.1" xmlns="http://www.w3.org/2000/svg" xmlns:xlink="http://www.w3.org/1999/xlink"><style class="text-font-style fontImports" data-font-family="Roboto">@import url('https://fonts.googleapis.com/css2?family=Roboto:wght@400;700&amp;display=block');</style><g id="items" style="isolation: isolate"><g id="blend" style="mix-blend-mode: normal"><g id="g-root-cp_0_g-0_13zvn5e1w1ktn1-fill" data-item-order="-549928" transform="translate(331.98699951171875, 277.98583984375)"><g id="cp_0_g-0_13zvn5e1w1ktn1-fill" stroke="none" fill="#545454"><g><path d="M 100.8842 177.7402L 94.7222 171.7876L 88.5628 177.8557C 76.0782 177.0535 63.582 173.4389 52.014 166.7601C 13.5267 144.5395 -0.7238 96.461 18.5372 57.1384L 26.4638 55.0144L 24.3398 47.0878C 48.7636 10.7454 97.5265 -0.9529 136.014 21.2679C 148.0202 28.1997 157.6678 37.6477 164.6752 48.5614L 162.3381 56.6734L 170.1993 58.6165C 181.309 82.582 180.9714 111.3994 166.7601 136.014C 152.4468 160.8055 127.4044 175.5405 100.8842 177.7402Z"></path></g></g></g><g id="g-root-cp_1_g-1_8xrlde1w1kufb-fill" data-item-order="-549922" transform="translate(416.41937255859375, 122)"><g id="cp_1_g-1_8xrlde1w1kufb-fill" stroke="none" fill="#3b5649"><g><path d="M 249.5824 250.159003C 249.5544 292.233603 238.4658 333.561503 217.4286 369.999103L 145.2521 328.328003C 158.984 304.543703 166.222 277.567303 166.2402 250.103503C 166.2528 231.245103 162.861 212.611903 156.2984 195.080003L 122.2836 214.718503L 128.2836 225.110803L 77.9065 212.658403L 92.2836 162.757003L 98.2836 173.149303L 132.7809 153.232303C 120.5485 137.658603 105.4302 124.490303 88.1824 114.486303C 64.4256 100.706903 37.4637 93.415103 10 93.341903L 10.2221 10.000003C 52.2965 10.112103 93.6022 21.283303 129.9977 42.393303C 166.3932 63.503403 196.5996 93.810603 217.5883 130.276203C 238.577 166.741903 249.6104 208.084503 249.5824 250.159003Z"></path></g></g></g><g id="g-root-cp_2_g-2_1unf4z61w1kvt5-fill" data-item-order="-549912" transform="translate(209.01699829101562, 439.77294921875)"><g id="cp_2_g-2_1unf4z61w1kvt5-fill" stroke="none" fill="#4b533a"><g><path d="M 98.1441 140.7374C 61.6534 119.9396 31.2597 89.9295 10 53.7059L 81.8773 11.521C 95.7544 35.1656 115.5936 54.7544 139.4126 68.33C 156.3554 77.9866 174.8899 84.3601 194.0462 87.1957L 194.0462 45.1176L 182.0462 45.1176L 217.6928 10L 254.0462 45.1176L 242.0462 45.1176L 242.0462 86.8666C 260.8649 83.8167 279.0388 77.3458 295.6443 67.7045C 319.3538 53.9386 339.0356 34.1916 352.7229 10.4366L 424.9357 52.0445C 403.9668 88.4372 373.8144 118.6897 337.4914 139.7791C 301.1684 160.8685 259.9468 172.0562 217.9457 172.2244C 175.9446 172.3925 134.6348 161.5352 98.1441 140.7374Z"></path></g></g></g><g id="g-root-cp_3_g-3_1hcl3oy1w1ku8b-fill" data-item-order="-549904" transform="translate(176.00100708007812, 122)"><g id="cp_3_g-3_1hcl3oy1w1ku8b-fill" stroke="none" fill="#344e57"><g><path d="M 130.0875 42.1034C 166.7688 20.946 208.395 9.8705 250.7404 10.0011L 250.4833 93.3429C 222.8427 93.2576 195.6716 100.4871 171.7282 114.2974C 154.8729 124.0193 140.0397 136.7588 127.9318 151.8111L 163.2731 172.2154L 169.2731 161.8231L 182.45 211L 133.2731 224.1769L 139.2731 213.7846L 103.9318 193.3803C 96.8645 211.6128 93.2474 231.075 93.3441 250.7687C 93.4797 278.4091 100.9261 305.5216 114.9273 329.3538L 43.0684 371.5702C 21.6185 335.0592 10.2107 293.5229 10.0029 251.1777C 9.7951 208.8326 20.7947 167.1863 41.8853 130.4665C 62.9758 93.7467 93.4062 63.2608 130.0875 42.1034Z"></path></g></g></g><g id="g-root-tx_componen_zlxkaa1w1ktfp-fill" data-item-order="0" transform="translate(188, 38)"><g id="tx_componen_zlxkaa1w1ktfp-fill" stroke="none" fill="#f4f4f4"><g><text style="font: bold 25px Roboto, sans-serif; white-space: pre;" font-weight="bold" font-size="25px" font-family="Roboto, sans-serif"><tspan x="16.1" y="42" dominant-baseline="ideographic">Components of Hexagonal Architecture</tspan></text></g></g></g><g id="g-root-tx_domain_1lwrxf61w1nnkd-fill" data-item-order="0" transform="translate(98, 146)"><g id="tx_domain_1lwrxf61w1nnkd-fill" stroke="none" fill="#1ac3fb"><g><text style="font: bold 20px Roboto, sans-serif; white-space: pre;" font-weight="bold" font-size="20px" font-family="Roboto, sans-serif"><tspan x="23.16" y="34" dominant-baseline="ideographic">Domain</tspan></text></g></g></g><g id="g-root-tx_ports_qtexgy1w1nm6j-fill" data-item-order="0" transform="translate(650, 146)"><g id="tx_ports_qtexgy1w1nm6j-fill" stroke="none" fill="#43dd93"><g><text style="font: bold 20px Roboto, sans-serif; white-space: pre;" font-weight="bold" font-size="20px" font-family="Roboto, sans-serif"><tspan x="12" y="34" dominant-baseline="ideographic">Ports</tspan></text></g></g></g><g id="g-root-tx_purebusi_1464e0i1w1nmrq-fill" data-item-order="0" transform="translate(38, 182)"><g id="tx_purebusi_1464e0i1w1nmrq-fill" stroke="none" fill="#f4f4f4"><g><text style="font: 15px Roboto, sans-serif; white-space: pre;" font-size="15px" font-family="Roboto, sans-serif"><tspan x="22" y="31" dominant-baseline="ideographic">Pure business logic </tspan><tspan x="63.34" y="49" dominant-baseline="ideographic">isolated from </tspan><tspan x="38.5" y="67" dominant-baseline="ideographic">external systems</tspan></text></g></g></g><g id="g-root-tx_interfac_dhyf3m1w1nnrg-fill" data-item-order="0" transform="translate(650, 182)"><g id="tx_interfac_dhyf3m1w1nnrg-fill" stroke="none" fill="#f4f4f4"><g><text style="font: 15px Roboto, sans-serif; white-space: pre;" font-size="15px" font-family="Roboto, sans-serif"><tspan x="12" y="31" dominant-baseline="ideographic">Interfaces defining </tspan><tspan x="12" y="49" dominant-baseline="ideographic">external system </tspan><tspan x="12" y="67" dominant-baseline="ideographic">interactions</tspan></text></g></g></g><g id="g-root-ic_dzon_1hapofm1w1nmrs-fill" data-item-order="0" transform="translate(220.52801513671875, 239)"></g><g id="g-root-ic_gate_1upak8i1w1kuti-fill" data-item-order="0" transform="translate(560, 235.9990234375)"></g><g id="g-root-tx_hexagona_1qaq0aa1w1nojm-fill" data-item-order="0" transform="translate(356, 338)"><g id="tx_hexagona_1qaq0aa1w1nojm-fill" stroke="none" fill="#b7b7b7"><g><text style="font: bold 20px Roboto, sans-serif; white-space: pre;" font-weight="bold" font-size="20px" font-family="Roboto, sans-serif"><tspan x="22.13" y="34" dominant-baseline="ideographic">Hexagonal </tspan><tspan x="14.3" y="58" dominant-baseline="ideographic">Architecture</tspan></text></g></g></g><g id="g-root-ic_wifi_58yk21w1m9se-fill" data-item-order="0" transform="translate(392, 536)"></g><g id="g-root-tx_adapters_djtucy1w1nmrr-fill" data-item-order="0" transform="translate(368, 626)"><g id="tx_adapters_djtucy1w1nmrr-fill" stroke="none" fill="#a6da37"><g><text style="font: bold 20px Roboto, sans-serif; white-space: pre;" font-weight="bold" font-size="20px" font-family="Roboto, sans-serif"><tspan x="17.09" y="34" dominant-baseline="ideographic">Adapters</tspan></text></g></g></g><g id="g-root-tx_implemen_8dbzm1w1noco-fill" data-item-order="0" transform="translate(344, 662)"><g id="tx_implemen_8dbzm1w1noco-fill" stroke="none" fill="#f4f4f4"><g><text style="font: 15px Roboto, sans-serif; white-space: pre;" font-size="15px" font-family="Roboto, sans-serif"><tspan x="14.96" y="31" dominant-baseline="ideographic">Implementations of </tspan><tspan x="23.55" y="49" dominant-baseline="ideographic">ports for specific </tspan><tspan x="51.96" y="67" dominant-baseline="ideographic">systems</tspan></text></g></g></g><g id="g-root-cp_0_g-0_13zvn5e1w1ktn1-stroke" data-item-order="-549928" transform="translate(331.98699951171875, 277.98583984375)"><g id="cp_0_g-0_13zvn5e1w1ktn1-stroke" fill="none" stroke-linecap="round" stroke-linejoin="round" stroke-miterlimit="4" stroke="#b7b7b7" stroke-width="2"><g><path d="M 100.8842 177.7402L 94.7222 171.7876L 88.5628 177.8557C 76.0782 177.0535 63.582 173.4389 52.014 166.7601C 13.5267 144.5395 -0.7238 96.461 18.5372 57.1384L 26.4638 55.0144L 24.3398 47.0878C 48.7636 10.7454 97.5265 -0.9529 136.014 21.2679C 148.0202 28.1997 157.6678 37.6477 164.6752 48.5614L 162.3381 56.6734L 170.1993 58.6165C 181.309 82.582 180.9714 111.3994 166.7601 136.014C 152.4468 160.8055 127.4044 175.5405 100.8842 177.7402Z"></path></g></g></g><g id="g-root-cp_1_g-1_8xrlde1w1kufb-stroke" data-item-order="-549922" transform="translate(416.41937255859375, 122)"><g id="cp_1_g-1_8xrlde1w1kufb-stroke" fill="none" stroke-linecap="round" stroke-linejoin="round" stroke-miterlimit="4" stroke="#43dd93" stroke-width="2"><g><path d="M 249.5824 250.159003C 249.5544 292.233603 238.4658 333.561503 217.4286 369.999103L 145.2521 328.328003C 158.984 304.543703 166.222 277.567303 166.2402 250.103503C 166.2528 231.245103 162.861 212.611903 156.2984 195.080003L 122.2836 214.718503L 128.2836 225.110803L 77.9065 212.658403L 92.2836 162.757003L 98.2836 173.149303L 132.7809 153.232303C 120.5485 137.658603 105.4302 124.490303 88.1824 114.486303C 64.4256 100.706903 37.4637 93.415103 10 93.341903L 10.2221 10.000003C 52.2965 10.112103 93.6022 21.283303 129.9977 42.393303C 166.3932 63.503403 196.5996 93.810603 217.5883 130.276203C 238.577 166.741903 249.6104 208.084503 249.5824 250.159003Z"></path></g></g></g><g id="g-root-cp_2_g-2_1unf4z61w1kvt5-stroke" data-item-order="-549912" transform="translate(209.01699829101562, 439.77294921875)"><g id="cp_2_g-2_1unf4z61w1kvt5-stroke" fill="none" stroke-linecap="round" stroke-linejoin="round" stroke-miterlimit="4" stroke="#a6da37" stroke-width="2"><g><path d="M 98.1441 140.7374C 61.6534 119.9396 31.2597 89.9295 10 53.7059L 81.8773 11.521C 95.7544 35.1656 115.5936 54.7544 139.4126 68.33C 156.3554 77.9866 174.8899 84.3601 194.0462 87.1957L 194.0462 45.1176L 182.0462 45.1176L 217.6928 10L 254.0462 45.1176L 242.0462 45.1176L 242.0462 86.8666C 260.8649 83.8167 279.0388 77.3458 295.6443 67.7045C 319.3538 53.9386 339.0356 34.1916 352.7229 10.4366L 424.9357 52.0445C 403.9668 88.4372 373.8144 118.6897 337.4914 139.7791C 301.1684 160.8685 259.9468 172.0562 217.9457 172.2244C 175.9446 172.3925 134.6348 161.5352 98.1441 140.7374Z"></path></g></g></g><g id="g-root-cp_3_g-3_1hcl3oy1w1ku8b-stroke" data-item-order="-549904" transform="translate(176.00100708007812, 122)"><g id="cp_3_g-3_1hcl3oy1w1ku8b-stroke" fill="none" stroke-linecap="round" stroke-linejoin="round" stroke-miterlimit="4" stroke="#1ac3fb" stroke-width="2"><g><path d="M 130.0875 42.1034C 166.7688 20.946 208.395 9.8705 250.7404 10.0011L 250.4833 93.3429C 222.8427 93.2576 195.6716 100.4871 171.7282 114.2974C 154.8729 124.0193 140.0397 136.7588 127.9318 151.8111L 163.2731 172.2154L 169.2731 161.8231L 182.45 211L 133.2731 224.1769L 139.2731 213.7846L 103.9318 193.3803C 96.8645 211.6128 93.2474 231.075 93.3441 250.7687C 93.4797 278.4091 100.9261 305.5216 114.9273 329.3538L 43.0684 371.5702C 21.6185 335.0592 10.2107 293.5229 10.0029 251.1777C 9.7951 208.8326 20.7947 167.1863 41.8853 130.4665C 62.9758 93.7467 93.4062 63.2608 130.0875 42.1034Z"></path></g></g></g><g id="g-root-tx_componen_zlxkaa1w1ktfp-stroke" data-item-order="0" transform="translate(188, 38)"></g><g id="g-root-tx_domain_1lwrxf61w1nnkd-stroke" data-item-order="0" transform="translate(98, 146)"></g><g id="g-root-tx_ports_qtexgy1w1nm6j-stroke" data-item-order="0" transform="translate(650, 146)"></g><g id="g-root-tx_purebusi_1464e0i1w1nmrq-stroke" data-item-order="0" transform="translate(38, 182)"></g><g id="g-root-tx_interfac_dhyf3m1w1nnrg-stroke" data-item-order="0" transform="translate(650, 182)"></g><g id="g-root-ic_dzon_1hapofm1w1nmrs-stroke" data-item-order="0" transform="translate(220.52801513671875, 239)"><g id="ic_dzon_1hapofm1w1nmrs-stroke" fill="none" stroke-linecap="round" stroke-linejoin="round" stroke-miterlimit="4" stroke="#1ac3fb" stroke-width="2"><g><path d="M 51 26C 51 27.656855 52.343147 29 54 29C 55.656857 29 57 27.656855 57 26C 57 24.343147 55.656857 23 54 23C 52.343147 23 51 24.343147 51 26ZM 30 20C 30 21.104568 30.89543 22 32 22C 33.104568 22 34 21.104568 34 20C 34 18.895432 33.104568 18 32 18C 30.89543 18 30 18.895432 30 20ZM 48 41C 48 42.104568 48.895432 43 50 43C 51.104568 43 52 42.104568 52 41C 52 39.895432 51.104568 39 50 39C 48.895432 39 48 39.895432 48 41ZM 11 43C 11 44.104568 11.895431 45 13 45C 14.104569 45 15 44.104568 15 43C 15 41.895432 14.104569 41 13 41C 11.895431 41 11 41.895432 11 43ZM 25 36C 25 37.104568 25.895432 38 27 38C 28.10457 38 29 37.104568 29 36C 29 34.895432 28.10457 34 27 34C 25.895432 34 25 34.895432 25 36ZM 30 49C 30 50.656857 31.343147 52 33 52C 34.656853 52 36 50.656857 36 49C 36 47.343147 34.656853 46 33 46C 31.343147 46 30 47.343147 30 49ZM 32 22L 33.251999 46.015999M 28.974001 35.938L 51.122002 26.834M 14.624001 41.835999L 25.538 37.351997M 34 20L 51.122002 25.624001M 53.458 29L 51.18 39.389999M 30.278 21.285999L 13.524 40.959999M 14.766 43.928001L 30.209999 47.889999M 36 47.889999L 48.470001 42.278M 33.606003 21.181999L 48.470001 39.722M 31.132 21.836L 27.886 34.209999M 27.902 37.776001L 31.841999 46.23M 34.972 46.743999L 51.922001 28.164"></path></g></g></g><g id="g-root-ic_gate_1upak8i1w1kuti-stroke" data-item-order="0" transform="translate(560, 235.9990234375)"><g id="ic_gate_1upak8i1w1kuti-stroke" fill="none" stroke-linecap="round" stroke-linejoin="round" stroke-miterlimit="4" stroke="#43dd93" stroke-width="2"><g><path d="M 19.49988 31.4L 19.49988 17C 19.49988 14.8 21.299881 13 23.49988 13L 35.499802 13C 37.699799 13 39.499802 14.8 39.499802 17L 39.499802 51C 39.499802 53.200001 37.699799 55 35.499802 55L 23.49988 55C 21.299881 55 19.49988 53.200001 19.49988 51L 19.49988 37.400002M 39.499802 37.400002L 46.499802 37.400002L 46.499802 43.400002L 56.499802 34.400002L 46.499802 25.3999L 46.499802 31.4L 39.499802 31.4M 11.5 37.400002L 28.5 37.400002M 28.5 31.4L 11.5 31.4"></path></g></g></g><g id="g-root-tx_hexagona_1qaq0aa1w1nojm-stroke" data-item-order="0" transform="translate(356, 338)"></g><g id="g-root-ic_wifi_58yk21w1m9se-stroke" data-item-order="0" transform="translate(392, 536)"><g id="ic_wifi_58yk21w1m9se-stroke" fill="none" stroke-linecap="round" stroke-linejoin="round" stroke-miterlimit="4" stroke="#a6da37" stroke-width="2"><g><path d="M 19.984001 38.865997C 19.809521 40.763626 18.931267 42.527271 17.521999 43.810001M 24.01 38.865997C 24.184479 40.763626 25.062735 42.527271 26.472 43.810001M 43.984001 38.865997C 43.809521 40.763626 42.931267 42.527271 41.522003 43.810001M 48.009998 38.865997C 48.184479 40.763626 49.062737 42.527271 50.472 43.810001M 11.732 43.810001L 56.268002 43.810001M 16.091999 43.810001L 13.558001 55.666M 51.908001 43.810001L 54.442001 55.666M 14.998 25.866001L 28.997999 25.866001C 28.997999 25.866001 30.997999 25.866001 30.997999 27.866001L 30.997999 36.866001C 30.997999 36.866001 30.997999 38.866001 28.997999 38.866001L 14.998 38.866001C 14.998 38.866001 12.998 38.866001 12.998 36.866001L 12.998 27.866001C 12.998 27.866001 12.998 25.866001 14.998 25.866001M 52.996002 38.865997L 38.996002 38.865997C 38.996002 38.865997 36.996002 38.865997 36.996002 36.865997L 36.996002 27.865997C 36.996002 27.865997 36.996002 25.865997 38.996002 25.865997L 52.996002 25.865997C 52.996002 25.865997 54.996002 25.865997 54.996002 27.865997L 54.996002 36.865997C 54.996002 36.865997 54.996002 38.865997 52.996002 38.865997M 42 14.696C 37.334404 10.921743 30.665598 10.921743 26 14.696M 29.33 19.515999C 32.052532 17.316278 35.941471 17.316278 38.664001 19.516001M 19.108 49.236L 24.886 49.236M 21.998001 56.133999L 21.998001 49.236M 43.108002 49.236L 48.886002 49.236M 45.998001 56.133999L 45.998001 49.236"></path></g></g></g><g id="g-root-tx_adapters_djtucy1w1nmrr-stroke" data-item-order="0" transform="translate(368, 626)"></g><g id="g-root-tx_implemen_8dbzm1w1noco-stroke" data-item-order="0" transform="translate(344, 662)"></g></g></g><path id="w9253aq1xpbci4" d="M65.283 12.757a.35.35 0 0 0 .584.157l5.203-5.141-6.183 3.523.396 1.461zm-2.216-11.7a.35.35 0 0 0-.522.305v3.111l3.276-1.868-2.754-1.548zm3.728 2.105l-4.25 2.421v2.445l6.391-3.644-2.141-1.222zm4.708 3.303a.35.35 0 0 0 0-.609l-1.592-.9-7.365 4.199v1.782a.35.35 0 0 0 .523.305l8.435-4.777z M44.542 2.513c0-.433.355-.783.792-.783s.792.35.792.783-.355.783-.792.783-.792-.35-.792-.783zm59.171 0c0-.433.355-.783.792-.783s.792.35.792.783-.355.783-.792.783-.792-.35-.792-.783zm-85.951 7.636h-1.27v-.487c-.276.201-.864.609-1.881.609-1.202 0-2.274-.794-2.137-2.078.118-1.106 1.153-1.584 1.848-1.727l2.17-.345c0-.539-.29-.956-1.064-1.006s-1.21.305-1.571 1.017l-1.124-.605c1.218-2.631 5.029-1.764 5.029.414v4.207zm-1.27-2.86c.006.396-.062 1.112-.819 1.59-.587.37-1.841.299-1.903-.395-.049-.555.461-.791.906-.898l1.816-.297zm72.662 2.86h-1.27v-.487c-.276.201-.864.609-1.881.609-1.202 0-2.274-.794-2.137-2.078.118-1.106 1.153-1.584 1.848-1.727l2.17-.345c0-.539-.29-.956-1.064-1.006s-1.21.305-1.571 1.017l-1.124-.605c1.218-2.631 5.029-1.764 5.029.414v4.207zm-1.27-2.86c.006.396-.062 1.112-.82 1.59-.587.37-1.841.299-1.903-.395-.049-.555.461-.791.906-.898l1.816-.297zM99.096 10.149H97.85v-8.45h1.246v4.895l2.68-2.559h1.738l-2.633 2.535 2.715 3.578h-1.556l-2.077-2.707-.867.844v1.863zm6.053-6.114h-1.255v6.113h1.255V4.035zm-59.2 0h-1.255v6.113h1.255V4.035zm5.584 6.113V1.697h1.255v2.695c.361-.346 1-.485 1.47-.485 1.452 0 2.477 1.082 2.457 2.448v3.792h-1.27v-3.68c0-.408-.214-1.339-1.315-1.339-.968 0-1.342.756-1.342 1.339v3.681h-1.255zm-4.76-4.894V4.039h.621a.45.45 0 0 0 .45-.45v-.855h1.251v1.305h1.309v1.215h-1.309v3.109c0 .293.105.664.648.664.365 0 .531-.035.736-.07v1.137s-.361.113-.857.113c-1.398 0-1.777-1.051-1.777-1.788V5.254h-1.071zM36.528 4.039h-1.394l2.191 6.106h1.125l1.234-3.918 1.238 3.918h1.129l2.188-6.106h-1.383l-1.359 3.93-1.256-3.93h-1.124l-1.242 3.957-1.348-3.957zM26.212 7.141c-.02 1.566 1.187 3.129 3.223 3.129 1.566 0 2.383-.918 2.734-1.719L31.172 8c-.315.399-.801 1.094-1.738 1.094-1.145 0-1.825-.781-1.891-1.52h4.625c.074-.284.148-.995-.03-1.559-.336-1.064-1.221-2.102-2.839-2.102s-3.088 1.152-3.088 3.227zm1.363-.75h3.348c-.055-.43-.566-1.301-1.623-1.301a1.79 1.79 0 0 0-1.725 1.301zm-8.758.75c.038 1.758 1.277 3.133 3.145 3.133 1.074 0 1.723-.477 1.961-.672v.547h1.242V1.703h-1.258v2.888c-.414-.36-1.062-.68-1.93-.68-1.91 0-3.198 1.473-3.16 3.23zm1.309-.08c0 1.119.723 1.978 1.836 1.978a1.88 1.88 0 0 0 1.94-1.904c0-1.371-1.011-1.99-1.972-1.99s-1.805.798-1.805 1.916zm76.683-.028C96.771 5.275 95.532 3.9 93.664 3.9c-1.074 0-1.723.477-1.961.672v-.547h-1.242v8.22h1.258V9.583c.414.36 1.063.68 1.93.68 1.91 0 3.198-1.473 3.16-3.23zm-1.309.08c0-1.119-.723-1.978-1.836-1.978a1.88 1.88 0 0 0-1.94 1.904c0 1.371 1.011 1.99 1.972 1.99S95.5 8.231 95.5 7.113zM106.441 10.173V4.036h1.254v.382c.361-.346 1-.485 1.47-.485 1.452 0 2.477 1.082 2.457 2.448v3.792h-1.27V6.492c0-.408-.214-1.339-1.315-1.339-.969 0-1.342.756-1.342 1.339v3.681h-1.254zm-30.383-.021V1.824h1.084l4.215 5.777V1.824h1.32v8.328h-1.094l-4.207-5.796v5.796h-1.319zM5.24 10.149H4V2.377h1.014l2.664 3.597 2.654-3.592h1.03v7.766h-1.256V4.762L7.678 8.068 5.24 4.742v5.407z" transform="translate(716, 756)" fill="#ababab88" stroke="none"></path></svg>