<?xml version="1.0" encoding="utf-8" standalone="yes"?>
<!DOCTYPE svg PUBLIC "-//W3C//DTD SVG 1.1//EN" "http://www.w3.org/Graphics/SVG/1.1/DTD/svg11.dtd">
<svg width="1080" height="624" viewBox="0 0 1080 624" style="fill:none;stroke:none;fill-rule:evenodd;clip-rule:evenodd;stroke-linecap:round;stroke-linejoin:round;stroke-miterlimit:1.5;" version="1.1" xmlns="http://www.w3.org/2000/svg" xmlns:xlink="http://www.w3.org/1999/xlink"><style class="text-font-style fontImports" data-font-family="Roboto">@import url('https://fonts.googleapis.com/css2?family=Roboto:wght@400;700&amp;display=block');</style><g id="items" style="isolation: isolate"><g id="blend" style="mix-blend-mode: normal"><g id="g-root-cp_1_lines-1_18mkd1j1wv6yvj-fill" data-item-order="-544844" transform="translate(31.18975830078125, 265.34423828125)"></g><g id="g-root-cp_2_lines-2_zqxcsn1wv70g2-fill" data-item-order="-544832" transform="translate(188, 290)"></g><g id="g-root-cp_3_lines-3_qvwtmv1wv6y30-fill" data-item-order="-544826" transform="translate(284, 290)"></g><g id="g-root-cp_4_lines-4_mg3bif1wv6yva-fill" data-item-order="-544820" transform="translate(380, 290)"></g><g id="g-root-cp_5_lines-5_i09tdz1wv6znk-fill" data-item-order="-544814" transform="translate(476, 290)"></g><g id="g-root-cp_6_lines-6_94mt531wv70ga-fill" data-item-order="-544808" transform="translate(572, 290)"></g><g id="g-root-cp_7_lines-7_1uuwttz1wv6yoc-fill" data-item-order="-544802" transform="translate(668, 290)"></g><g id="g-root-cp_8_lines-8_1qf3bpj1wv6zgm-fill" data-item-order="-544796" transform="translate(764, 290)"></g><g id="g-root-cp_9_lines-9_1lz9tl31wv708w-fill" data-item-order="-544790" transform="translate(860, 265)"></g><g id="g-root-ic_open_940c1z1wvb8jv-fill" data-item-order="-2304" transform="translate(596, 314)"><g id="ic_open_940c1z1wvb8jv-fill" stroke="none" fill="#4e88e6"><g><path d="M 13.66 40.200001C 13.655184 38.518017 14.385803 36.917961 15.66 35.82L 27.66 25.66C 31.264774 22.620434 36.535229 22.620434 40.139999 25.66L 52.139999 35.82C 53.42057 36.910583 54.158348 38.507969 54.158348 40.189999C 54.158348 41.872032 53.42057 43.469418 52.139999 44.559998L 40.139999 54.720001C 36.535229 57.759571 31.264774 57.759571 27.660002 54.720001L 15.66 44.560001C 14.384491 43.471581 13.652922 41.876762 13.66 40.199997ZM 13.66 34C 13.652922 32.323238 14.384491 30.728418 15.66 29.639999L 27.66 19.48C 31.264774 16.440434 36.535229 16.440434 40.139999 19.48L 52.139999 29.639999C 53.419788 30.726805 54.157459 32.321007 54.157459 34C 54.157459 35.678989 53.419788 37.273193 52.139999 38.360001L 40.139999 48.52C 36.535229 51.55957 31.264774 51.55957 27.660002 48.52L 15.66 38.360001C 14.384491 37.271584 13.652922 35.676758 13.66 34ZM 13.66 27.799999C 13.652922 26.12324 14.384491 24.528418 15.66 23.439999L 27.66 13.28C 31.264774 10.240433 36.535229 10.240433 40.139999 13.280001L 52.139999 23.439999C 53.42057 24.530582 54.158348 26.127968 54.158348 27.809999C 54.158348 29.492031 53.42057 31.089418 52.139999 32.18L 40.139999 42.34C 36.535229 45.37957 31.264774 45.37957 27.660002 42.34L 15.66 32.18C 14.385803 31.082041 13.655184 29.481983 13.66 27.799999Z"></path></g></g></g><g id="g-root-tx_intricat_qqx0xz1wv8cul-fill" data-item-order="0" transform="translate(908, 230)"><g id="tx_intricat_qqx0xz1wv8cul-fill" stroke="none" fill="#f4f4f4"><g><text style="font: 15px Roboto, sans-serif; white-space: pre;" font-size="15px" font-family="Roboto, sans-serif"><tspan x="12.56" y="31" dominant-baseline="ideographic">Intricate</tspan></text></g></g></g><g id="g-root-tx_simple_hs5n9j1wv8d8k-fill" data-item-order="0" transform="translate(80, 230)"><g id="tx_simple_hs5n9j1wv8d8k-fill" stroke="none" fill="#f4f4f4"><g><text style="font: 15px Roboto, sans-serif; white-space: pre;" font-size="15px" font-family="Roboto, sans-serif"><tspan x="17.13" y="31" dominant-baseline="ideographic">Simple</tspan></text></g></g></g><g id="g-root-tx_responsi_1cxe2h31wv8dms-fill" data-item-order="0" transform="translate(698, 182)"><g id="tx_responsi_1cxe2h31wv8dms-fill" stroke="none" fill="#f4f4f4"><g><text style="font: 15px Roboto, sans-serif; white-space: pre;" font-size="15px" font-family="Roboto, sans-serif"><tspan x="14.84" y="28" dominant-baseline="ideographic">Responsive, loosely </tspan><tspan x="53.54" y="46" dominant-baseline="ideographic">coupled </tspan><tspan x="38.27" y="64" dominant-baseline="ideographic">components </tspan><tspan x="20.71" y="82" dominant-baseline="ideographic">reacting to events</tspan></text></g></g></g><g id="g-root-tx_domaince_4ikk5j1wv8dtu-fill" data-item-order="0" transform="translate(530, 194)"><g id="tx_domaince_4ikk5j1wv8dtu-fill" stroke="none" fill="#f4f4f4"><g><text style="font: 15px Roboto, sans-serif; white-space: pre;" font-size="15px" font-family="Roboto, sans-serif"><tspan x="29.97" y="31" dominant-baseline="ideographic">Domain-centric </tspan><tspan x="13.34" y="49" dominant-baseline="ideographic">design with outward </tspan><tspan x="24.25" y="67" dominant-baseline="ideographic">dependency flow</tspan></text></g></g></g><g id="g-root-tx_reusable_zkolxj1wv8d1k-fill" data-item-order="0" transform="translate(374, 194)"><g id="tx_reusable_zkolxj1wv8d1k-fill" stroke="none" fill="#f4f4f4"><g><text style="font: 15px Roboto, sans-serif; white-space: pre;" font-size="15px" font-family="Roboto, sans-serif"><tspan x="13.89" y="31" dominant-baseline="ideographic">Reusable services </tspan><tspan x="29.33" y="49" dominant-baseline="ideographic">for enterprise </tspan><tspan x="24.64" y="67" dominant-baseline="ideographic">interoperability</tspan></text></g></g></g><g id="g-root-tx_scalable_1q6z5l31wv8d1i-fill" data-item-order="0" transform="translate(206, 194)"><g id="tx_scalable_1q6z5l31wv8d1i-fill" stroke="none" fill="#f4f4f4"><g><text style="font: 15px Roboto, sans-serif; white-space: pre;" font-size="15px" font-family="Roboto, sans-serif"><tspan x="21.73" y="31" dominant-baseline="ideographic">Scalable systems </tspan><tspan x="16.79" y="49" dominant-baseline="ideographic">with logical feature </tspan><tspan x="50.65" y="67" dominant-baseline="ideographic">grouping</tspan></text></g></g></g><g id="g-root-tx_soa_1cvin7r1wv8emf-fill" data-item-order="0" transform="translate(416, 158)"><g id="tx_soa_1cvin7r1wv8emf-fill" stroke="none" fill="#f366bb"><g><text style="font: bold 20px Roboto, sans-serif; white-space: pre;" font-weight="bold" font-size="20px" font-family="Roboto, sans-serif"><tspan x="14.33" y="34" dominant-baseline="ideographic">SOA</tspan></text></g></g></g><g id="g-root-tx_eventdri_1q883rb1wv8f7n-fill" data-item-order="0" transform="translate(704, 122)"><g id="tx_eventdri_1q883rb1wv8f7n-fill" stroke="none" fill="#43dd93"><g><text style="font: bold 20px Roboto, sans-serif; white-space: pre;" font-weight="bold" font-size="20px" font-family="Roboto, sans-serif"><tspan x="15.87" y="34" dominant-baseline="ideographic">Event-Driven </tspan><tspan x="17.8" y="58" dominant-baseline="ideographic">Architecture</tspan></text></g></g></g><g id="g-root-tx_onionarc_m983k71wv8emh-fill" data-item-order="0" transform="translate(542, 134)"><g id="tx_onionarc_m983k71wv8emh-fill" stroke="none" fill="#4f91fc"><g><text style="font: bold 20px Roboto, sans-serif; white-space: pre;" font-weight="bold" font-size="20px" font-family="Roboto, sans-serif"><tspan x="43.59" y="34" dominant-baseline="ideographic">Onion </tspan><tspan x="14.3" y="58" dominant-baseline="ideographic">Architecture</tspan></text></g></g></g><g id="g-root-tx_modulara_4gp4w71wv8eth-fill" data-item-order="0" transform="translate(218, 134)"><g id="tx_modulara_4gp4w71wv8eth-fill" stroke="none" fill="#f79438"><g><text style="font: bold 20px Roboto, sans-serif; white-space: pre;" font-weight="bold" font-size="20px" font-family="Roboto, sans-serif"><tspan x="32.7" y="34" dominant-baseline="ideographic">Modular </tspan><tspan x="14.3" y="58" dominant-baseline="ideographic">Architecture</tspan></text></g></g></g><g id="g-root-ic_jeng_dfgikn1wv8efi-fill" data-item-order="0" transform="translate(116, 314)"></g><g id="g-root-ic_plan_1hjgbgn1wv8efb-fill" data-item-order="0" transform="translate(212, 314)"></g><g id="g-root-ic_patc_4jtibr1wv9tds-fill" data-item-order="0" transform="translate(308, 314)"></g><g id="g-root-ic_clus_94mt531wv9s09-fill" data-item-order="0" transform="translate(404, 314)"></g><g id="g-root-ic_robo_1hegirr1wvb5sa-fill" data-item-order="0" transform="translate(500, 314)"></g><g id="g-root-tx_software_18eg6x31wv8d8j-fill" data-item-order="0" transform="translate(74, 38)"><g id="tx_software_18eg6x31wv8d8j-fill" stroke="none" fill="#f4f4f4"><g><text style="font: bold 25px Roboto, sans-serif; white-space: pre;" font-weight="bold" font-size="25px" font-family="Roboto, sans-serif"><tspan x="15.58" y="42" dominant-baseline="ideographic">Software architecture complexity ranges from simple to highly intricate designs.</tspan></text></g></g></g><g id="g-root-ic_1_4jtibr1wvck5g-fill" data-item-order="0" transform="translate(692, 314)"></g><g id="g-root-ic_chec_4o6txj1wvcmpx-fill" data-item-order="0" transform="translate(788, 314)"></g><g id="g-root-ic_forw_1q9h1xj1wvdyx2-fill" data-item-order="0" transform="translate(884, 314)"></g><g id="g-root-tx_layeredn_1d30c931wvdzwn-fill" data-item-order="0" transform="translate(104, 422)"><g id="tx_layeredn_1d30c931wvdzwn-fill" stroke="none" fill="#ffe711"><g><text style="font: bold 20px Roboto, sans-serif; white-space: pre;" font-weight="bold" font-size="20px" font-family="Roboto, sans-serif"><tspan x="17.35" y="34" dominant-baseline="ideographic">Layered (N-</tspan><tspan x="48.59" y="58" dominant-baseline="ideographic">Tier)</tspan></text></g></g></g><g id="g-root-tx_microker_i0wah31wve0ox-fill" data-item-order="0" transform="translate(284, 422)"><g id="tx_microker_i0wah31wve0ox-fill" stroke="none" fill="#fb6762"><g><text style="font: bold 20px Roboto, sans-serif; white-space: pre;" font-weight="bold" font-size="20px" font-family="Roboto, sans-serif"><tspan x="14.77" y="34" dominant-baseline="ideographic">Microkernel </tspan><tspan x="12.8" y="58" dominant-baseline="ideographic">Architecture</tspan></text></g></g></g><g id="g-root-tx_hexagona_1cuw64n1wvfdhf-fill" data-item-order="0" transform="translate(464, 422)"><g id="tx_hexagona_1cuw64n1wvfdhf-fill" stroke="none" fill="#8769fd"><g><text style="font: bold 20px Roboto, sans-serif; white-space: pre;" font-weight="bold" font-size="20px" font-family="Roboto, sans-serif"><tspan x="22.13" y="34" dominant-baseline="ideographic">Hexagonal </tspan><tspan x="14.3" y="58" dominant-baseline="ideographic">Architecture</tspan></text></g></g></g><g id="g-root-tx_cleanarc_dcym871wvfea5-fill" data-item-order="0" transform="translate(644, 422)"><g id="tx_cleanarc_dcym871wvfea5-fill" stroke="none" fill="#1ac3fb"><g><text style="font: bold 20px Roboto, sans-serif; white-space: pre;" font-weight="bold" font-size="20px" font-family="Roboto, sans-serif"><tspan x="44.44" y="34" dominant-baseline="ideographic">Clean </tspan><tspan x="14.3" y="58" dominant-baseline="ideographic">Architecture</tspan></text></g></g></g><g id="g-root-tx_cqrs_18gbm6f1wvffnz-fill" data-item-order="0" transform="translate(854, 422)"><g id="tx_cqrs_18gbm6f1wvffnz-fill" stroke="none" fill="#a6da37"><g><text style="font: bold 20px Roboto, sans-serif; white-space: pre;" font-weight="bold" font-size="20px" font-family="Roboto, sans-serif"><tspan x="13.99" y="34" dominant-baseline="ideographic">CQRS</tspan></text></g></g></g><g id="g-root-tx_scalable_zlb30n1wvfe2o-fill" data-item-order="0" transform="translate(812, 458)"><g id="tx_scalable_zlb30n1wvfe2o-fill" stroke="none" fill="#f4f4f4"><g><text style="font: 15px Roboto, sans-serif; white-space: pre;" font-size="15px" font-family="Roboto, sans-serif"><tspan x="15.61" y="31" dominant-baseline="ideographic">Scalable read/write </tspan><tspan x="39.47" y="49" dominant-baseline="ideographic">models with </tspan><tspan x="30.48" y="67" dominant-baseline="ideographic">separate paths</tspan></text></g></g></g><g id="g-root-tx_simplest_vccsuf1wvdz40-fill" data-item-order="0" transform="translate(92, 482)"><g id="tx_simplest_vccsuf1wvdz40-fill" stroke="none" fill="#f4f4f4"><g><text style="font: 15px Roboto, sans-serif; white-space: pre;" font-size="15px" font-family="Roboto, sans-serif"><tspan x="14.16" y="28" dominant-baseline="ideographic">Simple structure for </tspan><tspan x="18.27" y="46" dominant-baseline="ideographic">CRUD applications</tspan></text></g></g></g><g id="g-root-tx_extensib_1uljpjb1wvfea2-fill" data-item-order="0" transform="translate(272, 482)"><g id="tx_extensib_1uljpjb1wvfea2-fill" stroke="none" fill="#f4f4f4"><g><text style="font: 15px Roboto, sans-serif; white-space: pre;" font-size="15px" font-family="Roboto, sans-serif"><tspan x="13.66" y="31" dominant-baseline="ideographic">Extensible core with </tspan><tspan x="37.56" y="49" dominant-baseline="ideographic">independent, </tspan><tspan x="26.59" y="67" dominant-baseline="ideographic">modular plugins</tspan></text></g></g></g><g id="g-root-tx_adaptabl_qnsnif1wvffv0-fill" data-item-order="0" transform="translate(452, 482)"><g id="tx_adaptabl_qnsnif1wvffv0-fill" stroke="none" fill="#f4f4f4"><g><text style="font: 15px Roboto, sans-serif; white-space: pre;" font-size="15px" font-family="Roboto, sans-serif"><tspan x="13.9" y="31" dominant-baseline="ideographic">Adaptable via ports, </tspan><tspan x="27.55" y="49" dominant-baseline="ideographic">decoupled from </tspan><tspan x="43.35" y="67" dominant-baseline="ideographic">technology</tspan></text></g></g></g><g id="g-root-tx_maintain_1unf4sn1wvfdae-fill" data-item-order="0" transform="translate(632, 482)"><g id="tx_maintain_1unf4sn1wvfdae-fill" stroke="none" fill="#f4f4f4"><g><text style="font: 15px Roboto, sans-serif; white-space: pre;" font-size="15px" font-family="Roboto, sans-serif"><tspan x="37.33" y="31" dominant-baseline="ideographic">Maintainable, </tspan><tspan x="13.23" y="49" dominant-baseline="ideographic">flexible with domain-</tspan><tspan x="33.38" y="67" dominant-baseline="ideographic">focused layers</tspan></text></g></g></g><g id="g-root-cp_1_lines-1_18mkd1j1wv6yvj-stroke" data-item-order="-544844" transform="translate(31.18975830078125, 265.34423828125)"><g id="cp_1_lines-1_18mkd1j1wv6yvj-stroke" fill="none" stroke-linecap="round" stroke-linejoin="round" stroke-miterlimit="4" stroke="#ffe711" stroke-width="2"><g><path d="M 70.810242 34.655762L 162.810242 34.655762C 165.019342 34.655762 166.810242 36.446662 166.810242 38.655762L 166.810242 126.655762C 166.810242 128.864862 165.019342 130.655762 162.810242 130.655762L 70.810242 130.655762L 70.810242 34.655762Z"></path></g></g><g id="cp_1_lines-1_18mkd1j1wv6yvj-stroke" fill="none" stroke-linecap="round" stroke-linejoin="round" stroke-miterlimit="4" stroke="#ffe711" stroke-width="2"><g><path d="M 71.810227 34.655724L 71.810227 12.003924C 71.810227 10.129424 69.463127 9.284824 68.268727 10.729624L 10.917027 80.107224C 9.694327 81.586224 9.694327 83.725224 10.917027 85.204324L 68.268727 154.581924C 69.463127 156.026724 71.810227 155.182124 71.810227 153.307624L 71.810227 130.655724"></path></g></g></g><g id="g-root-cp_2_lines-2_zqxcsn1wv70g2-stroke" data-item-order="-544832" transform="translate(188, 290)"><g id="cp_2_lines-2_zqxcsn1wv70g2-stroke" fill="none" stroke-linecap="round" stroke-linejoin="round" stroke-miterlimit="4" stroke="#f79438" stroke-width="2"><g><path d="M 10 14C 10 11.7909 11.7909 10 14 10L 102 10C 104.2091 10 106 11.7909 106 14L 106 102C 106 104.2091 104.2091 106 102 106L 14 106C 11.7909 106 10 104.2091 10 102L 10 14Z"></path></g></g></g><g id="g-root-cp_3_lines-3_qvwtmv1wv6y30-stroke" data-item-order="-544826" transform="translate(284, 290)"><g id="cp_3_lines-3_qvwtmv1wv6y30-stroke" fill="none" stroke-linecap="round" stroke-linejoin="round" stroke-miterlimit="4" stroke="#fb6762" stroke-width="2"><g><path d="M 10 14C 10 11.7909 11.7909 10 14 10L 102 10C 104.2091 10 106 11.7909 106 14L 106 102C 106 104.2091 104.2091 106 102 106L 14 106C 11.7909 106 10 104.2091 10 102L 10 14Z"></path></g></g></g><g id="g-root-cp_4_lines-4_mg3bif1wv6yva-stroke" data-item-order="-544820" transform="translate(380, 290)"><g id="cp_4_lines-4_mg3bif1wv6yva-stroke" fill="none" stroke-linecap="round" stroke-linejoin="round" stroke-miterlimit="4" stroke="#f366bb" stroke-width="2"><g><path d="M 10 14C 10 11.7909 11.7909 10 14 10L 102 10C 104.2091 10 106 11.7909 106 14L 106 102C 106 104.2091 104.2091 106 102 106L 14 106C 11.7909 106 10 104.2091 10 102L 10 14Z"></path></g></g></g><g id="g-root-cp_5_lines-5_i09tdz1wv6znk-stroke" data-item-order="-544814" transform="translate(476, 290)"><g id="cp_5_lines-5_i09tdz1wv6znk-stroke" fill="none" stroke-linecap="round" stroke-linejoin="round" stroke-miterlimit="4" stroke="#8769fd" stroke-width="2"><g><path d="M 10 14C 10 11.7909 11.7909 10 14 10L 102 10C 104.2091 10 106 11.7909 106 14L 106 102C 106 104.2091 104.2091 106 102 106L 14 106C 11.7909 106 10 104.2091 10 102L 10 14Z"></path></g></g></g><g id="g-root-cp_6_lines-6_94mt531wv70ga-stroke" data-item-order="-544808" transform="translate(572, 290)"><g id="cp_6_lines-6_94mt531wv70ga-stroke" fill="none" stroke-linecap="round" stroke-linejoin="round" stroke-miterlimit="4" stroke="#4f91fc" stroke-width="2"><g><path d="M 10 14C 10 11.7909 11.7909 10 14 10L 102 10C 104.2091 10 106 11.7909 106 14L 106 102C 106 104.2091 104.2091 106 102 106L 14 106C 11.7909 106 10 104.2091 10 102L 10 14Z"></path></g></g></g><g id="g-root-cp_7_lines-7_1uuwttz1wv6yoc-stroke" data-item-order="-544802" transform="translate(668, 290)"><g id="cp_7_lines-7_1uuwttz1wv6yoc-stroke" fill="none" stroke-linecap="round" stroke-linejoin="round" stroke-miterlimit="4" stroke="#1ac3fb" stroke-width="2"><g><path d="M 10 14C 10 11.7909 11.7909 10 14 10L 102 10C 104.2091 10 106 11.7909 106 14L 106 102C 106 104.2091 104.2091 106 102 106L 14 106C 11.7909 106 10 104.2091 10 102L 10 14Z"></path></g></g></g><g id="g-root-cp_8_lines-8_1qf3bpj1wv6zgm-stroke" data-item-order="-544796" transform="translate(764, 290)"><g id="cp_8_lines-8_1qf3bpj1wv6zgm-stroke" fill="none" stroke-linecap="round" stroke-linejoin="round" stroke-miterlimit="4" stroke="#43dd93" stroke-width="2"><g><path d="M 10 14C 10 11.7909 11.7909 10 14 10L 102 10C 104.2091 10 106 11.7909 106 14L 106 102C 106 104.2091 104.2091 106 102 106L 14 106C 11.7909 106 10 104.2091 10 102L 10 14Z"></path></g></g></g><g id="g-root-cp_9_lines-9_1lz9tl31wv708w-stroke" data-item-order="-544790" transform="translate(860, 265)"><g id="cp_9_lines-9_1lz9tl31wv708w-stroke" fill="none" stroke-linecap="round" stroke-linejoin="round" stroke-miterlimit="4" stroke="#a6da37" stroke-width="2"><g><path d="M 10 39C 10 36.7909 11.7909 35 14 35L 106 35L 106 131L 14 131C 11.7909 131 10 129.2091 10 127L 10 39Z"></path></g></g><g id="cp_9_lines-9_1lz9tl31wv708w-stroke" fill="none" stroke-linecap="round" stroke-linejoin="round" stroke-miterlimit="4" stroke="#a6da37" stroke-width="2"><g><path d="M 105 35L 105 12.004C 105 10.1295 107.3472 9.2849 108.5415 10.7297L 165.8932 80.1073C 167.1159 81.5863 167.1159 83.7253 165.8932 85.2044L 108.5415 154.582C 107.3471 156.0268 105 155.1822 105 153.3077L 105 131"></path></g></g></g><g id="g-root-ic_open_940c1z1wvb8jv-stroke" data-item-order="-2304" transform="translate(596, 314)"><g id="ic_open_940c1z1wvb8jv-stroke" fill="none" stroke-linecap="round" stroke-linejoin="round" stroke-miterlimit="4" stroke="#4f91fc" stroke-width="2"><g><path d="M 13.66 40.200001C 13.655184 38.518017 14.385803 36.917961 15.66 35.82L 27.66 25.66C 31.264774 22.620434 36.535229 22.620434 40.139999 25.66L 52.139999 35.82C 53.42057 36.910583 54.158348 38.507969 54.158348 40.189999C 54.158348 41.872032 53.42057 43.469418 52.139999 44.559998L 40.139999 54.720001C 36.535229 57.759571 31.264774 57.759571 27.660002 54.720001L 15.66 44.560001C 14.384491 43.471581 13.652922 41.876762 13.66 40.199997ZM 13.66 34C 13.652922 32.323238 14.384491 30.728418 15.66 29.639999L 27.66 19.48C 31.264774 16.440434 36.535229 16.440434 40.139999 19.48L 52.139999 29.639999C 53.419788 30.726805 54.157459 32.321007 54.157459 34C 54.157459 35.678989 53.419788 37.273193 52.139999 38.360001L 40.139999 48.52C 36.535229 51.55957 31.264774 51.55957 27.660002 48.52L 15.66 38.360001C 14.384491 37.271584 13.652922 35.676758 13.66 34ZM 13.66 27.799999C 13.652922 26.12324 14.384491 24.528418 15.66 23.439999L 27.66 13.28C 31.264774 10.240433 36.535229 10.240433 40.139999 13.280001L 52.139999 23.439999C 53.42057 24.530582 54.158348 26.127968 54.158348 27.809999C 54.158348 29.492031 53.42057 31.089418 52.139999 32.18L 40.139999 42.34C 36.535229 45.37957 31.264774 45.37957 27.660002 42.34L 15.66 32.18C 14.385803 31.082041 13.655184 29.481983 13.66 27.799999Z"></path></g></g></g><g id="g-root-tx_intricat_qqx0xz1wv8cul-stroke" data-item-order="0" transform="translate(908, 230)"></g><g id="g-root-tx_simple_hs5n9j1wv8d8k-stroke" data-item-order="0" transform="translate(80, 230)"></g><g id="g-root-tx_responsi_1cxe2h31wv8dms-stroke" data-item-order="0" transform="translate(698, 182)"></g><g id="g-root-tx_domaince_4ikk5j1wv8dtu-stroke" data-item-order="0" transform="translate(530, 194)"></g><g id="g-root-tx_reusable_zkolxj1wv8d1k-stroke" data-item-order="0" transform="translate(374, 194)"></g><g id="g-root-tx_scalable_1q6z5l31wv8d1i-stroke" data-item-order="0" transform="translate(206, 194)"></g><g id="g-root-tx_soa_1cvin7r1wv8emf-stroke" data-item-order="0" transform="translate(416, 158)"></g><g id="g-root-tx_eventdri_1q883rb1wv8f7n-stroke" data-item-order="0" transform="translate(704, 122)"></g><g id="g-root-tx_onionarc_m983k71wv8emh-stroke" data-item-order="0" transform="translate(542, 134)"></g><g id="g-root-tx_modulara_4gp4w71wv8eth-stroke" data-item-order="0" transform="translate(218, 134)"></g><g id="g-root-ic_jeng_dfgikn1wv8efi-stroke" data-item-order="0" transform="translate(116, 314)"><g id="ic_jeng_dfgikn1wv8efi-stroke" fill="none" stroke-linecap="round" stroke-linejoin="round" stroke-miterlimit="4" stroke="#ffe711" stroke-width="2"><g><path d="M 13.166 46L 17.166 46C 17.166 46 19.166 46 19.166 48L 19.166 52C 19.166 52 19.166 54 17.166 54L 13.166 54C 13.166 54 11.166 54 11.166 52L 11.166 48C 11.166 48 11.166 46 13.166 46M 31.166 46L 37.166 46C 37.166 46 39.166 46 39.166 48L 39.166 52C 39.166 52 39.166 54 37.166 54L 31.166 54C 31.166 54 29.166 54 29.166 52L 29.166 48C 29.166 48 29.166 46 31.166 46M 21.166 30L 27.166 30C 27.166 30 29.166 30 29.166 32L 29.166 36C 29.166 36 29.166 38 27.166 38L 21.166 38C 21.166 38 19.166 38 19.166 36L 19.166 32C 19.166 32 19.166 30 21.166 30M 21.166 14L 27.166 14C 27.166 14 29.166 14 29.166 16L 29.166 20C 29.166 20 29.166 22 27.166 22L 21.166 22C 21.166 22 19.166 22 19.166 20L 19.166 16C 19.166 16 19.166 14 21.166 14M 31.166 14L 37.166 14C 37.166 14 39.166 14 39.166 16L 39.166 20C 39.166 20 39.166 22 37.166 22L 31.166 22C 31.166 22 29.166 22 29.166 20L 29.166 16C 29.166 16 29.166 14 31.166 14M 13.166 38L 37.166 38C 37.166 38 39.166 38 39.166 40L 39.166 44C 39.166 44 39.166 46 37.166 46L 13.166 46C 13.166 46 11.166 46 11.166 44L 11.166 40C 11.166 40 11.166 38 13.166 38M 39.166 29.32L 39.166 24C 39.166 22.895432 38.270569 22 37.166 22L 13.166 22C 12.06143 22 11.166 22.895432 11.166 24L 11.166 28C 11.166 29.10457 12.06143 30 13.166 30L 38.166 30M 56.021999 50.439999C 56.449768 50.125031 56.734657 49.652824 56.813828 49.127541C 56.892994 48.602253 56.759933 48.067055 56.444 47.639999L 42.799999 29.129999C 42.485031 28.702232 42.012821 28.417341 41.487541 28.338175C 40.962257 28.259007 40.427055 28.392065 40 28.708L 36.779999 31.082001C 36.352234 31.396969 36.067341 31.869177 35.988174 32.394463C 35.909004 32.919746 36.042065 33.454945 36.358002 33.882L 50 52.400002C 50.314968 52.827766 50.787178 53.112659 51.312462 53.191826C 51.837746 53.270992 52.372944 53.137936 52.799999 52.821999Z"></path></g></g></g><g id="g-root-ic_plan_1hjgbgn1wv8efb-stroke" data-item-order="0" transform="translate(212, 314)"><g id="ic_plan_1hjgbgn1wv8efb-stroke" fill="none" stroke-linecap="round" stroke-linejoin="round" stroke-miterlimit="4" stroke="#f79438" stroke-width="2"><g><path d="M 22 31L 18 31L 18 12C 18 11.447716 18.447716 11 19 11L 39 11C 39.552284 11 40 11.447716 40 12L 40 31L 29 31M 34 31L 34 37L 34 37C 37.313709 37 40 39.686295 40 43L 40 44L 34 44L 34 56C 34 56.552284 33.552284 57 33 57L 12 57C 11.447716 57 11 56.552284 11 56L 11 32C 11 31.447716 11.447716 31 12 31L 18 31M 34 48L 56 48C 56.552284 48 57 47.552284 57 47L 57 34L 57 34C 53.13401 34 50 30.865993 50 27L 56 27C 56.552284 27 57 26.552284 57 26L 57 20C 57 19.447716 56.552284 19 56 19L 40 19M 11 45L 21 45L 21 57L 21 57L 12 57C 11.447716 57 11 56.552284 11 56L 11 45L 11 45ZM 11 49L 21 49M 11 53L 21 53"></path></g></g></g><g id="g-root-ic_patc_4jtibr1wv9tds-stroke" data-item-order="0" transform="translate(308, 314)"><g id="ic_patc_4jtibr1wv9tds-stroke" fill="none" stroke-linecap="round" stroke-linejoin="round" stroke-miterlimit="4" stroke="#fb6762" stroke-width="2"><g><path d="M 21 17L 47 17C 47 17 51 17 51 21L 51 47C 51 47 51 51 47 51L 21 51C 21 51 17 51 17 47L 17 21C 17 21 17 17 21 17M 29 23L 29 11M 39 23L 39 11M 45 29L 57 29M 45 39L 57 39M 39 45L 39 57M 29 45L 29 57M 23 39L 11 39M 23 29L 11 29"></path></g></g></g><g id="g-root-ic_clus_94mt531wv9s09-stroke" data-item-order="0" transform="translate(404, 314)"><g id="ic_clus_94mt531wv9s09-stroke" fill="none" stroke-linecap="round" stroke-linejoin="round" stroke-miterlimit="4" stroke="#f366bb" stroke-width="2"><g><path d="M 27.5 40.099998C 27.5 41.299999 26.700001 42.099998 25.5 42.099998L 13.5 42.099998C 12.3 42.099998 11.5 41.299999 11.5 40.099998L 11.5 28.1001C 11.5 26.900101 12.3 26.1001 13.5 26.1001L 25.5 26.1001C 26.700001 26.1001 27.5 26.900101 27.5 28.1001L 27.5 40.099998ZM 44.5 17.5C 44.5 18.700001 43.700001 19.5 42.5 19.5L 38.5 19.5C 37.299999 19.5 36.5 18.700001 36.5 17.5L 36.5 13.5C 36.5 12.3 37.299999 11.5 38.5 11.5L 42.5 11.5C 43.700001 11.5 44.5 12.3 44.5 13.5L 44.5 17.5ZM 56.5 29.1001C 56.5 30.299999 55.700001 31.1 54.5 31.1L 50.5 31.1C 49.299999 31.1 48.5 30.299999 48.5 29.1001L 48.5 25.1001C 48.5 23.900101 49.299999 23.1001 50.5 23.1001L 54.5 23.1001C 55.700001 23.1001 56.5 23.900101 56.5 25.1001L 56.5 29.1001ZM 56.5 43.099998C 56.5 44.299999 55.700001 45.099998 54.5 45.099998L 50.5 45.099998C 49.299999 45.099998 48.5 44.299999 48.5 43.099998L 48.5 39.099998C 48.5 37.900002 49.299999 37.099998 50.5 37.099998L 54.5 37.099998C 55.700001 37.099998 56.5 37.900002 56.5 39.099998L 56.5 43.099998ZM 44.5 54.5C 44.5 55.700001 43.700001 56.5 42.5 56.5L 38.5 56.5C 37.299999 56.5 36.5 55.700001 36.5 54.5L 36.5 50.5C 36.5 49.299999 37.299999 48.5 38.5 48.5L 42.5 48.5C 43.700001 48.5 44.5 49.299999 44.5 50.5L 44.5 54.5ZM 48.5 27.1001L 27.5 34.099998L 37.140602 19.03124M 10 10M 48.5 41.099998L 27.5 34.099998L 37.062401 49.039001M 10 10M 44.131599 18.73168L 49.053398 23.653519M 52.5 31.1L 52.5 37.099998M 10 10M 44.040798 49.157001L 48.958801 44.4356"></path></g></g></g><g id="g-root-ic_robo_1hegirr1wvb5sa-stroke" data-item-order="0" transform="translate(500, 314)"><g id="ic_robo_1hegirr1wvb5sa-stroke" fill="none" stroke-linecap="round" stroke-linejoin="round" stroke-miterlimit="4" stroke="#8769fd" stroke-width="2"><g><path d="M 10 10M 33.010399 50.294998L 29.59004 52.279598L 11.77539 41.9422L 11.77539 22.22806L 29.59004 11.890624L 47.404598 22.22806L 47.404598 32.085197M 21.375 32.086601C 21.375 36.617599 25.04368 40.299999 29.58848 40.299999C 34.119598 40.299999 37.802002 36.631401 37.802002 32.086601C 37.802002 27.541759 34.133202 23.859379 29.58848 23.859379C 25.057381 23.859379 21.375 27.528061 21.375 32.0728L 21.375 32.086601ZM 43.453999 43.062L 52.226002 43.062C 52.226002 43.062 56.226002 43.062 56.226002 47.062L 56.226002 52.110001C 56.226002 52.110001 56.226002 56.110001 52.226002 56.110001L 43.453999 56.110001C 43.453999 56.110001 39.454002 56.110001 39.454002 52.110001L 39.454002 47.062C 39.454002 47.062 39.454002 43.062 43.453999 43.062M 10 10M 47.839802 37.916199L 47.839802 43.062401M 10 10M 45.089802 48.426399L 45.089802 50.75M 10 10M 50.589802 48.426399L 50.589802 50.75"></path></g></g></g><g id="g-root-tx_software_18eg6x31wv8d8j-stroke" data-item-order="0" transform="translate(74, 38)"></g><g id="g-root-ic_1_4jtibr1wvck5g-stroke" data-item-order="0" transform="translate(692, 314)"><g id="ic_1_4jtibr1wvck5g-stroke" fill="none" stroke-linecap="round" stroke-linejoin="round" stroke-miterlimit="4" stroke="#1ac3fb" stroke-width="2"><g><path d="M 34.400002 32.826C 34.144951 32.937313 33.855049 32.937313 33.599998 32.826L 13.11 23.916C 12.746205 23.75667 12.511178 23.397156 12.511178 23C 12.511178 22.602844 12.746205 22.24333 13.11 22.084L 33.599998 13.174C 33.855049 13.062687 34.144951 13.062687 34.400002 13.174L 54.889999 22.084C 55.253796 22.24333 55.488823 22.602844 55.488823 23C 55.488823 23.397156 55.253796 23.75667 54.889999 23.916ZM 51.25 31.5L 54.889999 33.084C 55.253796 33.243332 55.488823 33.602844 55.488823 34C 55.488823 34.397156 55.253796 34.756668 54.889999 34.916L 34.400002 43.826C 34.144951 43.937313 33.855049 43.937313 33.599998 43.826L 13.11 34.916C 12.746205 34.756668 12.511178 34.397156 12.511178 34C 12.511178 33.602844 12.746205 33.243332 13.11 33.084L 16.75 31.5M 51.25 42.5L 54.889999 44.084C 55.253796 44.243332 55.488823 44.602844 55.488823 45C 55.488823 45.397156 55.253796 45.756668 54.889999 45.916L 34.400002 54.826C 34.144951 54.937313 33.855049 54.937313 33.599998 54.826L 13.11 45.916C 12.746205 45.756668 12.511178 45.397156 12.511178 45C 12.511178 44.602844 12.746205 44.243332 13.11 44.084L 16.75 42.5"></path></g></g></g><g id="g-root-ic_chec_4o6txj1wvcmpx-stroke" data-item-order="0" transform="translate(788, 314)"><g id="ic_chec_4o6txj1wvcmpx-stroke" fill="none" stroke-linecap="round" stroke-linejoin="round" stroke-miterlimit="4" stroke="#43dd93" stroke-width="2"><g><path d="M 45.900002 24.400139L 21.900021 24.400139L 21.900021 56.4002L 45.900002 56.4002L 45.900002 24.400139ZM 49.900002 35.5998L 56.299999 35.5998M 49.900002 43.5998L 56.299999 43.5998M 49.900002 51.5998L 54.299999 51.5998C 55.5 51.5998 56.299999 50.799801 56.299999 49.5998L 56.299999 29.599859C 56.299999 28.39986 55.5 27.599859 54.299999 27.599859L 49.900002 27.599859M 22.900021 34.999802L 45.900002 34.999802M 22.900021 45.999802L 45.900002 45.999802M 17.899981 35.5998L 11.5 35.5998M 17.899981 43.5998L 11.5 43.5998M 17.9 51.5998L 13.5 51.5998C 12.3 51.5998 11.5 50.799801 11.5 49.5998L 11.5 29.599859C 11.5 28.39986 12.3 27.599859 13.5 27.599859L 17.9 27.599859M 10 10M 30.9 13.59986L 33.900002 16.399839L 38.900002 11.599854"></path></g></g></g><g id="g-root-ic_forw_1q9h1xj1wvdyx2-stroke" data-item-order="0" transform="translate(884, 314)"><g id="ic_forw_1q9h1xj1wvdyx2-stroke" fill="none" stroke-linecap="round" stroke-linejoin="round" stroke-miterlimit="4" stroke="#a6da37" stroke-width="2"><g><path d="M 37 49L 21 49C 16.581722 49 13 45.418278 13 41L 13 21C 13 16.581722 16.581722 13 21 13L 47 13C 51.418278 13 55 16.581722 55 21L 55 27M 29 56.998001L 37 48.998001L 29 40.998001M 37 56.998001L 45 48.998001L 37 40.998001"></path></g></g></g><g id="g-root-tx_layeredn_1d30c931wvdzwn-stroke" data-item-order="0" transform="translate(104, 422)"></g><g id="g-root-tx_microker_i0wah31wve0ox-stroke" data-item-order="0" transform="translate(284, 422)"></g><g id="g-root-tx_hexagona_1cuw64n1wvfdhf-stroke" data-item-order="0" transform="translate(464, 422)"></g><g id="g-root-tx_cleanarc_dcym871wvfea5-stroke" data-item-order="0" transform="translate(644, 422)"></g><g id="g-root-tx_cqrs_18gbm6f1wvffnz-stroke" data-item-order="0" transform="translate(854, 422)"></g><g id="g-root-tx_scalable_zlb30n1wvfe2o-stroke" data-item-order="0" transform="translate(812, 458)"></g><g id="g-root-tx_simplest_vccsuf1wvdz40-stroke" data-item-order="0" transform="translate(92, 482)"></g><g id="g-root-tx_extensib_1uljpjb1wvfea2-stroke" data-item-order="0" transform="translate(272, 482)"></g><g id="g-root-tx_adaptabl_qnsnif1wvffv0-stroke" data-item-order="0" transform="translate(452, 482)"></g><g id="g-root-tx_maintain_1unf4sn1wvfdae-stroke" data-item-order="0" transform="translate(632, 482)"></g></g></g><path id="w90whlj1v76l1f" d="M65.283 12.757a.35.35 0 0 0 .584.157l5.203-5.141-6.183 3.523.396 1.461zm-2.216-11.7a.35.35 0 0 0-.522.305v3.111l3.276-1.868-2.754-1.548zm3.728 2.105l-4.25 2.421v2.445l6.391-3.644-2.141-1.222zm4.708 3.303a.35.35 0 0 0 0-.609l-1.592-.9-7.365 4.199v1.782a.35.35 0 0 0 .523.305l8.435-4.777z M44.542 2.513c0-.433.355-.783.792-.783s.792.35.792.783-.355.783-.792.783-.792-.35-.792-.783zm59.171 0c0-.433.355-.783.792-.783s.792.35.792.783-.355.783-.792.783-.792-.35-.792-.783zm-85.951 7.636h-1.27v-.487c-.276.201-.864.609-1.881.609-1.202 0-2.274-.794-2.137-2.078.118-1.106 1.153-1.584 1.848-1.727l2.17-.345c0-.539-.29-.956-1.064-1.006s-1.21.305-1.571 1.017l-1.124-.605c1.218-2.631 5.029-1.764 5.029.414v4.207zm-1.27-2.86c.006.396-.062 1.112-.819 1.59-.587.37-1.841.299-1.903-.395-.049-.555.461-.791.906-.898l1.816-.297zm72.662 2.86h-1.27v-.487c-.276.201-.864.609-1.881.609-1.202 0-2.274-.794-2.137-2.078.118-1.106 1.153-1.584 1.848-1.727l2.17-.345c0-.539-.29-.956-1.064-1.006s-1.21.305-1.571 1.017l-1.124-.605c1.218-2.631 5.029-1.764 5.029.414v4.207zm-1.27-2.86c.006.396-.062 1.112-.82 1.59-.587.37-1.841.299-1.903-.395-.049-.555.461-.791.906-.898l1.816-.297zM99.096 10.149H97.85v-8.45h1.246v4.895l2.68-2.559h1.738l-2.633 2.535 2.715 3.578h-1.556l-2.077-2.707-.867.844v1.863zm6.053-6.114h-1.255v6.113h1.255V4.035zm-59.2 0h-1.255v6.113h1.255V4.035zm5.584 6.113V1.697h1.255v2.695c.361-.346 1-.485 1.47-.485 1.452 0 2.477 1.082 2.457 2.448v3.792h-1.27v-3.68c0-.408-.214-1.339-1.315-1.339-.968 0-1.342.756-1.342 1.339v3.681h-1.255zm-4.76-4.894V4.039h.621a.45.45 0 0 0 .45-.45v-.855h1.251v1.305h1.309v1.215h-1.309v3.109c0 .293.105.664.648.664.365 0 .531-.035.736-.07v1.137s-.361.113-.857.113c-1.398 0-1.777-1.051-1.777-1.788V5.254h-1.071zM36.528 4.039h-1.394l2.191 6.106h1.125l1.234-3.918 1.238 3.918h1.129l2.188-6.106h-1.383l-1.359 3.93-1.256-3.93h-1.124l-1.242 3.957-1.348-3.957zM26.212 7.141c-.02 1.566 1.187 3.129 3.223 3.129 1.566 0 2.383-.918 2.734-1.719L31.172 8c-.315.399-.801 1.094-1.738 1.094-1.145 0-1.825-.781-1.891-1.52h4.625c.074-.284.148-.995-.03-1.559-.336-1.064-1.221-2.102-2.839-2.102s-3.088 1.152-3.088 3.227zm1.363-.75h3.348c-.055-.43-.566-1.301-1.623-1.301a1.79 1.79 0 0 0-1.725 1.301zm-8.758.75c.038 1.758 1.277 3.133 3.145 3.133 1.074 0 1.723-.477 1.961-.672v.547h1.242V1.703h-1.258v2.888c-.414-.36-1.062-.68-1.93-.68-1.91 0-3.198 1.473-3.16 3.23zm1.309-.08c0 1.119.723 1.978 1.836 1.978a1.88 1.88 0 0 0 1.94-1.904c0-1.371-1.011-1.99-1.972-1.99s-1.805.798-1.805 1.916zm76.683-.028C96.771 5.275 95.532 3.9 93.664 3.9c-1.074 0-1.723.477-1.961.672v-.547h-1.242v8.22h1.258V9.583c.414.36 1.063.68 1.93.68 1.91 0 3.198-1.473 3.16-3.23zm-1.309.08c0-1.119-.723-1.978-1.836-1.978a1.88 1.88 0 0 0-1.94 1.904c0 1.371 1.011 1.99 1.972 1.99S95.5 8.231 95.5 7.113zM106.441 10.173V4.036h1.254v.382c.361-.346 1-.485 1.47-.485 1.452 0 2.477 1.082 2.457 2.448v3.792h-1.27V6.492c0-.408-.214-1.339-1.315-1.339-.969 0-1.342.756-1.342 1.339v3.681h-1.254zm-30.383-.021V1.824h1.084l4.215 5.777V1.824h1.32v8.328h-1.094l-4.207-5.796v5.796h-1.319zM5.24 10.149H4V2.377h1.014l2.664 3.597 2.654-3.592h1.03v7.766h-1.256V4.762L7.678 8.068 5.24 4.742v5.407z" transform="translate(944, 590)" fill="#ababab88" stroke="none"></path></svg>