<?xml version="1.0" encoding="utf-8" standalone="yes"?>
<!DOCTYPE svg PUBLIC "-//W3C//DTD SVG 1.1//EN" "http://www.w3.org/Graphics/SVG/1.1/DTD/svg11.dtd">
<svg width="1080" height="564" viewBox="0 0 1080 564" style="fill:none;stroke:none;fill-rule:evenodd;clip-rule:evenodd;stroke-linecap:round;stroke-linejoin:round;stroke-miterlimit:1.5;" version="1.1" xmlns="http://www.w3.org/2000/svg" xmlns:xlink="http://www.w3.org/1999/xlink"><style class="text-font-style fontImports" data-font-family="Roboto">@import url('https://fonts.googleapis.com/css2?family=Roboto:wght@400;700&amp;display=block');</style><g id="items" style="isolation: isolate"><g id="blend" style="mix-blend-mode: normal"><g id="g-root-cp_1_lines-1_quo83r1xpcrnu-fill" data-item-order="-482924" transform="translate(37.18975830078125, 229.34423828125)"></g><g id="g-root-cp_2_lines-2_940op31xpcqv9-fill" data-item-order="-482912" transform="translate(194, 254)"></g><g id="g-root-cp_3_lines-3_1ly181z1xpct1r-fill" data-item-order="-482906" transform="translate(290, 254)"></g><g id="g-root-cp_4_lines-4_1d30ow71xpcrgh-fill" data-item-order="-482900" transform="translate(386, 254)"></g><g id="g-root-cp_5_lines-5_zrk6iv1xpct1f-fill" data-item-order="-482894" transform="translate(482, 254)"></g><g id="g-root-cp_6_lines-6_mgq58n1xpcrgl-fill" data-item-order="-482888" transform="translate(578, 254)"></g><g id="g-root-cp_7_lines-7_959mvb1xpct1j-fill" data-item-order="-482882" transform="translate(674, 254)"></g><g id="g-root-cp_8_lines-8_1ulk26f1xpe5u1-fill" data-item-order="-482876" transform="translate(770, 254)"></g><g id="g-root-cp_9_lines-9_1ha3jt31xpe7ez-fill" data-item-order="-482870" transform="translate(866, 229)"></g><g id="g-root-tx_simple_1umt0cn1xpe807-fill" data-item-order="0" transform="translate(80, 194)"><g id="tx_simple_1umt0cn1xpe807-fill" stroke="none" fill="#f4f4f4"><g><text style="font: 15px Roboto, sans-serif; white-space: pre;" font-size="15px" font-family="Roboto, sans-serif"><tspan x="17.13" y="31" dominant-baseline="ideographic">Simple</tspan></text></g></g></g><g id="g-root-tx_complex_4mbrbb1xpe6tk-fill" data-item-order="0" transform="translate(914, 194)"><g id="tx_complex_4mbrbb1xpe6tk-fill" stroke="none" fill="#f4f4f4"><g><text style="font: 15px Roboto, sans-serif; white-space: pre;" font-size="15px" font-family="Roboto, sans-serif"><tspan x="16.52" y="31" dominant-baseline="ideographic">Complex</tspan></text></g></g></g><g id="g-root-tx_optimize_mczapz1xpe7m7-fill" data-item-order="0" transform="translate(710, 158)"><g id="tx_optimize_mczapz1xpe7m7-fill" stroke="none" fill="#f4f4f4"><g><text style="font: 15px Roboto, sans-serif; white-space: pre;" font-size="15px" font-family="Roboto, sans-serif"><tspan x="46.58" y="31" dominant-baseline="ideographic">Optimizes </tspan><tspan x="16.33" y="49" dominant-baseline="ideographic">performance under </tspan><tspan x="47.59" y="67" dominant-baseline="ideographic">high load.</tspan></text></g></g></g><g id="g-root-tx_suitedfo_59b0n1xpe5fp-fill" data-item-order="0" transform="translate(542, 158)"><g id="tx_suitedfo_59b0n1xpe5fp-fill" stroke="none" fill="#f4f4f4"><g><text style="font: 15px Roboto, sans-serif; white-space: pre;" font-size="15px" font-family="Roboto, sans-serif"><tspan x="12.19" y="31" dominant-baseline="ideographic">Suited for enterprise-</tspan><tspan x="63.09" y="49" dominant-baseline="ideographic">grade </tspan><tspan x="31.52" y="67" dominant-baseline="ideographic">maintainability.</tspan></text></g></g></g><g id="g-root-tx_integrat_18i7e2v1xpe68b-fill" data-item-order="0" transform="translate(374, 158)"><g id="tx_integrat_18i7e2v1xpe68b-fill" stroke="none" fill="#f4f4f4"><g><text style="font: 15px Roboto, sans-serif; white-space: pre;" font-size="15px" font-family="Roboto, sans-serif"><tspan x="16.5" y="31" dominant-baseline="ideographic">Integrates systems </tspan><tspan x="37.52" y="49" dominant-baseline="ideographic">with external </tspan><tspan x="31.67" y="67" dominant-baseline="ideographic">dependencies.</tspan></text></g></g></g><g id="g-root-tx_scalesfe_m9uxaf1xpe77l-fill" data-item-order="0" transform="translate(206, 158)"><g id="tx_scalesfe_m9uxaf1xpe77l-fill" stroke="none" fill="#f4f4f4"><g><text style="font: 15px Roboto, sans-serif; white-space: pre;" font-size="15px" font-family="Roboto, sans-serif"><tspan x="14.34" y="31" dominant-baseline="ideographic">Scales features and </tspan><tspan x="27.98" y="49" dominant-baseline="ideographic">enables parallel </tspan><tspan x="34.97" y="67" dominant-baseline="ideographic">development.</tspan></text></g></g></g><g id="g-root-tx_cqrs_18jgc931xpe8ee-fill" data-item-order="0" transform="translate(752, 122)"><g id="tx_cqrs_18jgc931xpe8ee-fill" stroke="none" fill="#cb68f9"><g><text style="font: bold 20px Roboto, sans-serif; white-space: pre;" font-weight="bold" font-size="20px" font-family="Roboto, sans-serif"><tspan x="13.99" y="34" dominant-baseline="ideographic">CQRS</tspan></text></g></g></g><g id="g-root-tx_clean_hvwufb1xpe68c-fill" data-item-order="0" transform="translate(584, 122)"><g id="tx_clean_hvwufb1xpe68c-fill" stroke="none" fill="#fb6762"><g><text style="font: bold 20px Roboto, sans-serif; white-space: pre;" font-weight="bold" font-size="20px" font-family="Roboto, sans-serif"><tspan x="14.45" y="34" dominant-baseline="ideographic">Clean</tspan></text></g></g></g><g id="g-root-tx_hexagona_1uooflz1xpe70i-fill" data-item-order="0" transform="translate(392, 122)"><g id="tx_hexagona_1uooflz1xpe70i-fill" stroke="none" fill="#ffe711"><g><text style="font: bold 20px Roboto, sans-serif; white-space: pre;" font-weight="bold" font-size="20px" font-family="Roboto, sans-serif"><tspan x="16.13" y="34" dominant-baseline="ideographic">Hexagonal</tspan></text></g></g></g><g id="g-root-tx_modular_1cw5gxz1xpe77k-fill" data-item-order="0" transform="translate(236, 122)"><g id="tx_modular_1cw5gxz1xpe77k-fill" stroke="none" fill="#43dd93"><g><text style="font: bold 20px Roboto, sans-serif; white-space: pre;" font-weight="bold" font-size="20px" font-family="Roboto, sans-serif"><tspan x="14.7" y="34" dominant-baseline="ideographic">Modular</tspan></text></g></g></g><g id="g-root-tx_software_qnt05j1xpe7f2-fill" data-item-order="0" transform="translate(158, 38)"><g id="tx_software_qnt05j1xpe7f2-fill" stroke="none" fill="#f4f4f4"><g><text style="font: bold 25px Roboto, sans-serif; white-space: pre;" font-weight="bold" font-size="25px" font-family="Roboto, sans-serif"><tspan x="15.16" y="42" dominant-baseline="ideographic">Software architecture suitability based on application complexity.</tspan></text></g></g></g><g id="g-root-ic_laye_1d159mv1xpe6mh-fill" data-item-order="0" transform="translate(122, 278)"></g><g id="g-root-ic_2_1q8uxhj1xpfl6q-fill" data-item-order="0" transform="translate(218, 278)"></g><g id="g-root-ic_5_18egjk71xpgzrf-fill" data-item-order="0" transform="translate(314, 278)"></g><g id="g-root-ic_hone_18kpafb1xph1c4-fill" data-item-order="0" transform="translate(410, 278)"></g><g id="g-root-ic_onio_8xrxtz1xpig3x-fill" data-item-order="0" transform="translate(506, 278)"></g><g id="g-root-ic_stac_905jb1xpifbi-fill" data-item-order="0" transform="translate(602, 278)"></g><g id="g-root-ic_ning_dgptdz1xpjtvr-fill" data-item-order="0" transform="translate(698, 278)"></g><g id="g-root-ic_1_hssgzr1xpl98o-fill" data-item-order="0" transform="translate(794, 278)"></g><g id="g-root-ic_1_9ibr1xpmmtl-fill" data-item-order="0" transform="translate(890, 278)"></g><g id="g-root-tx_layered_v3mlfr1xp1ki2-fill" data-item-order="0" transform="translate(140, 386)"><g id="tx_layered_v3mlfr1xp1ki2-fill" stroke="none" fill="#1ac3fb"><g><text style="font: bold 20px Roboto, sans-serif; white-space: pre;" font-weight="bold" font-size="20px" font-family="Roboto, sans-serif"><tspan x="16.34" y="34" dominant-baseline="ideographic">Layered</tspan></text></g></g></g><g id="g-root-tx_soa_1cw5k3r1xp1kb0-fill" data-item-order="0" transform="translate(332, 386)"><g id="tx_soa_1cw5k3r1xp1kb0-fill" stroke="none" fill="#a6da37"><g><text style="font: bold 20px Roboto, sans-serif; white-space: pre;" font-weight="bold" font-size="20px" font-family="Roboto, sans-serif"><tspan x="14.33" y="34" dominant-baseline="ideographic">SOA</tspan></text></g></g></g><g id="g-root-tx_onion_1hduhhj1xp1ij2-fill" data-item-order="0" transform="translate(506, 386)"><g id="tx_onion_1hduhhj1xp1ij2-fill" stroke="none" fill="#f79438"><g><text style="font: bold 20px Roboto, sans-serif; white-space: pre;" font-weight="bold" font-size="20px" font-family="Roboto, sans-serif"><tspan x="13.59" y="34" dominant-baseline="ideographic">Onion</tspan></text></g></g></g><g id="g-root-tx_microker_1qaqfwn1xp1jwg-fill" data-item-order="0" transform="translate(650, 386)"><g id="tx_microker_1qaqfwn1xp1jwg-fill" stroke="none" fill="#f366bb"><g><text style="font: bold 20px Roboto, sans-serif; white-space: pre;" font-weight="bold" font-size="20px" font-family="Roboto, sans-serif"><tspan x="16.27" y="34" dominant-baseline="ideographic">Microkernel</tspan></text></g></g></g><g id="g-root-tx_eventdri_1ursw7b1xp1laa-fill" data-item-order="0" transform="translate(818, 386)"><g id="tx_eventdri_1ursw7b1xp1laa-fill" stroke="none" fill="#8769fd"><g><text style="font: bold 20px Roboto, sans-serif; white-space: pre;" font-weight="bold" font-size="20px" font-family="Roboto, sans-serif"><tspan x="12.36" y="34" dominant-baseline="ideographic">Event-Driven</tspan></text></g></g></g><g id="g-root-tx_suitedfo_4hc1s71xp1ki3-fill" data-item-order="0" transform="translate(116, 422)"><g id="tx_suitedfo_4hc1s71xp1ki3-fill" stroke="none" fill="#f4f4f4"><g><text style="font: 15px Roboto, sans-serif; white-space: pre;" font-size="15px" font-family="Roboto, sans-serif"><tspan x="17.63" y="28" dominant-baseline="ideographic">Suited for simple </tspan><tspan x="31.44" y="46" dominant-baseline="ideographic">applications.</tspan></text></g></g></g><g id="g-root-tx_bestforr_hu1ibr1xp1l39-fill" data-item-order="0" transform="translate(284, 422)"><g id="tx_bestforr_hu1ibr1xp1l39-fill" stroke="none" fill="#f4f4f4"><g><text style="font: 15px Roboto, sans-serif; white-space: pre;" font-size="15px" font-family="Roboto, sans-serif"><tspan x="35.44" y="28" dominant-baseline="ideographic">Best for reuse </tspan><tspan x="12.97" y="46" dominant-baseline="ideographic">across departments.</tspan></text></g></g></g><g id="g-root-tx_idealfor_mbqfpj1xp1jbb-fill" data-item-order="0" transform="translate(464, 422)"><g id="tx_idealfor_mbqfpj1xp1jbb-fill" stroke="none" fill="#f4f4f4"><g><text style="font: 15px Roboto, sans-serif; white-space: pre;" font-size="15px" font-family="Roboto, sans-serif"><tspan x="25.51" y="28" dominant-baseline="ideographic">Ideal for domain-</tspan><tspan x="17.13" y="46" dominant-baseline="ideographic">driven applications.</tspan></text></g></g></g><g id="g-root-tx_extendsp_qssw071xp1kp5-fill" data-item-order="0" transform="translate(644, 422)"><g id="tx_extendsp_qssw071xp1kp5-fill" stroke="none" fill="#f4f4f4"><g><text style="font: 15px Roboto, sans-serif; white-space: pre;" font-size="15px" font-family="Roboto, sans-serif"><tspan x="16.04" y="31" dominant-baseline="ideographic">Extends products </tspan><tspan x="37.87" y="49" dominant-baseline="ideographic">with plugin </tspan><tspan x="32.32" y="67" dominant-baseline="ideographic">architecture.</tspan></text></g></g></g><g id="g-root-tx_bestforr_vahtdz1xp1ix7-fill" data-item-order="0" transform="translate(812, 422)"><g id="tx_bestforr_vahtdz1xp1ix7-fill" stroke="none" fill="#f4f4f4"><g><text style="font: 15px Roboto, sans-serif; white-space: pre;" font-size="15px" font-family="Roboto, sans-serif"><tspan x="17.21" y="28" dominant-baseline="ideographic">Best for real-time </tspan><tspan x="16.29" y="46" dominant-baseline="ideographic">reactive systems.</tspan></text></g></g></g><g id="g-root-cp_1_lines-1_quo83r1xpcrnu-stroke" data-item-order="-482924" transform="translate(37.18975830078125, 229.34423828125)"><g id="cp_1_lines-1_quo83r1xpcrnu-stroke" fill="none" stroke-linecap="round" stroke-linejoin="round" stroke-miterlimit="4" stroke="#1ac3fb" stroke-width="2"><g><path d="M 70.810242 34.655762L 162.810242 34.655762C 165.019342 34.655762 166.810242 36.446662 166.810242 38.655762L 166.810242 126.655762C 166.810242 128.864862 165.019342 130.655762 162.810242 130.655762L 70.810242 130.655762L 70.810242 34.655762Z"></path></g></g><g id="cp_1_lines-1_quo83r1xpcrnu-stroke" fill="none" stroke-linecap="round" stroke-linejoin="round" stroke-miterlimit="4" stroke="#1ac3fb" stroke-width="2"><g><path d="M 71.810227 34.655724L 71.810227 12.003924C 71.810227 10.129424 69.463127 9.284824 68.268727 10.729624L 10.917027 80.107224C 9.694327 81.586224 9.694327 83.725224 10.917027 85.204324L 68.268727 154.581924C 69.463127 156.026724 71.810227 155.182124 71.810227 153.307624L 71.810227 130.655724"></path></g></g></g><g id="g-root-cp_2_lines-2_940op31xpcqv9-stroke" data-item-order="-482912" transform="translate(194, 254)"><g id="cp_2_lines-2_940op31xpcqv9-stroke" fill="none" stroke-linecap="round" stroke-linejoin="round" stroke-miterlimit="4" stroke="#43dd93" stroke-width="2"><g><path d="M 10 14C 10 11.7909 11.7909 10 14 10L 102 10C 104.2091 10 106 11.7909 106 14L 106 102C 106 104.2091 104.2091 106 102 106L 14 106C 11.7909 106 10 104.2091 10 102L 10 14Z"></path></g></g></g><g id="g-root-cp_3_lines-3_1ly181z1xpct1r-stroke" data-item-order="-482906" transform="translate(290, 254)"><g id="cp_3_lines-3_1ly181z1xpct1r-stroke" fill="none" stroke-linecap="round" stroke-linejoin="round" stroke-miterlimit="4" stroke="#a6da37" stroke-width="2"><g><path d="M 10 14C 10 11.7909 11.7909 10 14 10L 102 10C 104.2091 10 106 11.7909 106 14L 106 102C 106 104.2091 104.2091 106 102 106L 14 106C 11.7909 106 10 104.2091 10 102L 10 14Z"></path></g></g></g><g id="g-root-cp_4_lines-4_1d30ow71xpcrgh-stroke" data-item-order="-482900" transform="translate(386, 254)"><g id="cp_4_lines-4_1d30ow71xpcrgh-stroke" fill="none" stroke-linecap="round" stroke-linejoin="round" stroke-miterlimit="4" stroke="#ffe711" stroke-width="2"><g><path d="M 10 14C 10 11.7909 11.7909 10 14 10L 102 10C 104.2091 10 106 11.7909 106 14L 106 102C 106 104.2091 104.2091 106 102 106L 14 106C 11.7909 106 10 104.2091 10 102L 10 14Z"></path></g></g></g><g id="g-root-cp_5_lines-5_zrk6iv1xpct1f-stroke" data-item-order="-482894" transform="translate(482, 254)"><g id="cp_5_lines-5_zrk6iv1xpct1f-stroke" fill="none" stroke-linecap="round" stroke-linejoin="round" stroke-miterlimit="4" stroke="#f79438" stroke-width="2"><g><path d="M 10 14C 10 11.7909 11.7909 10 14 10L 102 10C 104.2091 10 106 11.7909 106 14L 106 102C 106 104.2091 104.2091 106 102 106L 14 106C 11.7909 106 10 104.2091 10 102L 10 14Z"></path></g></g></g><g id="g-root-cp_6_lines-6_mgq58n1xpcrgl-stroke" data-item-order="-482888" transform="translate(578, 254)"><g id="cp_6_lines-6_mgq58n1xpcrgl-stroke" fill="none" stroke-linecap="round" stroke-linejoin="round" stroke-miterlimit="4" stroke="#fb6762" stroke-width="2"><g><path d="M 10 14C 10 11.7909 11.7909 10 14 10L 102 10C 104.2091 10 106 11.7909 106 14L 106 102C 106 104.2091 104.2091 106 102 106L 14 106C 11.7909 106 10 104.2091 10 102L 10 14Z"></path></g></g></g><g id="g-root-cp_7_lines-7_959mvb1xpct1j-stroke" data-item-order="-482882" transform="translate(674, 254)"><g id="cp_7_lines-7_959mvb1xpct1j-stroke" fill="none" stroke-linecap="round" stroke-linejoin="round" stroke-miterlimit="4" stroke="#f366bb" stroke-width="2"><g><path d="M 10 14C 10 11.7909 11.7909 10 14 10L 102 10C 104.2091 10 106 11.7909 106 14L 106 102C 106 104.2091 104.2091 106 102 106L 14 106C 11.7909 106 10 104.2091 10 102L 10 14Z"></path></g></g></g><g id="g-root-cp_8_lines-8_1ulk26f1xpe5u1-stroke" data-item-order="-482876" transform="translate(770, 254)"><g id="cp_8_lines-8_1ulk26f1xpe5u1-stroke" fill="none" stroke-linecap="round" stroke-linejoin="round" stroke-miterlimit="4" stroke="#cb68f9" stroke-width="2"><g><path d="M 10 14C 10 11.7909 11.7909 10 14 10L 102 10C 104.2091 10 106 11.7909 106 14L 106 102C 106 104.2091 104.2091 106 102 106L 14 106C 11.7909 106 10 104.2091 10 102L 10 14Z"></path></g></g></g><g id="g-root-cp_9_lines-9_1ha3jt31xpe7ez-stroke" data-item-order="-482870" transform="translate(866, 229)"><g id="cp_9_lines-9_1ha3jt31xpe7ez-stroke" fill="none" stroke-linecap="round" stroke-linejoin="round" stroke-miterlimit="4" stroke="#8769fd" stroke-width="2"><g><path d="M 10 39C 10 36.7909 11.7909 35 14 35L 106 35L 106 131L 14 131C 11.7909 131 10 129.2091 10 127L 10 39Z"></path></g></g><g id="cp_9_lines-9_1ha3jt31xpe7ez-stroke" fill="none" stroke-linecap="round" stroke-linejoin="round" stroke-miterlimit="4" stroke="#8769fd" stroke-width="2"><g><path d="M 105 35L 105 12.004C 105 10.1295 107.3472 9.2849 108.5415 10.7297L 165.8932 80.1073C 167.1159 81.5863 167.1159 83.7253 165.8932 85.2044L 108.5415 154.582C 107.3471 156.0268 105 155.1822 105 153.3077L 105 131"></path></g></g></g><g id="g-root-tx_simple_1umt0cn1xpe807-stroke" data-item-order="0" transform="translate(80, 194)"></g><g id="g-root-tx_complex_4mbrbb1xpe6tk-stroke" data-item-order="0" transform="translate(914, 194)"></g><g id="g-root-tx_optimize_mczapz1xpe7m7-stroke" data-item-order="0" transform="translate(710, 158)"></g><g id="g-root-tx_suitedfo_59b0n1xpe5fp-stroke" data-item-order="0" transform="translate(542, 158)"></g><g id="g-root-tx_integrat_18i7e2v1xpe68b-stroke" data-item-order="0" transform="translate(374, 158)"></g><g id="g-root-tx_scalesfe_m9uxaf1xpe77l-stroke" data-item-order="0" transform="translate(206, 158)"></g><g id="g-root-tx_cqrs_18jgc931xpe8ee-stroke" data-item-order="0" transform="translate(752, 122)"></g><g id="g-root-tx_clean_hvwufb1xpe68c-stroke" data-item-order="0" transform="translate(584, 122)"></g><g id="g-root-tx_hexagona_1uooflz1xpe70i-stroke" data-item-order="0" transform="translate(392, 122)"></g><g id="g-root-tx_modular_1cw5gxz1xpe77k-stroke" data-item-order="0" transform="translate(236, 122)"></g><g id="g-root-tx_software_qnt05j1xpe7f2-stroke" data-item-order="0" transform="translate(158, 38)"></g><g id="g-root-ic_laye_1d159mv1xpe6mh-stroke" data-item-order="0" transform="translate(122, 278)"><g id="ic_laye_1d159mv1xpe6mh-stroke" fill="none" stroke-linecap="round" stroke-linejoin="round" stroke-miterlimit="4" stroke="#1ac3fb" stroke-width="2"><g><path d="M 34.419998 34.879997C 34.152996 35.000645 33.847004 35.000645 33.580002 34.879997L 11.64 25.34C 11.2493 25.171404 10.997291 24.785515 11 24.359999C 11.007405 23.937527 11.256151 23.556633 11.64 23.380001L 33.639999 13.86C 33.907005 13.739355 34.212997 13.739355 34.48 13.86L 56.48 23.380001C 56.86385 23.556633 57.112598 23.937527 57.120003 24.360001C 57.122707 24.785515 56.870697 25.171404 56.479996 25.34ZM 56.360001 31.76L 34.360001 41.299999C 34.092995 41.420647 33.787003 41.420647 33.52 41.299999L 11.52 31.76M 56.360001 38.200001L 34.360001 47.720001C 34.092995 47.840645 33.787003 47.840645 33.52 47.720001L 11.64 38.200001M 56.360001 44.619999L 34.360001 54.139999C 34.092995 54.260643 33.787003 54.260643 33.52 54.139999L 11.52 44.619999"></path></g></g></g><g id="g-root-ic_2_1q8uxhj1xpfl6q-stroke" data-item-order="0" transform="translate(218, 278)"><g id="ic_2_1q8uxhj1xpfl6q-stroke" fill="none" stroke-linecap="round" stroke-linejoin="round" stroke-miterlimit="4" stroke="#43dd93" stroke-width="2"><g><path d="M 10.946 10.946L 10.946 40.591999L 17.945999 32.914001L 17.945999 18.049999L 32.914001 18.049999L 40.591999 10.946L 10.946 10.946ZM 29.945999 30.049999L 37.945999 30.049999L 37.945999 38.035999L 29.945999 38.035999ZM 23.723999 38.138L 10.946 50.916L 10.946 57.049999L 17.08 57.049999L 29.858 44.271999M 44.169998 29.959999L 56.945999 17.181999L 56.945999 11.05L 50.813999 11.05L 38.035999 23.827999M 57.054001 57.054001L 27.408001 57.054001L 35.085999 50.054001L 49.950001 50.054001L 49.950001 35.085999L 57.054001 27.408001L 57.054001 57.054001Z"></path></g></g></g><g id="g-root-ic_5_18egjk71xpgzrf-stroke" data-item-order="0" transform="translate(314, 278)"><g id="ic_5_18egjk71xpgzrf-stroke" fill="none" stroke-linecap="round" stroke-linejoin="round" stroke-miterlimit="4" stroke="#a6da37" stroke-width="2"><g><path d="M 29.799999 23.692001L 27.142 25.218L 24.098 24.018L 20.546 26.056L 20.046 29.288L 17.388 30.813999L 11.282 20.181999C 10.724598 19.204746 11.062654 17.960735 12.038 17.4L 20.897999 12.312C 21.368889 12.038937 21.929245 11.964976 22.454853 12.106516C 22.980465 12.248055 23.427908 12.593401 23.698 13.066ZM 20.296 27.672001L 27.068001 39.466M 25.612 24.619999L 32.295998 36.260002M 48.577999 38.426003L 46.237999 36.444L 46.332001 33.174L 43.214001 30.532L 40 31.16L 37.66 29.177999L 45.599998 19.824001C 46.329727 18.963303 47.618881 18.856768 48.48 19.585999L 56.279999 26.186001C 56.693802 26.53614 56.951408 27.036442 56.996052 27.57666C 57.040695 28.11688 56.868713 28.652683 56.518002 29.066ZM 41.608002 30.846001L 36.246002 37.174M 46.285999 34.809998L 42.046001 39.812M 31.472 45.549999C 31.472 46.82909 32.508911 47.866001 33.788002 47.866001C 35.067093 47.866001 36.104 46.82909 36.104 45.549999C 36.104 44.270908 35.067093 43.234001 33.788002 43.234001C 32.508911 43.234001 31.472 44.270908 31.472 45.549999M 35.753998 36.599998L 36.436001 38.841999C 36.669144 39.614788 37.461288 40.074684 38.248001 39.893997L 40.52 39.365997C 41.404137 39.166527 42.315048 39.566597 42.766357 40.352604C 43.217667 41.138611 43.103981 42.126987 42.486 42.790001L 40.896 44.504002C 40.348335 45.097649 40.348335 46.012348 40.895996 46.605999L 42.486 48.321999C 43.103981 48.985012 43.217667 49.973392 42.766357 50.759399C 42.315048 51.545403 41.404137 51.945477 40.52 51.746002L 38.248001 51.217999C 37.461288 51.037312 36.669144 51.497211 36.435997 52.27L 35.753998 54.512001C 35.492943 55.38018 34.693581 55.974537 33.786999 55.974537C 32.880417 55.974537 32.081055 55.38018 31.819998 54.511997L 31.138 52.27C 30.90572 51.497494 30.114202 51.037453 29.327999 51.217999L 27.054001 51.745998C 26.169865 51.945477 25.258953 51.545403 24.807644 50.759399C 24.356333 49.973392 24.47002 48.985012 25.088001 48.322002L 26.688 46.605999C 27.237593 46.013107 27.237593 45.096893 26.688002 44.504002L 25.088001 42.790001C 24.47002 42.126987 24.356333 41.138611 24.807644 40.352604C 25.258953 39.566597 26.169865 39.166527 27.054001 39.366001L 29.327999 39.893997C 30.114202 40.074543 30.90572 39.614502 31.137999 38.841995L 31.82 36.599998C 32.081055 35.731819 32.880417 35.137459 33.786999 35.137459C 34.693581 35.137459 35.492943 35.731819 35.753998 36.599998ZM 18.757999 20.653999C 18.757999 21.078156 19.101845 21.422001 19.526001 21.422001C 19.950155 21.422001 20.294001 21.078156 20.294001 20.653999C 20.294001 20.229847 19.950155 19.886002 19.526001 19.886002C 19.101845 19.886002 18.757999 20.229847 18.757999 20.653999M 47.327999 27.993999C 47.328003 28.418156 47.671848 28.762001 48.096001 28.762001C 48.520157 28.762001 48.864002 28.418156 48.864002 27.994001C 48.864002 27.569845 48.520157 27.226 48.096001 27.226C 47.671848 27.226 47.328003 27.569845 47.328003 27.994001"></path></g></g></g><g id="g-root-ic_hone_18kpafb1xph1c4-stroke" data-item-order="0" transform="translate(410, 278)"><g id="ic_hone_18kpafb1xph1c4-stroke" fill="none" stroke-linecap="round" stroke-linejoin="round" stroke-miterlimit="4" stroke="#ffe711" stroke-width="2"><g><path d="M 12 37.799999C 11.99925 37.461166 12.17013 37.145004 12.454 36.959999L 22 30.76L 34 37.262001L 34 50.262001L 22.521999 56.481998C 22.199924 56.655674 21.808708 56.639565 21.501999 56.439999L 12.456 50.560001C 12.171962 50.375851 12.000367 50.060509 12 49.722ZM 34 37.262001L 46 30.76L 55.546001 36.959999C 55.829872 37.145004 56.000751 37.461166 56 37.799999L 56 49.716C 55.999634 50.054508 55.828037 50.36985 55.543999 50.554001L 46.498001 56.433998C 46.191292 56.633564 45.800076 56.649673 45.478001 56.476002L 34 50.264M 22 18.358C 21.999796 17.990692 22.200974 17.652838 22.524 17.478001L 33.524002 11.518C 33.820976 11.357261 34.179024 11.357261 34.475998 11.518L 45.476002 17.478001C 45.799026 17.652838 46.000202 17.990692 46 18.358L 46 30.757999L 34 37.257999L 22 30.757999Z"></path></g></g></g><g id="g-root-ic_onio_8xrxtz1xpig3x-stroke" data-item-order="0" transform="translate(506, 278)"><g id="ic_onio_8xrxtz1xpig3x-stroke" fill="none" stroke-linecap="round" stroke-linejoin="round" stroke-miterlimit="4" stroke="#f79438" stroke-width="2"><g><path d="M 28.358 11.88C 28.358 11.88 30.586 20.59 29.691999 20.956001C 19.646 25.066 11.144 29.030001 11.144 39.922001C 11.144 49.862 21.653999 56.922001 34 56.922001M 34 56.922001C 46.346001 56.922001 56.855999 49.862 56.855999 39.922001C 56.855999 29.030001 48.354 25.066 38.307999 20.956001C 37.414001 20.6 39.641998 11.88 39.641998 11.88M 38.307999 20.956001C 44.548 25.066 48.195999 29.030001 48.195999 39.922001C 48.195999 49.862 41.667999 56.922001 33.996002 56.922001C 26.323999 56.922001 19.796 49.862 19.796 39.922001C 19.796 29.030001 23.444 25.066 29.684 20.956001M 34 20.956001C 37.892731 26.488962 39.821838 33.165508 39.48 39.921997C 39.48 49.862 36.959999 56.922001 34 56.922001C 31.040001 56.922001 28.52 49.862 28.52 39.922001C 28.17816 33.165508 30.107269 26.488962 34 20.955999M 34 20.956001L 34 11.078"></path></g></g></g><g id="g-root-ic_stac_905jb1xpifbi-stroke" data-item-order="0" transform="translate(602, 278)"><g id="ic_stac_905jb1xpifbi-stroke" fill="none" stroke-linecap="round" stroke-linejoin="round" stroke-miterlimit="4" stroke="#fb6762" stroke-width="2"><g><path d="M 11 28L 57 28L 57 40L 11 40ZM 17 11C 13.686292 11 11 13.686292 11 17L 11 23L 57 23L 57 17C 57 13.686292 54.313709 11 51 11ZM 31.5 45L 11 45L 11 51C 11 54.313709 13.686292 57 17 57L 31.5 57ZM 36.5 45L 36.5 57L 51 57C 54.313709 57 57 54.313709 57 51L 57 45Z"></path></g></g></g><g id="g-root-ic_ning_dgptdz1xpjtvr-stroke" data-item-order="0" transform="translate(698, 278)"><g id="ic_ning_dgptdz1xpjtvr-stroke" fill="none" stroke-linecap="round" stroke-linejoin="round" stroke-miterlimit="4" stroke="#f366bb" stroke-width="2"><g><path d="M 36 22.624001C 36 23.728569 36.895432 24.624001 38 24.624001C 39.104568 24.624001 40 23.728569 40 22.624001C 40 21.51943 39.104568 20.624001 38 20.624001C 36.895432 20.624001 36 21.51943 36 22.624001ZM 27 22.624001C 27 23.728569 27.89543 24.624001 29 24.624001C 30.10457 24.624001 31 23.728569 31 22.624001C 31 21.51943 30.10457 20.624001 29 20.624001C 27.89543 20.624001 27 21.51943 27 22.624001ZM 41 13C 41 14.104569 41.895432 15 43 15C 44.104568 15 45 14.104569 45 13C 45 11.895431 44.104568 11 43 11C 41.895432 11 41 11.895431 41 13ZM 23 13C 23 14.104569 23.895432 15 25 15C 26.10457 15 27 14.104569 27 13C 27 11.895431 26.10457 11 25 11C 23.895432 11 23 11.895431 23 13ZM 41 55C 41 56.104568 41.895432 57 43 57C 44.104568 57 45 56.104568 45 55C 45 53.895432 44.104568 53 43 53C 41.895432 53 41 53.895432 41 55ZM 23 55C 23 56.104568 23.895432 57 25 57C 26.10457 57 27 56.104568 27 55C 27 53.895432 26.10457 53 25 53C 23.895432 53 23 53.895432 23 55ZM 53 43C 53 44.104568 53.895432 45 55 45C 56.104568 45 57 44.104568 57 43C 57 41.895432 56.104568 41 55 41C 53.895432 41 53 41.895432 53 43ZM 53 25C 53 26.10457 53.895432 27 55 27C 56.104568 27 57 26.10457 57 25C 57 23.895432 56.104568 23 55 23C 53.895432 23 53 23.895432 53 25ZM 11 43C 11 44.104568 11.895431 45 13 45C 14.104569 45 15 44.104568 15 43C 15 41.895432 14.104569 41 13 41C 11.895431 41 11 41.895432 11 43ZM 11 25C 11 26.10457 11.895431 27 13 27C 14.104569 27 15 26.10457 15 25C 15 23.895432 14.104569 23 13 23C 11.895431 23 11 23.895432 11 25ZM 36 44.624001C 36 45.728569 36.895432 46.624001 38 46.624001C 39.104568 46.624001 40 45.728569 40 44.624001C 40 43.519432 39.104568 42.624001 38 42.624001C 36.895432 42.624001 36 43.519432 36 44.624001ZM 27 44.624001C 27 45.728569 27.89543 46.624001 29 46.624001C 30.10457 46.624001 31 45.728569 31 44.624001C 31 43.519432 30.10457 42.624001 29 42.624001C 27.89543 42.624001 27 43.519432 27 44.624001ZM 42.5 38.124001C 42.5 39.228569 43.395432 40.124001 44.5 40.124001C 45.604568 40.124001 46.5 39.228569 46.5 38.124001C 46.5 37.019432 45.604568 36.124001 44.5 36.124001C 43.395432 36.124001 42.5 37.019432 42.5 38.124001ZM 42.5 29.124001C 42.5 30.228569 43.395432 31.124001 44.5 31.124001C 45.604568 31.124001 46.5 30.228569 46.5 29.124001C 46.5 28.01943 45.604568 27.124001 44.5 27.124001C 43.395432 27.124001 42.5 28.01943 42.5 29.124001ZM 20.5 38.124001C 20.5 39.228569 21.395432 40.124001 22.5 40.124001C 23.604568 40.124001 24.5 39.228569 24.5 38.124001C 24.5 37.019432 23.604568 36.124001 22.5 36.124001C 21.395432 36.124001 20.5 37.019432 20.5 38.124001ZM 20.5 29.124001C 20.5 30.228569 21.395432 31.124001 22.5 31.124001C 23.604568 31.124001 24.5 30.228569 24.5 29.124001C 24.5 28.01943 23.604568 27.124001 22.5 27.124001C 21.395432 27.124001 20.5 28.01943 20.5 29.124001Z"></path></g></g></g><g id="g-root-ic_1_hssgzr1xpl98o-stroke" data-item-order="0" transform="translate(794, 278)"><g id="ic_1_hssgzr1xpl98o-stroke" fill="none" stroke-linecap="round" stroke-linejoin="round" stroke-miterlimit="4" stroke="#cb68f9" stroke-width="2"><g><path d="M 49 34.972L 49 22.922001C 49 16.322197 43.649803 10.972 37.049999 10.972L 13 10.972C 11.895431 10.972 11 11.867431 11 12.972L 11 54.972C 11 56.076569 11.895431 56.972 13 56.972L 33 56.972M 39 11.132L 39 18.972C 39 20.076569 39.895432 20.972 41 20.972L 48.84 20.972M 45 49.972C 45 52.181141 43.209141 53.972 41 53.972C 38.790863 53.972 37 52.181141 37 49.972L 37 42.972C 37 40.762863 38.790863 38.972 41 38.972C 43.209141 38.972 45 40.762863 45 42.972ZM 45 56.972L 38.950001 53.408001M 49 38.972L 57 38.972M 53 38.972L 53 54.972"></path></g></g></g><g id="g-root-ic_1_9ibr1xpmmtl-stroke" data-item-order="0" transform="translate(890, 278)"><g id="ic_1_9ibr1xpmmtl-stroke" fill="none" stroke-linecap="round" stroke-linejoin="round" stroke-miterlimit="4" stroke="#8769fd" stroke-width="2"><g><path d="M 16.348 45.931999L 12 57M 18 57L 19.785999 47M 51.652 45.931999L 56 57M 50 57L 48.214001 47M 38.664001 34.732002L 45.880001 40.503998M 22.119999 40.503998L 29.334 34.732002M 18.622 39.035999L 17.66 28.938M 30.195999 48.223999L 22.614 44.686001M 45.383999 44.688L 37.804001 48.223999M 50.334 29L 49.377998 39.026001M 37.697998 16.524L 47.414001 20.524M 20.584 20.524L 30.304001 16.521999M 15 43C 15 45.209141 16.790861 47 19 47C 21.209139 47 23 45.209141 23 43C 23 40.790863 21.209139 39 19 39C 16.790861 39 15 40.790863 15 43ZM 30 15C 30 17.209139 31.790861 19 34 19C 36.209137 19 38 17.209139 38 15C 38 12.790861 36.209137 11 34 11C 31.790861 11 30 12.790861 30 15ZM 12 24C 12 26.761423 14.238577 29 17 29C 19.761425 29 22 26.761423 22 24C 22 21.238577 19.761425 19 17 19C 14.238577 19 12 21.238577 12 24ZM 45 43C 45 45.209141 46.790859 47 49 47C 51.209141 47 53 45.209141 53 43C 53 40.790863 51.209141 39 49 39C 46.790859 39 45 40.790863 45 43ZM 46 24C 46 26.761423 48.238575 29 51 29C 53.761425 29 56 26.761423 56 24C 56 21.238577 53.761425 19 51 19C 48.238575 19 46 21.238577 46 24ZM 28.43 28.771999L 19 25M 49 25L 39.566002 28.774M 34 19L 34 25M 36.214001 36.576L 39 57M 29 57L 31.785999 36.576M 28 31C 28 34.313709 30.686293 37 34 37C 37.313709 37 40 34.313709 40 31C 40 27.686293 37.313709 25 34 25C 30.686293 25 28 27.686293 28 31Z"></path></g></g></g><g id="g-root-tx_layered_v3mlfr1xp1ki2-stroke" data-item-order="0" transform="translate(140, 386)"></g><g id="g-root-tx_soa_1cw5k3r1xp1kb0-stroke" data-item-order="0" transform="translate(332, 386)"></g><g id="g-root-tx_onion_1hduhhj1xp1ij2-stroke" data-item-order="0" transform="translate(506, 386)"></g><g id="g-root-tx_microker_1qaqfwn1xp1jwg-stroke" data-item-order="0" transform="translate(650, 386)"></g><g id="g-root-tx_eventdri_1ursw7b1xp1laa-stroke" data-item-order="0" transform="translate(818, 386)"></g><g id="g-root-tx_suitedfo_4hc1s71xp1ki3-stroke" data-item-order="0" transform="translate(116, 422)"></g><g id="g-root-tx_bestforr_hu1ibr1xp1l39-stroke" data-item-order="0" transform="translate(284, 422)"></g><g id="g-root-tx_idealfor_mbqfpj1xp1jbb-stroke" data-item-order="0" transform="translate(464, 422)"></g><g id="g-root-tx_extendsp_qssw071xp1kp5-stroke" data-item-order="0" transform="translate(644, 422)"></g><g id="g-root-tx_bestforr_vahtdz1xp1ix7-stroke" data-item-order="0" transform="translate(812, 422)"></g></g></g><path id="wzqwqon1vhhekq" d="M65.283 12.757a.35.35 0 0 0 .584.157l5.203-5.141-6.183 3.523.396 1.461zm-2.216-11.7a.35.35 0 0 0-.522.305v3.111l3.276-1.868-2.754-1.548zm3.728 2.105l-4.25 2.421v2.445l6.391-3.644-2.141-1.222zm4.708 3.303a.35.35 0 0 0 0-.609l-1.592-.9-7.365 4.199v1.782a.35.35 0 0 0 .523.305l8.435-4.777z M44.542 2.513c0-.433.355-.783.792-.783s.792.35.792.783-.355.783-.792.783-.792-.35-.792-.783zm59.171 0c0-.433.355-.783.792-.783s.792.35.792.783-.355.783-.792.783-.792-.35-.792-.783zm-85.951 7.636h-1.27v-.487c-.276.201-.864.609-1.881.609-1.202 0-2.274-.794-2.137-2.078.118-1.106 1.153-1.584 1.848-1.727l2.17-.345c0-.539-.29-.956-1.064-1.006s-1.21.305-1.571 1.017l-1.124-.605c1.218-2.631 5.029-1.764 5.029.414v4.207zm-1.27-2.86c.006.396-.062 1.112-.819 1.59-.587.37-1.841.299-1.903-.395-.049-.555.461-.791.906-.898l1.816-.297zm72.662 2.86h-1.27v-.487c-.276.201-.864.609-1.881.609-1.202 0-2.274-.794-2.137-2.078.118-1.106 1.153-1.584 1.848-1.727l2.17-.345c0-.539-.29-.956-1.064-1.006s-1.21.305-1.571 1.017l-1.124-.605c1.218-2.631 5.029-1.764 5.029.414v4.207zm-1.27-2.86c.006.396-.062 1.112-.82 1.59-.587.37-1.841.299-1.903-.395-.049-.555.461-.791.906-.898l1.816-.297zM99.096 10.149H97.85v-8.45h1.246v4.895l2.68-2.559h1.738l-2.633 2.535 2.715 3.578h-1.556l-2.077-2.707-.867.844v1.863zm6.053-6.114h-1.255v6.113h1.255V4.035zm-59.2 0h-1.255v6.113h1.255V4.035zm5.584 6.113V1.697h1.255v2.695c.361-.346 1-.485 1.47-.485 1.452 0 2.477 1.082 2.457 2.448v3.792h-1.27v-3.68c0-.408-.214-1.339-1.315-1.339-.968 0-1.342.756-1.342 1.339v3.681h-1.255zm-4.76-4.894V4.039h.621a.45.45 0 0 0 .45-.45v-.855h1.251v1.305h1.309v1.215h-1.309v3.109c0 .293.105.664.648.664.365 0 .531-.035.736-.07v1.137s-.361.113-.857.113c-1.398 0-1.777-1.051-1.777-1.788V5.254h-1.071zM36.528 4.039h-1.394l2.191 6.106h1.125l1.234-3.918 1.238 3.918h1.129l2.188-6.106h-1.383l-1.359 3.93-1.256-3.93h-1.124l-1.242 3.957-1.348-3.957zM26.212 7.141c-.02 1.566 1.187 3.129 3.223 3.129 1.566 0 2.383-.918 2.734-1.719L31.172 8c-.315.399-.801 1.094-1.738 1.094-1.145 0-1.825-.781-1.891-1.52h4.625c.074-.284.148-.995-.03-1.559-.336-1.064-1.221-2.102-2.839-2.102s-3.088 1.152-3.088 3.227zm1.363-.75h3.348c-.055-.43-.566-1.301-1.623-1.301a1.79 1.79 0 0 0-1.725 1.301zm-8.758.75c.038 1.758 1.277 3.133 3.145 3.133 1.074 0 1.723-.477 1.961-.672v.547h1.242V1.703h-1.258v2.888c-.414-.36-1.062-.68-1.93-.68-1.91 0-3.198 1.473-3.16 3.23zm1.309-.08c0 1.119.723 1.978 1.836 1.978a1.88 1.88 0 0 0 1.94-1.904c0-1.371-1.011-1.99-1.972-1.99s-1.805.798-1.805 1.916zm76.683-.028C96.771 5.275 95.532 3.9 93.664 3.9c-1.074 0-1.723.477-1.961.672v-.547h-1.242v8.22h1.258V9.583c.414.36 1.063.68 1.93.68 1.91 0 3.198-1.473 3.16-3.23zm-1.309.08c0-1.119-.723-1.978-1.836-1.978a1.88 1.88 0 0 0-1.94 1.904c0 1.371 1.011 1.99 1.972 1.99S95.5 8.231 95.5 7.113zM106.441 10.173V4.036h1.254v.382c.361-.346 1-.485 1.47-.485 1.452 0 2.477 1.082 2.457 2.448v3.792h-1.27V6.492c0-.408-.214-1.339-1.315-1.339-.969 0-1.342.756-1.342 1.339v3.681h-1.254zm-30.383-.021V1.824h1.084l4.215 5.777V1.824h1.32v8.328h-1.094l-4.207-5.796v5.796h-1.319zM5.24 10.149H4V2.377h1.014l2.664 3.597 2.654-3.592h1.03v7.766h-1.256V4.762L7.678 8.068 5.24 4.742v5.407z" transform="translate(944, 530)" fill="#ababab88" stroke="none"></path></svg>