<?xml version="1.0" encoding="utf-8" standalone="yes"?>
<!DOCTYPE svg PUBLIC "-//W3C//DTD SVG 1.1//EN" "http://www.w3.org/Graphics/SVG/1.1/DTD/svg11.dtd">
<svg width="778" height="628" viewBox="0 0 778 628" style="fill:none;stroke:none;fill-rule:evenodd;clip-rule:evenodd;stroke-linecap:round;stroke-linejoin:round;stroke-miterlimit:1.5;" version="1.1" xmlns="http://www.w3.org/2000/svg" xmlns:xlink="http://www.w3.org/1999/xlink"><style class="text-font-style fontImports" data-font-family="Roboto">@import url('https://fonts.googleapis.com/css2?family=Roboto:wght@400;700&amp;display=block');</style><g id="items" style="isolation: isolate"><g id="blend" style="mix-blend-mode: normal"><g id="g-root-cp_0_g-0_hye4tf1yjikug-fill" data-item-order="-388350" transform="translate(146, 145.95001220703125)"><g id="cp_0_g-0_hye4tf1yjikug-fill" stroke="none" fill="#545454"><g><path d="M 224.9 49.32L 207.01 65.32L 183.21 59.44L 177.03 64.96L 200.83 70.84L 182.95 86.84L 159.15 80.96L 33.7947 192.8277C 33.9295 193.5478 34 194.2906 34 195.0498C 34 201.6772 28.6274 207.0498 22 207.0498C 15.3726 207.0498 10 201.6772 10 195.0498C 10 188.4224 15.3726 183.0498 22 183.0498C 23.3911 183.0498 24.7269 183.2865 25.9693 183.7218L 151.01 72.14L 147.77 47.52L 165.66 31.52L 168.9 56.14L 175.08 50.61L 171.83 26L 189.72 10L 193.89 41.66L 224.9 49.32Z"></path></g></g><g id="cp_0_g-0_hye4tf1yjikug-fill" stroke="none" fill="#545454"><g><path d="M 308.109922 230.717871C 304.839922 256.887871 297.999922 282.427871 287.799922 306.637871C 287.579922 306.497871 287.349922 306.357871 287.119922 306.227871C 285.589922 305.347871 284.019922 304.587871 282.429922 303.957871C 292.279922 280.467871 298.899922 255.717871 302.099922 230.347871C 303.809922 230.597871 305.569922 230.727871 307.349922 230.727871C 307.599922 230.727871 307.859922 230.727871 308.109922 230.717871ZM 308.109922 158.737871C 307.859922 158.727871 307.599922 158.727871 307.349922 158.727871C 305.569922 158.727871 303.819922 158.857871 302.109922 159.107871C 298.899922 133.757871 292.269922 108.987871 282.419922 85.497871C 284.019922 84.867871 285.589922 84.107871 287.119922 83.227871C 287.349922 83.097871 287.579922 82.957871 287.799922 82.817871C 297.999922 107.027871 304.829922 132.577871 308.109922 158.737871Z"></path></g></g></g><g id="g-root-cp_1_g-1_7qler1yjik1v-fill" data-item-order="-388344" transform="translate(110, 151.99993896484375)"><g id="cp_1_g-1_7qler1yjik1v-fill" stroke="none" fill="#3e4e69"><g><path d="M 106 189.279785C 106 215.789785 84.51 237.279785 58 237.279785C 31.49 237.279785 10 215.789785 10 189.279785C 10 162.769785 31.49 141.279785 58 141.279785C 67.86 141.279785 77.03 144.249785 84.65 149.349785L 65.49 166.479785C 63.13 165.699785 60.62 165.279785 58 165.279785C 44.75 165.279785 34 176.029785 34 189.279785C 34 202.529785 44.75 213.279785 58 213.279785C 71.25 213.279785 82 202.529785 82 189.279785C 82 187.599785 81.83 185.949785 81.49 184.369785L 100.65 167.229785C 104.07 173.829785 106 181.329785 106 189.279785Z"></path></g></g><g id="cp_1_g-1_7qler1yjik1v-fill" stroke="none" fill="#3e4e69"><g><path d="M 323.799916 76.7681C 323.579916 76.9081 323.349916 77.0481 323.119916 77.1781C 321.589916 78.0581 320.019916 78.8181 318.419916 79.4481C 302.079916 85.9781 282.999916 79.6881 273.939916 64.0081C 263.999916 46.7881 269.899916 24.7681 287.119916 14.8281C 304.339916 4.8881 326.359916 10.7881 336.299916 28.0081C 346.109916 44.9881 340.489916 66.6481 323.799916 76.7681Z"></path></g></g></g><g id="g-root-cp_2_g-2_1lxe50j1yjilfq-fill" data-item-order="-388338" transform="translate(74, 247.27996826171875)"><g id="cp_2_g-2_1lxe50j1yjilfq-fill" stroke="none" fill="#3b5649"><g><path d="M 163.97 47.51L 145.82 63.74C 151.02 72.62 154 82.96 154 94C 154 127.14 127.14 154 94 154C 60.86 154 34 127.14 34 94C 34 60.86 60.86 34 94 34C 107.43 34 119.82 38.41 129.82 45.86L 147.97 29.63C 133.37 17.37 114.55 10 94 10C 47.61 10 10 47.61 10 94C 10 140.39 47.61 178 94 178C 140.39 178 178 140.39 178 94C 178 76.81 172.84 60.82 163.97 47.51Z"></path></g></g><g id="cp_2_g-2_1lxe50j1yjilfq-fill" stroke="none" fill="#3b5649"><g><path d="M 415.350098 93.398438C 415.350098 113.028438 399.640098 128.988438 380.110098 129.388438C 379.860098 129.398438 379.600098 129.398438 379.350098 129.398438C 377.570098 129.398438 375.810098 129.268438 374.100098 129.018438C 356.710098 126.478438 343.350098 111.498438 343.350098 93.398438C 343.350098 75.298438 356.710098 60.318438 374.110098 57.778438C 375.820098 57.528438 377.570098 57.398438 379.350098 57.398438C 379.600098 57.398438 379.860098 57.398438 380.110098 57.408438C 399.640098 57.808438 415.350098 73.768438 415.350098 93.398438Z"></path></g></g></g><g id="g-root-cp_3_g-3_18mk3qb1yjijux-fill" data-item-order="-388332" transform="translate(38, 211.27996826171875)"><g id="cp_3_g-3_18mk3qb1yjijux-fill" stroke="none" fill="#4b533a"><g><path d="M 226.99 59.34L 208.99 75.44C 219.72 90.93 226 109.73 226 130C 226 183.02 183.02 226 130 226C 76.98 226 34 183.02 34 130C 34 76.98 76.98 34 130 34C 154.11 34 176.14 42.88 192.99 57.56L 210.99 41.46C 189.65 21.92 161.22 10 130 10C 63.73 10 10 63.73 10 130C 10 196.27 63.73 250 130 250C 196.27 250 250 196.27 250 130C 250 103.58 241.46 79.16 226.99 59.34Z"></path></g></g><g id="cp_3_g-3_18mk3qb1yjijux-fill" stroke="none" fill="#4b533a"><g><path d="M 408.299916 290.06813C 398.359916 307.28813 376.339916 313.18813 359.119916 303.24813C 341.899916 293.30813 335.999916 271.28813 345.939916 254.06813C 354.999916 238.38813 374.079916 232.09813 390.429916 238.62813C 392.019916 239.25813 393.589916 240.01813 395.119916 240.89813C 395.349916 241.02813 395.579916 241.16813 395.799916 241.30813C 412.489916 251.42813 418.109916 273.08813 408.299916 290.06813Z"></path></g></g></g><g id="g-root-tx_microker_qva38j1yjim84-fill" data-item-order="0" transform="translate(235, 38)"><g id="tx_microker_qva38j1yjim84-fill" stroke="none" fill="#f4f4f4"><g><text style="font: bold 25px Roboto, sans-serif; white-space: pre;" font-weight="bold" font-size="25px" font-family="Roboto, sans-serif"><tspan x="14.11" y="42" dominant-baseline="ideographic">Microkernel Architecture</tspan></text></g></g></g><g id="g-root-tx_coresyst_8zjkz1yjim85-fill" data-item-order="0" transform="translate(465, 145.99993896484375)"><g id="tx_coresyst_8zjkz1yjim85-fill" stroke="none" fill="#4f91fc"><g><text style="font: bold 20px Roboto, sans-serif; white-space: pre;" font-weight="bold" font-size="20px" font-family="Roboto, sans-serif"><tspan x="12" y="34" dominant-baseline="ideographic">Core System</tspan></text></g></g></g><g id="g-root-ic_pent_1hi774z1yj4kcq-fill" data-item-order="0" transform="translate(382, 163.99993896484375)"></g><g id="g-root-tx_essentia_18nt1wj1yjim12-fill" data-item-order="0" transform="translate(465, 181.99993896484375)"><g id="tx_essentia_18nt1wj1yjim12-fill" stroke="none" fill="#f4f4f4"><g><text style="font: 15px Roboto, sans-serif; white-space: pre;" font-size="15px" font-family="Roboto, sans-serif"><tspan x="12" y="28" dominant-baseline="ideographic">Essential functionalities like </tspan><tspan x="12" y="46" dominant-baseline="ideographic">process scheduling</tspan></text></g></g></g><g id="g-root-ic_1_qpnwmb1yj1s00-fill" data-item-order="0" transform="translate(420, 306.99993896484375)"></g><g id="g-root-tx_external_m7cezn1yjjztb-fill" data-item-order="0" transform="translate(503, 300.99993896484375)"><g id="tx_external_m7cezn1yjjztb-fill" stroke="none" fill="#43dd93"><g><text style="font: bold 20px Roboto, sans-serif; white-space: pre;" font-weight="bold" font-size="20px" font-family="Roboto, sans-serif"><tspan x="12" y="34" dominant-baseline="ideographic">External Modules</tspan></text></g></g></g><g id="g-root-tx_addition_dbpeqr1yjk1ds-fill" data-item-order="0" transform="translate(503, 336.99993896484375)"><g id="tx_addition_dbpeqr1yjk1ds-fill" stroke="none" fill="#f4f4f4"><g><text style="font: 15px Roboto, sans-serif; white-space: pre;" font-size="15px" font-family="Roboto, sans-serif"><tspan x="12" y="28" dominant-baseline="ideographic">Additional features like file </tspan><tspan x="12" y="46" dominant-baseline="ideographic">systems</tspan></text></g></g></g><g id="g-root-ic_grow_8xrbvn1yjk0ej-fill" data-item-order="0" transform="translate(381, 448.99993896484375)"></g><g id="g-root-tx_extensib_1lqix2b1yjk16p-fill" data-item-order="0" transform="translate(465, 455.99993896484375)"><g id="tx_extensib_1lqix2b1yjk16p-fill" stroke="none" fill="#a6da37"><g><text style="font: bold 20px Roboto, sans-serif; white-space: pre;" font-weight="bold" font-size="20px" font-family="Roboto, sans-serif"><tspan x="12" y="34" dominant-baseline="ideographic">Extensibility</tspan></text></g></g></g><g id="g-root-tx_abilityt_v48der1yjk16q-fill" data-item-order="0" transform="translate(465, 491.99993896484375)"><g id="tx_abilityt_v48der1yjk16q-fill" stroke="none" fill="#f4f4f4"><g><text style="font: 15px Roboto, sans-serif; white-space: pre;" font-size="15px" font-family="Roboto, sans-serif"><tspan x="12" y="31" dominant-baseline="ideographic">Ability to add new features</tspan></text></g></g></g><g id="g-root-cp_0_g-0_hye4tf1yjikug-stroke" data-item-order="-388350" transform="translate(146, 145.95001220703125)"><g id="cp_0_g-0_hye4tf1yjikug-stroke" fill="none" stroke-linecap="round" stroke-linejoin="round" stroke-miterlimit="4" stroke="#b7b7b7" stroke-width="2"><g><path d="M 224.9 49.32L 207.01 65.32L 183.21 59.44L 177.03 64.96L 200.83 70.84L 182.95 86.84L 159.15 80.96L 33.7947 192.8277C 33.9295 193.5478 34 194.2906 34 195.0498C 34 201.6772 28.6274 207.0498 22 207.0498C 15.3726 207.0498 10 201.6772 10 195.0498C 10 188.4224 15.3726 183.0498 22 183.0498C 23.3911 183.0498 24.7269 183.2865 25.9693 183.7218L 151.01 72.14L 147.77 47.52L 165.66 31.52L 168.9 56.14L 175.08 50.61L 171.83 26L 189.72 10L 193.89 41.66L 224.9 49.32Z"></path></g></g><g id="cp_0_g-0_hye4tf1yjikug-stroke" fill="none" stroke-linecap="round" stroke-linejoin="round" stroke-miterlimit="4" stroke="#b7b7b7" stroke-width="2"><g><path d="M 308.109922 230.717871C 304.839922 256.887871 297.999922 282.427871 287.799922 306.637871C 287.579922 306.497871 287.349922 306.357871 287.119922 306.227871C 285.589922 305.347871 284.019922 304.587871 282.429922 303.957871C 292.279922 280.467871 298.899922 255.717871 302.099922 230.347871C 303.809922 230.597871 305.569922 230.727871 307.349922 230.727871C 307.599922 230.727871 307.859922 230.727871 308.109922 230.717871ZM 308.109922 158.737871C 307.859922 158.727871 307.599922 158.727871 307.349922 158.727871C 305.569922 158.727871 303.819922 158.857871 302.109922 159.107871C 298.899922 133.757871 292.269922 108.987871 282.419922 85.497871C 284.019922 84.867871 285.589922 84.107871 287.119922 83.227871C 287.349922 83.097871 287.579922 82.957871 287.799922 82.817871C 297.999922 107.027871 304.829922 132.577871 308.109922 158.737871Z"></path></g></g></g><g id="g-root-cp_1_g-1_7qler1yjik1v-stroke" data-item-order="-388344" transform="translate(110, 151.99993896484375)"><g id="cp_1_g-1_7qler1yjik1v-stroke" fill="none" stroke-linecap="round" stroke-linejoin="round" stroke-miterlimit="4" stroke="#4f91fc" stroke-width="2"><g><path d="M 106 189.279785C 106 215.789785 84.51 237.279785 58 237.279785C 31.49 237.279785 10 215.789785 10 189.279785C 10 162.769785 31.49 141.279785 58 141.279785C 67.86 141.279785 77.03 144.249785 84.65 149.349785L 65.49 166.479785C 63.13 165.699785 60.62 165.279785 58 165.279785C 44.75 165.279785 34 176.029785 34 189.279785C 34 202.529785 44.75 213.279785 58 213.279785C 71.25 213.279785 82 202.529785 82 189.279785C 82 187.599785 81.83 185.949785 81.49 184.369785L 100.65 167.229785C 104.07 173.829785 106 181.329785 106 189.279785Z"></path></g></g><g id="cp_1_g-1_7qler1yjik1v-stroke" fill="none" stroke-linecap="round" stroke-linejoin="round" stroke-miterlimit="4" stroke="#4f91fc" stroke-width="2"><g><path d="M 323.799916 76.7681C 323.579916 76.9081 323.349916 77.0481 323.119916 77.1781C 321.589916 78.0581 320.019916 78.8181 318.419916 79.4481C 302.079916 85.9781 282.999916 79.6881 273.939916 64.0081C 263.999916 46.7881 269.899916 24.7681 287.119916 14.8281C 304.339916 4.8881 326.359916 10.7881 336.299916 28.0081C 346.109916 44.9881 340.489916 66.6481 323.799916 76.7681Z"></path></g></g></g><g id="g-root-cp_2_g-2_1lxe50j1yjilfq-stroke" data-item-order="-388338" transform="translate(74, 247.27996826171875)"><g id="cp_2_g-2_1lxe50j1yjilfq-stroke" fill="none" stroke-linecap="round" stroke-linejoin="round" stroke-miterlimit="4" stroke="#43dd93" stroke-width="2"><g><path d="M 163.97 47.51L 145.82 63.74C 151.02 72.62 154 82.96 154 94C 154 127.14 127.14 154 94 154C 60.86 154 34 127.14 34 94C 34 60.86 60.86 34 94 34C 107.43 34 119.82 38.41 129.82 45.86L 147.97 29.63C 133.37 17.37 114.55 10 94 10C 47.61 10 10 47.61 10 94C 10 140.39 47.61 178 94 178C 140.39 178 178 140.39 178 94C 178 76.81 172.84 60.82 163.97 47.51Z"></path></g></g><g id="cp_2_g-2_1lxe50j1yjilfq-stroke" fill="none" stroke-linecap="round" stroke-linejoin="round" stroke-miterlimit="4" stroke="#43dd93" stroke-width="2"><g><path d="M 415.350098 93.398438C 415.350098 113.028438 399.640098 128.988438 380.110098 129.388438C 379.860098 129.398438 379.600098 129.398438 379.350098 129.398438C 377.570098 129.398438 375.810098 129.268438 374.100098 129.018438C 356.710098 126.478438 343.350098 111.498438 343.350098 93.398438C 343.350098 75.298438 356.710098 60.318438 374.110098 57.778438C 375.820098 57.528438 377.570098 57.398438 379.350098 57.398438C 379.600098 57.398438 379.860098 57.398438 380.110098 57.408438C 399.640098 57.808438 415.350098 73.768438 415.350098 93.398438Z"></path></g></g></g><g id="g-root-cp_3_g-3_18mk3qb1yjijux-stroke" data-item-order="-388332" transform="translate(38, 211.27996826171875)"><g id="cp_3_g-3_18mk3qb1yjijux-stroke" fill="none" stroke-linecap="round" stroke-linejoin="round" stroke-miterlimit="4" stroke="#a6da37" stroke-width="2"><g><path d="M 226.99 59.34L 208.99 75.44C 219.72 90.93 226 109.73 226 130C 226 183.02 183.02 226 130 226C 76.98 226 34 183.02 34 130C 34 76.98 76.98 34 130 34C 154.11 34 176.14 42.88 192.99 57.56L 210.99 41.46C 189.65 21.92 161.22 10 130 10C 63.73 10 10 63.73 10 130C 10 196.27 63.73 250 130 250C 196.27 250 250 196.27 250 130C 250 103.58 241.46 79.16 226.99 59.34Z"></path></g></g><g id="cp_3_g-3_18mk3qb1yjijux-stroke" fill="none" stroke-linecap="round" stroke-linejoin="round" stroke-miterlimit="4" stroke="#a6da37" stroke-width="2"><g><path d="M 408.299916 290.06813C 398.359916 307.28813 376.339916 313.18813 359.119916 303.24813C 341.899916 293.30813 335.999916 271.28813 345.939916 254.06813C 354.999916 238.38813 374.079916 232.09813 390.429916 238.62813C 392.019916 239.25813 393.589916 240.01813 395.119916 240.89813C 395.349916 241.02813 395.579916 241.16813 395.799916 241.30813C 412.489916 251.42813 418.109916 273.08813 408.299916 290.06813Z"></path></g></g></g><g id="g-root-tx_microker_qva38j1yjim84-stroke" data-item-order="0" transform="translate(235, 38)"></g><g id="g-root-tx_coresyst_8zjkz1yjim85-stroke" data-item-order="0" transform="translate(465, 145.99993896484375)"></g><g id="g-root-ic_pent_1hi774z1yj4kcq-stroke" data-item-order="0" transform="translate(382, 163.99993896484375)"><g id="ic_pent_1hi774z1yj4kcq-stroke" fill="none" stroke-linecap="round" stroke-linejoin="round" stroke-miterlimit="4" stroke="#4f91fc" stroke-width="2"><g><path d="M 32.820602 13.01816C 33.5214 12.50888 34.4706 12.50888 35.1716 13.01816L 55.649601 27.896259C 56.350601 28.40554 56.643799 29.308281 56.376202 30.132401L 48.554199 54.205601C 48.286598 55.029598 47.5186 55.587601 46.652199 55.587601L 21.34004 55.587601C 20.473579 55.587601 19.705681 55.029598 19.43792 54.205601L 11.61605 30.132401C 11.348302 29.308281 11.641618 28.40554 12.3426 27.896259L 32.820602 13.01816ZM 43.404598 38.497002C 42.996201 40.154999 42.1446 41.725998 40.849197 43.0214C 37.0662 46.804199 30.933001 46.804199 27.150221 43.0214C 23.36738 39.2384 23.36738 33.105202 27.150221 29.322439C 30.933001 25.539581 37.0662 25.539581 40.849197 29.322439L 42.813202 31.2864M 37.3204 31.296801L 42.8214 31.296801L 42.8214 25.795761"></path></g></g></g><g id="g-root-tx_essentia_18nt1wj1yjim12-stroke" data-item-order="0" transform="translate(465, 181.99993896484375)"></g><g id="g-root-ic_1_qpnwmb1yj1s00-stroke" data-item-order="0" transform="translate(420, 306.99993896484375)"><g id="ic_1_qpnwmb1yj1s00-stroke" fill="none" stroke-linecap="round" stroke-linejoin="round" stroke-miterlimit="4" stroke="#43dd93" stroke-width="2"><g><path d="M 13 11.008L 55 11.008C 55 11.008 57 11.008 57 13.007999L 57 55.007999C 57 55.007999 57 57.007999 55 57.007999L 13 57.007999C 13 57.007999 11 57.007999 11 55.007999L 11 13.007999C 11 13.007999 11 11.008 13 11.008M 51 49L 46 49C 44.343147 49 43 47.656857 43 46L 43 36C 43 34.343147 44.343147 33 46 33L 51 33M 43 41.007999L 48 41.007999M 27 49L 22 49C 20.343147 49 19 47.656857 19 46L 19 36C 19 34.343147 20.343147 33 22 33L 27 33M 19 41.007999L 24 41.007999M 31 49.007999L 39 33.007999M 39 49.007999L 31 33.007999"></path></g></g></g><g id="g-root-tx_external_m7cezn1yjjztb-stroke" data-item-order="0" transform="translate(503, 300.99993896484375)"></g><g id="g-root-tx_addition_dbpeqr1yjk1ds-stroke" data-item-order="0" transform="translate(503, 336.99993896484375)"></g><g id="g-root-ic_grow_8xrbvn1yjk0ej-stroke" data-item-order="0" transform="translate(381, 448.99993896484375)"><g id="ic_grow_8xrbvn1yjk0ej-stroke" fill="none" stroke-linecap="round" stroke-linejoin="round" stroke-miterlimit="4" stroke="#a6da37" stroke-width="2"><g><path d="M 36.982002 11C 36.456001 24.896 25.024 35 11 35M 33 15L 37 11L 41 15M 55.498001 15.903999C 55.822468 15.754614 56.201977 15.789643 56.493618 15.995895C 56.785259 16.202148 56.944736 16.5483 56.911999 16.903999C 56.598 20.74 55.147999 29.556 48.490002 29.556C 45.278793 29.496838 42.706539 26.876755 42.706539 23.665001C 42.706539 20.453247 45.278793 17.833164 48.490002 17.774C 50.927624 17.626041 53.310722 16.990141 55.498001 15.904ZM 50.953999 22.346001C 47.625534 23.639034 45.037548 26.335342 43.882 29.713999C 43.627464 30.449209 43.498329 31.221977 43.5 32L 43.5 57M 11 57L 57 57M 11.5 52C 11.5 52 15.5 52 15.5 57C 15.5 57 15.5 52 19.5 52M 29.5 53C 30.094276 51.276028 31.678587 50.087791 33.5 50M 28.5 43.928001C 29.671583 45.099457 29.67186 46.998817 28.500614 48.170612C 27.329369 49.342411 25.43001 49.343033 24.257999 48.172001C 23.229681 46.54351 22.459251 44.765858 21.974001 42.902C 21.860743 42.545803 21.955584 42.156174 22.219879 41.89188C 22.484177 41.627583 22.873802 41.532742 23.23 41.646C 25.093418 42.131569 26.870924 42.90126 28.500002 43.928001ZM 28.4 48.273998C 29.11972 49.383286 29.501858 50.677689 29.5 52L 29.5 57M 28.474001 34.466C 28.124281 34.520157 27.829229 34.755116 27.698153 35.083832C 27.567076 35.412552 27.619499 35.786064 27.836 36.066002C 29.836 38.615997 34.414001 43.466 38.739998 40.697998C 40.935352 39.299297 41.580902 36.38559 40.18177 34.19051C 38.782642 31.99543 35.868813 31.350447 33.674004 32.75C 32.069607 33.656647 30.302896 34.239662 28.474001 34.466003ZM 34.32 36.692001C 37.121758 36.133961 40.027008 36.840149 42.259998 38.622002C 42.74725 39.00901 43.166359 39.474762 43.5 40"></path></g></g></g><g id="g-root-tx_extensib_1lqix2b1yjk16p-stroke" data-item-order="0" transform="translate(465, 455.99993896484375)"></g><g id="g-root-tx_abilityt_v48der1yjk16q-stroke" data-item-order="0" transform="translate(465, 491.99993896484375)"></g></g></g><path id="w4m4pg1x5asjv" d="M65.283 12.757a.35.35 0 0 0 .584.157l5.203-5.141-6.183 3.523.396 1.461zm-2.216-11.7a.35.35 0 0 0-.522.305v3.111l3.276-1.868-2.754-1.548zm3.728 2.105l-4.25 2.421v2.445l6.391-3.644-2.141-1.222zm4.708 3.303a.35.35 0 0 0 0-.609l-1.592-.9-7.365 4.199v1.782a.35.35 0 0 0 .523.305l8.435-4.777z M44.542 2.513c0-.433.355-.783.792-.783s.792.35.792.783-.355.783-.792.783-.792-.35-.792-.783zm59.171 0c0-.433.355-.783.792-.783s.792.35.792.783-.355.783-.792.783-.792-.35-.792-.783zm-85.951 7.636h-1.27v-.487c-.276.201-.864.609-1.881.609-1.202 0-2.274-.794-2.137-2.078.118-1.106 1.153-1.584 1.848-1.727l2.17-.345c0-.539-.29-.956-1.064-1.006s-1.21.305-1.571 1.017l-1.124-.605c1.218-2.631 5.029-1.764 5.029.414v4.207zm-1.27-2.86c.006.396-.062 1.112-.819 1.59-.587.37-1.841.299-1.903-.395-.049-.555.461-.791.906-.898l1.816-.297zm72.662 2.86h-1.27v-.487c-.276.201-.864.609-1.881.609-1.202 0-2.274-.794-2.137-2.078.118-1.106 1.153-1.584 1.848-1.727l2.17-.345c0-.539-.29-.956-1.064-1.006s-1.21.305-1.571 1.017l-1.124-.605c1.218-2.631 5.029-1.764 5.029.414v4.207zm-1.27-2.86c.006.396-.062 1.112-.82 1.59-.587.37-1.841.299-1.903-.395-.049-.555.461-.791.906-.898l1.816-.297zM99.096 10.149H97.85v-8.45h1.246v4.895l2.68-2.559h1.738l-2.633 2.535 2.715 3.578h-1.556l-2.077-2.707-.867.844v1.863zm6.053-6.114h-1.255v6.113h1.255V4.035zm-59.2 0h-1.255v6.113h1.255V4.035zm5.584 6.113V1.697h1.255v2.695c.361-.346 1-.485 1.47-.485 1.452 0 2.477 1.082 2.457 2.448v3.792h-1.27v-3.68c0-.408-.214-1.339-1.315-1.339-.968 0-1.342.756-1.342 1.339v3.681h-1.255zm-4.76-4.894V4.039h.621a.45.45 0 0 0 .45-.45v-.855h1.251v1.305h1.309v1.215h-1.309v3.109c0 .293.105.664.648.664.365 0 .531-.035.736-.07v1.137s-.361.113-.857.113c-1.398 0-1.777-1.051-1.777-1.788V5.254h-1.071zM36.528 4.039h-1.394l2.191 6.106h1.125l1.234-3.918 1.238 3.918h1.129l2.188-6.106h-1.383l-1.359 3.93-1.256-3.93h-1.124l-1.242 3.957-1.348-3.957zM26.212 7.141c-.02 1.566 1.187 3.129 3.223 3.129 1.566 0 2.383-.918 2.734-1.719L31.172 8c-.315.399-.801 1.094-1.738 1.094-1.145 0-1.825-.781-1.891-1.52h4.625c.074-.284.148-.995-.03-1.559-.336-1.064-1.221-2.102-2.839-2.102s-3.088 1.152-3.088 3.227zm1.363-.75h3.348c-.055-.43-.566-1.301-1.623-1.301a1.79 1.79 0 0 0-1.725 1.301zm-8.758.75c.038 1.758 1.277 3.133 3.145 3.133 1.074 0 1.723-.477 1.961-.672v.547h1.242V1.703h-1.258v2.888c-.414-.36-1.062-.68-1.93-.68-1.91 0-3.198 1.473-3.16 3.23zm1.309-.08c0 1.119.723 1.978 1.836 1.978a1.88 1.88 0 0 0 1.94-1.904c0-1.371-1.011-1.99-1.972-1.99s-1.805.798-1.805 1.916zm76.683-.028C96.771 5.275 95.532 3.9 93.664 3.9c-1.074 0-1.723.477-1.961.672v-.547h-1.242v8.22h1.258V9.583c.414.36 1.063.68 1.93.68 1.91 0 3.198-1.473 3.16-3.23zm-1.309.08c0-1.119-.723-1.978-1.836-1.978a1.88 1.88 0 0 0-1.94 1.904c0 1.371 1.011 1.99 1.972 1.99S95.5 8.231 95.5 7.113zM106.441 10.173V4.036h1.254v.382c.361-.346 1-.485 1.47-.485 1.452 0 2.477 1.082 2.457 2.448v3.792h-1.27V6.492c0-.408-.214-1.339-1.315-1.339-.969 0-1.342.756-1.342 1.339v3.681h-1.254zm-30.383-.021V1.824h1.084l4.215 5.777V1.824h1.32v8.328h-1.094l-4.207-5.796v5.796h-1.319zM5.24 10.149H4V2.377h1.014l2.664 3.597 2.654-3.592h1.03v7.766h-1.256V4.762L7.678 8.068 5.24 4.742v5.407z" transform="translate(642, 593.9999389648438)" fill="#ababab88" stroke="none"></path></svg>