<?xml version="1.0" encoding="utf-8" standalone="yes"?>
<!DOCTYPE svg PUBLIC "-//W3C//DTD SVG 1.1//EN" "http://www.w3.org/Graphics/SVG/1.1/DTD/svg11.dtd">
<svg width="724" height="420" viewBox="0 0 724 420" style="fill:none;stroke:none;fill-rule:evenodd;clip-rule:evenodd;stroke-linecap:round;stroke-linejoin:round;stroke-miterlimit:1.5;" version="1.1" xmlns="http://www.w3.org/2000/svg" xmlns:xlink="http://www.w3.org/1999/xlink"><style class="text-font-style fontImports" data-font-family="Roboto">@import url('https://fonts.googleapis.com/css2?family=Roboto:wght@400;700&amp;display=block');</style><g id="items" style="isolation: isolate"><g id="blend" style="mix-blend-mode: normal"><g id="g-root-ro_9opi1ytfdoj-fill" data-item-order="-12096" transform="translate(282, 244)"><g id="ro_9opi1ytfdoj-fill" stroke="none" fill="#1ac3fb"><g><path d="M 22 10L 166 10C 166 10 178 10 178 22L 178 70C 178 70 178 82 166 82L 22 82C 22 82 10 82 10 70L 10 22C 10 22 10 10 22 10"></path></g></g></g><g id="g-root-ro_8yei521ytkydm-fill" data-item-order="-11232" transform="translate(42, 198)"><g id="ro_8yei521ytkydm-fill" stroke="none" fill="#ababab"><g><path d="M 22 10L 154 10C 154 10 166 10 166 22L 166 70C 166 70 166 82 154 82L 22 82C 22 82 10 82 10 70L 10 22C 10 22 10 10 22 10"></path></g></g></g><g id="g-root-ro_18jgimu1yti7ls-fill" data-item-order="-11232" transform="translate(506, 198)"><g id="ro_18jgimu1yti7ls-fill" stroke="none" fill="#1ac3fb"><g><path d="M 22 10L 154 10C 154 10 166 10 166 22L 166 70C 166 70 166 82 154 82L 22 82C 22 82 10 82 10 70L 10 22C 10 22 10 10 22 10"></path></g></g></g><g id="g-root-ro_1hf3m1i1yt6znr-fill" data-item-order="-11232" transform="translate(506, 290)"><g id="ro_1hf3m1i1yt6znr-fill" stroke="none" fill="#1ac3fb"><g><path d="M 22 10L 154 10C 154 10 166 10 166 22L 166 70C 166 70 166 82 154 82L 22 82C 22 82 10 82 10 70L 10 22C 10 22 10 10 22 10"></path></g></g></g><g id="g-root-ro_dcbm921und2bo-fill" data-item-order="-11232" transform="translate(42, 290)"><g id="ro_dcbm921und2bo-fill" stroke="none" fill="#ababab"><g><path d="M 22 10L 154 10C 154 10 166 10 166 22L 166 70C 166 70 166 82 154 82L 22 82C 22 82 10 82 10 70L 10 22C 10 22 10 10 22 10"></path></g></g></g><g id="g-root-tx_soacommu_13ym5wm1uneghs-fill" data-item-order="0" transform="translate(202, 38)"><g id="tx_soacommu_13ym5wm1uneghs-fill" stroke="none" fill="#f4f4f4"><g><text style="font: bold 25px Roboto, sans-serif; white-space: pre;" font-weight="bold" font-size="25px" font-family="Roboto, sans-serif"><tspan x="13.77" y="42" dominant-baseline="ideographic">SOA Communication Flow</tspan></text></g></g></g><g id="g-root-cu_zqwtwm1und2x7-fill" data-item-order="2" transform="translate(14, 122)"></g><g id="g-root-cu_mg2sme1und1ce-fill" data-item-order="2" transform="translate(226, 166)"></g><g id="g-root-cu_dkfsdi1und2ww-fill" data-item-order="2" transform="translate(226, 166)"></g><g id="g-root-cu_1lz9ap21und2py-fill" data-item-order="2" transform="translate(198, 234)"></g><g id="g-root-cu_1qf2sti1und1xo-fill" data-item-order="2" transform="translate(450, 234)"></g><g id="g-root-cu_9lr3a1und1c2-fill" data-item-order="2" transform="translate(450, 280)"></g><g id="g-root-cu_18mju5i1und24g-fill" data-item-order="2" transform="translate(198, 280)"></g><g id="g-root-tx_enterpri_940v2u1ytdzb5-fill" data-item-order="1000000000" transform="translate(330, 256)"><g id="tx_enterpri_940v2u1ytdzb5-fill" stroke="none" fill="#2c2c2c"><g><text style="font: 20px Roboto, sans-serif; white-space: pre;" font-size="20px" font-family="Roboto, sans-serif"><tspan x="12" y="34" dominant-baseline="ideographic">Enterprise </tspan><tspan x="12" y="58" dominant-baseline="ideographic">Service Bus</tspan></text></g></g></g><g id="g-root-tx_servicer_1lpw6ee1unczyi-fill" data-item-order="1000000000" transform="translate(90, 302)"><g id="tx_servicer_1lpw6ee1unczyi-fill" stroke="none" fill="#2c2c2c"><g><text style="font: 20px Roboto, sans-serif; white-space: pre;" font-size="20px" font-family="Roboto, sans-serif"><tspan x="12" y="34" dominant-baseline="ideographic">Service </tspan><tspan x="12" y="58" dominant-baseline="ideographic">Registry</tspan></text></g></g></g><g id="g-root-ic_1_vcdbva1ytdybu-fill" data-item-order="1000000000" transform="translate(294, 265)"></g><g id="g-root-ic_sear_qns4me1und0qr-fill" data-item-order="1000000000" transform="translate(54, 311)"></g><g id="g-root-ic_serv_1uqk4eu1yt6y2u-fill" data-item-order="1000000000" transform="translate(518, 311)"></g><g id="g-root-tx_servicep_qrk47q1yt6xhp-fill" data-item-order="1000000000" transform="translate(554, 302)"><g id="tx_servicep_qrk47q1yt6xhp-fill" stroke="none" fill="#2c2c2c"><g><text style="font: 20px Roboto, sans-serif; white-space: pre;" font-size="20px" font-family="Roboto, sans-serif"><tspan x="12" y="34" dominant-baseline="ideographic">Service </tspan><tspan x="12" y="58" dominant-baseline="ideographic">Provider 2</tspan></text></g></g></g><g id="g-root-ic_up_4kgifq1yti70n-fill" data-item-order="1000000000" transform="translate(518, 219)"></g><g id="g-root-tx_servicec_1q6zlg61ytkydk-fill" data-item-order="1000000000" transform="translate(90, 210)"><g id="tx_servicec_1q6zlg61ytkydk-fill" stroke="none" fill="#2c2c2c"><g><text style="font: 20px Roboto, sans-serif; white-space: pre;" font-size="20px" font-family="Roboto, sans-serif"><tspan x="12" y="34" dominant-baseline="ideographic">Service </tspan><tspan x="12" y="58" dominant-baseline="ideographic">Consumer</tspan></text></g></g></g><g id="g-root-ic_phon_v4vjo61ytkz5t-fill" data-item-order="1000000000" transform="translate(54, 219)"></g><g id="g-root-tx_servicep_zmkk7q1yti68e-fill" data-item-order="1000000000" transform="translate(554, 210)"><g id="tx_servicep_zmkk7q1yti68e-fill" stroke="none" fill="#2c2c2c"><g><text style="font: 20px Roboto, sans-serif; white-space: pre;" font-size="20px" font-family="Roboto, sans-serif"><tspan x="12" y="34" dominant-baseline="ideographic">Service </tspan><tspan x="12" y="58" dominant-baseline="ideographic">Provider 1</tspan></text></g></g></g><g id="g-root-ro_9opi1ytfdoj-stroke" data-item-order="-12096" transform="translate(282, 244)"><g id="ro_9opi1ytfdoj-stroke" fill="none" stroke-linecap="round" stroke-linejoin="round" stroke-miterlimit="4" stroke="#2c2c2c" stroke-width="2"><g><path d="M 22 10L 166 10C 166 10 178 10 178 22L 178 70C 178 70 178 82 166 82L 22 82C 22 82 10 82 10 70L 10 22C 10 22 10 10 22 10"></path></g></g></g><g id="g-root-ro_8yei521ytkydm-stroke" data-item-order="-11232" transform="translate(42, 198)"><g id="ro_8yei521ytkydm-stroke" fill="none" stroke-linecap="round" stroke-linejoin="round" stroke-miterlimit="4" stroke="#2c2c2c" stroke-width="2"><g><path d="M 22 10L 154 10C 154 10 166 10 166 22L 166 70C 166 70 166 82 154 82L 22 82C 22 82 10 82 10 70L 10 22C 10 22 10 10 22 10"></path></g></g></g><g id="g-root-ro_18jgimu1yti7ls-stroke" data-item-order="-11232" transform="translate(506, 198)"><g id="ro_18jgimu1yti7ls-stroke" fill="none" stroke-linecap="round" stroke-linejoin="round" stroke-miterlimit="4" stroke="#2c2c2c" stroke-width="2"><g><path d="M 22 10L 154 10C 154 10 166 10 166 22L 166 70C 166 70 166 82 154 82L 22 82C 22 82 10 82 10 70L 10 22C 10 22 10 10 22 10"></path></g></g></g><g id="g-root-ro_1hf3m1i1yt6znr-stroke" data-item-order="-11232" transform="translate(506, 290)"><g id="ro_1hf3m1i1yt6znr-stroke" fill="none" stroke-linecap="round" stroke-linejoin="round" stroke-miterlimit="4" stroke="#2c2c2c" stroke-width="2"><g><path d="M 22 10L 154 10C 154 10 166 10 166 22L 166 70C 166 70 166 82 154 82L 22 82C 22 82 10 82 10 70L 10 22C 10 22 10 10 22 10"></path></g></g></g><g id="g-root-ro_dcbm921und2bo-stroke" data-item-order="-11232" transform="translate(42, 290)"><g id="ro_dcbm921und2bo-stroke" fill="none" stroke-linecap="round" stroke-linejoin="round" stroke-miterlimit="4" stroke="#2c2c2c" stroke-width="2"><g><path d="M 22 10L 154 10C 154 10 166 10 166 22L 166 70C 166 70 166 82 154 82L 22 82C 22 82 10 82 10 70L 10 22C 10 22 10 10 22 10"></path></g></g></g><g id="g-root-tx_soacommu_13ym5wm1uneghs-stroke" data-item-order="0" transform="translate(202, 38)"></g><g id="g-root-cu_zqwtwm1und2x7-stroke" data-item-order="2" transform="translate(14, 122)"><g id="cu_zqwtwm1und2x7-stroke" fill="none" stroke-linecap="round" stroke-linejoin="round" stroke-miterlimit="4" stroke="#f4f4f4" stroke-width="2"><g><path d="M 446 168L 460 168L 474 168L 474 89L 474 10L 242 10L 10 10L 10 66L 10 122L 24 122L 36 122"></path><path d="M 30 128.5L 36.5 122L 30 115.5" stroke-dasharray="none"></path></g></g></g><g id="g-root-cu_mg2sme1und1ce-stroke" data-item-order="2" transform="translate(226, 166)"><g id="cu_mg2sme1und1ce-stroke" fill="none" stroke-linecap="round" stroke-linejoin="round" stroke-miterlimit="4" stroke="#f4f4f4" stroke-width="2"><g><path d="M 446 170L 460 170L 474 170L 474 90L 474 10L 242 10L 10 10L 10 67L 10 124L 38 124L 64 124"></path><path d="M 58 130.5L 64.5 124L 58 117.5" stroke-dasharray="none"></path></g></g></g><g id="g-root-cu_dkfsdi1und2ww-stroke" data-item-order="2" transform="translate(226, 166)"><g id="cu_dkfsdi1und2ww-stroke" fill="none" stroke-linecap="round" stroke-linejoin="round" stroke-miterlimit="4" stroke="#f4f4f4" stroke-width="2"><g><path d="M 446 78L 460 78L 474 78L 474 44L 474 10L 242 10L 10 10L 10 67L 10 124L 38 124L 64 124"></path><path d="M 58 130.5L 64.5 124L 58 117.5" stroke-dasharray="none"></path></g></g></g><g id="g-root-cu_1lz9ap21und2py-stroke" data-item-order="2" transform="translate(198, 234)"><g id="cu_1lz9ap21und2py-stroke" fill="none" stroke-linecap="round" stroke-linejoin="round" stroke-miterlimit="4" stroke="#f4f4f4" stroke-width="2"><g><path d="M 10 10L 38 10L 66 10L 66 33L 66 56L 80 56L 92 56"></path><path d="M 86 62.5L 92.5 56L 86 49.5" stroke-dasharray="none"></path></g></g></g><g id="g-root-cu_1qf2sti1und1xo-stroke" data-item-order="2" transform="translate(450, 234)"><g id="cu_1qf2sti1und1xo-stroke" fill="none" stroke-linecap="round" stroke-linejoin="round" stroke-miterlimit="4" stroke="#f4f4f4" stroke-width="2"><g><path d="M 10 56L 24 56L 38 56L 38 33L 38 10L 52 10L 64 10"></path><path d="M 58 16.5L 64.5 10L 58 3.5" stroke-dasharray="none"></path></g></g></g><g id="g-root-cu_9lr3a1und1c2-stroke" data-item-order="2" transform="translate(450, 280)"><g id="cu_9lr3a1und1c2-stroke" fill="none" stroke-linecap="round" stroke-linejoin="round" stroke-miterlimit="4" stroke="#f4f4f4" stroke-width="2"><g><path d="M 10 10L 24 10L 38 10L 38 33L 38 56L 52 56L 64 56"></path><path d="M 58 62.5L 64.5 56L 58 49.5" stroke-dasharray="none"></path></g></g></g><g id="g-root-cu_18mju5i1und24g-stroke" data-item-order="2" transform="translate(198, 280)"><g id="cu_18mju5i1und24g-stroke" fill="none" stroke-linecap="round" stroke-linejoin="round" stroke-miterlimit="4" stroke="#f4f4f4" stroke-width="2"><g><path d="M 10 56L 38 56L 66 56L 66 33L 66 10L 80 10L 92 10"></path><path d="M 86 16.5L 92.5 10L 86 3.5" stroke-dasharray="none"></path></g></g></g><g id="g-root-tx_enterpri_940v2u1ytdzb5-stroke" data-item-order="1000000000" transform="translate(330, 256)"></g><g id="g-root-tx_servicer_1lpw6ee1unczyi-stroke" data-item-order="1000000000" transform="translate(90, 302)"></g><g id="g-root-ic_1_vcdbva1ytdybu-stroke" data-item-order="1000000000" transform="translate(294, 265)"><g id="ic_1_vcdbva1ytdybu-stroke" fill="none" stroke-linecap="round" stroke-linejoin="round" stroke-miterlimit="4" stroke="#2c2c2c" stroke-width="2"><g><path d="M 14.375 10.625L 20.625 10.625C 20.625 10.625 21.875 10.625 21.875 11.875L 21.875 19.375C 21.875 19.375 21.875 20.625 20.625 20.625L 14.375 20.625C 14.375 20.625 13.125 20.625 13.125 19.375L 13.125 11.875C 13.125 11.875 13.125 10.625 14.375 10.625M 14.375 20.625L 14.375 21.875M 20.625 20.625L 20.625 21.875M 15 17.8125C 15.172588 17.8125 15.3125 17.952412 15.3125 18.125M 14.6875 18.125C 14.6875 17.952412 14.827411 17.8125 15 17.8125M 15 18.4375C 14.827411 18.4375 14.6875 18.297588 14.6875 18.125M 15.3125 18.125C 15.3125 18.297588 15.172588 18.4375 15 18.4375M 20 17.8125C 20.172588 17.8125 20.3125 17.952412 20.3125 18.125M 19.6875 18.125C 19.6875 17.952412 19.827412 17.8125 20 17.8125M 20 18.4375C 19.827412 18.4375 19.6875 18.297588 19.6875 18.125M 20.3125 18.125C 20.3125 18.297588 20.172588 18.4375 20 18.4375M 13.125 15.625L 21.875 15.625M 10.625 11.875L 10.625 14.375M 24.375 11.875L 24.375 14.375M 29.375 28.125L 35.625 28.125C 35.625 28.125 36.875 28.125 36.875 29.375L 36.875 36.875C 36.875 36.875 36.875 38.125 35.625 38.125L 29.375 38.125C 29.375 38.125 28.125 38.125 28.125 36.875L 28.125 29.375C 28.125 29.375 28.125 28.125 29.375 28.125M 29.375 38.125L 29.375 39.375M 35.625 38.125L 35.625 39.375M 30 35.3125C 30.172588 35.3125 30.3125 35.452412 30.3125 35.625M 29.6875 35.625C 29.6875 35.452412 29.827412 35.3125 30 35.3125M 30 35.9375C 29.827412 35.9375 29.6875 35.797588 29.6875 35.625M 30.3125 35.625C 30.3125 35.797588 30.172588 35.9375 30 35.9375M 35 35.3125C 35.172588 35.3125 35.3125 35.452412 35.3125 35.625M 34.6875 35.625C 34.6875 35.452412 34.827412 35.3125 35 35.3125M 35 35.9375C 34.827412 35.9375 34.6875 35.797588 34.6875 35.625M 35.3125 35.625C 35.3125 35.797588 35.172588 35.9375 35 35.9375M 28.125 33.125L 36.875 33.125M 25.625 29.375L 25.625 31.875M 39.375 29.375L 39.375 31.875M 22.633751 33.0625C 19.97653 31.836298 18.275234 29.176498 18.276251 26.25L 18.276249 25.625M 25.776251 18.75C 29.126989 18.748775 32.072033 20.970312 32.991249 24.192501M 30.455 23.412498L 32.98875 24.192501L 33.768749 21.657501M 20.151251 27.5L 18.276249 25.625L 16.401249 27.5"></path></g></g></g><g id="g-root-ic_sear_qns4me1und0qr-stroke" data-item-order="1000000000" transform="translate(54, 311)"><g id="ic_sear_qns4me1und0qr-stroke" fill="none" stroke-linecap="round" stroke-linejoin="round" stroke-miterlimit="4" stroke="#2c2c2c" stroke-width="2"><g><path d="M 25.10125 39.375L 14.375 39.375C 12.994288 39.375 11.875 38.255714 11.875 36.875L 11.875 13.125M 35.625 10.625L 14.375 10.625C 12.994288 10.625 11.875 11.744288 11.875 13.125C 11.875 14.505712 12.994288 15.625 14.375 15.625L 34.375 15.625C 35.065353 15.625 35.625 16.184645 35.625 16.875L 35.625 25.032499M 14.375 13.125L 34.375 13.125M 24.375 31.286249C 24.375 34.412872 26.909628 36.947498 30.036249 36.947498C 33.162872 36.947498 35.697498 34.412872 35.697498 31.286249C 35.697498 28.159628 33.162872 25.625 30.036249 25.625C 26.909628 25.625 24.375 28.159628 24.375 31.286249ZM 38.125 39.375L 34.065002 35.315002"></path></g></g></g><g id="g-root-ic_serv_1uqk4eu1yt6y2u-stroke" data-item-order="1000000000" transform="translate(518, 311)"><g id="ic_serv_1uqk4eu1yt6y2u-stroke" fill="none" stroke-linecap="round" stroke-linejoin="round" stroke-miterlimit="4" stroke="#2c2c2c" stroke-width="2"><g><path d="M 10.625 16.940001L 23.125 21.0825L 23.125 39.314999L 10.7075 35ZM 26.875 39.375L 39.375 35L 39.375 17.05625L 26.875 21.022499ZM 24.987499 18.168751L 38.16375 14.54875L 24.987499 10.80125L 11.99 14.35375L 24.987499 18.168751Z"></path></g></g></g><g id="g-root-tx_servicep_qrk47q1yt6xhp-stroke" data-item-order="1000000000" transform="translate(554, 302)"></g><g id="g-root-ic_up_4kgifq1yti70n-stroke" data-item-order="1000000000" transform="translate(518, 219)"><g id="ic_up_4kgifq1yti70n-stroke" fill="none" stroke-linecap="round" stroke-linejoin="round" stroke-miterlimit="4" stroke="#2c2c2c" stroke-width="2"><g><path d="M 10.9375 39.0625C 12.8042 39.0625 14.670913 39.0625 16.537613 37.1875C 18.404312 39.0625 20.271013 39.0625 20.768799 39.0625C 21.266588 39.0625 23.133251 39.0625 25 37.1875C 26.866749 39.0625 28.733376 39.0625 29.231251 39.0625C 29.729 39.0625 31.595627 39.0625 33.462376 37.1875C 35.329124 39.0625 37.195747 39.0625 39.0625 39.0625M 35.1875 15.494762C 37.48225 15.494762 39.342625 14.474587 39.342625 13.216138C 39.342625 11.957675 37.48225 10.9375 35.1875 10.9375C 32.892624 10.9375 31.032373 11.957675 31.032373 13.216138C 31.032373 14.474587 32.892624 15.494762 35.1875 15.494762ZM 31.032373 13.216063L 31.032373 19.381775C 31.032373 20.588114 32.908875 21.660412 35.1875 21.660412C 37.466125 21.660412 39.342625 20.588114 39.342625 19.381775L 39.342625 13.216063M 12.870325 34.249874C 12.870325 33.835751 12.732275 33.421627 12.3181 33.007374L 11.489738 32.179001C 10.937504 31.764874 10.79944 30.936501 11.075558 30.384251C 11.351675 29.694 11.903913 29.417875 12.594213 29.417875L 13.698688 29.417875C 14.112863 29.417875 14.665088 29.279875 14.941213 29.00375C 15.217325 28.727625 15.355388 28.320251 15.355388 27.761126L 15.355388 26.65675C 15.355388 25.966375 15.769563 25.276125 16.3218 25.138C 17.012087 24.862 17.702387 25 18.116562 25.55225L 18.944925 26.380625C 19.221037 26.65675 19.635212 26.932875 20.18745 26.932875C 20.739674 26.932875 21.015787 26.79475 21.429962 26.380625L 22.258324 25.55225C 22.672499 25 23.500875 24.862 24.053125 25.138C 24.743374 25.414125 25.019501 25.966375 25.019501 26.65675L 25.019501 27.761126C 25.019501 28.175375 25.157625 28.727625 25.433624 29.00375C 25.709749 29.279875 26.261999 29.556 26.67625 29.417875L 27.780624 29.417875C 28.471001 29.417875 29.161251 29.831999 29.299376 30.384251C 29.5755 31.074623 29.437374 31.764874 28.885124 32.179001L 28.056751 33.007374C 27.780624 33.283501 27.504499 33.69775 27.504499 34.249874M 17.150112 34.249874C 17.150112 32.593124 18.530712 31.074501 20.325474 31.074501C 21.982176 31.074501 23.362749 32.455002 23.362749 34.249874M 35.1875 24.624874L 35.1875 33.749878M 10 10M 32.6875 27.125L 35.1875 24.625L 37.6875 27.125M 39.342625 16.274788C 39.342625 17.559887 37.482376 18.601675 35.1875 18.601675C 32.892624 18.601675 31.032373 17.559887 31.032373 16.274788"></path></g></g></g><g id="g-root-tx_servicec_1q6zlg61ytkydk-stroke" data-item-order="1000000000" transform="translate(90, 210)"></g><g id="g-root-ic_phon_v4vjo61ytkz5t-stroke" data-item-order="1000000000" transform="translate(54, 219)"><g id="ic_phon_v4vjo61ytkz5t-stroke" fill="none" stroke-linecap="round" stroke-linejoin="round" stroke-miterlimit="4" stroke="#2c2c2c" stroke-width="2"><g><path d="M 22.624876 17.937475L 16.874813 17.937475C 15.249813 17.937475 13.874812 19.312475 13.874812 20.937475L 13.874812 36.0625C 13.874812 37.6875 15.249813 39.0625 16.874813 39.0625L 24.24975 39.0625C 25.74975 39.0625 26.999876 37.8125 26.999876 36.3125L 26.999876 30.3125M 10 10M 26.999876 34.0625L 13.874812 34.0625M 30.124874 18.4375C 32.195877 18.4375 33.874874 16.758562 33.874874 14.6875C 33.874874 12.616437 32.195877 10.9375 30.124874 10.9375C 28.053749 10.9375 26.374876 12.616437 26.374876 14.6875C 26.374876 16.758562 28.053749 18.4375 30.124874 18.4375ZM 35.749874 25.9375C 35.749874 22.8125 33.249874 20.3125 30.124874 20.3125C 26.999876 20.3125 24.499876 22.8125 24.499876 25.9375M 10 10M 30.124874 20.3125L 30.124874 24.6875"></path></g></g></g><g id="g-root-tx_servicep_zmkk7q1yti68e-stroke" data-item-order="1000000000" transform="translate(554, 210)"></g></g></g><path id="w959q4m1xzm8ee" d="M65.283 12.757a.35.35 0 0 0 .584.157l5.203-5.141-6.183 3.523.396 1.461zm-2.216-11.7a.35.35 0 0 0-.522.305v3.111l3.276-1.868-2.754-1.548zm3.728 2.105l-4.25 2.421v2.445l6.391-3.644-2.141-1.222zm4.708 3.303a.35.35 0 0 0 0-.609l-1.592-.9-7.365 4.199v1.782a.35.35 0 0 0 .523.305l8.435-4.777z M44.542 2.513c0-.433.355-.783.792-.783s.792.35.792.783-.355.783-.792.783-.792-.35-.792-.783zm59.171 0c0-.433.355-.783.792-.783s.792.35.792.783-.355.783-.792.783-.792-.35-.792-.783zm-85.951 7.636h-1.27v-.487c-.276.201-.864.609-1.881.609-1.202 0-2.274-.794-2.137-2.078.118-1.106 1.153-1.584 1.848-1.727l2.17-.345c0-.539-.29-.956-1.064-1.006s-1.21.305-1.571 1.017l-1.124-.605c1.218-2.631 5.029-1.764 5.029.414v4.207zm-1.27-2.86c.006.396-.062 1.112-.819 1.59-.587.37-1.841.299-1.903-.395-.049-.555.461-.791.906-.898l1.816-.297zm72.662 2.86h-1.27v-.487c-.276.201-.864.609-1.881.609-1.202 0-2.274-.794-2.137-2.078.118-1.106 1.153-1.584 1.848-1.727l2.17-.345c0-.539-.29-.956-1.064-1.006s-1.21.305-1.571 1.017l-1.124-.605c1.218-2.631 5.029-1.764 5.029.414v4.207zm-1.27-2.86c.006.396-.062 1.112-.82 1.59-.587.37-1.841.299-1.903-.395-.049-.555.461-.791.906-.898l1.816-.297zM99.096 10.149H97.85v-8.45h1.246v4.895l2.68-2.559h1.738l-2.633 2.535 2.715 3.578h-1.556l-2.077-2.707-.867.844v1.863zm6.053-6.114h-1.255v6.113h1.255V4.035zm-59.2 0h-1.255v6.113h1.255V4.035zm5.584 6.113V1.697h1.255v2.695c.361-.346 1-.485 1.47-.485 1.452 0 2.477 1.082 2.457 2.448v3.792h-1.27v-3.68c0-.408-.214-1.339-1.315-1.339-.968 0-1.342.756-1.342 1.339v3.681h-1.255zm-4.76-4.894V4.039h.621a.45.45 0 0 0 .45-.45v-.855h1.251v1.305h1.309v1.215h-1.309v3.109c0 .293.105.664.648.664.365 0 .531-.035.736-.07v1.137s-.361.113-.857.113c-1.398 0-1.777-1.051-1.777-1.788V5.254h-1.071zM36.528 4.039h-1.394l2.191 6.106h1.125l1.234-3.918 1.238 3.918h1.129l2.188-6.106h-1.383l-1.359 3.93-1.256-3.93h-1.124l-1.242 3.957-1.348-3.957zM26.212 7.141c-.02 1.566 1.187 3.129 3.223 3.129 1.566 0 2.383-.918 2.734-1.719L31.172 8c-.315.399-.801 1.094-1.738 1.094-1.145 0-1.825-.781-1.891-1.52h4.625c.074-.284.148-.995-.03-1.559-.336-1.064-1.221-2.102-2.839-2.102s-3.088 1.152-3.088 3.227zm1.363-.75h3.348c-.055-.43-.566-1.301-1.623-1.301a1.79 1.79 0 0 0-1.725 1.301zm-8.758.75c.038 1.758 1.277 3.133 3.145 3.133 1.074 0 1.723-.477 1.961-.672v.547h1.242V1.703h-1.258v2.888c-.414-.36-1.062-.68-1.93-.68-1.91 0-3.198 1.473-3.16 3.23zm1.309-.08c0 1.119.723 1.978 1.836 1.978a1.88 1.88 0 0 0 1.94-1.904c0-1.371-1.011-1.99-1.972-1.99s-1.805.798-1.805 1.916zm76.683-.028C96.771 5.275 95.532 3.9 93.664 3.9c-1.074 0-1.723.477-1.961.672v-.547h-1.242v8.22h1.258V9.583c.414.36 1.063.68 1.93.68 1.91 0 3.198-1.473 3.16-3.23zm-1.309.08c0-1.119-.723-1.978-1.836-1.978a1.88 1.88 0 0 0-1.94 1.904c0 1.371 1.011 1.99 1.972 1.99S95.5 8.231 95.5 7.113zM106.441 10.173V4.036h1.254v.382c.361-.346 1-.485 1.47-.485 1.452 0 2.477 1.082 2.457 2.448v3.792h-1.27V6.492c0-.408-.214-1.339-1.315-1.339-.969 0-1.342.756-1.342 1.339v3.681h-1.254zm-30.383-.021V1.824h1.084l4.215 5.777V1.824h1.32v8.328h-1.094l-4.207-5.796v5.796h-1.319zM5.24 10.149H4V2.377h1.014l2.664 3.597 2.654-3.592h1.03v7.766h-1.256V4.762L7.678 8.068 5.24 4.742v5.407z" transform="translate(597, 395)" fill="#ababab88" stroke="none"></path></svg>