<?xml version="1.0" encoding="utf-8" standalone="yes"?>
<!DOCTYPE svg PUBLIC "-//W3C//DTD SVG 1.1//EN" "http://www.w3.org/Graphics/SVG/1.1/DTD/svg11.dtd">
<svg width="864" height="683" viewBox="0 0 864 683" style="fill:none;stroke:none;fill-rule:evenodd;clip-rule:evenodd;stroke-linecap:round;stroke-linejoin:round;stroke-miterlimit:1.5;" version="1.1" xmlns="http://www.w3.org/2000/svg" xmlns:xlink="http://www.w3.org/1999/xlink"><style class="text-font-style fontImports" data-font-family="Roboto">@import url('https://fonts.googleapis.com/css2?family=Roboto:wght@400;700&amp;display=block');</style><g id="items" style="isolation: isolate"><g id="blend" style="mix-blend-mode: normal"><g id="g-root-cp_common_g-common_2rhx21yt45ca-fill" data-item-order="-470822" transform="translate(350, 290)"><g id="cp_common_g-common_2rhx21yt45ca-fill" stroke="none" fill="#54502f"><g><path d="M 97.2799 152.3754C 129.7048 145.3684 154 116.5214 154 82C 154 42.2355 121.7645 10 82 10C 42.2355 10 10 42.2355 10 82C 10 107.0781 22.8213 129.1616 42.2665 142.0531C 48.607 138.2115 56.0452 136 64 136C 77.5493 136 89.6 142.4159 97.2799 152.3754Z"></path></g></g></g><g id="g-root-cp_7_g-7_18hl08m1yt4558-fill" data-item-order="-470818" transform="translate(560, 362)"><g id="cp_7_g-7_18hl08m1yt4558-fill" stroke="none" fill="#69425a"><g><path d="M 82 46C 82 65.8823 65.8823 82 46 82C 26.1177 82 10 65.8823 10 46C 10 26.1177 26.1177 10 46 10C 65.8823 10 82 26.1177 82 46Z"></path></g></g></g><g id="g-root-cp_6_g-6_qqxgty1yt44cm-fill" data-item-order="-470814" transform="translate(362, 416)"><g id="cp_6_g-6_qqxgty1yt44cm-fill" stroke="none" fill="#68403f"><g><path d="M 94 52C 94 75.196 75.196 94 52 94C 28.804 94 10 75.196 10 52C 10 28.804 28.804 10 52 10C 75.196 10 94 28.804 94 52Z"></path></g></g></g><g id="g-root-cp_5_g-5_909xfa1yt43k0-fill" data-item-order="-470810" transform="translate(158, 386)"><g id="cp_5_g-5_909xfa1yt43k0-fill" stroke="none" fill="#5c4938"><g><path d="M 82 46C 82 65.8823 65.8823 82 46 82C 26.1177 82 10 65.8823 10 46C 10 26.1177 26.1177 10 46 10C 65.8823 10 82 26.1177 82 46Z"></path></g></g></g><g id="g-root-cp_4_g-4_1hegynq1yt46iq-fill" data-item-order="-470806" transform="translate(722, 272)"><g id="cp_4_g-4_1hegynq1yt46iq-fill" stroke="none" fill="#54502f"><g><path d="M 70 40C 70 56.5685 56.5685 70 40 70C 23.4315 70 10 56.5685 10 40C 10 23.4315 23.4315 10 40 10C 56.5685 10 70 23.4315 70 40Z"></path></g></g></g><g id="g-root-cp_3_g-3_v7zx4m1yt45qk-fill" data-item-order="-470802" transform="translate(494, 224)"><g id="cp_3_g-3_v7zx4m1yt45qk-fill" stroke="none" fill="#4b533a"><g><path d="M 58 34C 58 47.2548 47.2548 58 34 58C 20.7452 58 10 47.2548 10 34C 10 20.7452 20.7452 10 34 10C 47.2548 10 58 20.7452 58 34Z"></path></g></g></g><g id="g-root-cp_2_g-2_4lpdh21yt45qm-fill" data-item-order="-470798" transform="translate(278, 272)"><g id="cp_2_g-2_4lpdh21yt45qm-fill" stroke="none" fill="#3b5649"><g><path d="M 70 40C 70 56.5685 56.5685 70 40 70C 23.4315 70 10 56.5685 10 40C 10 23.4315 23.4315 10 40 10C 56.5685 10 70 23.4315 70 40Z"></path></g></g></g><g id="g-root-cp_1_g-1_18kpdo61yt46bs-fill" data-item-order="-470794" transform="translate(110, 260)"><g id="cp_1_g-1_18kpdo61yt46bs-fill" stroke="none" fill="#344e57"><g><path d="M 58 34C 58 47.2548 47.2548 58 34 58C 20.7452 58 10 47.2548 10 34C 10 20.7452 20.7452 10 34 10C 47.2548 10 58 20.7452 58 34Z"></path></g></g></g><g id="g-root-cp_-1_common_hyeu0m1yt46bu-fill" data-item-order="-470789" transform="translate(38, 242)"></g><g id="g-root-tx_sharedda_dj6u861uneg3s-fill" data-item-order="0" transform="translate(632, 182)"><g id="tx_sharedda_dj6u861uneg3s-fill" stroke="none" fill="#f4f4f4"><g><text style="font: 15px Roboto, sans-serif; white-space: pre;" font-size="15px" font-family="Roboto, sans-serif"><tspan x="16.98" y="28" dominant-baseline="ideographic">Shared databases vs </tspan><tspan x="16.45" y="46" dominant-baseline="ideographic">Database per service</tspan></text></g></g></g><g id="g-root-tx_enterpri_1cu966e1unegw2-fill" data-item-order="0" transform="translate(62, 182)"><g id="tx_enterpri_1cu966e1unegw2-fill" stroke="none" fill="#f4f4f4"><g><text style="font: 15px Roboto, sans-serif; white-space: pre;" font-size="15px" font-family="Roboto, sans-serif"><tspan x="21.1" y="28" dominant-baseline="ideographic">Enterprise-wide vs </tspan><tspan x="16.37" y="46" dominant-baseline="ideographic">Application-specific</tspan></text></g></g></g><g id="g-root-ic_1_1cuvk3q1uno9vp-fill" data-item-order="0" transform="translate(503, 233)"></g><g id="g-root-tx_datastor_1urrxja1uneg3r-fill" data-item-order="0" transform="translate(650, 146)"><g id="tx_datastor_1urrxja1uneg3r-fill" stroke="none" fill="#ffe711"><g><text style="font: bold 20px Roboto, sans-serif; white-space: pre;" font-weight="bold" font-size="20px" font-family="Roboto, sans-serif"><tspan x="11.9" y="34" dominant-baseline="ideographic">Data Storage</tspan></text></g></g></g><g id="g-root-ic_shar_magiva1una7tb-fill" data-item-order="0" transform="translate(119, 269)"></g><g id="g-root-tx_esbvsdir_1qaph8m1uneepy-fill" data-item-order="0" transform="translate(452, 146)"><g id="tx_esbvsdir_1qaph8m1uneepy-fill" stroke="none" fill="#f4f4f4"><g><text style="font: 15px Roboto, sans-serif; white-space: pre;" font-size="15px" font-family="Roboto, sans-serif"><tspan x="15.19" y="28" dominant-baseline="ideographic">ESB vs Direct/API </tspan><tspan x="45.31" y="46" dominant-baseline="ideographic">Gateway</tspan></text></g></g></g><g id="g-root-ic_spar_2qj5y1un7eva-fill" data-item-order="0" transform="translate(290, 284)"></g><g id="g-root-tx_coarsegr_de71ja1unegp0-fill" data-item-order="0" transform="translate(242, 146)"><g id="tx_coarsegr_de71ja1unegp0-fill" stroke="none" fill="#f4f4f4"><g><text style="font: 15px Roboto, sans-serif; white-space: pre;" font-size="15px" font-family="Roboto, sans-serif"><tspan x="16.05" y="28" dominant-baseline="ideographic">Coarse-grained vs Fine-</tspan><tspan x="69.15" y="46" dominant-baseline="ideographic">grained</tspan></text></g></g></g><g id="g-root-tx_scope_vbpsw61und2ip-fill" data-item-order="0" transform="translate(104, 146)"><g id="tx_scope_vbpsw61und2ip-fill" stroke="none" fill="#1ac3fb"><g><text style="font: bold 20px Roboto, sans-serif; white-space: pre;" font-weight="bold" font-size="20px" font-family="Roboto, sans-serif"><tspan x="11.95" y="34" dominant-baseline="ideographic">Scope</tspan></text></g></g></g><g id="g-root-ic_2_zp1bie1unlgxw-fill" data-item-order="0" transform="translate(734, 284)"></g><g id="g-root-tx_oftencom_1qa305i1unfv9q-fill" data-item-order="0" transform="translate(548, 555)"><g id="tx_oftencom_1qa305i1unfv9q-fill" stroke="none" fill="#f4f4f4"><g><text style="font: 15px Roboto, sans-serif; white-space: pre;" font-size="15px" font-family="Roboto, sans-serif"><tspan x="16.05" y="31" dominant-baseline="ideographic">Often complex vs </tspan><tspan x="32.6" y="49" dominant-baseline="ideographic">Independent </tspan><tspan x="34.96" y="67" dominant-baseline="ideographic">deployment</tspan></text></g></g></g><g id="g-root-tx_communic_zmjibq1unefpp-fill" data-item-order="0" transform="translate(440, 110)"><g id="tx_communic_zmjibq1unefpp-fill" stroke="none" fill="#a6da37"><g><text style="font: bold 20px Roboto, sans-serif; white-space: pre;" font-weight="bold" font-size="20px" font-family="Roboto, sans-serif"><tspan x="16.77" y="34" dominant-baseline="ideographic">Communication</tspan></text></g></g></g><g id="g-root-tx_granular_1hby3k61unef43-fill" data-item-order="0" transform="translate(272, 110)"><g id="tx_granular_1hby3k61unef43-fill" stroke="none" fill="#43dd93"><g><text style="font: bold 20px Roboto, sans-serif; white-space: pre;" font-weight="bold" font-size="20px" font-family="Roboto, sans-serif"><tspan x="14.4" y="34" dominant-baseline="ideographic">Granularity</tspan></text></g></g></g><g id="g-root-ic_laun_zitmk61yt5jph-fill" data-item-order="0" transform="translate(575, 377)"></g><g id="g-root-ic_uneq_4goiva1unk2rn-fill" data-item-order="0" transform="translate(173, 401)"></g><g id="g-root-tx_comparin_mg3ree1yt44jw-fill" data-item-order="0" transform="translate(224, 38)"><g id="tx_comparin_mg3ree1yt44jw-fill" stroke="none" fill="#f4f4f4"><g><text style="font: bold 25px Roboto, sans-serif; white-space: pre;" font-weight="bold" font-size="25px" font-family="Roboto, sans-serif"><tspan x="12.13" y="42" dominant-baseline="ideographic">Comparing SOA and Microservices</tspan></text></g></g></g><g id="g-root-ic_3_1hit8cm1unefia-fill" data-item-order="0" transform="translate(380, 434)"></g><g id="g-root-tx_governan_18mju6e1unehhl-fill" data-item-order="0" transform="translate(170, 518)"><g id="tx_governan_18mju6e1unehhl-fill" stroke="none" fill="#f79438"><g><text style="font: bold 20px Roboto, sans-serif; white-space: pre;" font-weight="bold" font-size="20px" font-family="Roboto, sans-serif"><tspan x="16.37" y="34" dominant-baseline="ideographic">Governance</tspan></text></g></g></g><g id="g-root-tx_technolo_1ums4ue1unfu2z-fill" data-item-order="0" transform="translate(362, 530)"><g id="tx_technolo_1ums4ue1unfu2z-fill" stroke="none" fill="#fb6762"><g><text style="font: bold 20px Roboto, sans-serif; white-space: pre;" font-weight="bold" font-size="20px" font-family="Roboto, sans-serif"><tspan x="17.74" y="34" dominant-baseline="ideographic">Technology</tspan></text></g></g></g><g id="g-root-tx_deployme_18hk1hi1unfvgt-fill" data-item-order="0" transform="translate(554, 519)"><g id="tx_deployme_18hk1hi1unfvgt-fill" stroke="none" fill="#f366bb"><g><text style="font: bold 20px Roboto, sans-serif; white-space: pre;" font-weight="bold" font-size="20px" font-family="Roboto, sans-serif"><tspan x="16.16" y="34" dominant-baseline="ideographic">Deployment</tspan></text></g></g></g><g id="g-root-tx_centrali_1qf2sue1unehai-fill" data-item-order="0" transform="translate(176, 554)"><g id="tx_centrali_1qf2sue1unehai-fill" stroke="none" fill="#f4f4f4"><g><text style="font: 15px Roboto, sans-serif; white-space: pre;" font-size="15px" font-family="Roboto, sans-serif"><tspan x="15.32" y="28" dominant-baseline="ideographic">Centralized vs </tspan><tspan x="16.74" y="46" dominant-baseline="ideographic">Decentralized</tspan></text></g></g></g><g id="g-root-tx_heteroge_m9u1s61unftac-fill" data-item-order="0" transform="translate(338, 566)"><g id="tx_heteroge_m9u1s61unftac-fill" stroke="none" fill="#f4f4f4"><g><text style="font: 15px Roboto, sans-serif; white-space: pre;" font-size="15px" font-family="Roboto, sans-serif"><tspan x="33.53" y="28" dominant-baseline="ideographic">Heterogeneous vs </tspan><tspan x="17.48" y="46" dominant-baseline="ideographic">Polyglot but consistent</tspan></text></g></g></g><g id="g-root-ic_serv_djtbba1unbm68-fill" data-item-order="0" transform="translate(386, 326)"></g><g id="g-root-cp_common_g-common_2rhx21yt45ca-stroke" data-item-order="-470822" transform="translate(350, 290)"><g id="cp_common_g-common_2rhx21yt45ca-stroke" fill="none" stroke-linecap="round" stroke-linejoin="round" stroke-miterlimit="4" stroke="#ffe711" stroke-width="2"><g><path d="M 97.2799 152.3754C 129.7048 145.3684 154 116.5214 154 82C 154 42.2355 121.7645 10 82 10C 42.2355 10 10 42.2355 10 82C 10 107.0781 22.8213 129.1616 42.2665 142.0531C 48.607 138.2115 56.0452 136 64 136C 77.5493 136 89.6 142.4159 97.2799 152.3754Z"></path></g></g></g><g id="g-root-cp_7_g-7_18hl08m1yt4558-stroke" data-item-order="-470818" transform="translate(560, 362)"><g id="cp_7_g-7_18hl08m1yt4558-stroke" fill="none" stroke-linecap="round" stroke-linejoin="round" stroke-miterlimit="4" stroke="#f366bb" stroke-width="2"><g><path d="M 82 46C 82 65.8823 65.8823 82 46 82C 26.1177 82 10 65.8823 10 46C 10 26.1177 26.1177 10 46 10C 65.8823 10 82 26.1177 82 46Z"></path></g></g></g><g id="g-root-cp_6_g-6_qqxgty1yt44cm-stroke" data-item-order="-470814" transform="translate(362, 416)"><g id="cp_6_g-6_qqxgty1yt44cm-stroke" fill="none" stroke-linecap="round" stroke-linejoin="round" stroke-miterlimit="4" stroke="#fb6762" stroke-width="2"><g><path d="M 94 52C 94 75.196 75.196 94 52 94C 28.804 94 10 75.196 10 52C 10 28.804 28.804 10 52 10C 75.196 10 94 28.804 94 52Z"></path></g></g></g><g id="g-root-cp_5_g-5_909xfa1yt43k0-stroke" data-item-order="-470810" transform="translate(158, 386)"><g id="cp_5_g-5_909xfa1yt43k0-stroke" fill="none" stroke-linecap="round" stroke-linejoin="round" stroke-miterlimit="4" stroke="#f79438" stroke-width="2"><g><path d="M 82 46C 82 65.8823 65.8823 82 46 82C 26.1177 82 10 65.8823 10 46C 10 26.1177 26.1177 10 46 10C 65.8823 10 82 26.1177 82 46Z"></path></g></g></g><g id="g-root-cp_4_g-4_1hegynq1yt46iq-stroke" data-item-order="-470806" transform="translate(722, 272)"><g id="cp_4_g-4_1hegynq1yt46iq-stroke" fill="none" stroke-linecap="round" stroke-linejoin="round" stroke-miterlimit="4" stroke="#ffe711" stroke-width="2"><g><path d="M 70 40C 70 56.5685 56.5685 70 40 70C 23.4315 70 10 56.5685 10 40C 10 23.4315 23.4315 10 40 10C 56.5685 10 70 23.4315 70 40Z"></path></g></g></g><g id="g-root-cp_3_g-3_v7zx4m1yt45qk-stroke" data-item-order="-470802" transform="translate(494, 224)"><g id="cp_3_g-3_v7zx4m1yt45qk-stroke" fill="none" stroke-linecap="round" stroke-linejoin="round" stroke-miterlimit="4" stroke="#a6da37" stroke-width="2"><g><path d="M 58 34C 58 47.2548 47.2548 58 34 58C 20.7452 58 10 47.2548 10 34C 10 20.7452 20.7452 10 34 10C 47.2548 10 58 20.7452 58 34Z"></path></g></g></g><g id="g-root-cp_2_g-2_4lpdh21yt45qm-stroke" data-item-order="-470798" transform="translate(278, 272)"><g id="cp_2_g-2_4lpdh21yt45qm-stroke" fill="none" stroke-linecap="round" stroke-linejoin="round" stroke-miterlimit="4" stroke="#43dd93" stroke-width="2"><g><path d="M 70 40C 70 56.5685 56.5685 70 40 70C 23.4315 70 10 56.5685 10 40C 10 23.4315 23.4315 10 40 10C 56.5685 10 70 23.4315 70 40Z"></path></g></g></g><g id="g-root-cp_1_g-1_18kpdo61yt46bs-stroke" data-item-order="-470794" transform="translate(110, 260)"><g id="cp_1_g-1_18kpdo61yt46bs-stroke" fill="none" stroke-linecap="round" stroke-linejoin="round" stroke-miterlimit="4" stroke="#1ac3fb" stroke-width="2"><g><path d="M 58 34C 58 47.2548 47.2548 58 34 58C 20.7452 58 10 47.2548 10 34C 10 20.7452 20.7452 10 34 10C 47.2548 10 58 20.7452 58 34Z"></path></g></g></g><g id="g-root-cp_-1_common_hyeu0m1yt46bu-stroke" data-item-order="-470789" transform="translate(38, 242)"><g id="cp_-1_common_hyeu0m1yt46bu-stroke" fill="none" stroke-linecap="round" stroke-linejoin="round" stroke-miterlimit="4" stroke="#b7b7b7" stroke-width="2" stroke-dasharray="5.0, 7.0"><g><path d="M 341.0952 199.6416C 254.0767 191.4137 190 163.3765 190 130.0547C 190 110.2098 212.727 92.2393 249.492 79.2112M 419.9839 225.7129C 566.8668 221.3327 682 180.1776 682 130.0547C 682 88.6074 603.2731 53.2921 492.9675 39.832L 481.7233 38.5476C 454.0646 35.6013 424.5893 34.0109 394 34.0109C 357.8585 34.0109 323.2719 36.231 291.3995 40.2846M 454.2573 87.317C 496.8575 95.2826 526 111.4305 526 130.0547C 526 149.063 495.6433 165.4918 451.6051 173.2747C 444.1006 174.9046 422.0706 178.1643 393.9872 178.1643C 365.9039 178.1643 343.891 174.9046 336.3949 173.2747C 292.3567 165.4918 262 149.063 262 130.0547C 262 111.4513 291.0774 95.3187 333.5999 87.3438M 332.0954 223.8744C 282.8376 220.2763 238.2988 212.474 202.0315 201.6522M 133.4109 171.0021C 115.8304 158.5812 106 144.7008 106 130.0547C 106 93.0786 168.6575 60.9828 260.496 44.9313M 130.2261 42.8056C 199.0194 22.4696 291.8519 10 394 10C 418.0282 10 441.541 10.69 464.3466 12.01M 81.4592 60.2877C 36.4738 79.9507 10 104.0361 10 130.0547C 10 167.6789 65.3581 201.2607 151.9985 223.273L 163.0592 225.9801C 213.9363 237.9715 274.6572 246.0983 340.7576 248.9648C 348.6947 249.3099 366.8711 250 376.08 250L 410.5479 250C 614.9487 247.2906 778 194.6258 778 130.0547C 778 114.5454 768.5933 99.723 751.4665 86.1147M 311.3179 64.1839C 331.4404 61.03 353.277 58.9921 376.1976 58.2924M 411.8024 58.2924C 516.1321 61.4771 598 92.39 598 130.0547C 598 133.5579 597.2918 137.0026 595.9232 140.3721M 533.9025 182.48C 501.625 193.2235 459.4272 200.2916 412.6746 201.7898M 515.9004 16.1754C 587.523 23.666 649.7393 37.5762 695.5598 55.7208"></path></g></g></g><g id="g-root-tx_sharedda_dj6u861uneg3s-stroke" data-item-order="0" transform="translate(632, 182)"></g><g id="g-root-tx_enterpri_1cu966e1unegw2-stroke" data-item-order="0" transform="translate(62, 182)"></g><g id="g-root-ic_1_1cuvk3q1uno9vp-stroke" data-item-order="0" transform="translate(503, 233)"><g id="ic_1_1cuvk3q1uno9vp-stroke" fill="none" stroke-linecap="round" stroke-linejoin="round" stroke-miterlimit="4" stroke="#a6da37" stroke-width="2"><g><path d="M 13.9675 32.4575L 11.25 39.375M 15 39.375L 16.116251 33.125M 36.032501 32.4575L 38.75 39.375M 35 39.375L 33.883751 33.125M 27.914999 25.4575L 32.424999 29.065001M 17.575001 29.065001L 22.08375 25.4575M 15.38875 28.147499L 14.7875 21.83625M 22.622499 33.889999L 17.883751 31.678751M 32.114998 31.68L 27.377501 33.889999M 35.208748 21.875L 34.611248 28.141249M 27.311251 14.0775L 33.383751 16.577499M 16.615 16.577499L 22.690001 14.07625M 13.125 30.625C 13.125 32.005714 14.244288 33.125 15.625 33.125C 17.005713 33.125 18.125 32.005714 18.125 30.625C 18.125 29.244287 17.005713 28.125 15.625 28.125C 14.244288 28.125 13.125 29.244287 13.125 30.625ZM 22.5 13.125C 22.5 14.505712 23.619287 15.625 25 15.625C 26.380713 15.625 27.5 14.505712 27.5 13.125C 27.5 11.744288 26.380713 10.625 25 10.625C 23.619287 10.625 22.5 11.744288 22.5 13.125ZM 11.25 18.75C 11.25 20.475889 12.64911 21.875 14.375 21.875C 16.100889 21.875 17.5 20.475889 17.5 18.75C 17.5 17.024111 16.100889 15.625 14.375 15.625C 12.64911 15.625 11.25 17.024111 11.25 18.75ZM 31.875 30.625C 31.875 32.005714 32.994286 33.125 34.375 33.125C 35.755714 33.125 36.875 32.005714 36.875 30.625C 36.875 29.244287 35.755714 28.125 34.375 28.125C 32.994286 28.125 31.875 29.244287 31.875 30.625ZM 32.5 18.75C 32.5 20.475889 33.899109 21.875 35.625 21.875C 37.350891 21.875 38.75 20.475889 38.75 18.75C 38.75 17.024111 37.350891 15.625 35.625 15.625C 33.899109 15.625 32.5 17.024111 32.5 18.75ZM 21.518749 21.7325L 15.625 19.375M 34.375 19.375L 28.47875 21.733749M 25 15.625L 25 19.375M 26.383751 26.610001L 28.125 39.375M 21.875 39.375L 23.616249 26.610001M 21.25 23.125C 21.25 25.196068 22.928932 26.875 25 26.875C 27.071068 26.875 28.75 25.196068 28.75 23.125C 28.75 21.053932 27.071068 19.375 25 19.375C 22.928932 19.375 21.25 21.053932 21.25 23.125Z"></path></g></g></g><g id="g-root-tx_datastor_1urrxja1uneg3r-stroke" data-item-order="0" transform="translate(650, 146)"></g><g id="g-root-ic_shar_magiva1una7tb-stroke" data-item-order="0" transform="translate(119, 269)"><g id="ic_shar_magiva1una7tb-stroke" fill="none" stroke-linecap="round" stroke-linejoin="round" stroke-miterlimit="4" stroke="#1ac3fb" stroke-width="2"><g><path d="M 12.3725 31.875L 21.875 31.876249M 13.14 16.875L 36.869999 16.875M 25 24.376251L 10.63875 24.375M 24.2225 39.355C 16.88567 38.949512 11.035755 33.076153 10.65961 25.737761C 10.283464 18.399368 15.502196 11.958662 22.759115 10.805139C 30.016037 9.651615 36.974648 14.156669 38.892502 21.25M 24.08625 10.6575C 16.58625 18.782499 16.7225 29.355 24.2225 39.355M 25.912498 10.6575C 28.713673 13.573168 30.573359 17.263794 31.250002 21.250002M 24.375 32.813751C 24.375 34.36705 25.634199 35.626251 27.1875 35.626251C 28.740801 35.626251 30 34.36705 30 32.813751C 30 31.26045 28.740801 30.001249 27.1875 30.001249C 25.634199 30.001249 24.375 31.26045 24.375 32.813751ZM 33.75 36.563751C 33.75 38.11705 35.009197 39.376251 36.5625 39.376251C 38.115803 39.376251 39.375 38.11705 39.375 36.563751C 39.375 35.010448 38.115803 33.751251 36.5625 33.751251C 35.009197 33.751251 33.75 35.010448 33.75 36.563751ZM 33.75 27.188751C 33.75 28.74205 35.009197 30.001249 36.5625 30.001249C 38.115803 30.001249 39.375 28.74205 39.375 27.188751C 39.375 25.635448 38.115803 24.376251 36.5625 24.376251C 35.009197 24.376251 33.75 25.635448 33.75 27.188751ZM 29.59375 31.370001L 34.15625 28.6325M 29.797501 33.857502L 33.952499 35.52"></path></g></g></g><g id="g-root-tx_esbvsdir_1qaph8m1uneepy-stroke" data-item-order="0" transform="translate(452, 146)"></g><g id="g-root-ic_spar_2qj5y1un7eva-stroke" data-item-order="0" transform="translate(290, 284)"><g id="ic_spar_2qj5y1un7eva-stroke" fill="none" stroke-linecap="round" stroke-linejoin="round" stroke-miterlimit="4" stroke="#43dd93" stroke-width="2"><g><path d="M 26.07955 39.80965C 18.391479 39.80965 12.15907 33.577301 12.15907 25.8892C 12.15907 18.20116 18.391479 11.96875 26.07955 11.96875C 33.767651 11.96875 40 18.20116 40 25.8892C 40 33.577301 33.767651 39.80965 26.07955 39.80965ZM 10 10M 35.710899 35.904251L 43.839401 44.031101M 17.719721 25.8853C 21.88678 25.04755 25.241798 21.651775 26.08075 17.376955C 26.919701 21.651775 30.274 25.04755 34.441002 25.8853M 34.441002 25.8901C 30.274 26.72785 26.918949 30.12355 26.08 34.398399C 25.2409 30.12355 21.88678 26.72785 17.719721 25.8901"></path></g></g></g><g id="g-root-tx_coarsegr_de71ja1unegp0-stroke" data-item-order="0" transform="translate(242, 146)"></g><g id="g-root-tx_scope_vbpsw61und2ip-stroke" data-item-order="0" transform="translate(104, 146)"></g><g id="g-root-ic_2_zp1bie1unlgxw-stroke" data-item-order="0" transform="translate(734, 284)"><g id="ic_2_zp1bie1unlgxw-stroke" fill="none" stroke-linecap="round" stroke-linejoin="round" stroke-miterlimit="4" stroke="#ffe711" stroke-width="2"><g><path d="M 13.7515 18.251499C 13.7515 21.565208 20.131443 24.251501 28.001501 24.251501C 35.871559 24.251501 42.251499 21.565208 42.251499 18.251499C 42.251499 14.937792 35.871559 12.2515 28.001501 12.2515C 20.131443 12.2515 13.7515 14.937792 13.7515 18.251499ZM 42.25 24.25C 42.25 27.565001 35.868999 30.25 28 30.25C 20.131001 30.25 13.75 27.565001 13.75 24.25M 42.25 31C 42.25 34.314999 35.868999 37 28 37C 20.131001 37 13.75 34.314999 13.75 31M 13.75 18.25L 13.75 37.75C 13.75 41.064999 20.131001 43.75 28 43.75C 35.868999 43.75 42.25 41.064999 42.25 37.75L 42.25 18.25"></path></g></g></g><g id="g-root-tx_oftencom_1qa305i1unfv9q-stroke" data-item-order="0" transform="translate(548, 555)"></g><g id="g-root-tx_communic_zmjibq1unefpp-stroke" data-item-order="0" transform="translate(440, 110)"></g><g id="g-root-tx_granular_1hby3k61unef43-stroke" data-item-order="0" transform="translate(272, 110)"></g><g id="g-root-ic_laun_zitmk61yt5jph-stroke" data-item-order="0" transform="translate(575, 377)"><g id="ic_laun_zitmk61yt5jph-stroke" fill="none" stroke-linecap="round" stroke-linejoin="round" stroke-miterlimit="4" stroke="#f366bb" stroke-width="2"><g><path d="M 18.75 17.192501L 11.75 10.8925L 11.75 51.125L 18.75 51.125L 18.75 17.192501ZM 18.75 24.8925L 25.75 24.8925M 38 42.357498C 38 42.357498 36.25 21.3575 36.25 19.6075C 36.25 17 40.625 10.8575 40.625 10.8575C 40.625 10.8575 45 17 45 19.6075C 45 23.1075 43.25 42.357498 43.25 42.357498ZM 44.107498 32.505001L 45 33.625C 46.587379 35.571335 48.048695 37.617176 49.374996 39.749996C 49.939484 41.140244 50.236351 42.624588 50.25 44.125L 50.25 47.309998C 50.252075 47.663246 50.041542 47.983089 49.716259 48.120857C 49.39098 48.258621 49.014763 48.187283 48.762501 47.940002L 43.25 42.357498M 37.195 32.470001L 36.25 33.625C 34.634075 35.565781 33.149124 37.611969 31.805 39.75C 31.262426 41.14431 30.989264 42.628883 31.000002 44.125004L 31 47.2925C 31.001764 47.645737 31.215752 47.963272 31.542501 48.0975C 31.867157 48.23333 32.241848 48.157005 32.487499 47.904999L 38 42.357498M 42.375 46.75C 41.966232 48.27224 41.378815 49.74078 40.625 51.125C 39.871185 49.74078 39.283772 48.27224 38.875 46.75C 38.875 45.783501 39.658501 45 40.625 45C 41.591499 45 42.375 45.783501 42.375 46.75ZM 18.75 19.817501L 11.75 26.817499L 18.75 33.380001L 11.75 39.942501L 18.75 46.942501M 30.125 29.442499C 27.708755 29.442499 25.75 27.483746 25.75 25.067499C 25.75 22.651255 27.708755 20.692501 30.125 20.692501"></path></g></g></g><g id="g-root-ic_uneq_4goiva1unk2rn-stroke" data-item-order="0" transform="translate(173, 401)"><g id="ic_uneq_4goiva1unk2rn-stroke" fill="none" stroke-linecap="round" stroke-linejoin="round" stroke-miterlimit="4" stroke="#f79438" stroke-width="2"><g><path d="M 31 21.693501L 31 48.818497M 26.625 48.818497L 35.375 48.818497M 11.75 38.318497L 17.875 25.2565L 24 38.318497M 28.375 19.068501C 28.375 20.518248 29.550255 21.693501 31 21.693501C 32.449749 21.693501 33.625 20.518248 33.625 19.068501C 33.625 17.618752 32.449749 16.443501 31 16.443501C 29.550255 16.443501 28.375 17.618752 28.375 19.068501ZM 17.875 44.443497C 19.511606 44.484264 21.093323 43.852055 22.250937 42.694435C 23.408552 41.536823 24.040764 39.955109 24 38.318497L 11.75 38.318497C 11.709235 39.955109 12.341447 41.536823 13.499062 42.694435C 14.656677 43.852055 16.238392 44.484264 17.875 44.443497ZM 50.25 27.818501L 44.125 14.63575L 38 27.818501M 44.125 33.943501C 42.488392 33.984264 40.906677 33.352055 39.749062 32.194435C 38.591446 31.036821 37.959236 29.455107 38 27.818499L 50.25 27.818501C 50.290764 29.455107 49.65855 31.036821 48.500938 32.194435C 47.343323 33.352055 45.761604 33.984264 44.125 33.943497ZM 33.614502 18.886499L 47.721252 13.181499M 14.2805 26.707251L 29.01375 20.74675"></path></g></g></g><g id="g-root-tx_comparin_mg3ree1yt44jw-stroke" data-item-order="0" transform="translate(224, 38)"></g><g id="g-root-ic_3_1hit8cm1unefia-stroke" data-item-order="0" transform="translate(380, 434)"><g id="ic_3_1hit8cm1unefia-stroke" fill="none" stroke-linecap="round" stroke-linejoin="round" stroke-miterlimit="4" stroke="#fb6762" stroke-width="2"><g><path d="M 56.124001 37.112C 56.627377 37.04911 57.003914 36.619274 57 36.112L 57 31.884001C 57.003914 31.376726 56.627377 30.946888 56.124001 30.884001L 51.622002 30.322001C 51.163094 28.117002 50.291088 26.018759 49.051998 24.138L 51.841999 20.538C 52.151066 20.14016 52.115929 19.57453 51.759998 19.218L 48.759998 16.218C 48.403469 15.862071 47.837841 15.826933 47.439999 16.136L 43.855999 18.950001C 41.974915 17.711102 39.876839 16.838486 37.671997 16.378L 37.110001 11.878C 37.047112 11.374624 36.617275 10.998087 36.110001 11.002L 31.882 11.002C 31.374725 10.998087 30.944889 11.374624 30.882 11.878L 30.32 16.378C 28.117947 16.839443 26.022665 17.712025 24.144001 18.950001L 20.554001 16.16C 20.15616 15.850933 19.59053 15.886071 19.234001 16.242001L 16.234001 19.242001C 15.878071 19.59853 15.842934 20.16416 16.152 20.562L 18.952 24.161999C 17.71291 26.042759 16.840904 28.141003 16.382 30.345999L 11.88 30.908001C 11.376624 30.970888 11.000087 31.400726 11.004 31.908001L 11.004 36.120003C 11.000087 36.627274 11.376624 37.057114 11.88 37.120003L 16.382 37.681999C 16.840904 39.886993 17.71291 41.985237 18.952 43.865997L 16.162001 47.466C 15.852934 47.863838 15.888071 48.42947 16.243999 48.785999L 19.243999 51.785999C 19.600529 52.14193 20.166161 52.177067 20.563999 51.868L 24.164 49.077999C 26.045086 50.316898 28.143162 51.189514 30.348 51.649998L 30.91 56.150002C 30.972889 56.653378 31.402725 57.029915 31.91 57.026001L 36.146 57.026001C 36.653275 57.029915 37.083111 56.653378 37.146 56.150002L 37.708 51.650002C 39.912834 51.189514 42.010914 50.316898 43.891998 49.077999L 47.481998 51.868C 47.879841 52.177067 48.445469 52.14193 48.801998 51.785999L 51.801998 48.785999C 52.157928 48.42947 52.193066 47.863838 51.883999 47.466L 49.094002 43.866001C 50.333088 41.985237 51.205093 39.886993 51.663998 37.681999ZM 21 34.001999C 21 41.181702 26.820299 47.002003 34 47.002003C 41.179703 47.002003 47 41.181702 47 34.001999C 47 26.8223 41.179703 21.002001 34 21.002001C 26.820299 21.002001 21 26.8223 21 34.001999ZM 34 21.001999L 34 31.002001M 31 34.001999C 31 35.658855 32.343147 37.001999 34 37.001999C 35.656853 37.001999 37 35.658855 37 34.001999C 37 32.345146 35.656853 31.002001 34 31.002001C 32.343147 31.002001 31 32.345146 31 34.001999ZM 36.360001 35.856003L 44.222 42.034M 31.639999 35.856003L 23.778 42.034"></path></g></g></g><g id="g-root-tx_governan_18mju6e1unehhl-stroke" data-item-order="0" transform="translate(170, 518)"></g><g id="g-root-tx_technolo_1ums4ue1unfu2z-stroke" data-item-order="0" transform="translate(362, 530)"></g><g id="g-root-tx_deployme_18hk1hi1unfvgt-stroke" data-item-order="0" transform="translate(554, 519)"></g><g id="g-root-tx_centrali_1qf2sue1unehai-stroke" data-item-order="0" transform="translate(176, 554)"></g><g id="g-root-tx_heteroge_m9u1s61unftac-stroke" data-item-order="0" transform="translate(338, 566)"></g><g id="g-root-ic_serv_djtbba1unbm68-stroke" data-item-order="0" transform="translate(386, 326)"><g id="ic_serv_djtbba1unbm68-stroke" fill="none" stroke-linecap="round" stroke-linejoin="round" stroke-miterlimit="4" stroke="#b7b7b7" stroke-width="2"><g><path d="M 11.5 26.656L 41.5 36.598L 41.5 80.356003L 11.698 70ZM 50.5 80.5L 80.5 70L 80.5 26.934999L 50.5 36.453999ZM 45.970001 29.605L 77.593002 20.917L 45.970001 11.923L 14.776 20.448999L 45.970001 29.605Z"></path></g></g></g></g></g><path id="wi0vxxi1yszx1r" d="M65.283 12.757a.35.35 0 0 0 .584.157l5.203-5.141-6.183 3.523.396 1.461zm-2.216-11.7a.35.35 0 0 0-.522.305v3.111l3.276-1.868-2.754-1.548zm3.728 2.105l-4.25 2.421v2.445l6.391-3.644-2.141-1.222zm4.708 3.303a.35.35 0 0 0 0-.609l-1.592-.9-7.365 4.199v1.782a.35.35 0 0 0 .523.305l8.435-4.777z M44.542 2.513c0-.433.355-.783.792-.783s.792.35.792.783-.355.783-.792.783-.792-.35-.792-.783zm59.171 0c0-.433.355-.783.792-.783s.792.35.792.783-.355.783-.792.783-.792-.35-.792-.783zm-85.951 7.636h-1.27v-.487c-.276.201-.864.609-1.881.609-1.202 0-2.274-.794-2.137-2.078.118-1.106 1.153-1.584 1.848-1.727l2.17-.345c0-.539-.29-.956-1.064-1.006s-1.21.305-1.571 1.017l-1.124-.605c1.218-2.631 5.029-1.764 5.029.414v4.207zm-1.27-2.86c.006.396-.062 1.112-.819 1.59-.587.37-1.841.299-1.903-.395-.049-.555.461-.791.906-.898l1.816-.297zm72.662 2.86h-1.27v-.487c-.276.201-.864.609-1.881.609-1.202 0-2.274-.794-2.137-2.078.118-1.106 1.153-1.584 1.848-1.727l2.17-.345c0-.539-.29-.956-1.064-1.006s-1.21.305-1.571 1.017l-1.124-.605c1.218-2.631 5.029-1.764 5.029.414v4.207zm-1.27-2.86c.006.396-.062 1.112-.82 1.59-.587.37-1.841.299-1.903-.395-.049-.555.461-.791.906-.898l1.816-.297zM99.096 10.149H97.85v-8.45h1.246v4.895l2.68-2.559h1.738l-2.633 2.535 2.715 3.578h-1.556l-2.077-2.707-.867.844v1.863zm6.053-6.114h-1.255v6.113h1.255V4.035zm-59.2 0h-1.255v6.113h1.255V4.035zm5.584 6.113V1.697h1.255v2.695c.361-.346 1-.485 1.47-.485 1.452 0 2.477 1.082 2.457 2.448v3.792h-1.27v-3.68c0-.408-.214-1.339-1.315-1.339-.968 0-1.342.756-1.342 1.339v3.681h-1.255zm-4.76-4.894V4.039h.621a.45.45 0 0 0 .45-.45v-.855h1.251v1.305h1.309v1.215h-1.309v3.109c0 .293.105.664.648.664.365 0 .531-.035.736-.07v1.137s-.361.113-.857.113c-1.398 0-1.777-1.051-1.777-1.788V5.254h-1.071zM36.528 4.039h-1.394l2.191 6.106h1.125l1.234-3.918 1.238 3.918h1.129l2.188-6.106h-1.383l-1.359 3.93-1.256-3.93h-1.124l-1.242 3.957-1.348-3.957zM26.212 7.141c-.02 1.566 1.187 3.129 3.223 3.129 1.566 0 2.383-.918 2.734-1.719L31.172 8c-.315.399-.801 1.094-1.738 1.094-1.145 0-1.825-.781-1.891-1.52h4.625c.074-.284.148-.995-.03-1.559-.336-1.064-1.221-2.102-2.839-2.102s-3.088 1.152-3.088 3.227zm1.363-.75h3.348c-.055-.43-.566-1.301-1.623-1.301a1.79 1.79 0 0 0-1.725 1.301zm-8.758.75c.038 1.758 1.277 3.133 3.145 3.133 1.074 0 1.723-.477 1.961-.672v.547h1.242V1.703h-1.258v2.888c-.414-.36-1.062-.68-1.93-.68-1.91 0-3.198 1.473-3.16 3.23zm1.309-.08c0 1.119.723 1.978 1.836 1.978a1.88 1.88 0 0 0 1.94-1.904c0-1.371-1.011-1.99-1.972-1.99s-1.805.798-1.805 1.916zm76.683-.028C96.771 5.275 95.532 3.9 93.664 3.9c-1.074 0-1.723.477-1.961.672v-.547h-1.242v8.22h1.258V9.583c.414.36 1.063.68 1.93.68 1.91 0 3.198-1.473 3.16-3.23zm-1.309.08c0-1.119-.723-1.978-1.836-1.978a1.88 1.88 0 0 0-1.94 1.904c0 1.371 1.011 1.99 1.972 1.99S95.5 8.231 95.5 7.113zM106.441 10.173V4.036h1.254v.382c.361-.346 1-.485 1.47-.485 1.452 0 2.477 1.082 2.457 2.448v3.792h-1.27V6.492c0-.408-.214-1.339-1.315-1.339-.969 0-1.342.756-1.342 1.339v3.681h-1.254zm-30.383-.021V1.824h1.084l4.215 5.777V1.824h1.32v8.328h-1.094l-4.207-5.796v5.796h-1.319zM5.24 10.149H4V2.377h1.014l2.664 3.597 2.654-3.592h1.03v7.766h-1.256V4.762L7.678 8.068 5.24 4.742v5.407z" transform="translate(20, 649)" fill="#ababab88" stroke="none"></path></svg>