<?xml version="1.0" encoding="utf-8" standalone="yes"?>
<!DOCTYPE svg PUBLIC "-//W3C//DTD SVG 1.1//EN" "http://www.w3.org/Graphics/SVG/1.1/DTD/svg11.dtd">
<svg width="900" height="916" viewBox="0 0 900 916" style="fill:none;stroke:none;fill-rule:evenodd;clip-rule:evenodd;stroke-linecap:round;stroke-linejoin:round;stroke-miterlimit:1.5;" version="1.1" xmlns="http://www.w3.org/2000/svg" xmlns:xlink="http://www.w3.org/1999/xlink"><style class="text-font-style fontImports" data-font-family="Roboto">@import url('https://fonts.googleapis.com/css2?family=Roboto:wght@400;700&amp;display=block');</style><g id="items" style="isolation: isolate"><g id="blend" style="mix-blend-mode: normal"><g id="g-root-cp_0_g-0_1hhk6xy1vhofew-fill" data-item-order="-690110" transform="translate(356, 379.99993896484375)"></g><g id="g-root-cp_5_g-5_zqa6g61vhohs2-fill" data-item-order="-690106" transform="translate(210.24099731445312, 224)"></g><g id="g-root-cp_4_g-4_qv9nae1vhoff0-fill" data-item-order="-690098" transform="translate(200, 393.89898681640625)"></g><g id="g-root-cp_3_g-3_djt4x21vhogzy-fill" data-item-order="-690090" transform="translate(296.87200927734375, 541.9999389648438)"></g><g id="g-root-cp_2_g-2_93zmsm1vhohs8-fill" data-item-order="-690082" transform="translate(514, 397.00506591796875)"></g><g id="g-root-cp_1_g-1_1uu9nhi1vhog0a-fill" data-item-order="-690074" transform="translate(440, 224)"></g><g id="g-root-tx_themediu_1uqiw4m1vh65u4-fill" data-item-order="0" transform="translate(122, 206)"><g id="tx_themediu_1uqiw4m1vh65u4-fill" stroke="none" fill="#f4f4f4"><g><text style="font: 15px Roboto, sans-serif; white-space: pre;" font-size="15px" font-family="Roboto, sans-serif"><tspan x="13.13" y="28" dominant-baseline="ideographic">The medium through </tspan><tspan x="53.61" y="46" dominant-baseline="ideographic">which services </tspan><tspan x="87.81" y="64" dominant-baseline="ideographic">exchange </tspan><tspan x="74.5" y="82" dominant-baseline="ideographic">information</tspan></text></g></g></g><g id="g-root-ic_netw_qwilgm1vhohl9-fill" data-item-order="0" transform="translate(314, 278)"></g><g id="g-root-ic_puzz_1d2zq5i1vh4s21-fill" data-item-order="0" transform="translate(536, 283.99993896484375)"></g><g id="g-root-tx_services_1hgxt0m1vh66fc-fill" data-item-order="0" transform="translate(614, 182)"><g id="tx_services_1hgxt0m1vh66fc-fill" stroke="none" fill="#f4f4f4"><g><text style="font: 15px Roboto, sans-serif; white-space: pre;" font-size="15px" font-family="Roboto, sans-serif"><tspan x="12" y="31" dominant-baseline="ideographic">Services that </tspan><tspan x="12" y="49" dominant-baseline="ideographic">operate </tspan><tspan x="12" y="67" dominant-baseline="ideographic">independently and </tspan><tspan x="12" y="85" dominant-baseline="ideographic">can be easily </tspan><tspan x="12" y="103" dominant-baseline="ideographic">integrated</tspan></text></g></g></g><g id="g-root-tx_networkc_hvvvom1vh66tf-fill" data-item-order="0" transform="translate(110, 146)"><g id="tx_networkc_hvvvom1vh66tf-fill" stroke="none" fill="#f79438"><g><text style="font: bold 20px Roboto, sans-serif; white-space: pre;" font-weight="bold" font-size="20px" font-family="Roboto, sans-serif"><tspan x="88.33" y="34" dominant-baseline="ideographic">Network </tspan><tspan x="21.55" y="58" dominant-baseline="ideographic">Communication</tspan></text></g></g></g><g id="g-root-tx_looselyc_6hag61vh67f3-fill" data-item-order="0" transform="translate(614, 98)"><g id="tx_looselyc_6hag61vh67f3-fill" stroke="none" fill="#1ac3fb"><g><text style="font: bold 20px Roboto, sans-serif; white-space: pre;" font-weight="bold" font-size="20px" font-family="Roboto, sans-serif"><tspan x="12" y="34" dominant-baseline="ideographic">Loosely </tspan><tspan x="12" y="58" dominant-baseline="ideographic">Coupled </tspan><tspan x="12" y="82" dominant-baseline="ideographic">Services</tspan></text></g></g></g><g id="g-root-tx_agreedup_1ly09ba1vh67t8-fill" data-item-order="0" transform="translate(368, 787.9999389648438)"><g id="tx_agreedup_1ly09ba1vh67t8-fill" stroke="none" fill="#f4f4f4"><g><text style="font: 15px Roboto, sans-serif; white-space: pre;" font-size="15px" font-family="Roboto, sans-serif"><tspan x="19.32" y="31" dominant-baseline="ideographic">Agreed-upon rules </tspan><tspan x="16.68" y="49" dominant-baseline="ideographic">for communication </tspan><tspan x="22.21" y="67" dominant-baseline="ideographic">between services</tspan></text></g></g></g><g id="g-root-tx_interope_145hana1vh6809-fill" data-item-order="0" transform="translate(698, 463.99993896484375)"><g id="tx_interope_145hana1vh6809-fill" stroke="none" fill="#43dd93"><g><text style="font: bold 20px Roboto, sans-serif; white-space: pre;" font-weight="bold" font-size="20px" font-family="Roboto, sans-serif"><tspan x="12" y="34" dominant-baseline="ideographic">Interoperable </tspan><tspan x="12" y="58" dominant-baseline="ideographic">Services</tspan></text></g></g></g><g id="g-root-tx_interfac_1448ch21vh65u5-fill" data-item-order="0" transform="translate(86, 493.99993896484375)"><g id="tx_interfac_1448ch21vh65u5-fill" stroke="none" fill="#ffe711"><g><text style="font: bold 20px Roboto, sans-serif; white-space: pre;" font-weight="bold" font-size="20px" font-family="Roboto, sans-serif"><tspan x="12.5" y="34" dominant-baseline="ideographic">Interfaces</tspan></text></g></g></g><g id="g-root-ic_brid_zn5t0m1vhpurq-fill" data-item-order="0" transform="translate(230, 500.99993896484375)"></g><g id="g-root-ic_3_zmjf3a1vh4u88-fill" data-item-order="0" transform="translate(602, 505.99993896484375)"></g><g id="g-root-tx_pointsof_mcybza1vh687a-fill" data-item-order="0" transform="translate(38, 529.9999389648438)"><g id="tx_pointsof_mcybza1vh687a-fill" stroke="none" fill="#f4f4f4"><g><text style="font: 15px Roboto, sans-serif; white-space: pre;" font-size="15px" font-family="Roboto, sans-serif"><tspan x="17.3" y="28" dominant-baseline="ideographic">Points of interaction </tspan><tspan x="36.16" y="46" dominant-baseline="ideographic">between services</tspan></text></g></g></g><g id="g-root-tx_services_metr8m1vh677m-fill" data-item-order="0" transform="translate(698, 523.9999389648438)"><g id="tx_services_metr8m1vh677m-fill" stroke="none" fill="#f4f4f4"><g><text style="font: 15px Roboto, sans-serif; white-space: pre;" font-size="15px" font-family="Roboto, sans-serif"><tspan x="12" y="28" dominant-baseline="ideographic">Services that can </tspan><tspan x="12" y="46" dominant-baseline="ideographic">communicate and </tspan><tspan x="12" y="64" dominant-baseline="ideographic">exchange data </tspan><tspan x="12" y="82" dominant-baseline="ideographic">seamlessly</tspan></text></g></g></g><g id="g-root-tx_building_1d3m42u1vhof7o-fill" data-item-order="0" transform="translate(260, 38)"><g id="tx_building_1d3m42u1vhof7o-fill" stroke="none" fill="#f4f4f4"><g><text style="font: bold 25px Roboto, sans-serif; white-space: pre;" font-weight="bold" font-size="25px" font-family="Roboto, sans-serif"><tspan x="16.16" y="42" dominant-baseline="ideographic">Building Applications with SOA</tspan></text></g></g></g><g id="g-root-ic_tick_qwilgm1vhpuz3-fill" data-item-order="0" transform="translate(416, 631.9999389648438)"></g><g id="g-root-tx_standard_8cppi1vh66ff-fill" data-item-order="0" transform="translate(392, 727.9999389648438)"><g id="tx_standard_8cppi1vh66ff-fill" stroke="none" fill="#a6da37"><g><text style="font: bold 20px Roboto, sans-serif; white-space: pre;" font-weight="bold" font-size="20px" font-family="Roboto, sans-serif"><tspan x="16.06" y="34" dominant-baseline="ideographic">Standard </tspan><tspan x="13.59" y="58" dominant-baseline="ideographic">Protocols</tspan></text></g></g></g><g id="g-root-tx_soaappli_v6pwyu1vh68ea-fill" data-item-order="0" transform="translate(386, 439.99993896484375)"><g id="tx_soaappli_v6pwyu1vh68ea-fill" stroke="none" fill="#4f91fc"><g><text style="font: bold 20px Roboto, sans-serif; white-space: pre;" font-weight="bold" font-size="20px" font-family="Roboto, sans-serif"><tspan x="44.33" y="34" dominant-baseline="ideographic">SOA </tspan><tspan x="13.05" y="58" dominant-baseline="ideographic">Application</tspan></text></g></g></g><g id="g-root-cp_0_g-0_1hhk6xy1vhofew-stroke" data-item-order="-690110" transform="translate(356, 379.99993896484375)"><g id="cp_0_g-0_1hhk6xy1vhofew-stroke" fill="none" stroke-linecap="round" stroke-linejoin="round" stroke-miterlimit="4" stroke="#d3d3d3" stroke-width="2"><g><path d="M 54.3525 19.9268C 66.1619 13.5926 79.6614 10 94 10C 111.1946 10 127.1825 15.1663 140.4962 24.0313L 141.5 32.5L 149.8591 31.2632C 167.1259 46.648 178 69.0541 178 94C 178 100.7292 177.2088 107.2735 175.7142 113.5451L 168 117.4995L 172.0628 125.08C 160.3875 154.3788 132.6953 175.5585 99.8026 177.8027L 93.9999 172L 88.1972 177.8027C 54.9051 175.5312 26.9404 153.8613 15.5189 124.0087L 19.5 116.5005L 12.0549 112.5492C 10.7099 106.5818 10 100.3738 10 94C 10 65.5024 24.191 40.3193 45.8918 25.1319L 52.9999 26.5L 54.3525 19.9268Z"></path></g></g></g><g id="g-root-cp_5_g-5_zqa6g61vhohs2-stroke" data-item-order="-690106" transform="translate(210.24099731445312, 224)"><g id="cp_5_g-5_zqa6g61vhohs2-stroke" fill="none" stroke-linecap="round" stroke-linejoin="round" stroke-miterlimit="4" stroke="#f79438" stroke-width="2"><g><path d="M 96.662 57.3257C 138.0414 26.5938 188.2153 10 239.7585 10L 239.7585 93.8849C 218.0886 93.8849 196.7909 98.3939 177.1693 106.9806L 199.0313 139.483L 208.9884 132.7856L 198.7585 182.5L 149.2457 172.9702L 159.2028 166.2728L 136.6653 132.7661C 114.8493 151.9503 98.7504 176.9073 90.3052 204.8816L 10 180.6383C 24.8964 131.2946 55.2826 88.0575 96.662 57.3257Z"></path></g></g></g><g id="g-root-cp_4_g-4_qv9nae1vhoff0-stroke" data-item-order="-690098" transform="translate(200, 393.89898681640625)"><g id="cp_4_g-4_qv9nae1vhoff0-stroke" fill="none" stroke-linecap="round" stroke-linejoin="round" stroke-miterlimit="4" stroke="#ffe711" stroke-width="2"><g><path d="M 22.075 155.2687C 37.6061 202.3626 67.3437 243.4893 107.1994 272.9948L 157.1111 205.5745C 136.6711 190.4427 120.3223 170.6118 109.3679 147.8846L 147.8398 137.1064L 151.077 148.6616L 175.5 102.601L 131.6537 79.3309L 134.8909 90.886L 95.4204 101.9439C 92.2431 79.4581 93.9946 56.4338 100.6928 34.5017L 20.466 10C 5.9818 57.4263 6.5438 108.1749 22.075 155.2687Z"></path></g></g></g><g id="g-root-cp_3_g-3_djt4x21vhogzy-stroke" data-item-order="-690090" transform="translate(296.87200927734375, 541.9999389648438)"><g id="cp_3_g-3_djt4x21vhogzy-stroke" fill="none" stroke-linecap="round" stroke-linejoin="round" stroke-miterlimit="4" stroke="#a6da37" stroke-width="2"><g><path d="M 177.1278 86.2594C 198.3358 82.9597 218.7447 75.3046 237.0242 63.6562L 282.1039 134.3986C 241.0999 160.5279 193.1266 173.5868 144.5359 171.8461C 95.9453 170.1055 49.0293 153.6474 10 124.6511L 60.0261 57.3156C 80.4428 72.4839 104.1772 82.3776 129.1278 86.2595L 129.1278 46L 117.1278 46L 153.1278 10L 189.1278 46L 177.1278 46L 177.1278 86.2594Z"></path></g></g></g><g id="g-root-cp_2_g-2_93zmsm1vhohs8-stroke" data-item-order="-690082" transform="translate(514, 397.00506591796875)"><g id="cp_2_g-2_93zmsm1vhohs8-stroke" fill="none" stroke-linecap="round" stroke-linejoin="round" stroke-miterlimit="4" stroke="#43dd93" stroke-width="2"><g><path d="M 160.6143 161.5431C 178.8911 112.9883 180.942 59.8184 166.4598 10L 85.9094 33.416C 92.2752 55.314 93.7302 78.2075 90.336 100.4974L 52.632 88.1246L 56.3735 76.7228L 10 100.4947L 33.9241 145.1335L 37.6657 133.7317L 75.8992 146.2783C 63.323 171.6729 44.0199 193.2608 19.9645 208.6073L 65.081 279.3263C 108.8189 251.4229 142.3375 210.0979 160.6143 161.5431Z"></path></g></g></g><g id="g-root-cp_1_g-1_1uu9nhi1vhog0a-stroke" data-item-order="-690074" transform="translate(440, 224)"><g id="cp_1_g-1_1uu9nhi1vhog0a-stroke" fill="none" stroke-linecap="round" stroke-linejoin="round" stroke-miterlimit="4" stroke="#1ac3fb" stroke-width="2"><g><path d="M 153.8874 57.9156C 112.3646 26.8115 61.8807 10 10 10L 10 93.8849C 36.273 93.8849 61.9952 100.5128 84.8451 112.9956L 61.3533 145.7427L 51.6028 138.7479L 57.5 188.5L 110.1062 180.7164L 100.3556 173.7217L 122.948 142.2283C 140.079 160.1823 152.773 182.0588 159.8192 206.112L 240.321 182.5299C 225.736 132.7415 195.4102 89.0197 153.8874 57.9156Z"></path></g></g></g><g id="g-root-tx_themediu_1uqiw4m1vh65u4-stroke" data-item-order="0" transform="translate(122, 206)"></g><g id="g-root-ic_netw_qwilgm1vhohl9-stroke" data-item-order="0" transform="translate(314, 278)"><g id="ic_netw_qwilgm1vhohl9-stroke" fill="none" stroke-linecap="round" stroke-linejoin="round" stroke-miterlimit="4" stroke="#f79438" stroke-width="2"><g><path d="M 11.072001 33.996002C 11.072001 46.698551 21.369452 56.996002 34.071999 56.996002C 46.774551 56.996002 57.071999 46.698551 57.071999 33.996002C 57.071999 21.293451 46.774551 10.996 34.071999 10.996C 21.369452 10.996 11.072001 21.293451 11.072001 33.996002ZM 23.071999 25.496C 23.072001 27.981281 25.08672 29.996 27.572001 29.996C 30.057281 29.996 32.071999 27.981281 32.071999 25.496C 32.071999 23.010719 30.057281 20.996 27.572001 20.996C 25.08672 20.996 23.072001 23.010719 23.072001 25.496ZM 36.071999 45.495998C 36.071999 46.876713 37.191288 47.996002 38.571999 47.996002C 39.952713 47.996002 41.071999 46.876713 41.071999 45.496002C 41.071999 44.115288 39.952713 42.996002 38.571999 42.996002C 37.191288 42.996002 36.071999 44.115288 36.071999 45.496002ZM 44.071999 30.496C 44.072002 32.428997 45.639004 33.996002 47.572002 33.996002C 49.504997 33.996002 51.072002 32.428997 51.072002 30.496C 51.072002 28.563004 49.504997 26.996 47.572002 26.996C 45.639004 26.996 44.072002 28.563004 44.072002 30.496ZM 32.071999 25C 36.542919 25.170311 40.80291 26.945305 44.071999 30M 48.27 33.928001L 49.07 34.996002C 49.07 34.996002 52.07 38.996002 52.07 47.995998M 43.717999 13.11L 44.071999 14C 45.519688 18.288517 46.1968 22.799444 46.071999 27.323999M 45.071999 33C 44.821491 37.13044 43.332851 41.089699 40.799999 44.362M 37.375999 47.692001L 37.071999 48C 37.071999 48 32.071999 53 21.071999 53M 34.071999 11C 31.335846 13.926501 29.135672 17.311386 27.571999 21M 25.236 29.344L 25.071999 30C 23.982292 35.408966 24.684383 41.0257 27.072001 46C 30.472 52.812 39.071999 56 39.071999 56L 39.818001 56.278M 23.071999 25.496C 23.071999 25.496 15.4 26.046 11.522 29.441999M 11.632 39.063999L 12.072001 38.996002C 12.072001 38.996002 25.834 36.879997 37.02 43.535999"></path></g></g></g><g id="g-root-ic_puzz_1d2zq5i1vh4s21-stroke" data-item-order="0" transform="translate(536, 283.99993896484375)"><g id="ic_puzz_1d2zq5i1vh4s21-stroke" fill="none" stroke-linecap="round" stroke-linejoin="round" stroke-miterlimit="4" stroke="#1ac3fb" stroke-width="2"><g><path d="M 44.200001 33.98C 42.614426 32.460838 42.513096 29.960123 43.970558 28.317654C 45.42802 26.675184 47.923035 26.478367 49.619999 27.872C 49.740227 27.978226 49.853775 28.091774 49.959999 28.212C 50.365028 28.616631 50.684082 29.098955 50.898003 29.630001C 51.027191 29.955887 51.309685 30.196419 51.652 30.271999C 51.993736 30.349892 52.351547 30.247229 52.599998 30L 55.784 26.799999C 56.166214 26.409758 56.377605 25.883574 56.371605 25.337368C 56.365601 24.791162 56.1427 24.269751 55.752003 23.888L 55.751999 23.888L 52.400002 20.557999C 53.095207 20.380379 53.729542 20.018295 54.236 19.509998C 55.816933 17.876568 55.795708 15.277086 54.188313 13.669689C 52.580914 12.062292 49.98143 12.041066 48.348 13.622C 47.839954 14.128329 47.478493 14.762781 47.301998 15.458L 43.964001 12.12C 43.169083 11.306905 41.865685 11.291686 41.051998 12.086L 41.052002 12.086L 38.087997 15.05C 37.871742 15.268255 37.765862 15.572651 37.800003 15.878C 37.834778 16.187981 38.004566 16.466818 38.264 16.639999C 39.529205 17.410116 40.27858 18.804619 40.222595 20.284716C 40.166603 21.764812 39.314022 23.098717 37.994255 23.771053C 36.674484 24.443386 35.094212 24.348862 33.863998 23.524C 33.601994 23.35815 33.360344 23.162144 33.143997 22.939999C 32.952583 22.741751 32.781715 22.524647 32.634003 22.292C 32.459511 22.0336 32.181519 21.863594 31.872 21.826C 31.566048 21.791826 31.261028 21.897663 31.042 22.113998L 28.068001 25.07C 27.270491 25.882959 27.283026 27.188505 28.096001 27.986L 39.872002 39.762001C 40.66996 40.573875 41.974594 40.586403 42.787998 39.789997L 45.972 36.599998C 46.214401 36.35453 46.315369 36.002655 46.240002 35.666C 46.164482 35.324005 45.926086 35.040771 45.601997 34.907997C 45.076584 34.696915 44.599586 34.381184 44.200001 33.98ZM 11.638 51.75C 32.638 58.75 25.638 58.75 49.638 46.75C 48.255646 44.890594 45.859528 44.091885 43.638 44.75L 35 47.484001M 11.638 40.625999L 17.638 40.625999C 22.344 40.625999 25.638 44.625999 26.638 44.625999L 33.638 44.625999C 35.638 44.625999 35.638 48.625999 33.638 48.625999L 22.638 48.625999M 18.466 40.667999C 18.466 40.667999 20.6 47.540001 11.638 47.540001M 40.393997 45.778L 42.91 50.206001M 32.914001 48.625999L 35.162003 54.273998M 26.841999 44.625999C 26.453981 45.931107 26.453981 47.3209 26.842001 48.626003"></path></g></g></g><g id="g-root-tx_services_1hgxt0m1vh66fc-stroke" data-item-order="0" transform="translate(614, 182)"></g><g id="g-root-tx_networkc_hvvvom1vh66tf-stroke" data-item-order="0" transform="translate(110, 146)"></g><g id="g-root-tx_looselyc_6hag61vh67f3-stroke" data-item-order="0" transform="translate(614, 98)"></g><g id="g-root-tx_agreedup_1ly09ba1vh67t8-stroke" data-item-order="0" transform="translate(368, 787.9999389648438)"></g><g id="g-root-tx_interope_145hana1vh6809-stroke" data-item-order="0" transform="translate(698, 463.99993896484375)"></g><g id="g-root-tx_interfac_1448ch21vh65u5-stroke" data-item-order="0" transform="translate(86, 493.99993896484375)"></g><g id="g-root-ic_brid_zn5t0m1vhpurq-stroke" data-item-order="0" transform="translate(230, 500.99993896484375)"><g id="ic_brid_zn5t0m1vhpurq-stroke" fill="none" stroke-linecap="round" stroke-linejoin="round" stroke-miterlimit="4" stroke="#ffe711" stroke-width="2"><g><path d="M 56.987999 22.633999C 51.417332 21.449936 47.327156 16.685707 46.999996 11C 47 17.628 40.627998 23 34 23C 27.372 23 21 17.628 21 11C 20.672398 16.703152 16.559757 21.477453 10.968 22.646M 11 33L 57 33M 23 45L 23 33M 19 33L 19 43M 45 43L 45 33.001999M 49 33L 49 43M 15.002 20.966L 15.002 33M 21.001999 11L 21.001999 33M 27.002001 20.968L 27.002001 33M 35.001999 22.959999L 35.001999 33M 41.001999 21.001999L 41.001999 33M 47 11L 47.001999 33M 53.001999 20.966L 53.001999 32.996002M 56.981998 56.776001C 51.981998 57.818001 48.862 52.818001 48.862 52.818001L 48.862 52.818001C 47.290386 55.316471 44.57085 56.860619 41.620003 56.930004C 38.693253 56.786953 36.009048 55.260334 34.389999 52.818001L 34.389999 52.818001C 32.818771 55.315887 30.100136 56.859955 27.150002 56.930004C 24.222607 56.789177 21.537462 55.262028 19.919998 52.817997L 19.92 52.818001C 19.92 52.818001 15.92 57.902 11.01 56.858002M 56.981998 49.776001C 51.981998 50.818001 48.862 45.818001 48.862 45.818001L 48.862 45.818001C 47.290386 48.316471 44.57085 49.860619 41.620003 49.93C 38.693253 49.786953 36.009048 48.260334 34.389999 45.818001L 34.389999 45.818001C 32.818771 48.315887 30.100136 49.859955 27.150002 49.93C 24.222607 49.789177 21.537462 48.262028 19.919998 45.817997L 19.92 45.818001C 19.92 45.818001 15.92 50.902 11.01 49.858002"></path></g></g></g><g id="g-root-ic_3_zmjf3a1vh4u88-stroke" data-item-order="0" transform="translate(602, 505.99993896484375)"><g id="ic_3_zmjf3a1vh4u88-stroke" fill="none" stroke-linecap="round" stroke-linejoin="round" stroke-miterlimit="4" stroke="#43dd93" stroke-width="2"><g><path d="M 45.237999 21.001999C 45.238003 22.589268 46.524734 23.875999 48.112003 23.875999C 49.699268 23.875999 50.986004 22.589268 50.986004 21.002001C 50.986004 19.414734 49.699268 18.128 48.112003 18.128C 46.524734 18.128 45.238003 19.414734 45.238003 21.002001ZM 50 12.4L 50.655998 14.552C 50.883629 15.289386 51.642101 15.72579 52.394001 15.552L 54.576 15.046C 55.425007 14.854486 56.299706 15.238667 56.733097 15.993427C 57.166489 16.748188 57.057369 17.697287 56.464001 18.334L 54.936001 20C 54.407558 20.568111 54.407558 21.447887 54.936001 22.016001L 56.462002 23.664C 57.053524 24.300951 57.161533 25.248787 56.728485 26.002495C 56.295437 26.756203 55.42218 27.140244 54.573997 26.949999L 52.400002 26.438C 51.648102 26.26421 50.889629 26.700613 50.661999 27.438L 50 29.6C 49.750107 30.433416 48.983074 31.004198 48.112999 31.004198C 47.242924 31.004198 46.475891 30.433416 46.225998 29.6L 45.57 27.448C 45.342369 26.710613 44.583897 26.27421 43.832001 26.448L 41.650002 26.954C 40.801819 27.144243 39.928562 26.760202 39.495514 26.006495C 39.062462 25.252787 39.170475 24.304951 39.762001 23.667999L 41.288002 22.02C 41.816444 21.451889 41.816444 20.572113 41.288002 20.004002L 39.762001 18.358C 39.168629 17.721287 39.059509 16.772188 39.492901 16.017427C 39.926292 15.262667 40.800991 14.878487 41.650002 15.07L 43.832001 15.576C 44.583897 15.74979 45.342369 15.313386 45.57 14.576L 46.223999 12.4C 46.472782 11.564904 47.240635 10.992455 48.112 10.992455C 48.983364 10.992455 49.751217 11.564904 50 12.4ZM 24.062 29.252001C 24.555244 29.803511 25.260098 30.11875 26 30.11875C 26.739901 30.11875 27.444756 29.803511 27.938 29.251999L 29.200001 27.864C 29.940538 27.043091 31.117697 26.777323 32.139099 27.200438C 33.160503 27.623552 33.804893 28.643892 33.748001 29.747999L 33.652 31.615999C 33.614887 32.353981 33.891838 33.073189 34.414326 33.59568C 34.936813 34.118164 35.656025 34.395119 36.394001 34.358002L 38.262001 34.262001C 39.366104 34.205105 40.386448 34.849495 40.809563 35.870895C 41.232674 36.892303 40.966908 38.069458 40.146 38.809998L 38.757999 40.063999C 38.20649 40.557243 37.891251 41.2621 37.891251 42.001999C 37.891251 42.741901 38.20649 43.446754 38.757999 43.939999L 40.146 45.194C 40.966908 45.93454 41.232674 47.111698 40.809563 48.133099C 40.386448 49.154503 39.366104 49.798893 38.262001 49.742001L 36.393997 49.646C 35.656025 49.608887 34.936813 49.885838 34.414326 50.408325C 33.891838 50.930813 33.614887 51.650024 33.652 52.388004L 33.748001 54.256001C 33.804893 55.360107 33.160503 56.380447 32.139099 56.803562C 31.117697 57.226677 29.940538 56.960907 29.199999 56.139999L 27.945999 54.751999C 27.452757 54.200489 26.7479 53.88525 26.007999 53.88525C 25.268099 53.88525 24.563244 54.200489 24.07 54.751999L 22.799999 56.139999C 22.05946 56.960907 20.882301 57.226677 19.860899 56.803562C 18.839497 56.380447 18.195105 55.360107 18.251999 54.256001L 18.348 52.388C 18.385117 51.650024 18.108166 50.930813 17.585678 50.408325C 17.063189 49.885838 16.343977 49.608887 15.606001 49.646004L 13.738 49.742001C 12.638251 49.792141 11.625125 49.147362 11.204857 48.129848C 10.784589 47.112331 11.047412 45.940544 11.862 45.200001L 13.25 43.945999C 13.801511 43.452755 14.11675 42.747902 14.11675 42.007999C 14.11675 41.268097 13.801511 40.563244 13.25 40.07L 11.862 38.816002C 11.041091 38.075462 10.775323 36.8983 11.198438 35.8769C 11.621552 34.855495 12.641892 34.211105 13.746 34.267998L 15.614 34.363998C 16.351978 34.401115 17.07119 34.124168 17.593678 33.601677C 18.116165 33.079193 18.393116 32.359978 18.356001 31.622002L 18.26 29.747999C 18.207249 28.647717 18.850439 27.632605 19.867859 27.210398C 20.885281 26.788191 22.05822 27.04965 22.799999 27.864ZM 19 42.001999C 19 45.867996 22.134007 49.002003 26 49.002003C 29.865993 49.002003 33 45.867996 33 42.002003C 33 38.136009 29.865993 35.001999 26 35.001999C 22.134007 35.001999 19 38.136009 19 42.002003Z"></path></g></g></g><g id="g-root-tx_pointsof_mcybza1vh687a-stroke" data-item-order="0" transform="translate(38, 529.9999389648438)"></g><g id="g-root-tx_services_metr8m1vh677m-stroke" data-item-order="0" transform="translate(698, 523.9999389648438)"></g><g id="g-root-tx_building_1d3m42u1vhof7o-stroke" data-item-order="0" transform="translate(260, 38)"></g><g id="g-root-ic_tick_qwilgm1vhpuz3-stroke" data-item-order="0" transform="translate(416, 631.9999389648438)"><g id="ic_tick_qwilgm1vhpuz3-stroke" fill="none" stroke-linecap="round" stroke-linejoin="round" stroke-miterlimit="4" stroke="#a6da37" stroke-width="2"><g><path d="M 41 16C 41 18.761425 43.238575 21 46 21C 48.761425 21 51 18.761425 51 16C 51 13.238577 48.761425 11 46 11C 43.238575 11 41 13.238577 41 16M 15 16C 15 18.761425 17.238577 21 20 21C 22.761425 21 25 18.761425 25 16C 25 13.238577 22.761425 11 20 11C 17.238577 11 15 13.238577 15 16M 47 54L 47 44M 28 38C 28 39.656853 29.343145 41 31 41C 38.900002 41 39.52 33.919998 41 31.780001L 41 54C 41 55.656857 42.343147 57 44 57C 45.656857 57 47 55.656857 47 54C 47 55.656857 48.343147 57 50 57C 51.656857 57 53 55.656857 53 54L 53 43L 55 43C 56.104568 43 57 42.104568 57 41L 57 31C 57 27.686293 54.313709 25 51 25L 43 25C 38.639023 25.000111 34.905594 28.126751 34.139999 32.419998C 33.906422 33.956047 32.552181 35.068764 31 35C 29.343145 35 28 36.343147 28 38ZM 53 43L 53 32M 11 33L 11 31C 11 27.686293 13.686292 25 17 25L 24.119999 25C 25.309729 25.001932 26.438574 24.474159 27.200001 23.560001L 31.200001 18.68M 25 41L 12 41C 11.447716 41 11 40.552284 11 40L 11 38C 11 37.447716 11.447716 37 12 37L 24 37M 15 41L 15 57M 36 19L 32 19C 31.447716 19 31 18.552284 31 18L 31 12C 31 11.447716 31.447716 11 32 11L 36 11C 36.552284 11 37 11.447716 37 12L 37 18C 37 18.552284 36.552284 19 36 19Z"></path></g></g></g><g id="g-root-tx_standard_8cppi1vh66ff-stroke" data-item-order="0" transform="translate(392, 727.9999389648438)"></g><g id="g-root-tx_soaappli_v6pwyu1vh68ea-stroke" data-item-order="0" transform="translate(386, 439.99993896484375)"></g></g></g><path id="wv7z4p21xzm7ep" d="M65.283 12.757a.35.35 0 0 0 .584.157l5.203-5.141-6.183 3.523.396 1.461zm-2.216-11.7a.35.35 0 0 0-.522.305v3.111l3.276-1.868-2.754-1.548zm3.728 2.105l-4.25 2.421v2.445l6.391-3.644-2.141-1.222zm4.708 3.303a.35.35 0 0 0 0-.609l-1.592-.9-7.365 4.199v1.782a.35.35 0 0 0 .523.305l8.435-4.777z M44.542 2.513c0-.433.355-.783.792-.783s.792.35.792.783-.355.783-.792.783-.792-.35-.792-.783zm59.171 0c0-.433.355-.783.792-.783s.792.35.792.783-.355.783-.792.783-.792-.35-.792-.783zm-85.951 7.636h-1.27v-.487c-.276.201-.864.609-1.881.609-1.202 0-2.274-.794-2.137-2.078.118-1.106 1.153-1.584 1.848-1.727l2.17-.345c0-.539-.29-.956-1.064-1.006s-1.21.305-1.571 1.017l-1.124-.605c1.218-2.631 5.029-1.764 5.029.414v4.207zm-1.27-2.86c.006.396-.062 1.112-.819 1.59-.587.37-1.841.299-1.903-.395-.049-.555.461-.791.906-.898l1.816-.297zm72.662 2.86h-1.27v-.487c-.276.201-.864.609-1.881.609-1.202 0-2.274-.794-2.137-2.078.118-1.106 1.153-1.584 1.848-1.727l2.17-.345c0-.539-.29-.956-1.064-1.006s-1.21.305-1.571 1.017l-1.124-.605c1.218-2.631 5.029-1.764 5.029.414v4.207zm-1.27-2.86c.006.396-.062 1.112-.82 1.59-.587.37-1.841.299-1.903-.395-.049-.555.461-.791.906-.898l1.816-.297zM99.096 10.149H97.85v-8.45h1.246v4.895l2.68-2.559h1.738l-2.633 2.535 2.715 3.578h-1.556l-2.077-2.707-.867.844v1.863zm6.053-6.114h-1.255v6.113h1.255V4.035zm-59.2 0h-1.255v6.113h1.255V4.035zm5.584 6.113V1.697h1.255v2.695c.361-.346 1-.485 1.47-.485 1.452 0 2.477 1.082 2.457 2.448v3.792h-1.27v-3.68c0-.408-.214-1.339-1.315-1.339-.968 0-1.342.756-1.342 1.339v3.681h-1.255zm-4.76-4.894V4.039h.621a.45.45 0 0 0 .45-.45v-.855h1.251v1.305h1.309v1.215h-1.309v3.109c0 .293.105.664.648.664.365 0 .531-.035.736-.07v1.137s-.361.113-.857.113c-1.398 0-1.777-1.051-1.777-1.788V5.254h-1.071zM36.528 4.039h-1.394l2.191 6.106h1.125l1.234-3.918 1.238 3.918h1.129l2.188-6.106h-1.383l-1.359 3.93-1.256-3.93h-1.124l-1.242 3.957-1.348-3.957zM26.212 7.141c-.02 1.566 1.187 3.129 3.223 3.129 1.566 0 2.383-.918 2.734-1.719L31.172 8c-.315.399-.801 1.094-1.738 1.094-1.145 0-1.825-.781-1.891-1.52h4.625c.074-.284.148-.995-.03-1.559-.336-1.064-1.221-2.102-2.839-2.102s-3.088 1.152-3.088 3.227zm1.363-.75h3.348c-.055-.43-.566-1.301-1.623-1.301a1.79 1.79 0 0 0-1.725 1.301zm-8.758.75c.038 1.758 1.277 3.133 3.145 3.133 1.074 0 1.723-.477 1.961-.672v.547h1.242V1.703h-1.258v2.888c-.414-.36-1.062-.68-1.93-.68-1.91 0-3.198 1.473-3.16 3.23zm1.309-.08c0 1.119.723 1.978 1.836 1.978a1.88 1.88 0 0 0 1.94-1.904c0-1.371-1.011-1.99-1.972-1.99s-1.805.798-1.805 1.916zm76.683-.028C96.771 5.275 95.532 3.9 93.664 3.9c-1.074 0-1.723.477-1.961.672v-.547h-1.242v8.22h1.258V9.583c.414.36 1.063.68 1.93.68 1.91 0 3.198-1.473 3.16-3.23zm-1.309.08c0-1.119-.723-1.978-1.836-1.978a1.88 1.88 0 0 0-1.94 1.904c0 1.371 1.011 1.99 1.972 1.99S95.5 8.231 95.5 7.113zM106.441 10.173V4.036h1.254v.382c.361-.346 1-.485 1.47-.485 1.452 0 2.477 1.082 2.457 2.448v3.792h-1.27V6.492c0-.408-.214-1.339-1.315-1.339-.969 0-1.342.756-1.342 1.339v3.681h-1.254zm-30.383-.021V1.824h1.084l4.215 5.777V1.824h1.32v8.328h-1.094l-4.207-5.796v5.796h-1.319zM5.24 10.149H4V2.377h1.014l2.664 3.597 2.654-3.592h1.03v7.766h-1.256V4.762L7.678 8.068 5.24 4.742v5.407z" transform="translate(764, 881.9999389648438)" fill="#ababab88" stroke="none"></path></svg>