<?xml version="1.0" encoding="utf-8" standalone="yes"?>
<!DOCTYPE svg PUBLIC "-//W3C//DTD SVG 1.1//EN" "http://www.w3.org/Graphics/SVG/1.1/DTD/svg11.dtd">
<svg width="912" height="576" viewBox="0 0 912 576" style="fill:none;stroke:none;fill-rule:evenodd;clip-rule:evenodd;stroke-linecap:round;stroke-linejoin:round;stroke-miterlimit:1.5;" version="1.1" xmlns="http://www.w3.org/2000/svg" xmlns:xlink="http://www.w3.org/1999/xlink"><style class="text-font-style fontImports" data-font-family="Roboto">@import url('https://fonts.googleapis.com/css2?family=Roboto:wght@400;700&amp;display=block');</style><g id="items" style="isolation: isolate"><g id="blend" style="mix-blend-mode: normal"><g id="g-root-cp_7_g-7_8wi7ba1w13ymb-fill" data-item-order="-414712" transform="translate(529, 362)"></g><g id="g-root-cp_6_g-6_4hxnd21w140st-fill" data-item-order="-414706" transform="translate(548, 260)"></g><g id="g-root-cp_5_g-5_18hk4na1w13y87-fill" data-item-order="-414700" transform="translate(529, 158)"></g><g id="g-root-cp_4_g-4_hv9kzq1w13y89-fill" data-item-order="-414694" transform="translate(260, 126)"></g><g id="g-root-cp_3_g-3_1lu9l6u1w13ytf-fill" data-item-order="-414688" transform="translate(212, 211)"></g><g id="g-root-cp_2_g-2_v7z1ja1w13yth-fill" data-item-order="-414682" transform="translate(212, 307)"></g><g id="g-root-cp_1_g-1_4lohvq1w13ytj-fill" data-item-order="-414676" transform="translate(260, 383)"></g><g id="g-root-cp_end_g-end_zp1hty1w1407d-fill" data-item-order="-414670" transform="translate(362, 217)"></g><g id="g-root-tx_5_detls61w15fke-fill" data-item-order="0" transform="translate(596, 182)"><g id="tx_5_detls61w15fke-fill" stroke="none" fill="#f79438"><g><text style="font: bold 30px Roboto, sans-serif; white-space: pre;" font-weight="bold" font-size="30px" font-family="Roboto, sans-serif"><tspan x="13.39" y="45" dominant-baseline="ideographic">5</tspan></text></g></g></g><g id="g-root-tx_services_1lse5xi1w16rd4-fill" data-item-order="0" transform="translate(686, 182)"><g id="tx_services_1lse5xi1w16rd4-fill" stroke="none" fill="#f4f4f4"><g><text style="font: 15px Roboto, sans-serif; white-space: pre;" font-size="15px" font-family="Roboto, sans-serif"><tspan x="12" y="28" dominant-baseline="ideographic">Services control </tspan><tspan x="12" y="46" dominant-baseline="ideographic">their own logic</tspan></text></g></g></g><g id="g-root-tx_contract_90vix21w16sqz-fill" data-item-order="0" transform="translate(74, 182)"><g id="tx_contract_90vix21w16sqz-fill" stroke="none" fill="#1ac3fb"><g><text style="font: bold 20px Roboto, sans-serif; white-space: pre;" font-weight="bold" font-size="20px" font-family="Roboto, sans-serif"><tspan x="18.86" y="34" dominant-baseline="ideographic">Contract-</tspan><tspan x="48.19" y="58" dominant-baseline="ideographic">Based</tspan></text></g></g></g><g id="g-root-tx_autonomy_hsrona1w16txr-fill" data-item-order="0" transform="translate(686, 146)"><g id="tx_autonomy_hsrona1w16txr-fill" stroke="none" fill="#f79438"><g><text style="font: bold 20px Roboto, sans-serif; white-space: pre;" font-weight="bold" font-size="20px" font-family="Roboto, sans-serif"><tspan x="12" y="34" dominant-baseline="ideographic">Autonomy</tspan></text></g></g></g><g id="g-root-tx_services_hriqh21w185xk-fill" data-item-order="0" transform="translate(98, 458)"><g id="tx_services_hriqh21w185xk-fill" stroke="none" fill="#f4f4f4"><g><text style="font: 15px Roboto, sans-serif; white-space: pre;" font-size="15px" font-family="Roboto, sans-serif"><tspan x="17.23" y="31" dominant-baseline="ideographic">Services interact </tspan><tspan x="24.48" y="49" dominant-baseline="ideographic">without internal </tspan><tspan x="55.84" y="67" dominant-baseline="ideographic">knowledge</tspan></text></g></g></g><g id="g-root-tx_3_5uzra1w15czs-fill" data-item-order="0" transform="translate(242, 236)"><g id="tx_3_5uzra1w15czs-fill" stroke="none" fill="#1ac3fb"><g><text style="font: bold 30px Roboto, sans-serif; white-space: pre;" font-weight="bold" font-size="30px" font-family="Roboto, sans-serif"><tspan x="13.39" y="45" dominant-baseline="ideographic">3</tspan></text></g></g></g><g id="g-root-tx_4_142zkp21w15ekn-fill" data-item-order="0" transform="translate(290, 152)"><g id="tx_4_142zkp21w15ekn-fill" stroke="none" fill="#ffe711"><g><text style="font: bold 30px Roboto, sans-serif; white-space: pre;" font-weight="bold" font-size="30px" font-family="Roboto, sans-serif"><tspan x="13.39" y="45" dominant-baseline="ideographic">4</tspan></text></g></g></g><g id="g-root-tx_stateles_qwiv0m1w15fkd-fill" data-item-order="0" transform="translate(722, 266)"><g id="tx_stateles_qwiv0m1w15fkd-fill" stroke="none" fill="#8769fd"><g><text style="font: bold 20px Roboto, sans-serif; white-space: pre;" font-weight="bold" font-size="20px" font-family="Roboto, sans-serif"><tspan x="12" y="34" dominant-baseline="ideographic">Statelessness</tspan></text></g></g></g><g id="g-root-tx_soa_hriqh21w15edn-fill" data-item-order="0" transform="translate(422, 290)"><g id="tx_soa_hriqh21w15edn-fill" stroke="none" fill="#4f91fc"><g><text style="font: bold 20px Roboto, sans-serif; white-space: pre;" font-weight="bold" font-size="20px" font-family="Roboto, sans-serif"><tspan x="14.33" y="34" dominant-baseline="ideographic">SOA</tspan></text></g></g></g><g id="g-root-tx_6_1unep3a1w15fkd-fill" data-item-order="0" transform="translate(626, 284)"><g id="tx_6_1unep3a1w15fkd-fill" stroke="none" fill="#8769fd"><g><text style="font: bold 30px Roboto, sans-serif; white-space: pre;" font-weight="bold" font-size="30px" font-family="Roboto, sans-serif"><tspan x="13.39" y="45" dominant-baseline="ideographic">6</tspan></text></g></g></g><g id="g-root-tx_reusabil_73xxi1w16sjx-fill" data-item-order="0" transform="translate(62, 314)"><g id="tx_reusabil_73xxi1w16sjx-fill" stroke="none" fill="#a6da37"><g><text style="font: bold 20px Roboto, sans-serif; white-space: pre;" font-weight="bold" font-size="20px" font-family="Roboto, sans-serif"><tspan x="16.22" y="34" dominant-baseline="ideographic">Reusability</tspan></text></g></g></g><g id="g-root-tx_services_1cymkxy1w16r62-fill" data-item-order="0" transform="translate(98, 146)"><g id="tx_services_1cymkxy1w16r62-fill" stroke="none" fill="#f4f4f4"><g><text style="font: 15px Roboto, sans-serif; white-space: pre;" font-size="15px" font-family="Roboto, sans-serif"><tspan x="23.34" y="28" dominant-baseline="ideographic">Services can be </tspan><tspan x="12.77" y="46" dominant-baseline="ideographic">found via registry</tspan></text></g></g></g><g id="g-root-tx_services_1lqiqo61w16scu-fill" data-item-order="0" transform="translate(722, 302)"><g id="tx_services_1lqiqo61w16scu-fill" stroke="none" fill="#f4f4f4"><g><text style="font: 15px Roboto, sans-serif; white-space: pre;" font-size="15px" font-family="Roboto, sans-serif"><tspan x="12" y="28" dominant-baseline="ideographic">Services don't </tspan><tspan x="12" y="46" dominant-baseline="ideographic">maintain client state</tspan></text></g></g></g><g id="g-root-tx_2_144uzye1w15dkx-fill" data-item-order="0" transform="translate(242, 332)"><g id="tx_2_144uzye1w15dkx-fill" stroke="none" fill="#a6da37"><g><text style="font: bold 30px Roboto, sans-serif; white-space: pre;" font-weight="bold" font-size="30px" font-family="Roboto, sans-serif"><tspan x="13.39" y="45" dominant-baseline="ideographic">2</tspan></text></g></g></g><g id="g-root-tx_services_vagxvq1w16txq-fill" data-item-order="0" transform="translate(50, 350)"><g id="tx_services_vagxvq1w16txq-fill" stroke="none" fill="#f4f4f4"><g><text style="font: 15px Roboto, sans-serif; white-space: pre;" font-size="15px" font-family="Roboto, sans-serif"><tspan x="23.34" y="31" dominant-baseline="ideographic">Services can be </tspan><tspan x="22.55" y="49" dominant-baseline="ideographic">used in multiple </tspan><tspan x="70.34" y="67" dominant-baseline="ideographic">contexts</tspan></text></g></g></g><g id="g-root-tx_discover_hun3wm1w16sy1-fill" data-item-order="0" transform="translate(74, 110)"><g id="tx_discover_hun3wm1w16sy1-fill" stroke="none" fill="#ffe711"><g><text style="font: bold 20px Roboto, sans-serif; white-space: pre;" font-weight="bold" font-size="20px" font-family="Roboto, sans-serif"><tspan x="19.38" y="34" dominant-baseline="ideographic">Discoverability</tspan></text></g></g></g><g id="g-root-tx_keychara_8zd6u1w1400a-fill" data-item-order="0" transform="translate(290, 38)"><g id="tx_keychara_8zd6u1w1400a-fill" stroke="none" fill="#f4f4f4"><g><text style="font: bold 25px Roboto, sans-serif; white-space: pre;" font-weight="bold" font-size="25px" font-family="Roboto, sans-serif"><tspan x="14.58" y="42" dominant-baseline="ideographic">Key Characteristics of SOA</tspan></text></g></g></g><g id="g-root-tx_7_18fopdy1w15ddw-fill" data-item-order="0" transform="translate(596, 386)"><g id="tx_7_18fopdy1w15ddw-fill" stroke="none" fill="#f366bb"><g><text style="font: bold 30px Roboto, sans-serif; white-space: pre;" font-weight="bold" font-size="30px" font-family="Roboto, sans-serif"><tspan x="13.39" y="45" dominant-baseline="ideographic">7</tspan></text></g></g></g><g id="g-root-tx_composab_zqwx3a1w15cln-fill" data-item-order="0" transform="translate(686, 386)"><g id="tx_composab_zqwx3a1w15cln-fill" stroke="none" fill="#f366bb"><g><text style="font: bold 20px Roboto, sans-serif; white-space: pre;" font-weight="bold" font-size="20px" font-family="Roboto, sans-serif"><tspan x="12" y="34" dominant-baseline="ideographic">Composability</tspan></text></g></g></g><g id="g-root-tx_loosecou_1lymwsm1w16sxz-fill" data-item-order="0" transform="translate(74, 422)"><g id="tx_loosecou_1lymwsm1w16sxz-fill" stroke="none" fill="#43dd93"><g><text style="font: bold 20px Roboto, sans-serif; white-space: pre;" font-weight="bold" font-size="20px" font-family="Roboto, sans-serif"><tspan x="12.47" y="34" dominant-baseline="ideographic">Loose Coupling</tspan></text></g></g></g><g id="g-root-tx_1_73xxi1w15f5u-fill" data-item-order="0" transform="translate(290, 416)"><g id="tx_1_73xxi1w15f5u-fill" stroke="none" fill="#43dd93"><g><text style="font: bold 30px Roboto, sans-serif; white-space: pre;" font-weight="bold" font-size="30px" font-family="Roboto, sans-serif"><tspan x="13.39" y="45" dominant-baseline="ideographic">1</tspan></text></g></g></g><g id="g-root-tx_services_1uu9x1i1w15dzg-fill" data-item-order="0" transform="translate(686, 422)"><g id="tx_services_1uu9x1i1w15dzg-fill" stroke="none" fill="#f4f4f4"><g><text style="font: 15px Roboto, sans-serif; white-space: pre;" font-size="15px" font-family="Roboto, sans-serif"><tspan x="12" y="31" dominant-baseline="ideographic">Services can be </tspan><tspan x="12" y="49" dominant-baseline="ideographic">combined for </tspan><tspan x="12" y="67" dominant-baseline="ideographic">complex functions</tspan></text></g></g></g><g id="g-root-tx_strictse_1448iva1w16u4s-fill" data-item-order="0" transform="translate(50, 242)"><g id="tx_strictse_1448iva1w16u4s-fill" stroke="none" fill="#f4f4f4"><g><text style="font: 15px Roboto, sans-serif; white-space: pre;" font-size="15px" font-family="Roboto, sans-serif"><tspan x="41.34" y="31" dominant-baseline="ideographic">Strict service </tspan><tspan x="20.27" y="49" dominant-baseline="ideographic">contracts define </tspan><tspan x="49.27" y="67" dominant-baseline="ideographic">interactions</tspan></text></g></g></g><g id="g-root-cp_7_g-7_8wi7ba1w13ymb-stroke" data-item-order="-414712" transform="translate(529, 362)"><g id="cp_7_g-7_8wi7ba1w13ymb-stroke" fill="none" stroke-linecap="round" stroke-linejoin="round" stroke-miterlimit="4" stroke="#f366bb" stroke-width="2"><g><path d="M 47 52C 47.000001 75.19596 65.804041 94.000001 89.000001 94.000001C 112.19596 94.000001 131.000001 75.19596 131.000001 52.000001C 131.000001 28.804041 112.19596 10.000001 89.000001 10.000001C 65.804041 10.000001 47.000001 28.804041 47.000001 52.000001"></path></g></g><g id="cp_7_g-7_8wi7ba1w13ymb-stroke" fill="none" stroke-linecap="round" stroke-linejoin="round" stroke-miterlimit="4" stroke="#f366bb" stroke-width="2"><g><path d="M 10 10.1102L 38 10C 38 10 33.4506 14.8106 29.5566 22.0887C 25.6625 29.3668 24.0892 36 24.0892 36L 10 10.1102Z"></path></g></g></g><g id="g-root-cp_6_g-6_4hxnd21w140st-stroke" data-item-order="-414706" transform="translate(548, 260)"><g id="cp_6_g-6_4hxnd21w140st-stroke" fill="none" stroke-linecap="round" stroke-linejoin="round" stroke-miterlimit="4" stroke="#8769fd" stroke-width="2"><g><path d="M 58 52C 58.000001 75.19596 76.804041 94.000001 100.000001 94.000001C 123.19596 94.000001 142.000001 75.19596 142.000001 52.000001C 142.000001 28.804041 123.19596 10.000001 100.000001 10.000001C 76.804041 10.000001 58.000001 28.804041 58.000001 52.000001"></path></g></g><g id="cp_6_g-6_4hxnd21w140st-stroke" fill="none" stroke-linecap="round" stroke-linejoin="round" stroke-miterlimit="4" stroke="#8769fd" stroke-width="2"><g><path d="M 10 51.8915L 37.8447 65C 37.8447 65 35.9046 59.2703 35.948 51.9922C 35.9915 44.7141 38 39 38 39L 10 51.8915Z"></path></g></g></g><g id="g-root-cp_5_g-5_18hk4na1w13y87-stroke" data-item-order="-414700" transform="translate(529, 158)"><g id="cp_5_g-5_18hk4na1w13y87-stroke" fill="none" stroke-linecap="round" stroke-linejoin="round" stroke-miterlimit="4" stroke="#f79438" stroke-width="2"><g><path d="M 47 52C 47.000001 75.19596 65.804041 94.000001 89.000001 94.000001C 112.19596 94.000001 131.000001 75.19596 131.000001 52.000001C 131.000001 28.804041 112.19596 10.000001 89.000001 10.000001C 65.804041 10.000001 47.000001 28.804041 47.000001 52.000001"></path></g></g><g id="cp_5_g-5_18hk4na1w13y87-stroke" fill="none" stroke-linecap="round" stroke-linejoin="round" stroke-miterlimit="4" stroke="#f79438" stroke-width="2"><g><path d="M 10 93.8898L 38 94C 38 94 33.4506 89.1894 29.5566 81.9113C 25.6625 74.6332 24.0892 68 24.0892 68L 10 93.8898Z"></path></g></g></g><g id="g-root-cp_4_g-4_hv9kzq1w13y89-stroke" data-item-order="-414694" transform="translate(260, 126)"><g id="cp_4_g-4_hv9kzq1w13y89-stroke" fill="none" stroke-linecap="round" stroke-linejoin="round" stroke-miterlimit="4" stroke="#ffe711" stroke-width="2"><g><path d="M 10 52C 10.000001 75.19596 28.804041 94.000001 52.000001 94.000001C 75.19596 94.000001 94.000001 75.19596 94.000001 52.000001C 94.000001 28.804041 75.19596 10.000001 52.000001 10.000001C 28.804041 10.000001 10.000001 28.804041 10.000001 52.000001"></path></g></g><g id="cp_4_g-4_hv9kzq1w13y89-stroke" fill="none" stroke-linecap="round" stroke-linejoin="round" stroke-miterlimit="4" stroke="#ffe711" stroke-width="2"><g><path d="M 122 103L 94 98.7252C 94 98.7252 99.2609 95.0143 104.2329 88.9328C 109.205 82.8514 111.762 77 111.762 77L 122 103Z"></path></g></g></g><g id="g-root-cp_3_g-3_1lu9l6u1w13ytf-stroke" data-item-order="-414688" transform="translate(212, 211)"><g id="cp_3_g-3_1lu9l6u1w13ytf-stroke" fill="none" stroke-linecap="round" stroke-linejoin="round" stroke-miterlimit="4" stroke="#1ac3fb" stroke-width="2"><g><path d="M 10 52C 10.000001 75.19596 28.804041 94.000001 52.000001 94.000001C 75.19596 94.000001 94.000001 75.19596 94.000001 52.000001C 94.000001 28.804041 75.19596 10.000001 52.000001 10.000001C 28.804041 10.000001 10.000001 28.804041 10.000001 52.000001"></path></g></g><g id="cp_3_g-3_1lu9l6u1w13ytf-stroke" fill="none" stroke-linecap="round" stroke-linejoin="round" stroke-miterlimit="4" stroke="#1ac3fb" stroke-width="2"><g><path d="M 144 64.5995L 116 74C 116 74 118.8539 68.5325 120.1784 61.2544C 121.503 53.9763 120.7318 48 120.7318 48L 144 64.5995Z"></path></g></g></g><g id="g-root-cp_2_g-2_v7z1ja1w13yth-stroke" data-item-order="-414682" transform="translate(212, 307)"><g id="cp_2_g-2_v7z1ja1w13yth-stroke" fill="none" stroke-linecap="round" stroke-linejoin="round" stroke-miterlimit="4" stroke="#a6da37" stroke-width="2"><g><path d="M 10 52C 10.000001 75.19596 28.804041 94.000001 52.000001 94.000001C 75.19596 94.000001 94.000001 75.19596 94.000001 52.000001C 94.000001 28.804041 75.19596 10.000001 52.000001 10.000001C 28.804041 10.000001 10.000001 28.804041 10.000001 52.000001"></path></g></g><g id="cp_2_g-2_v7z1ja1w13yth-stroke" fill="none" stroke-linecap="round" stroke-linejoin="round" stroke-miterlimit="4" stroke="#a6da37" stroke-width="2"><g><path d="M 144 39.4005L 116 30C 116 30 118.8539 35.4675 120.1784 42.7456C 121.503 50.0237 120.7318 56 120.7318 56L 144 39.4005Z"></path></g></g></g><g id="g-root-cp_1_g-1_4lohvq1w13ytj-stroke" data-item-order="-414676" transform="translate(260, 383)"><g id="cp_1_g-1_4lohvq1w13ytj-stroke" fill="none" stroke-linecap="round" stroke-linejoin="round" stroke-miterlimit="4" stroke="#43dd93" stroke-width="2"><g><path d="M 10 61C 10.000001 84.19596 28.804041 103.000001 52.000001 103.000001C 75.19596 103.000001 94.000001 84.19596 94.000001 61.000001C 94.000001 37.804041 75.19596 19.000001 52.000001 19.000001C 28.804041 19.000001 10.000001 37.804041 10.000001 61.000001"></path></g></g><g id="cp_1_g-1_4lohvq1w13ytj-stroke" fill="none" stroke-linecap="round" stroke-linejoin="round" stroke-miterlimit="4" stroke="#43dd93" stroke-width="2"><g><path d="M 122 10L 94 14.2748C 94 14.2748 99.2609 17.9857 104.2329 24.0672C 109.205 30.1486 111.762 36 111.762 36L 122 10Z"></path></g></g></g><g id="g-root-cp_end_g-end_zp1hty1w1407d-stroke" data-item-order="-414670" transform="translate(362, 217)"><g id="cp_end_g-end_zp1hty1w1407d-stroke" fill="none" stroke-linecap="round" stroke-linejoin="round" stroke-miterlimit="4" stroke="#4f91fc" stroke-width="2"><g><path d="M 10 94C 10.000002 140.391921 47.608083 178.000002 94.000002 178.000002C 140.391921 178.000002 178.000002 140.391921 178.000002 94.000002C 178.000002 47.608083 140.391921 10.000002 94.000002 10.000002C 47.608083 10.000002 10.000002 47.608083 10.000002 94.000002"></path></g></g></g><g id="g-root-tx_5_detls61w15fke-stroke" data-item-order="0" transform="translate(596, 182)"></g><g id="g-root-tx_services_1lse5xi1w16rd4-stroke" data-item-order="0" transform="translate(686, 182)"></g><g id="g-root-tx_contract_90vix21w16sqz-stroke" data-item-order="0" transform="translate(74, 182)"></g><g id="g-root-tx_autonomy_hsrona1w16txr-stroke" data-item-order="0" transform="translate(686, 146)"></g><g id="g-root-tx_services_hriqh21w185xk-stroke" data-item-order="0" transform="translate(98, 458)"></g><g id="g-root-tx_3_5uzra1w15czs-stroke" data-item-order="0" transform="translate(242, 236)"></g><g id="g-root-tx_4_142zkp21w15ekn-stroke" data-item-order="0" transform="translate(290, 152)"></g><g id="g-root-tx_stateles_qwiv0m1w15fkd-stroke" data-item-order="0" transform="translate(722, 266)"></g><g id="g-root-tx_soa_hriqh21w15edn-stroke" data-item-order="0" transform="translate(422, 290)"></g><g id="g-root-tx_6_1unep3a1w15fkd-stroke" data-item-order="0" transform="translate(626, 284)"></g><g id="g-root-tx_reusabil_73xxi1w16sjx-stroke" data-item-order="0" transform="translate(62, 314)"></g><g id="g-root-tx_services_1cymkxy1w16r62-stroke" data-item-order="0" transform="translate(98, 146)"></g><g id="g-root-tx_services_1lqiqo61w16scu-stroke" data-item-order="0" transform="translate(722, 302)"></g><g id="g-root-tx_2_144uzye1w15dkx-stroke" data-item-order="0" transform="translate(242, 332)"></g><g id="g-root-tx_services_vagxvq1w16txq-stroke" data-item-order="0" transform="translate(50, 350)"></g><g id="g-root-tx_discover_hun3wm1w16sy1-stroke" data-item-order="0" transform="translate(74, 110)"></g><g id="g-root-tx_keychara_8zd6u1w1400a-stroke" data-item-order="0" transform="translate(290, 38)"></g><g id="g-root-tx_7_18fopdy1w15ddw-stroke" data-item-order="0" transform="translate(596, 386)"></g><g id="g-root-tx_composab_zqwx3a1w15cln-stroke" data-item-order="0" transform="translate(686, 386)"></g><g id="g-root-tx_loosecou_1lymwsm1w16sxz-stroke" data-item-order="0" transform="translate(74, 422)"></g><g id="g-root-tx_1_73xxi1w15f5u-stroke" data-item-order="0" transform="translate(290, 416)"></g><g id="g-root-tx_services_1uu9x1i1w15dzg-stroke" data-item-order="0" transform="translate(686, 422)"></g><g id="g-root-tx_strictse_1448iva1w16u4s-stroke" data-item-order="0" transform="translate(50, 242)"></g></g></g><path id="w4j71c61y9258h" d="M65.283 12.757a.35.35 0 0 0 .584.157l5.203-5.141-6.183 3.523.396 1.461zm-2.216-11.7a.35.35 0 0 0-.522.305v3.111l3.276-1.868-2.754-1.548zm3.728 2.105l-4.25 2.421v2.445l6.391-3.644-2.141-1.222zm4.708 3.303a.35.35 0 0 0 0-.609l-1.592-.9-7.365 4.199v1.782a.35.35 0 0 0 .523.305l8.435-4.777z M44.542 2.513c0-.433.355-.783.792-.783s.792.35.792.783-.355.783-.792.783-.792-.35-.792-.783zm59.171 0c0-.433.355-.783.792-.783s.792.35.792.783-.355.783-.792.783-.792-.35-.792-.783zm-85.951 7.636h-1.27v-.487c-.276.201-.864.609-1.881.609-1.202 0-2.274-.794-2.137-2.078.118-1.106 1.153-1.584 1.848-1.727l2.17-.345c0-.539-.29-.956-1.064-1.006s-1.21.305-1.571 1.017l-1.124-.605c1.218-2.631 5.029-1.764 5.029.414v4.207zm-1.27-2.86c.006.396-.062 1.112-.819 1.59-.587.37-1.841.299-1.903-.395-.049-.555.461-.791.906-.898l1.816-.297zm72.662 2.86h-1.27v-.487c-.276.201-.864.609-1.881.609-1.202 0-2.274-.794-2.137-2.078.118-1.106 1.153-1.584 1.848-1.727l2.17-.345c0-.539-.29-.956-1.064-1.006s-1.21.305-1.571 1.017l-1.124-.605c1.218-2.631 5.029-1.764 5.029.414v4.207zm-1.27-2.86c.006.396-.062 1.112-.82 1.59-.587.37-1.841.299-1.903-.395-.049-.555.461-.791.906-.898l1.816-.297zM99.096 10.149H97.85v-8.45h1.246v4.895l2.68-2.559h1.738l-2.633 2.535 2.715 3.578h-1.556l-2.077-2.707-.867.844v1.863zm6.053-6.114h-1.255v6.113h1.255V4.035zm-59.2 0h-1.255v6.113h1.255V4.035zm5.584 6.113V1.697h1.255v2.695c.361-.346 1-.485 1.47-.485 1.452 0 2.477 1.082 2.457 2.448v3.792h-1.27v-3.68c0-.408-.214-1.339-1.315-1.339-.968 0-1.342.756-1.342 1.339v3.681h-1.255zm-4.76-4.894V4.039h.621a.45.45 0 0 0 .45-.45v-.855h1.251v1.305h1.309v1.215h-1.309v3.109c0 .293.105.664.648.664.365 0 .531-.035.736-.07v1.137s-.361.113-.857.113c-1.398 0-1.777-1.051-1.777-1.788V5.254h-1.071zM36.528 4.039h-1.394l2.191 6.106h1.125l1.234-3.918 1.238 3.918h1.129l2.188-6.106h-1.383l-1.359 3.93-1.256-3.93h-1.124l-1.242 3.957-1.348-3.957zM26.212 7.141c-.02 1.566 1.187 3.129 3.223 3.129 1.566 0 2.383-.918 2.734-1.719L31.172 8c-.315.399-.801 1.094-1.738 1.094-1.145 0-1.825-.781-1.891-1.52h4.625c.074-.284.148-.995-.03-1.559-.336-1.064-1.221-2.102-2.839-2.102s-3.088 1.152-3.088 3.227zm1.363-.75h3.348c-.055-.43-.566-1.301-1.623-1.301a1.79 1.79 0 0 0-1.725 1.301zm-8.758.75c.038 1.758 1.277 3.133 3.145 3.133 1.074 0 1.723-.477 1.961-.672v.547h1.242V1.703h-1.258v2.888c-.414-.36-1.062-.68-1.93-.68-1.91 0-3.198 1.473-3.16 3.23zm1.309-.08c0 1.119.723 1.978 1.836 1.978a1.88 1.88 0 0 0 1.94-1.904c0-1.371-1.011-1.99-1.972-1.99s-1.805.798-1.805 1.916zm76.683-.028C96.771 5.275 95.532 3.9 93.664 3.9c-1.074 0-1.723.477-1.961.672v-.547h-1.242v8.22h1.258V9.583c.414.36 1.063.68 1.93.68 1.91 0 3.198-1.473 3.16-3.23zm-1.309.08c0-1.119-.723-1.978-1.836-1.978a1.88 1.88 0 0 0-1.94 1.904c0 1.371 1.011 1.99 1.972 1.99S95.5 8.231 95.5 7.113zM106.441 10.173V4.036h1.254v.382c.361-.346 1-.485 1.47-.485 1.452 0 2.477 1.082 2.457 2.448v3.792h-1.27V6.492c0-.408-.214-1.339-1.315-1.339-.969 0-1.342.756-1.342 1.339v3.681h-1.254zm-30.383-.021V1.824h1.084l4.215 5.777V1.824h1.32v8.328h-1.094l-4.207-5.796v5.796h-1.319zM5.24 10.149H4V2.377h1.014l2.664 3.597 2.654-3.592h1.03v7.766h-1.256V4.762L7.678 8.068 5.24 4.742v5.407z" transform="translate(776, 542)" fill="#ababab88" stroke="none"></path></svg>