<?xml version="1.0" encoding="utf-8" standalone="yes"?>
<!DOCTYPE svg PUBLIC "-//W3C//DTD SVG 1.1//EN" "http://www.w3.org/Graphics/SVG/1.1/DTD/svg11.dtd">
<svg width="876" height="382" viewBox="0 0 876 382" style="fill:none;stroke:none;fill-rule:evenodd;clip-rule:evenodd;stroke-linecap:round;stroke-linejoin:round;stroke-miterlimit:1.5;" version="1.1" xmlns="http://www.w3.org/2000/svg" xmlns:xlink="http://www.w3.org/1999/xlink"><style class="text-font-style fontImports" data-font-family="Roboto">@import url('https://fonts.googleapis.com/css2?family=Roboto:wght@400;700&amp;display=block');</style><g id="items" style="isolation: isolate"><g id="blend" style="mix-blend-mode: normal"><g id="g-root-ro_1cvik4m1xfll3g-fill" data-item-order="-11232" transform="translate(262, 150)"></g><g id="g-root-ro_4009y1xfafb4-fill" data-item-order="-10368" transform="translate(14, 270)"></g><g id="g-root-ro_1q880o61xfiu4u-fill" data-item-order="-10368" transform="translate(14, 159)"></g><g id="g-root-ro_13ymova1xfmzuw-fill" data-item-order="-8424" transform="translate(686, 270)"></g><g id="g-root-ro_140i44m1xfitxc-fill" data-item-order="-8424" transform="translate(474, 270)"></g><g id="g-root-ro_1q7lmqu1xf1zb4-fill" data-item-order="-8424" transform="translate(474, 122)"></g><g id="g-root-ro_qpo2ue1xf651k-fill" data-item-order="-8424" transform="translate(474, 196)"></g><g id="g-root-ro_24l0m1xfel8o-fill" data-item-order="-8424" transform="translate(262, 270)"></g><g id="g-root-tx_serviceo_74gva1xf4rnk-fill" data-item-order="0" transform="translate(206, 38)"><g id="tx_serviceo_74gva1xf4rnk-fill" stroke="none" fill="#f4f4f4"><g><text style="font: bold 25px Roboto, sans-serif; white-space: pre;" font-weight="bold" font-size="25px" font-family="Roboto, sans-serif"><tspan x="12.18" y="42" dominant-baseline="ideographic">Service Orchestration vs Choreography</tspan></text></g></g></g><g id="g-root-cu_mdliee1xf4rnv-fill" data-item-order="2" transform="translate(418, 149)"></g><g id="g-root-cu_hxs09y1xf4sg5-fill" data-item-order="2" transform="translate(206, 186)"></g><g id="g-root-cu_zp20rq1xf4q2w-fill" data-item-order="2" transform="translate(418, 186)"></g><g id="g-root-cu_1czw21y1xf4rnp-fill" data-item-order="2" transform="translate(206, 297)"></g><g id="g-root-cu_1qbckfa1xf4q2q-fill" data-item-order="2" transform="translate(418, 297)"></g><g id="g-root-cu_1uqjlgm1xf4sg7-fill" data-item-order="2" transform="translate(630, 297)"></g><g id="g-root-tx_service1_13z95ye1xf1zim-fill" data-item-order="1000000000" transform="translate(522, 137)"><g id="tx_service1_13z95ye1xf1zim-fill" stroke="none" fill="#1ac3fb"><g><text style="font: 20px Roboto, sans-serif; white-space: pre;" font-size="20px" font-family="Roboto, sans-serif"><tspan x="12" y="34" dominant-baseline="ideographic">Service 1</tspan></text></g></g></g><g id="g-root-ic_orga_hteicm1xfiubx-fill" data-item-order="1000000000" transform="translate(26, 171)"></g><g id="g-root-tx_orchestr_8wijxi1xfitqc-fill" data-item-order="1000000000" transform="translate(62, 174)"><g id="tx_orchestr_8wijxi1xfitqc-fill" stroke="none" fill="#b7b7b7"><g><text style="font: 20px Roboto, sans-serif; white-space: pre;" font-size="20px" font-family="Roboto, sans-serif"><tspan x="12" y="34" dominant-baseline="ideographic">Orchestration</tspan></text></g></g></g><g id="g-root-ic_gear_vjom1xflm2r-fill" data-item-order="1000000000" transform="translate(274, 171)"></g><g id="g-root-tx_centralc_18nt84m1xfk8ay-fill" data-item-order="1000000000" transform="translate(310, 162)"><g id="tx_centralc_18nt84m1xfk8ay-fill" stroke="none" fill="#1ac3fb"><g><text style="font: 20px Roboto, sans-serif; white-space: pre;" font-size="20px" font-family="Roboto, sans-serif"><tspan x="12" y="34" dominant-baseline="ideographic">Central </tspan><tspan x="12" y="58" dominant-baseline="ideographic">Controller</tspan></text></g></g></g><g id="g-root-tx_servicec_mg3bl21xfllhi-fill" data-item-order="1000000000" transform="translate(734, 285)"><g id="tx_servicec_mg3bl21xfllhi-fill" stroke="none" fill="#1ac3fb"><g><text style="font: 20px Roboto, sans-serif; white-space: pre;" font-size="20px" font-family="Roboto, sans-serif"><tspan x="12" y="34" dominant-baseline="ideographic">Service C</tspan></text></g></g></g><g id="g-root-ic_even_18gbm921xf65u7-fill" data-item-order="1000000000" transform="translate(486, 208)"></g><g id="g-root-tx_service2_8x546e1xf658m-fill" data-item-order="1000000000" transform="translate(522, 211)"><g id="tx_service2_8x546e1xf658m-fill" stroke="none" fill="#1ac3fb"><g><text style="font: 20px Roboto, sans-serif; white-space: pre;" font-size="20px" font-family="Roboto, sans-serif"><tspan x="12" y="34" dominant-baseline="ideographic">Service 2</tspan></text></g></g></g><g id="g-root-ic_exch_hva0rq1xfacxz-fill" data-item-order="1000000000" transform="translate(26, 282)"></g><g id="g-root-tx_choreogr_1q883ty1xfadqm-fill" data-item-order="1000000000" transform="translate(62, 285)"><g id="tx_choreogr_1q883ty1xfadqm-fill" stroke="none" fill="#b7b7b7"><g><text style="font: 20px Roboto, sans-serif; white-space: pre;" font-size="20px" font-family="Roboto, sans-serif"><tspan x="12" y="34" dominant-baseline="ideographic">Choreography</tspan></text></g></g></g><g id="g-root-ic_apps_hss4fa1xfem1b-fill" data-item-order="1000000000" transform="translate(274, 282)"></g><g id="g-root-ic_smar_1q6z5nq1xfitxr-fill" data-item-order="1000000000" transform="translate(486, 282)"></g><g id="g-root-ic_clus_1lz9tnq1xflm33-fill" data-item-order="1000000000" transform="translate(698, 282)"></g><g id="g-root-tx_servicea_1hapobq1xfel8m-fill" data-item-order="1000000000" transform="translate(310, 285)"><g id="tx_servicea_1hapobq1xfel8m-fill" stroke="none" fill="#1ac3fb"><g><text style="font: 20px Roboto, sans-serif; white-space: pre;" font-size="20px" font-family="Roboto, sans-serif"><tspan x="12" y="34" dominant-baseline="ideographic">Service A</tspan></text></g></g></g><g id="g-root-tx_serviceb_qnsnl21xfitc6-fill" data-item-order="1000000000" transform="translate(522, 285)"><g id="tx_serviceb_qnsnl21xfitc6-fill" stroke="none" fill="#1ac3fb"><g><text style="font: 20px Roboto, sans-serif; white-space: pre;" font-size="20px" font-family="Roboto, sans-serif"><tspan x="12" y="34" dominant-baseline="ideographic">Service B</tspan></text></g></g></g><g id="g-root-ic_serv_8xrl9i1xf1x53-fill" data-item-order="1000000000" transform="translate(486, 134)"></g><g id="g-root-ro_1cvik4m1xfll3g-stroke" data-item-order="-11232" transform="translate(262, 150)"><g id="ro_1cvik4m1xfll3g-stroke" fill="none" stroke-linecap="round" stroke-linejoin="round" stroke-miterlimit="4" stroke="#1ac3fb" stroke-width="2"><g><path d="M 22 10L 154 10C 154 10 166 10 166 22L 166 70C 166 70 166 82 154 82L 22 82C 22 82 10 82 10 70L 10 22C 10 22 10 10 22 10"></path></g></g></g><g id="g-root-ro_4009y1xfafb4-stroke" data-item-order="-10368" transform="translate(14, 270)"><g id="ro_4009y1xfafb4-stroke" fill="none" stroke-linecap="round" stroke-linejoin="round" stroke-miterlimit="4" stroke="#f4f4f4" stroke-width="2"><g><path d="M 22 10L 190 10C 190 10 202 10 202 22L 202 52C 202 52 202 64 190 64L 22 64C 22 64 10 64 10 52L 10 22C 10 22 10 10 22 10"></path></g></g></g><g id="g-root-ro_1q880o61xfiu4u-stroke" data-item-order="-10368" transform="translate(14, 159)"><g id="ro_1q880o61xfiu4u-stroke" fill="none" stroke-linecap="round" stroke-linejoin="round" stroke-miterlimit="4" stroke="#f4f4f4" stroke-width="2"><g><path d="M 22 10L 190 10C 190 10 202 10 202 22L 202 52C 202 52 202 64 190 64L 22 64C 22 64 10 64 10 52L 10 22C 10 22 10 10 22 10"></path></g></g></g><g id="g-root-ro_13ymova1xfmzuw-stroke" data-item-order="-8424" transform="translate(686, 270)"><g id="ro_13ymova1xfmzuw-stroke" fill="none" stroke-linecap="round" stroke-linejoin="round" stroke-miterlimit="4" stroke="#1ac3fb" stroke-width="2"><g><path d="M 22 10L 154 10C 154 10 166 10 166 22L 166 52C 166 52 166 64 154 64L 22 64C 22 64 10 64 10 52L 10 22C 10 22 10 10 22 10"></path></g></g></g><g id="g-root-ro_140i44m1xfitxc-stroke" data-item-order="-8424" transform="translate(474, 270)"><g id="ro_140i44m1xfitxc-stroke" fill="none" stroke-linecap="round" stroke-linejoin="round" stroke-miterlimit="4" stroke="#1ac3fb" stroke-width="2"><g><path d="M 22 10L 154 10C 154 10 166 10 166 22L 166 52C 166 52 166 64 154 64L 22 64C 22 64 10 64 10 52L 10 22C 10 22 10 10 22 10"></path></g></g></g><g id="g-root-ro_1q7lmqu1xf1zb4-stroke" data-item-order="-8424" transform="translate(474, 122)"><g id="ro_1q7lmqu1xf1zb4-stroke" fill="none" stroke-linecap="round" stroke-linejoin="round" stroke-miterlimit="4" stroke="#1ac3fb" stroke-width="2"><g><path d="M 22 10L 154 10C 154 10 166 10 166 22L 166 52C 166 52 166 64 154 64L 22 64C 22 64 10 64 10 52L 10 22C 10 22 10 10 22 10"></path></g></g></g><g id="g-root-ro_qpo2ue1xf651k-stroke" data-item-order="-8424" transform="translate(474, 196)"><g id="ro_qpo2ue1xf651k-stroke" fill="none" stroke-linecap="round" stroke-linejoin="round" stroke-miterlimit="4" stroke="#1ac3fb" stroke-width="2"><g><path d="M 22 10L 154 10C 154 10 166 10 166 22L 166 52C 166 52 166 64 154 64L 22 64C 22 64 10 64 10 52L 10 22C 10 22 10 10 22 10"></path></g></g></g><g id="g-root-ro_24l0m1xfel8o-stroke" data-item-order="-8424" transform="translate(262, 270)"><g id="ro_24l0m1xfel8o-stroke" fill="none" stroke-linecap="round" stroke-linejoin="round" stroke-miterlimit="4" stroke="#1ac3fb" stroke-width="2"><g><path d="M 22 10L 154 10C 154 10 166 10 166 22L 166 52C 166 52 166 64 154 64L 22 64C 22 64 10 64 10 52L 10 22C 10 22 10 10 22 10"></path></g></g></g><g id="g-root-tx_serviceo_74gva1xf4rnk-stroke" data-item-order="0" transform="translate(206, 38)"></g><g id="g-root-cu_mdliee1xf4rnv-stroke" data-item-order="2" transform="translate(418, 149)"><g id="cu_mdliee1xf4rnv-stroke" fill="none" stroke-linecap="round" stroke-linejoin="round" stroke-miterlimit="4" stroke="#f4f4f4" stroke-width="2"><g><path d="M 10 47L 24 47L 38 47L 38 28.5L 38 10L 52 10L 64 10"></path><path d="M 58 16.5L 64.5 10L 58 3.5" stroke-dasharray="none"></path></g></g></g><g id="g-root-cu_hxs09y1xf4sg5-stroke" data-item-order="2" transform="translate(206, 186)"><g id="cu_hxs09y1xf4sg5-stroke" fill="none" stroke-linecap="round" stroke-linejoin="round" stroke-miterlimit="4" stroke="#f4f4f4" stroke-width="2"><g><path d="M 10 10L 38 10L 64 10"></path><path d="M 58 16.5L 64.5 10L 58 3.5" stroke-dasharray="none"></path></g></g></g><g id="g-root-cu_zp20rq1xf4q2w-stroke" data-item-order="2" transform="translate(418, 186)"><g id="cu_zp20rq1xf4q2w-stroke" fill="none" stroke-linecap="round" stroke-linejoin="round" stroke-miterlimit="4" stroke="#f4f4f4" stroke-width="2"><g><path d="M 10 10L 24 10L 38 10L 38 28.5L 38 47L 52 47L 64 47"></path><path d="M 58 53.5L 64.5 47L 58 40.5" stroke-dasharray="none"></path></g></g></g><g id="g-root-cu_1czw21y1xf4rnp-stroke" data-item-order="2" transform="translate(206, 297)"><g id="cu_1czw21y1xf4rnp-stroke" fill="none" stroke-linecap="round" stroke-linejoin="round" stroke-miterlimit="4" stroke="#f4f4f4" stroke-width="2"><g><path d="M 10 10L 38 10L 64 10"></path><path d="M 58 16.5L 64.5 10L 58 3.5" stroke-dasharray="none"></path></g></g></g><g id="g-root-cu_1qbckfa1xf4q2q-stroke" data-item-order="2" transform="translate(418, 297)"><g id="cu_1qbckfa1xf4q2q-stroke" fill="none" stroke-linecap="round" stroke-linejoin="round" stroke-miterlimit="4" stroke="#f4f4f4" stroke-width="2"><g><path d="M 10 10L 38 10L 64 10"></path><path d="M 58 16.5L 64.5 10L 58 3.5" stroke-dasharray="none"></path></g></g></g><g id="g-root-cu_1uqjlgm1xf4sg7-stroke" data-item-order="2" transform="translate(630, 297)"><g id="cu_1uqjlgm1xf4sg7-stroke" fill="none" stroke-linecap="round" stroke-linejoin="round" stroke-miterlimit="4" stroke="#f4f4f4" stroke-width="2"><g><path d="M 10 10L 38 10L 64 10"></path><path d="M 58 16.5L 64.5 10L 58 3.5" stroke-dasharray="none"></path></g></g></g><g id="g-root-tx_service1_13z95ye1xf1zim-stroke" data-item-order="1000000000" transform="translate(522, 137)"></g><g id="g-root-ic_orga_hteicm1xfiubx-stroke" data-item-order="1000000000" transform="translate(26, 171)"><g id="ic_orga_hteicm1xfiubx-stroke" fill="none" stroke-linecap="round" stroke-linejoin="round" stroke-miterlimit="4" stroke="#b7b7b7" stroke-width="2"><g><path d="M 10 10M 30.875 21.062511L 24.625 24.5625L 18.374937 21.062511L 18.374937 14.312475L 24.625 10.9375L 30.875 14.312475L 30.875 21.062511ZM 10 10M 30.875 14.31275L 24.625 17.812763L 18.374937 14.31275M 24.625 17.8125L 24.625 24.562376M 24.625 27.312624L 24.625 32.812622M 14.249875 32.8125L 14.249875 30.321751C 14.249875 29.491499 14.749875 28.938 15.499875 28.938L 34.249874 28.938C 34.999878 28.938 35.499874 29.491499 35.499874 30.321751L 35.499874 32.8125M 27.75 37.8125C 27.75 38.5625 27.25 39.0625 26.5 39.0625L 22.75 39.0625C 21.999937 39.0625 21.499937 38.5625 21.499937 37.8125L 21.499937 34.0625C 21.499937 33.3125 21.999937 32.8125 22.75 32.8125L 26.5 32.8125C 27.25 32.8125 27.75 33.3125 27.75 34.0625L 27.75 37.8125ZM 17.5 37.8125C 17.5 38.5625 17 39.0625 16.25 39.0625L 12.5 39.0625C 11.75 39.0625 11.25 38.5625 11.25 37.8125L 11.25 34.0625C 11.25 33.3125 11.75 32.8125 12.5 32.8125L 16.25 32.8125C 17 32.8125 17.5 33.3125 17.5 34.0625L 17.5 37.8125ZM 38.75 37.8125C 38.75 38.5625 38.25 39.0625 37.5 39.0625L 33.75 39.0625C 33 39.0625 32.5 38.5625 32.5 37.8125L 32.5 34.0625C 32.5 33.3125 33 32.8125 33.75 32.8125L 37.5 32.8125C 38.25 32.8125 38.75 33.3125 38.75 34.0625L 38.75 37.8125Z"></path></g></g></g><g id="g-root-tx_orchestr_8wijxi1xfitqc-stroke" data-item-order="1000000000" transform="translate(62, 174)"></g><g id="g-root-ic_gear_vjom1xflm2r-stroke" data-item-order="1000000000" transform="translate(274, 171)"><g id="ic_gear_vjom1xflm2r-stroke" fill="none" stroke-linecap="round" stroke-linejoin="round" stroke-miterlimit="4" stroke="#1ac3fb" stroke-width="2"><g><path d="M 36.822502 28.3125C 38.191376 27.1875 39.0625 25.4375 39.0625 23.5625C 39.0625 20.1875 36.324623 17.4375 32.964626 17.4375C 31.720125 17.4375 30.475626 17.8125 29.480125 18.5625C 28.733376 14.1875 24.8755 10.9375 20.271025 10.9375C 15.1687 10.9375 10.9375 15.1875 10.9375 20.3125C 10.9375 24.0625 13.053101 27.1875 16.164263 28.6875M 28.250124 24.9375L 28.75 26.562626C 28.875 27.187626 29.5 27.4375 30.125 27.3125L 31.750126 26.9375C 33.250126 26.5625 34.25 28.3125 33.25 29.4375L 32.125 30.6875C 31.75 31.1875 31.75 31.812626 32.125 32.187622L 33.25 33.437622C 34.25 34.562626 33.250126 36.3125 31.750126 35.9375L 30.125 35.5625C 29.5 35.4375 29 35.8125 28.75 36.3125L 28.250124 37.9375C 27.750126 39.4375 25.750124 39.4375 25.375126 37.9375L 24.875124 36.3125C 24.750126 35.6875 24.125126 35.4375 23.500126 35.5625L 21.875061 35.9375C 20.375063 36.3125 19.375063 34.562626 20.375063 33.437622L 21.500063 32.187622C 21.875061 31.687624 21.875061 31.0625 21.500063 30.6875L 20.375063 29.4375C 19.375063 28.3125 20.375063 26.5625 21.875061 26.9375L 23.500126 27.3125C 24.125126 27.4375 24.625126 27.062624 24.875124 26.562626L 25.375126 24.9375C 25.875126 23.4375 27.875126 23.4375 28.250124 24.9375ZM 26.773624 33.21125C 27.75325 33.21125 28.547251 32.417252 28.547251 31.437626C 28.547251 30.458126 27.75325 29.664 26.773624 29.664C 25.794125 29.664 25 30.458126 25 31.437626C 25 32.417252 25.794125 33.21125 26.773624 33.21125Z"></path></g></g></g><g id="g-root-tx_centralc_18nt84m1xfk8ay-stroke" data-item-order="1000000000" transform="translate(310, 162)"></g><g id="g-root-tx_servicec_mg3bl21xfllhi-stroke" data-item-order="1000000000" transform="translate(734, 285)"></g><g id="g-root-ic_even_18gbm921xf65u7-stroke" data-item-order="1000000000" transform="translate(486, 208)"><g id="ic_even_18gbm921xf65u7-stroke" fill="none" stroke-linecap="round" stroke-linejoin="round" stroke-miterlimit="4" stroke="#1ac3fb" stroke-width="2"><g><path d="M 13.437575 27.5C 14.818288 27.5 15.937575 26.380751 15.937575 25C 15.937575 23.619249 14.818288 22.5 13.437575 22.5C 12.056863 22.5 10.937576 23.619249 10.937576 25C 10.937576 26.380751 12.056863 27.5 13.437575 27.5ZM 20.43755 18.125C 21.818262 18.125 22.9375 17.005713 22.9375 15.625C 22.9375 14.244287 21.818262 13.125 20.43755 13.125C 19.056837 13.125 17.93755 14.244287 17.93755 15.625C 17.93755 17.005713 19.056837 18.125 20.43755 18.125ZM 20.43755 36.875C 21.818262 36.875 22.9375 35.755753 22.9375 34.375C 22.9375 32.994247 21.818262 31.875 20.43755 31.875C 19.056837 31.875 17.93755 32.994247 17.93755 34.375C 17.93755 35.755753 19.056837 36.875 20.43755 36.875ZM 36.062374 31.125C 34.812374 32 33.312374 32.5 31.687374 32.5C 29.312374 32.5 27.312376 31.5 25.937374 29.75M 38.437378 22.000124C 38.812374 22.875126 39.062378 24.000126 39.062378 25.000126M 25.937374 20.125011C 27.312376 18.500013 29.312374 17.5 31.562376 17.5C 33.062374 17.5 34.437374 17.874989 35.562374 18.624989M 31.708126 29.258501C 29.294874 29.258501 27.449501 27.413124 27.449501 24.999874C 27.449501 22.586624 29.294874 20.741276 31.708126 20.741276C 34.121376 20.741276 35.966751 22.586624 35.966751 24.999874L 39.023499 24.999874M 10 10M 27.355625 25L 15.937575 25M 22.31255 17.250063L 25.937374 20.125124M 22.31255 32.749874L 25.937374 29.75M 38.437378 28.125126C 38.812374 27.250126 39.062378 26.125124 39.062378 25.125124M 31.731125 26.36075C 32.482624 26.36075 33.091873 25.751499 33.091873 25C 33.091873 24.248501 32.482624 23.63925 31.731125 23.63925C 30.979626 23.63925 30.370377 24.248501 30.370377 25C 30.370377 25.751499 30.979626 26.36075 31.731125 26.36075Z"></path></g></g></g><g id="g-root-tx_service2_8x546e1xf658m-stroke" data-item-order="1000000000" transform="translate(522, 211)"></g><g id="g-root-ic_exch_hva0rq1xfacxz-stroke" data-item-order="1000000000" transform="translate(26, 282)"><g id="ic_exch_hva0rq1xfacxz-stroke" fill="none" stroke-linecap="round" stroke-linejoin="round" stroke-miterlimit="4" stroke="#b7b7b7" stroke-width="2"><g><path d="M 20.004999 38.75L 22.504999 36.25L 20.004999 33.75M 29.379999 23.125L 39.380001 23.125L 39.380001 39.375L 29.379999 39.375ZM 15 30C 15 33.451778 17.79822 36.25 21.25 36.25L 22.5 36.25M 34.380001 11.25L 31.879999 13.75L 34.380001 16.25M 39.375 20C 39.375 16.54822 36.576782 13.75 33.125 13.75L 31.875 13.75M 29.379999 34.375L 39.380001 34.375M 34.375 36.5625C 34.202412 36.5625 34.0625 36.702412 34.0625 36.875C 34.0625 37.047588 34.202412 37.1875 34.375 37.1875C 34.547588 37.1875 34.6875 37.047588 34.6875 36.875C 34.6875 36.702412 34.547588 36.5625 34.375 36.5625L 34.375 36.5625M 10.63 10.625L 26.879999 10.625L 26.879999 23.125L 10.63 23.125ZM 10.63 14.375L 26.879999 14.375M 13.755 16.875L 19.380001 16.875M 13.755 19.375L 16.255001 19.375"></path></g></g></g><g id="g-root-tx_choreogr_1q883ty1xfadqm-stroke" data-item-order="1000000000" transform="translate(62, 285)"></g><g id="g-root-ic_apps_hss4fa1xfem1b-stroke" data-item-order="1000000000" transform="translate(274, 282)"><g id="ic_apps_hss4fa1xfem1b-stroke" fill="none" stroke-linecap="round" stroke-linejoin="round" stroke-miterlimit="4" stroke="#1ac3fb" stroke-width="2"><g><path d="M 25.25 21.125187C 26.2855 21.125187 27.125 20.285713 27.125 19.250187C 27.125 18.214649 26.2855 17.375187 25.25 17.375187C 24.214375 17.375187 23.375 18.214649 23.375 19.250187C 23.375 20.285713 24.214375 21.125187 25.25 21.125187ZM 19.937437 30.62525C 20.972975 30.62525 21.812437 29.785875 21.812437 28.75025C 21.812437 27.71475 20.972975 26.87525 19.937437 26.87525C 18.901899 26.87525 18.062437 27.71475 18.062437 28.75025C 18.062437 29.785875 18.901899 30.62525 19.937437 30.62525ZM 30.5625 30.62525C 31.598 30.62525 32.4375 29.785875 32.4375 28.75025C 32.4375 27.71475 31.598 26.87525 30.5625 26.87525C 29.526875 26.87525 28.6875 27.71475 28.6875 28.75025C 28.6875 29.785875 29.526875 30.62525 30.5625 30.62525ZM 21.812437 28.75025L 28.6875 28.75025M 21.12495 27.300625L 24.375 20.912937M 10 10M 29.375 27.300625L 26.125 20.912937M 15.171688 34.828251C 9.718568 29.375126 9.718568 20.497963 15.171688 15.044838C 19.356638 10.859883 25.443874 9.845365 30.5165 12.128062M 10 10M 38.379128 15.425438L 34.828251 15.171813L 34.574627 18.722687M 10 10M 11.494062 34.44825L 15.171775 34.828625L 15.552213 31.27775M 34.828373 15.171813C 40.281502 20.624939 40.281502 29.502125 34.828373 34.95525C 30.643375 39.140125 24.556126 40.154751 19.483488 37.872002"></path></g></g></g><g id="g-root-ic_smar_1q6z5nq1xfitxr-stroke" data-item-order="1000000000" transform="translate(486, 282)"><g id="ic_smar_1q6z5nq1xfitxr-stroke" fill="none" stroke-linecap="round" stroke-linejoin="round" stroke-miterlimit="4" stroke="#1ac3fb" stroke-width="2"><g><path d="M 24.682501 33.71875L 22.182501 33.71875C 20.111431 33.71875 18.432501 32.039818 18.432501 29.96875L 18.432499 26.84375M 15.9325 28.71875L 18.432499 26.21875L 20.932501 28.71875M 31.723749 24.34375L 37.973751 24.34375C 37.973751 24.34375 39.223751 24.34375 39.223751 25.59375L 39.223751 38.09375C 39.223751 38.09375 39.223751 39.34375 37.973751 39.34375L 31.723749 39.34375C 31.723749 39.34375 30.473749 39.34375 30.473749 38.09375L 30.473749 25.59375C 30.473749 25.59375 30.473749 24.34375 31.723749 24.34375M 39.223751 35.59375L 30.473749 35.59375M 25.776251 11.90625L 25.776251 20.65625C 25.776251 20.65625 25.776251 21.90625 24.526251 21.90625L 12.02625 21.90625C 12.02625 21.90625 10.77625 21.90625 10.77625 20.65625L 10.77625 11.90625C 10.77625 11.90625 10.77625 10.65625 12.02625 10.65625L 24.526251 10.65625C 24.526251 10.65625 25.776251 10.65625 25.776251 11.90625M 25.776251 14.40625L 10.77625 14.40625M 21.401251 18.78125L 23.276251 18.78125"></path></g></g></g><g id="g-root-ic_clus_1lz9tnq1xflm33-stroke" data-item-order="1000000000" transform="translate(698, 282)"><g id="ic_clus_1lz9tnq1xflm33-stroke" fill="none" stroke-linecap="round" stroke-linejoin="round" stroke-miterlimit="4" stroke="#1ac3fb" stroke-width="2"><g><path d="M 20.9375 28.8125C 20.9375 29.5625 20.4375 30.0625 19.6875 30.0625L 12.1875 30.0625C 11.4375 30.0625 10.9375 29.5625 10.9375 28.8125L 10.9375 21.312563C 10.9375 20.562563 11.4375 20.062563 12.1875 20.062563L 19.6875 20.062563C 20.4375 20.062563 20.9375 20.562563 20.9375 21.312563L 20.9375 28.8125ZM 31.5625 14.6875C 31.5625 15.4375 31.0625 15.9375 30.3125 15.9375L 27.8125 15.9375C 27.0625 15.9375 26.5625 15.4375 26.5625 14.6875L 26.5625 12.1875C 26.5625 11.4375 27.0625 10.9375 27.8125 10.9375L 30.3125 10.9375C 31.0625 10.9375 31.5625 11.4375 31.5625 12.1875L 31.5625 14.6875ZM 39.0625 21.937563C 39.0625 22.6875 38.5625 23.1875 37.8125 23.1875L 35.3125 23.1875C 34.5625 23.1875 34.0625 22.6875 34.0625 21.937563L 34.0625 19.437563C 34.0625 18.687563 34.5625 18.187563 35.3125 18.187563L 37.8125 18.187563C 38.5625 18.187563 39.0625 18.687563 39.0625 19.437563L 39.0625 21.937563ZM 39.0625 30.6875C 39.0625 31.4375 38.5625 31.9375 37.8125 31.9375L 35.3125 31.9375C 34.5625 31.9375 34.0625 31.4375 34.0625 30.6875L 34.0625 28.1875C 34.0625 27.4375 34.5625 26.9375 35.3125 26.9375L 37.8125 26.9375C 38.5625 26.9375 39.0625 27.4375 39.0625 28.1875L 39.0625 30.6875ZM 31.5625 37.8125C 31.5625 38.5625 31.0625 39.0625 30.3125 39.0625L 27.8125 39.0625C 27.0625 39.0625 26.5625 38.5625 26.5625 37.8125L 26.5625 35.3125C 26.5625 34.5625 27.0625 34.0625 27.8125 34.0625L 30.3125 34.0625C 31.0625 34.0625 31.5625 34.5625 31.5625 35.3125L 31.5625 37.8125ZM 34.0625 20.687563L 20.9375 25.0625L 26.962875 15.644526M 10 10M 34.0625 29.4375L 20.9375 25.0625L 26.914001 34.399376M 10 10M 31.332249 15.4573L 34.408375 18.533449M 36.5625 23.1875L 36.5625 26.9375M 10 10M 31.275499 34.473125L 34.349251 31.522251"></path></g></g></g><g id="g-root-tx_servicea_1hapobq1xfel8m-stroke" data-item-order="1000000000" transform="translate(310, 285)"></g><g id="g-root-tx_serviceb_qnsnl21xfitc6-stroke" data-item-order="1000000000" transform="translate(522, 285)"></g><g id="g-root-ic_serv_8xrl9i1xf1x53-stroke" data-item-order="1000000000" transform="translate(486, 134)"><g id="ic_serv_8xrl9i1xf1x53-stroke" fill="none" stroke-linecap="round" stroke-linejoin="round" stroke-miterlimit="4" stroke="#1ac3fb" stroke-width="2"><g><path d="M 10.625 16.940001L 23.125 21.0825L 23.125 39.314999L 10.7075 35ZM 26.875 39.375L 39.375 35L 39.375 17.05625L 26.875 21.022499ZM 24.987499 18.168751L 38.16375 14.54875L 24.987499 10.80125L 11.99 14.35375L 24.987499 18.168751Z"></path></g></g></g></g></g><path id="w24xom1yt8b9n" d="M65.283 12.757a.35.35 0 0 0 .584.157l5.203-5.141-6.183 3.523.396 1.461zm-2.216-11.7a.35.35 0 0 0-.522.305v3.111l3.276-1.868-2.754-1.548zm3.728 2.105l-4.25 2.421v2.445l6.391-3.644-2.141-1.222zm4.708 3.303a.35.35 0 0 0 0-.609l-1.592-.9-7.365 4.199v1.782a.35.35 0 0 0 .523.305l8.435-4.777z M44.542 2.513c0-.433.355-.783.792-.783s.792.35.792.783-.355.783-.792.783-.792-.35-.792-.783zm59.171 0c0-.433.355-.783.792-.783s.792.35.792.783-.355.783-.792.783-.792-.35-.792-.783zm-85.951 7.636h-1.27v-.487c-.276.201-.864.609-1.881.609-1.202 0-2.274-.794-2.137-2.078.118-1.106 1.153-1.584 1.848-1.727l2.17-.345c0-.539-.29-.956-1.064-1.006s-1.21.305-1.571 1.017l-1.124-.605c1.218-2.631 5.029-1.764 5.029.414v4.207zm-1.27-2.86c.006.396-.062 1.112-.819 1.59-.587.37-1.841.299-1.903-.395-.049-.555.461-.791.906-.898l1.816-.297zm72.662 2.86h-1.27v-.487c-.276.201-.864.609-1.881.609-1.202 0-2.274-.794-2.137-2.078.118-1.106 1.153-1.584 1.848-1.727l2.17-.345c0-.539-.29-.956-1.064-1.006s-1.21.305-1.571 1.017l-1.124-.605c1.218-2.631 5.029-1.764 5.029.414v4.207zm-1.27-2.86c.006.396-.062 1.112-.82 1.59-.587.37-1.841.299-1.903-.395-.049-.555.461-.791.906-.898l1.816-.297zM99.096 10.149H97.85v-8.45h1.246v4.895l2.68-2.559h1.738l-2.633 2.535 2.715 3.578h-1.556l-2.077-2.707-.867.844v1.863zm6.053-6.114h-1.255v6.113h1.255V4.035zm-59.2 0h-1.255v6.113h1.255V4.035zm5.584 6.113V1.697h1.255v2.695c.361-.346 1-.485 1.47-.485 1.452 0 2.477 1.082 2.457 2.448v3.792h-1.27v-3.68c0-.408-.214-1.339-1.315-1.339-.968 0-1.342.756-1.342 1.339v3.681h-1.255zm-4.76-4.894V4.039h.621a.45.45 0 0 0 .45-.45v-.855h1.251v1.305h1.309v1.215h-1.309v3.109c0 .293.105.664.648.664.365 0 .531-.035.736-.07v1.137s-.361.113-.857.113c-1.398 0-1.777-1.051-1.777-1.788V5.254h-1.071zM36.528 4.039h-1.394l2.191 6.106h1.125l1.234-3.918 1.238 3.918h1.129l2.188-6.106h-1.383l-1.359 3.93-1.256-3.93h-1.124l-1.242 3.957-1.348-3.957zM26.212 7.141c-.02 1.566 1.187 3.129 3.223 3.129 1.566 0 2.383-.918 2.734-1.719L31.172 8c-.315.399-.801 1.094-1.738 1.094-1.145 0-1.825-.781-1.891-1.52h4.625c.074-.284.148-.995-.03-1.559-.336-1.064-1.221-2.102-2.839-2.102s-3.088 1.152-3.088 3.227zm1.363-.75h3.348c-.055-.43-.566-1.301-1.623-1.301a1.79 1.79 0 0 0-1.725 1.301zm-8.758.75c.038 1.758 1.277 3.133 3.145 3.133 1.074 0 1.723-.477 1.961-.672v.547h1.242V1.703h-1.258v2.888c-.414-.36-1.062-.68-1.93-.68-1.91 0-3.198 1.473-3.16 3.23zm1.309-.08c0 1.119.723 1.978 1.836 1.978a1.88 1.88 0 0 0 1.94-1.904c0-1.371-1.011-1.99-1.972-1.99s-1.805.798-1.805 1.916zm76.683-.028C96.771 5.275 95.532 3.9 93.664 3.9c-1.074 0-1.723.477-1.961.672v-.547h-1.242v8.22h1.258V9.583c.414.36 1.063.68 1.93.68 1.91 0 3.198-1.473 3.16-3.23zm-1.309.08c0-1.119-.723-1.978-1.836-1.978a1.88 1.88 0 0 0-1.94 1.904c0 1.371 1.011 1.99 1.972 1.99S95.5 8.231 95.5 7.113zM106.441 10.173V4.036h1.254v.382c.361-.346 1-.485 1.47-.485 1.452 0 2.477 1.082 2.457 2.448v3.792h-1.27V6.492c0-.408-.214-1.339-1.315-1.339-.969 0-1.342.756-1.342 1.339v3.681h-1.254zm-30.383-.021V1.824h1.084l4.215 5.777V1.824h1.32v8.328h-1.094l-4.207-5.796v5.796h-1.319zM5.24 10.149H4V2.377h1.014l2.664 3.597 2.654-3.592h1.03v7.766h-1.256V4.762L7.678 8.068 5.24 4.742v5.407z" transform="translate(747.5, 355.5)" fill="#ababab88" stroke="none"></path></svg>