<?xml version="1.0" encoding="utf-8" standalone="yes"?>
<!DOCTYPE svg PUBLIC "-//W3C//DTD SVG 1.1//EN" "http://www.w3.org/Graphics/SVG/1.1/DTD/svg11.dtd">
<svg width="767" height="514" viewBox="0 0 767 514" style="fill:none;stroke:none;fill-rule:evenodd;clip-rule:evenodd;stroke-linecap:round;stroke-linejoin:round;stroke-miterlimit:1.5;" version="1.1" xmlns="http://www.w3.org/2000/svg" xmlns:xlink="http://www.w3.org/1999/xlink"><style class="text-font-style fontImports" data-font-family="Roboto">@import url('https://fonts.googleapis.com/css2?family=Roboto:wght@400;700&amp;display=block');</style><g id="items" style="isolation: isolate"><g id="blend" style="mix-blend-mode: normal"><g id="g-root-cp_1_g-1_18gy09y1v756h6-fill" data-item-order="-293344" transform="translate(38, 111)"></g><g id="g-root-cp_2_g-2_v5hhwm1v75824-fill" data-item-order="-293338" transform="translate(206, 111)"></g><g id="g-root-cp_3_g-3_hungme1v756ha-fill" data-item-order="-293332" transform="translate(374, 111)"></g><g id="g-root-cp_4_g-4_detyhy1v7579k-fill" data-item-order="-293326" transform="translate(542, 111)"></g><g id="g-root-tx_layerres_1upah2e1v7569u-fill" data-item-order="0" transform="translate(181.5, 38)"><g id="tx_layerres_1upah2e1v7569u-fill" stroke="none" fill="#f4f4f4"><g><text style="font: bold 25px Roboto, sans-serif; white-space: pre;" font-weight="bold" font-size="25px" font-family="Roboto, sans-serif"><tspan x="13.8" y="42" dominant-baseline="ideographic">Layer Responsibility Components</tspan></text></g></g></g><g id="g-root-ic_data_1hdtyp21v757ur-fill" data-item-order="0" transform="translate(86, 158)"></g><g id="g-root-ic_mana_i0w7hi1v75824-fill" data-item-order="0" transform="translate(254, 158)"></g><g id="g-root-ic_cabl_1qclcdi1v76kud-fill" data-item-order="0" transform="translate(422, 158)"></g><g id="g-root-ic_3_140i12e1v78172-fill" data-item-order="0" transform="translate(590, 158)"></g><g id="g-root-tx_entities_1d14u061v77zt3-fill" data-item-order="0" transform="translate(86, 350)"><g id="tx_entities_1d14u061v77zt3-fill" stroke="none" fill="#4f91fc"><g><text style="font: bold 20px Roboto, sans-serif; white-space: pre;" font-weight="bold" font-size="20px" font-family="Roboto, sans-serif"><tspan x="12.16" y="34" dominant-baseline="ideographic">Entities</tspan></text></g></g></g><g id="g-root-tx_usecases_93drza1v781e1-fill" data-item-order="0" transform="translate(236, 350)"><g id="tx_usecases_93drza1v781e1-fill" stroke="none" fill="#43dd93"><g><text style="font: bold 20px Roboto, sans-serif; white-space: pre;" font-weight="bold" font-size="20px" font-family="Roboto, sans-serif"><tspan x="16.8" y="34" dominant-baseline="ideographic">Use Cases</tspan></text></g></g></g><g id="g-root-tx_interfac_1d2ds6e1v781z7-fill" data-item-order="0" transform="translate(410, 350)"><g id="tx_interfac_1d2ds6e1v781z7-fill" stroke="none" fill="#f79438"><g><text style="font: bold 20px Roboto, sans-serif; white-space: pre;" font-weight="bold" font-size="20px" font-family="Roboto, sans-serif"><tspan x="15.04" y="34" dominant-baseline="ideographic">Interface </tspan><tspan x="14.74" y="58" dominant-baseline="ideographic">Adapters</tspan></text></g></g></g><g id="g-root-tx_framewor_95978m1v780ed-fill" data-item-order="0" transform="translate(554, 350)"><g id="tx_framewor_95978m1v780ed-fill" stroke="none" fill="#fb6762"><g><text style="font: bold 20px Roboto, sans-serif; white-space: pre;" font-weight="bold" font-size="20px" font-family="Roboto, sans-serif"><tspan x="15.04" y="34" dominant-baseline="ideographic">Frameworks &amp; </tspan><tspan x="47.49" y="58" dominant-baseline="ideographic">Drivers</tspan></text></g></g></g><g id="g-root-tx_business_vahali1v77z0g-fill" data-item-order="0" transform="translate(50, 386)"><g id="tx_business_vahali1v77z0g-fill" stroke="none" fill="#f4f4f4"><g><text style="font: 15px Roboto, sans-serif; white-space: pre;" font-size="15px" font-family="Roboto, sans-serif"><tspan x="17.53" y="28" dominant-baseline="ideographic">Business logic and </tspan><tspan x="28.39" y="46" dominant-baseline="ideographic">domain models</tspan></text></g></g></g><g id="g-root-tx_applicat_1utnso61v77zm2-fill" data-item-order="0" transform="translate(218, 386)"><g id="tx_applicat_1utnso61v77zm2-fill" stroke="none" fill="#f4f4f4"><g><text style="font: 15px Roboto, sans-serif; white-space: pre;" font-size="15px" font-family="Roboto, sans-serif"><tspan x="14.5" y="28" dominant-baseline="ideographic">Application-specific </tspan><tspan x="32.03" y="46" dominant-baseline="ideographic">business rules</tspan></text></g></g></g><g id="g-root-tx_converts_zrjqw61v780ec-fill" data-item-order="0" transform="translate(404, 410)"><g id="tx_converts_zrjqw61v780ec-fill" stroke="none" fill="#f4f4f4"><g><text style="font: 15px Roboto, sans-serif; white-space: pre;" font-size="15px" font-family="Roboto, sans-serif"><tspan x="17.2" y="28" dominant-baseline="ideographic">Converts data </tspan><tspan x="13.84" y="46" dominant-baseline="ideographic">between layers</tspan></text></g></g></g><g id="g-root-tx_external_1lpwmau1v79dzi-fill" data-item-order="0" transform="translate(560, 410)"><g id="tx_external_1lpwmau1v79dzi-fill" stroke="none" fill="#f4f4f4"><g><text style="font: 15px Roboto, sans-serif; white-space: pre;" font-size="15px" font-family="Roboto, sans-serif"><tspan x="14.33" y="28" dominant-baseline="ideographic">External tools and </tspan><tspan x="31.25" y="46" dominant-baseline="ideographic">technologies</tspan></text></g></g></g><g id="g-root-cp_1_g-1_18gy09y1v756h6-stroke" data-item-order="-293344" transform="translate(38, 111)"><g id="cp_1_g-1_18gy09y1v756h6-stroke" fill="none" stroke-linecap="round" stroke-linejoin="round" stroke-miterlimit="4" stroke="#4f91fc" stroke-width="2"><g><path d="M 166 94C 166 133.7645 133.7645 166 94 166C 54.2355 166 22 133.7645 22 94C 22 54.2355 54.2355 22 94 22C 133.7645 22 166 54.2355 166 94ZM 10 94C 10 77.3864 14.9265 61.1459 24.1566 47.3321C 33.3866 33.5184 46.5056 22.7519 61.8546 16.3942C 77.2036 10.0364 94.0932 8.3729 110.3876 11.6141C 126.682 14.8552 141.6494 22.8555 153.397 34.6031C 165.1446 46.3507 173.1448 61.3181 176.386 77.6125C 179.6271 93.9069 177.9636 110.7965 171.6059 126.1455C 165.2481 141.4945 154.4816 154.6134 140.6679 163.8435C 126.8541 173.0735 111.1136 178 94.5 178L 94.5001 215M 94.5001 215L 79.8045 200.3571M 94.5001 215L 109.1958 200.3571"></path></g></g></g><g id="g-root-cp_2_g-2_v5hhwm1v75824-stroke" data-item-order="-293338" transform="translate(206, 111)"><g id="cp_2_g-2_v5hhwm1v75824-stroke" fill="none" stroke-linecap="round" stroke-linejoin="round" stroke-miterlimit="4" stroke="#43dd93" stroke-width="2"><g><path d="M 166 94C 166 133.7645 133.7645 166 94 166C 54.2355 166 22 133.7645 22 94C 22 54.2355 54.2355 22 94 22C 133.7645 22 166 54.2355 166 94ZM 10 94C 10 77.3864 14.9265 61.1459 24.1566 47.3321C 33.3866 33.5184 46.5056 22.7519 61.8546 16.3942C 77.2036 10.0364 94.0932 8.3729 110.3876 11.6141C 126.682 14.8552 141.6494 22.8555 153.397 34.6031C 165.1446 46.3507 173.1448 61.3181 176.386 77.6125C 179.6271 93.9069 177.9636 110.7965 171.6059 126.1455C 165.2481 141.4945 154.4816 154.6134 140.6679 163.8435C 126.8541 173.0735 111.1136 178 94.5 178L 94.5001 215M 94.5001 215L 79.8045 200.3571M 94.5001 215L 109.1958 200.3571"></path></g></g></g><g id="g-root-cp_3_g-3_hungme1v756ha-stroke" data-item-order="-293332" transform="translate(374, 111)"><g id="cp_3_g-3_hungme1v756ha-stroke" fill="none" stroke-linecap="round" stroke-linejoin="round" stroke-miterlimit="4" stroke="#f79438" stroke-width="2"><g><path d="M 166 94C 166 133.7645 133.7645 166 94 166C 54.2355 166 22 133.7645 22 94C 22 54.2355 54.2355 22 94 22C 133.7645 22 166 54.2355 166 94ZM 10 94C 10 77.3864 14.9265 61.1459 24.1566 47.3321C 33.3866 33.5184 46.5056 22.7519 61.8546 16.3942C 77.2036 10.0364 94.0932 8.3729 110.3876 11.6141C 126.682 14.8552 141.6494 22.8555 153.397 34.6031C 165.1446 46.3507 173.1448 61.3181 176.386 77.6125C 179.6271 93.9069 177.9636 110.7965 171.6059 126.1455C 165.2481 141.4945 154.4816 154.6134 140.6679 163.8435C 126.8541 173.0735 111.1136 178 94.5 178L 94.5001 215M 94.5001 215L 79.8045 200.3571M 94.5001 215L 109.1958 200.3571"></path></g></g></g><g id="g-root-cp_4_g-4_detyhy1v7579k-stroke" data-item-order="-293326" transform="translate(542, 111)"><g id="cp_4_g-4_detyhy1v7579k-stroke" fill="none" stroke-linecap="round" stroke-linejoin="round" stroke-miterlimit="4" stroke="#fb6762" stroke-width="2"><g><path d="M 166 94C 166 133.7645 133.7645 166 94 166C 54.2355 166 22 133.7645 22 94C 22 54.2355 54.2355 22 94 22C 133.7645 22 166 54.2355 166 94ZM 10 94C 10 77.3864 14.9265 61.1459 24.1566 47.3321C 33.3866 33.5184 46.5056 22.7519 61.8546 16.3942C 77.2036 10.0364 94.0932 8.3729 110.3876 11.6141C 126.682 14.8552 141.6494 22.8555 153.397 34.6031C 165.1446 46.3507 173.1448 61.3181 176.386 77.6125C 179.6271 93.9069 177.9636 110.7965 171.6059 126.1455C 165.2481 141.4945 154.4816 154.6134 140.6679 163.8435C 126.8541 173.0735 111.1136 178 94.5 178L 94.5001 215M 94.5001 215L 79.8045 200.3571M 94.5001 215L 109.1958 200.3571"></path></g></g></g><g id="g-root-tx_layerres_1upah2e1v7569u-stroke" data-item-order="0" transform="translate(181.5, 38)"></g><g id="g-root-ic_data_1hdtyp21v757ur-stroke" data-item-order="0" transform="translate(86, 158)"><g id="ic_data_1hdtyp21v757ur-stroke" fill="none" stroke-linecap="round" stroke-linejoin="round" stroke-miterlimit="4" stroke="#4f91fc" stroke-width="2"><g><path d="M 19 22C 19 27.79899 31.088312 32.5 46 32.5C 60.911686 32.5 73 27.79899 73 22C 73 16.20101 60.911686 11.500001 46 11.500001C 31.088312 11.500001 19 16.20101 19 22M 19 22L 19 70C 19 75.799004 31.087 80.5 46 80.5C 60.913002 80.5 73 75.799004 73 70L 73 22M 73 32.5C 73 38.299 60.913002 43 46 43C 31.087 43 19 38.299 19 32.5M 73 43C 73 48.799 60.913002 53.5 46 53.5C 31.087 53.5 19 48.799 19 43"></path></g></g></g><g id="g-root-ic_mana_i0w7hi1v75824-stroke" data-item-order="0" transform="translate(254, 158)"><g id="ic_mana_i0w7hi1v75824-stroke" fill="none" stroke-linecap="round" stroke-linejoin="round" stroke-miterlimit="4" stroke="#43dd93" stroke-width="2"><g><path d="M 13 46L 19 46M 31 46L 46 46M 58 46L 79 46M 72.931 40L 79 46L 72.931 52M 19 46C 19 49.313709 21.686291 52 25 52C 28.313709 52 31 49.313709 31 46C 31 42.686291 28.313709 40 25 40C 21.686291 40 19 42.686291 19 46M 46 46C 46 49.313709 48.686291 52 52 52C 55.313709 52 58 49.313709 58 46C 58 42.686291 55.313709 40 52 40C 48.686291 40 46 42.686291 46 46M 52 40L 52 29.5M 25 62.5L 25 52M 43 11.5L 61 11.5C 61 11.5 64 11.5 64 14.5L 64 26.5C 64 26.5 64 29.5 61 29.5L 43 29.5C 43 29.5 40 29.5 40 26.5L 40 14.5C 40 14.5 40 11.5 43 11.5M 16 62.5L 34 62.5C 34 62.5 37 62.5 37 65.5L 37 77.5C 37 77.5 37 80.5 34 80.5L 16 80.5C 16 80.5 13 80.5 13 77.5L 13 65.5C 13 65.5 13 62.5 16 62.5"></path></g></g></g><g id="g-root-ic_cabl_1qclcdi1v76kud-stroke" data-item-order="0" transform="translate(422, 158)"><g id="ic_cabl_1qclcdi1v76kud-stroke" fill="none" stroke-linecap="round" stroke-linejoin="round" stroke-miterlimit="4" stroke="#f79438" stroke-width="2"><g><path d="M 23.5 26.5L 23.5 32.5M 68.5 59.5L 68.5 65.5M 14.5 20.5L 32.5 20.5C 32.5 20.5 35.5 20.5 35.5 23.5L 35.5 35.5C 35.5 35.5 35.5 38.5 32.5 38.5L 14.5 38.5C 14.5 38.5 11.5 38.5 11.5 35.5L 11.5 23.5C 11.5 23.5 11.5 20.5 14.5 20.5M 16 11.5L 31 11.5C 31.828428 11.5 32.5 12.171573 32.5 13L 32.5 20.5L 32.5 20.5L 14.5 20.5L 14.5 20.5L 14.5 13C 14.5 12.171573 15.171573 11.5 16 11.5ZM 77.5 71.5L 59.5 71.5C 59.5 71.5 56.5 71.5 56.5 68.5L 56.5 56.5C 56.5 56.5 56.5 53.5 59.5 53.5L 77.5 53.5C 77.5 53.5 80.5 53.5 80.5 56.5L 80.5 68.5C 80.5 68.5 80.5 71.5 77.5 71.5M 76 80.5L 61 80.5C 60.171574 80.5 59.5 79.82843 59.5 79L 59.5 71.5L 59.5 71.5L 77.5 71.5L 77.5 71.5L 77.5 79C 77.5 79.82843 76.82843 80.5 76 80.5ZM 20.5 38.5L 26.5 38.5L 26.5 50.5L 20.5 50.5ZM 65.5 41.5L 71.5 41.5L 71.5 53.5L 65.5 53.5ZM 23.5 50.5L 23.5 68.5C 23.5 75.127419 28.872583 80.5 35.5 80.5C 42.127419 80.5 47.5 75.127419 47.5 68.5L 47.5 22C 47.500004 16.20101 52.201012 11.500001 58 11.500001C 63.798988 11.500001 68.5 16.20101 68.5 22L 68.5 41.5"></path></g></g></g><g id="g-root-ic_3_140i12e1v78172-stroke" data-item-order="0" transform="translate(590, 158)"><g id="ic_3_140i12e1v78172-stroke" fill="none" stroke-linecap="round" stroke-linejoin="round" stroke-miterlimit="4" stroke="#fb6762" stroke-width="2"><g><path d="M 62.856998 26.503C 62.857002 28.8839 64.787102 30.814001 67.168007 30.814001C 69.548904 30.814001 71.479004 28.8839 71.479004 26.503002C 71.479004 24.122101 69.548904 22.192001 67.168007 22.192001C 64.787102 22.192001 62.857002 24.122101 62.857002 26.503002ZM 70 13.6L 70.983994 16.827999C 71.325439 17.934078 72.46315 18.588686 73.591003 18.327999L 76.863998 17.569C 78.137512 17.281729 79.449554 17.858 80.099648 18.990141C 80.749733 20.122282 80.586052 21.545929 79.695999 22.500999L 77.403999 25C 76.611336 25.852169 76.611336 27.171833 77.403999 28.024002L 79.693001 30.495998C 80.580284 31.451427 80.742302 32.87318 80.092728 34.003742C 79.443153 35.134304 78.13327 35.710365 76.860992 35.424999L 73.600006 34.656998C 72.472153 34.396317 71.334442 35.050919 70.992996 36.156998L 70 39.400002C 69.62516 40.650124 68.474609 41.506298 67.169495 41.506298C 65.864388 41.506298 64.713837 40.650124 64.338997 39.400002L 63.355 36.172001C 63.013554 35.065918 61.875847 34.411316 60.748001 34.672001L 57.474998 35.431C 56.202724 35.716366 54.892845 35.140305 54.243271 34.009743C 53.593697 32.879181 53.755714 31.457428 54.642998 30.501999L 56.931999 28.030001C 57.724667 27.177834 57.724667 25.858168 56.932003 25.006001L 54.642998 22.536999C 53.752945 21.58193 53.589264 20.158283 54.239349 19.026142C 54.889439 17.893999 56.201485 17.31773 57.474998 17.605L 60.748001 18.364C 61.875847 18.624685 63.013554 17.970079 63.355 16.864L 64.335999 13.6C 64.709175 12.347356 65.860954 11.488684 67.167999 11.488684C 68.475044 11.488684 69.626823 12.347356 70 13.599999ZM 31.093 38.878002C 31.832865 39.705265 32.890148 40.178123 34 40.178123C 35.109852 40.178123 36.167133 39.705265 36.906998 38.877998L 38.800003 36.796001C 39.910809 35.564636 41.676544 35.165985 43.208652 35.800655C 44.740753 36.435329 45.70734 37.965839 45.621998 39.621998L 45.478001 42.424C 45.422333 43.530968 45.837753 44.609787 46.62149 45.393517C 47.40522 46.17725 48.484039 46.592674 49.591003 46.537003L 52.392998 46.392998C 54.04916 46.307655 55.579674 47.274242 56.21434 48.806347C 56.849014 50.338451 56.450363 52.104191 55.219002 53.215L 53.137001 55.096001C 52.309734 55.835865 51.836872 56.893147 51.836872 58.002998C 51.836872 59.112854 52.309734 60.170132 53.137001 60.909996L 55.219002 62.791C 56.450363 63.90181 56.849014 65.667549 56.21434 67.199646C 55.579674 68.73175 54.04916 69.698341 52.392998 69.612999L 49.591 69.469002C 48.484039 69.41333 47.40522 69.828758 46.62149 70.612488C 45.837753 71.396217 45.422333 72.475037 45.478004 73.582008L 45.621998 76.384003C 45.70734 78.040161 44.740753 79.570671 43.208652 80.205345C 41.676544 80.840012 39.910809 80.44136 38.799999 79.209999L 36.918999 77.127998C 36.179134 76.300735 35.121849 75.827873 34.012001 75.827873C 32.902149 75.827873 31.844866 76.300735 31.105 77.127998L 29.200001 79.209999C 28.08919 80.44136 26.323454 80.840012 24.791348 80.205345C 23.259243 79.570671 22.292656 78.040161 22.378 76.384003L 22.521999 73.582001C 22.577673 72.475037 22.162249 71.396217 21.378515 70.612488C 20.594784 69.828758 19.515966 69.41333 18.409 69.469009L 15.607 69.612999C 13.957377 69.68821 12.437687 68.721039 11.807285 67.194771C 11.176883 65.668495 11.571118 63.910816 12.793 62.800003L 14.875 60.918999C 15.702267 60.179131 16.175125 59.121853 16.175125 58.012001C 16.175125 56.902149 15.702267 55.844864 14.875 55.105L 12.793 53.223999C 11.561636 52.11319 11.162985 50.347454 11.797656 48.815346C 12.432328 47.283241 13.962838 46.316658 15.618999 46.402L 18.421 46.546001C 19.527966 46.601677 20.606785 46.186249 21.390516 45.402519C 22.174248 44.618786 22.589674 43.539967 22.534 42.433002L 22.389999 39.621998C 22.310875 37.971573 23.275658 36.448906 24.80179 35.815598C 26.327923 35.182285 28.087328 35.574474 29.199999 36.796001ZM 23.5 58.002998C 23.500002 63.801994 28.201012 68.503006 34 68.503006C 39.798988 68.503006 44.5 63.801994 44.5 58.003006C 44.5 52.20401 39.798988 47.503002 34 47.503002C 28.201012 47.503002 23.500002 52.20401 23.500002 58.003006Z"></path></g></g></g><g id="g-root-tx_entities_1d14u061v77zt3-stroke" data-item-order="0" transform="translate(86, 350)"></g><g id="g-root-tx_usecases_93drza1v781e1-stroke" data-item-order="0" transform="translate(236, 350)"></g><g id="g-root-tx_interfac_1d2ds6e1v781z7-stroke" data-item-order="0" transform="translate(410, 350)"></g><g id="g-root-tx_framewor_95978m1v780ed-stroke" data-item-order="0" transform="translate(554, 350)"></g><g id="g-root-tx_business_vahali1v77z0g-stroke" data-item-order="0" transform="translate(50, 386)"></g><g id="g-root-tx_applicat_1utnso61v77zm2-stroke" data-item-order="0" transform="translate(218, 386)"></g><g id="g-root-tx_converts_zrjqw61v780ec-stroke" data-item-order="0" transform="translate(404, 410)"></g><g id="g-root-tx_external_1lpwmau1v79dzi-stroke" data-item-order="0" transform="translate(560, 410)"></g></g></g><path id="wzpouli1xzay32" d="M65.283 12.757a.35.35 0 0 0 .584.157l5.203-5.141-6.183 3.523.396 1.461zm-2.216-11.7a.35.35 0 0 0-.522.305v3.111l3.276-1.868-2.754-1.548zm3.728 2.105l-4.25 2.421v2.445l6.391-3.644-2.141-1.222zm4.708 3.303a.35.35 0 0 0 0-.609l-1.592-.9-7.365 4.199v1.782a.35.35 0 0 0 .523.305l8.435-4.777z M44.542 2.513c0-.433.355-.783.792-.783s.792.35.792.783-.355.783-.792.783-.792-.35-.792-.783zm59.171 0c0-.433.355-.783.792-.783s.792.35.792.783-.355.783-.792.783-.792-.35-.792-.783zm-85.951 7.636h-1.27v-.487c-.276.201-.864.609-1.881.609-1.202 0-2.274-.794-2.137-2.078.118-1.106 1.153-1.584 1.848-1.727l2.17-.345c0-.539-.29-.956-1.064-1.006s-1.21.305-1.571 1.017l-1.124-.605c1.218-2.631 5.029-1.764 5.029.414v4.207zm-1.27-2.86c.006.396-.062 1.112-.819 1.59-.587.37-1.841.299-1.903-.395-.049-.555.461-.791.906-.898l1.816-.297zm72.662 2.86h-1.27v-.487c-.276.201-.864.609-1.881.609-1.202 0-2.274-.794-2.137-2.078.118-1.106 1.153-1.584 1.848-1.727l2.17-.345c0-.539-.29-.956-1.064-1.006s-1.21.305-1.571 1.017l-1.124-.605c1.218-2.631 5.029-1.764 5.029.414v4.207zm-1.27-2.86c.006.396-.062 1.112-.82 1.59-.587.37-1.841.299-1.903-.395-.049-.555.461-.791.906-.898l1.816-.297zM99.096 10.149H97.85v-8.45h1.246v4.895l2.68-2.559h1.738l-2.633 2.535 2.715 3.578h-1.556l-2.077-2.707-.867.844v1.863zm6.053-6.114h-1.255v6.113h1.255V4.035zm-59.2 0h-1.255v6.113h1.255V4.035zm5.584 6.113V1.697h1.255v2.695c.361-.346 1-.485 1.47-.485 1.452 0 2.477 1.082 2.457 2.448v3.792h-1.27v-3.68c0-.408-.214-1.339-1.315-1.339-.968 0-1.342.756-1.342 1.339v3.681h-1.255zm-4.76-4.894V4.039h.621a.45.45 0 0 0 .45-.45v-.855h1.251v1.305h1.309v1.215h-1.309v3.109c0 .293.105.664.648.664.365 0 .531-.035.736-.07v1.137s-.361.113-.857.113c-1.398 0-1.777-1.051-1.777-1.788V5.254h-1.071zM36.528 4.039h-1.394l2.191 6.106h1.125l1.234-3.918 1.238 3.918h1.129l2.188-6.106h-1.383l-1.359 3.93-1.256-3.93h-1.124l-1.242 3.957-1.348-3.957zM26.212 7.141c-.02 1.566 1.187 3.129 3.223 3.129 1.566 0 2.383-.918 2.734-1.719L31.172 8c-.315.399-.801 1.094-1.738 1.094-1.145 0-1.825-.781-1.891-1.52h4.625c.074-.284.148-.995-.03-1.559-.336-1.064-1.221-2.102-2.839-2.102s-3.088 1.152-3.088 3.227zm1.363-.75h3.348c-.055-.43-.566-1.301-1.623-1.301a1.79 1.79 0 0 0-1.725 1.301zm-8.758.75c.038 1.758 1.277 3.133 3.145 3.133 1.074 0 1.723-.477 1.961-.672v.547h1.242V1.703h-1.258v2.888c-.414-.36-1.062-.68-1.93-.68-1.91 0-3.198 1.473-3.16 3.23zm1.309-.08c0 1.119.723 1.978 1.836 1.978a1.88 1.88 0 0 0 1.94-1.904c0-1.371-1.011-1.99-1.972-1.99s-1.805.798-1.805 1.916zm76.683-.028C96.771 5.275 95.532 3.9 93.664 3.9c-1.074 0-1.723.477-1.961.672v-.547h-1.242v8.22h1.258V9.583c.414.36 1.063.68 1.93.68 1.91 0 3.198-1.473 3.16-3.23zm-1.309.08c0-1.119-.723-1.978-1.836-1.978a1.88 1.88 0 0 0-1.94 1.904c0 1.371 1.011 1.99 1.972 1.99S95.5 8.231 95.5 7.113zM106.441 10.173V4.036h1.254v.382c.361-.346 1-.485 1.47-.485 1.452 0 2.477 1.082 2.457 2.448v3.792h-1.27V6.492c0-.408-.214-1.339-1.315-1.339-.969 0-1.342.756-1.342 1.339v3.681h-1.254zm-30.383-.021V1.824h1.084l4.215 5.777V1.824h1.32v8.328h-1.094l-4.207-5.796v5.796h-1.319zM5.24 10.149H4V2.377h1.014l2.664 3.597 2.654-3.592h1.03v7.766h-1.256V4.762L7.678 8.068 5.24 4.742v5.407z" transform="translate(20, 480)" fill="#ababab88" stroke="none"></path></svg>