<?xml version="1.0" encoding="utf-8" standalone="yes"?>
<!DOCTYPE svg PUBLIC "-//W3C//DTD SVG 1.1//EN" "http://www.w3.org/Graphics/SVG/1.1/DTD/svg11.dtd">
<svg width="1044" height="1008" viewBox="0 0 1044 1008" style="fill:none;stroke:none;fill-rule:evenodd;clip-rule:evenodd;stroke-linecap:round;stroke-linejoin:round;stroke-miterlimit:1.5;" version="1.1" xmlns="http://www.w3.org/2000/svg" xmlns:xlink="http://www.w3.org/1999/xlink"><style class="text-font-style fontImports" data-font-family="Roboto">@import url('https://fonts.googleapis.com/css2?family=Roboto:wght@400;700&amp;display=block');</style><g id="items" style="isolation: isolate"><g id="blend" style="mix-blend-mode: normal"><g id="g-root-cp_11_g-11_8xry0k1x580ej-fill" data-item-order="-908342" transform="translate(353.3399963378906, 216)"></g><g id="g-root-cp_10_g-10_1uo1ypg1x57yml-fill" data-item-order="-908338" transform="translate(236.47299194335938, 263.23681640625)"></g><g id="g-root-cp_9_g-9_1q88gl01x57zev-fill" data-item-order="-908334" transform="translate(205.11798095703125, 396.43994140625)"></g><g id="g-root-cp_8_g-8_1cxefas1x57xu1-fill" data-item-order="-908330" transform="translate(196, 553.7548828125)"></g><g id="g-root-cp_7_g-7_18hkx6c1x57ymb-fill" data-item-order="-908326" transform="translate(267.3599853515625, 666.98583984375)"></g><g id="g-root-cp_6_g-6_zlxwxg1x57zf1-fill" data-item-order="-908322" transform="translate(416.27001953125, 733.80419921875)"></g><g id="g-root-cp_5_g-5_mb3vn81x57xu7-fill" data-item-order="-908318" transform="translate(565.0250244140625, 685.494140625)"></g><g id="g-root-cp_4_g-4_dfgvec1x57zep-fill" data-item-order="-908314" transform="translate(666.39599609375, 573.94921875)"></g><g id="g-root-cp_3_g-3_4jtv5g1x5807f-fill" data-item-order="-908310" transform="translate(716.5869750976562, 415.0791015625)"></g><g id="g-root-cp_2_g-2_1qa3vuc1x57yfh-fill" data-item-order="-908306" transform="translate(638.614990234375, 281.6259765625)"></g><g id="g-root-cp_1_g-1_1luadpw1x57z7r-fill" data-item-order="-908302" transform="translate(520.2430419921875, 228.13623046875)"></g><g id="g-root-ic_prev_4g36yc1x53rwn-fill" data-item-order="0" transform="translate(563, 258)"></g><g id="g-root-ic_serv_5vsac1x58002-fill" data-item-order="0" transform="translate(416, 258)"></g><g id="g-root-tx_commandc_zqbeus1x5553g-fill" data-item-order="0" transform="translate(782, 290)"><g id="tx_commandc_zqbeus1x5553g-fill" stroke="none" fill="#f4f4f4"><g><text style="font: 15px Roboto, sans-serif; white-space: pre;" font-size="15px" font-family="Roboto, sans-serif"><tspan x="12" y="31" dominant-baseline="ideographic">Command controller </tspan><tspan x="12" y="49" dominant-baseline="ideographic">processes the </tspan><tspan x="12" y="67" dominant-baseline="ideographic">command.</tspan></text></g></g></g><g id="g-root-tx_querycon_djudbo1x53qx8-fill" data-item-order="0" transform="translate(98, 314)"><g id="tx_querycon_djudbo1x53qx8-fill" stroke="none" fill="#f4f4f4"><g><text style="font: 15px Roboto, sans-serif; white-space: pre;" font-size="15px" font-family="Roboto, sans-serif"><tspan x="46" y="28" dominant-baseline="ideographic">Query controller </tspan><tspan x="14.3" y="46" dominant-baseline="ideographic">processes the query.</tspan></text></g></g></g><g id="g-root-ic_sql_1qbcu0k1x5asy2-fill" data-item-order="0" transform="translate(287, 338)"></g><g id="g-root-ic_disc_40jck1x52cjp-fill" data-item-order="0" transform="translate(689, 340)"></g><g id="g-root-tx_eventpub_1lpx8fo1x557go-fill" data-item-order="0" transform="translate(428, 914)"><g id="tx_eventpub_1lpx8fo1x557go-fill" stroke="none" fill="#f4f4f4"><g><text style="font: 15px Roboto, sans-serif; white-space: pre;" font-size="15px" font-family="Roboto, sans-serif"><tspan x="14.66" y="28" dominant-baseline="ideographic">Event publisher notifies </tspan><tspan x="20.56" y="46" dominant-baseline="ideographic">listeners of the event.</tspan></text></g></g></g><g id="g-root-tx_querycon_1hgyy9g1x53si3-fill" data-item-order="0" transform="translate(86, 254)"><g id="tx_querycon_1hgyy9g1x53si3-fill" stroke="none" fill="#4f91fc"><g><text style="font: bold 20px Roboto, sans-serif; white-space: pre;" font-weight="bold" font-size="20px" font-family="Roboto, sans-serif"><tspan x="16.27" y="34" dominant-baseline="ideographic">Query Controller </tspan><tspan x="82.78" y="58" dominant-baseline="ideographic">Receives</tspan></text></g></g></g><g id="g-root-tx_clientse_1lt1lv81x56m11-fill" data-item-order="0" transform="translate(62, 440)"><g id="tx_clientse_1lt1lv81x56m11-fill" stroke="none" fill="#8769fd"><g><text style="font: bold 20px Roboto, sans-serif; white-space: pre;" font-weight="bold" font-size="20px" font-family="Roboto, sans-serif"><tspan x="14.7" y="34" dominant-baseline="ideographic">Client Sends </tspan><tspan x="74.63" y="58" dominant-baseline="ideographic">Query</tspan></text></g></g></g><g id="g-root-tx_commandb_59his1x53s3l-fill" data-item-order="0" transform="translate(842, 428)"><g id="tx_commandb_59his1x53s3l-fill" stroke="none" fill="#a6da37"><g><text style="font: bold 20px Roboto, sans-serif; white-space: pre;" font-weight="bold" font-size="20px" font-family="Roboto, sans-serif"><tspan x="12" y="34" dominant-baseline="ideographic">Command Bus </tspan><tspan x="12" y="58" dominant-baseline="ideographic">Distributes</tspan></text></g></g></g><g id="g-root-ic_1_140ik1g1x58006-fill" data-item-order="0" transform="translate(227, 475)"></g><g id="g-root-ic_chec_90welw1x5nguj-fill" data-item-order="0" transform="translate(751, 476)"></g><g id="g-root-tx_clientin_zmkkc41x56l8u-fill" data-item-order="0" transform="translate(26, 500)"><g id="tx_clientin_zmkkc41x56l8u-fill" stroke="none" fill="#f4f4f4"><g><text style="font: 15px Roboto, sans-serif; white-space: pre;" font-size="15px" font-family="Roboto, sans-serif"><tspan x="16.52" y="28" dominant-baseline="ideographic">Client initiates a query </tspan><tspan x="69.56" y="46" dominant-baseline="ideographic">to the system.</tspan></text></g></g></g><g id="g-root-tx_commandb_18k2zuc1x53rwi-fill" data-item-order="0" transform="translate(842, 488)"><g id="tx_commandb_18k2zuc1x53rwi-fill" stroke="none" fill="#f4f4f4"><g><text style="font: 15px Roboto, sans-serif; white-space: pre;" font-size="15px" font-family="Roboto, sans-serif"><tspan x="12" y="31" dominant-baseline="ideographic">Command bus </tspan><tspan x="12" y="49" dominant-baseline="ideographic">distributes the </tspan><tspan x="12" y="67" dominant-baseline="ideographic">command to handlers.</tspan></text></g></g></g><g id="g-root-tx_commandc_1lwsgdw1x555vn-fill" data-item-order="0" transform="translate(782, 206)"><g id="tx_commandc_1lwsgdw1x555vn-fill" stroke="none" fill="#43dd93"><g><text style="font: bold 20px Roboto, sans-serif; white-space: pre;" font-weight="bold" font-size="20px" font-family="Roboto, sans-serif"><tspan x="12" y="34" dominant-baseline="ideographic">Command </tspan><tspan x="12" y="58" dominant-baseline="ideographic">Controller </tspan><tspan x="12" y="82" dominant-baseline="ideographic">Receives</tspan></text></g></g></g><g id="g-root-tx_cqrsarch_qs6bxw1x58001-fill" data-item-order="0" transform="translate(368, 38)"><g id="tx_cqrsarch_qs6bxw1x58001-fill" stroke="none" fill="#f4f4f4"><g><text style="font: bold 25px Roboto, sans-serif; white-space: pre;" font-weight="bold" font-size="25px" font-family="Roboto, sans-serif"><tspan x="14.68" y="42" dominant-baseline="ideographic">CQRS Architecture Cycle</tspan></text></g></g></g><g id="g-root-tx_readdbup_1in041x56lmx-fill" data-item-order="0" transform="translate(26, 620)"><g id="tx_readdbup_1in041x56lmx-fill" stroke="none" fill="#cb68f9"><g><text style="font: bold 20px Roboto, sans-serif; white-space: pre;" font-weight="bold" font-size="20px" font-family="Roboto, sans-serif"><tspan x="20.44" y="34" dominant-baseline="ideographic">Read DB Updates</tspan></text></g></g></g><g id="g-root-ic_up_18mkt101x59eyw-fill" data-item-order="0" transform="translate(251, 626)"></g><g id="g-root-ic_box_1ur6fas1x5m1op-fill" data-item-order="0" transform="translate(727, 621)"></g><g id="g-root-tx_commandh_qpolx01x56kn7-fill" data-item-order="0" transform="translate(830, 620)"><g id="tx_commandh_qpolx01x56kn7-fill" stroke="none" fill="#ffe711"><g><text style="font: bold 20px Roboto, sans-serif; white-space: pre;" font-weight="bold" font-size="20px" font-family="Roboto, sans-serif"><tspan x="12" y="34" dominant-baseline="ideographic">Command </tspan><tspan x="12" y="58" dominant-baseline="ideographic">Handler Executes</tspan></text></g></g></g><g id="g-root-tx_readdata_18gc5bo1x56lfu-fill" data-item-order="0" transform="translate(38, 656)"><g id="tx_readdata_18gc5bo1x56lfu-fill" stroke="none" fill="#f4f4f4"><g><text style="font: 15px Roboto, sans-serif; white-space: pre;" font-size="15px" font-family="Roboto, sans-serif"><tspan x="49.39" y="31" dominant-baseline="ideographic">Read database is </tspan><tspan x="12.81" y="49" dominant-baseline="ideographic">updated with the event </tspan><tspan x="122.58" y="67" dominant-baseline="ideographic">result.</tspan></text></g></g></g><g id="g-root-tx_clientin_vcdbzo1x53qq6-fill" data-item-order="0" transform="translate(602, 158)"><g id="tx_clientin_vcdbzo1x53qq6-fill" stroke="none" fill="#f4f4f4"><g><text style="font: 15px Roboto, sans-serif; white-space: pre;" font-size="15px" font-family="Roboto, sans-serif"><tspan x="12" y="31" dominant-baseline="ideographic">Client initiates a </tspan><tspan x="12" y="49" dominant-baseline="ideographic">command to the </tspan><tspan x="12" y="67" dominant-baseline="ideographic">system.</tspan></text></g></g></g><g id="g-root-tx_readdata_9otw1x56jgu-fill" data-item-order="0" transform="translate(242, 170)"><g id="tx_readdata_9otw1x56jgu-fill" stroke="none" fill="#f4f4f4"><g><text style="font: 15px Roboto, sans-serif; white-space: pre;" font-size="15px" font-family="Roboto, sans-serif"><tspan x="76.5" y="31" dominant-baseline="ideographic">Read database </tspan><tspan x="16.45" y="49" dominant-baseline="ideographic">responds with the query </tspan><tspan x="134.58" y="67" dominant-baseline="ideographic">result.</tspan></text></g></g></g><g id="g-root-tx_commandh_3e29g1x56kn8-fill" data-item-order="0" transform="translate(830, 680)"><g id="tx_commandh_3e29g1x56kn8-fill" stroke="none" fill="#f4f4f4"><g><text style="font: 15px Roboto, sans-serif; white-space: pre;" font-size="15px" font-family="Roboto, sans-serif"><tspan x="12" y="28" dominant-baseline="ideographic">Command handler </tspan><tspan x="12" y="46" dominant-baseline="ideographic">executes the command.</tspan></text></g></g></g><g id="g-root-ic_rota_1ur6fas1x5c7ii-fill" data-item-order="0" transform="translate(344, 734)"></g><g id="g-root-tx_clientse_1utoet01x53t39-fill" data-item-order="0" transform="translate(602, 98)"><g id="tx_clientse_1utoet01x53t39-fill" stroke="none" fill="#1ac3fb"><g><text style="font: bold 20px Roboto, sans-serif; white-space: pre;" font-weight="bold" font-size="20px" font-family="Roboto, sans-serif"><tspan x="12" y="34" dominant-baseline="ideographic">Client Sends </tspan><tspan x="12" y="58" dominant-baseline="ideographic">Command</tspan></text></g></g></g><g id="g-root-ic_sync_1urswdw1x5kl53-fill" data-item-order="0" transform="translate(626, 734)"></g><g id="g-root-tx_eventlis_qofnqs1x55535-fill" data-item-order="0" transform="translate(170, 782)"><g id="tx_eventlis_qofnqs1x55535-fill" stroke="none" fill="#f366bb"><g><text style="font: bold 20px Roboto, sans-serif; white-space: pre;" font-weight="bold" font-size="20px" font-family="Roboto, sans-serif"><tspan x="11.95" y="34" dominant-baseline="ideographic">Event Listener </tspan><tspan x="78.2" y="58" dominant-baseline="ideographic">Reacts</tspan></text></g></g></g><g id="g-root-ic_2_141514k1x5f11g-fill" data-item-order="0" transform="translate(488, 775)"></g><g id="g-root-tx_writedbu_18f375g1x56j9r-fill" data-item-order="0" transform="translate(722, 782)"><g id="tx_writedbu_18f375g1x56j9r-fill" stroke="none" fill="#f79438"><g><text style="font: bold 20px Roboto, sans-serif; white-space: pre;" font-weight="bold" font-size="20px" font-family="Roboto, sans-serif"><tspan x="12" y="34" dominant-baseline="ideographic">Write DB Updates</tspan></text></g></g></g><g id="g-root-tx_writedat_m8m5mc1x56j9c-fill" data-item-order="0" transform="translate(722, 818)"><g id="tx_writedat_m8m5mc1x56j9c-fill" stroke="none" fill="#f4f4f4"><g><text style="font: 15px Roboto, sans-serif; white-space: pre;" font-size="15px" font-family="Roboto, sans-serif"><tspan x="12" y="31" dominant-baseline="ideographic">Write database is </tspan><tspan x="12" y="49" dominant-baseline="ideographic">updated with the </tspan><tspan x="12" y="67" dominant-baseline="ideographic">command result.</tspan></text></g></g></g><g id="g-root-tx_eventlis_1cw5ng41x5579m-fill" data-item-order="0" transform="translate(146, 842)"><g id="tx_eventlis_1cw5ng41x5579m-fill" stroke="none" fill="#f4f4f4"><g><text style="font: 15px Roboto, sans-serif; white-space: pre;" font-size="15px" font-family="Roboto, sans-serif"><tspan x="12.09" y="28" dominant-baseline="ideographic">Event listener reacts to </tspan><tspan x="99.02" y="46" dominant-baseline="ideographic">the event.</tspan></text></g></g></g><g id="g-root-tx_eventpub_4g36yc1x555an-fill" data-item-order="0" transform="translate(434, 854)"><g id="tx_eventpub_4g36yc1x555an-fill" stroke="none" fill="#fb6762"><g><text style="font: bold 20px Roboto, sans-serif; white-space: pre;" font-weight="bold" font-size="20px" font-family="Roboto, sans-serif"><tspan x="15.36" y="34" dominant-baseline="ideographic">Event Publisher </tspan><tspan x="50.14" y="58" dominant-baseline="ideographic">Notifies</tspan></text></g></g></g><g id="g-root-tx_readdbre_1d30vec1x555ol-fill" data-item-order="0" transform="translate(314, 110)"><g id="tx_readdbre_1d30vec1x555ol-fill" stroke="none" fill="#1ac3fb"><g><text style="font: bold 20px Roboto, sans-serif; white-space: pre;" font-weight="bold" font-size="20px" font-family="Roboto, sans-serif"><tspan x="27.67" y="34" dominant-baseline="ideographic">Read DB </tspan><tspan x="14.81" y="58" dominant-baseline="ideographic">Responds</tspan></text></g></g></g><g id="g-root-cp_11_g-11_8xry0k1x580ej-stroke" data-item-order="-908342" transform="translate(353.3399963378906, 216)"><g id="cp_11_g-11_8xry0k1x580ej-stroke" fill="none" stroke-linecap="round" stroke-linejoin="round" stroke-miterlimit="4" stroke="#1ac3fb" stroke-width="2"><g><path d="M 174.2775 118L 186.2775 64L 174.2775 10L 150.2775 10.000001L 153.0219 22.3496L 162.2775 64L 152.8342 106.4951L 150.2775 118L 174.2775 118ZM 162.2775 64L 153.0219 22.3496C 100.8623 24.8261 52.1226 40.3619 10 65.7598L 40.6909 96.1775L 55.5043 136.4424C 84.4054 119.4666 117.4883 108.8445 152.8342 106.4951L 162.2775 64Z"></path></g></g></g><g id="g-root-cp_10_g-10_1uo1ypg1x57yml-stroke" data-item-order="-908338" transform="translate(236.47299194335938, 263.23681640625)"><g id="cp_10_g-10_1uo1ypg1x57yml-stroke" fill="none" stroke-linecap="round" stroke-linejoin="round" stroke-miterlimit="4" stroke="#4f91fc" stroke-width="2"><g><path d="M 176.6571 100.8554L 157.5575 48.94L 118.2679 10L 98.0778 22.9754L 106.8593 31.6787L 137.3674 61.9154L 152.3009 102.5067L 156.467 113.8308L 176.6571 100.8554ZM 10 145.6776L 52.4788 154.7196L 86.5435 180.4585C 102.1772 149.6429 124.7896 122.9657 152.3009 102.5067L 137.3674 61.9154L 106.8593 31.6787C 65.8867 60.9756 32.4451 100.1305 10 145.6776Z"></path></g></g></g><g id="g-root-cp_9_g-9_1q88gl01x57zev-stroke" data-item-order="-908334" transform="translate(205.11798095703125, 396.43994140625)"><g id="cp_9_g-9_1q88gl01x57zev-stroke" fill="none" stroke-linecap="round" stroke-linejoin="round" stroke-miterlimit="4" stroke="#8769fd" stroke-width="2"><g><path d="M 127.9688 54.8648L 83.8336 21.5168L 29.7285 10L 19.7585 31.8311L 31.6219 34.3564L 73.8636 43.348L 108.1924 69.2864L 117.9988 76.696L 127.9688 54.8648ZM 95.1759 170.5489C 94.3984 162.9918 94 155.3222 94 147.5597C 94 120.0082 99.0189 93.629 108.1924 69.2864L 73.8636 43.348L 31.6219 34.3564C 17.671 69.3717 10 107.5698 10 147.5597C 10 159.4353 10.6765 171.153 11.9931 182.6762L 52.6244 167.3143L 95.1759 170.5489Z"></path></g></g></g><g id="g-root-cp_8_g-8_1cxefas1x57xu1-stroke" data-item-order="-908330" transform="translate(196, 553.7548828125)"><g id="cp_8_g-8_1cxefas1x57xu1-stroke" fill="none" stroke-linecap="round" stroke-linejoin="round" stroke-miterlimit="4" stroke="#cb68f9" stroke-width="2"><g><path d="M 116.9007 14.1928L 61.7426 10L 10 29.5629L 13.4156 53.3186L 24.7591 49.0298L 65.1581 33.7557L 108.0539 37.0164L 120.3163 37.9486L 116.9007 14.1928ZM 88.5153 184.3087L 114.3119 149.5255L 151.9615 129.1852C 130.7265 102.7546 115.4184 71.3594 108.0539 37.0164L 65.1581 33.7557L 24.7591 49.0298C 34.6196 99.7056 56.9858 145.9128 88.5153 184.3087Z"></path></g></g></g><g id="g-root-cp_7_g-7_18hkx6c1x57ymb-stroke" data-item-order="-908326" transform="translate(267.3599853515625, 666.98583984375)"><g id="cp_7_g-7_18hkx6c1x57ymb-stroke" fill="none" stroke-linecap="round" stroke-linejoin="round" stroke-miterlimit="4" stroke="#f366bb" stroke-width="2"><g><path d="M 91.6209 10L 42.9521 36.2935L 10 80.7249L 25.7167 98.8629L 33.0536 88.9701L 58.6688 54.4315L 96.6836 33.8939L 107.3376 28.138L 91.6209 10ZM 162.6094 125.2488L 183.3732 87.6236C 150.3335 76.5868 120.7531 57.993 96.6836 33.8939L 58.6688 54.4315L 33.0536 88.9701C 67.672 125.0081 111.0322 152.5859 159.7241 168.2934L 162.6094 125.2488Z"></path></g></g></g><g id="g-root-cp_6_g-6_zlxwxg1x57zf1-stroke" data-item-order="-908322" transform="translate(416.27001953125, 733.80419921875)"><g id="cp_6_g-6_zlxwxg1x57zf1-stroke" fill="none" stroke-linecap="round" stroke-linejoin="round" stroke-miterlimit="4" stroke="#fb6762" stroke-width="2"><g><path d="M 40.4271 10L 13.6996 58.4319L 10 113.6252L 33.0278 120.3868L 33.8634 107.9207L 36.7275 65.1934L 57.7051 27.1805L 63.4549 16.7616L 40.4271 10ZM 159.5609 25.4036C 142.0594 29.8394 123.7293 32.1964 104.8486 32.1964C 88.6717 32.1964 72.8989 30.4661 57.7051 27.1805L 36.7275 65.1934L 33.8634 107.9207C 56.6445 113.332 80.4121 116.1964 104.8486 116.1964C 131.9155 116.1964 158.1615 112.6822 183.1554 106.0851L 162.4547 68.574L 159.5609 25.4036Z"></path></g></g></g><g id="g-root-cp_5_g-5_mb3vn81x57xu7-stroke" data-item-order="-908318" transform="translate(565.0250244140625, 685.494140625)"><g id="cp_5_g-5_mb3vn81x57xu7-stroke" fill="none" stroke-linecap="round" stroke-linejoin="round" stroke-miterlimit="4" stroke="#f79438" stroke-width="2"><g><path d="M 10 61.6905L 13.6996 116.8839L 40.4271 165.3157L 63.455 158.5541L 57.2873 147.378L 36.7275 110.1223L 33.8051 66.5247L 33.0278 54.9289L 10 61.6905ZM 144.3236 44.9933L 118.3712 10C 95.1486 34.865 66.2785 54.388 33.8051 66.5247L 36.7275 110.1223L 57.2873 147.378C 105.3888 130.5287 148.0034 102.0047 181.7331 65.2039L 144.3236 44.9933Z"></path></g></g></g><g id="g-root-cp_4_g-4_dfgvec1x57zep-stroke" data-item-order="-908314" transform="translate(666.39599609375, 573.94921875)"><g id="cp_4_g-4_dfgvec1x57zep-stroke" fill="none" stroke-linecap="round" stroke-linejoin="round" stroke-miterlimit="4" stroke="#ffe711" stroke-width="2"><g><path d="M 10 112.1067L 42.9521 156.5382L 91.621 182.8317L 107.3376 164.6937L 95.8403 158.4822L 58.6688 138.4002L 32.4704 103.0752L 25.7167 93.9687L 10 112.1067ZM 113.9729 25.4391L 73.1374 10C 66.8767 44.4533 52.6643 76.1351 32.4704 103.0752L 58.6688 138.4002L 95.8403 158.4822C 126.3188 119.5367 147.5667 73.0194 156.2924 22.2222L 113.9729 25.4391Z"></path></g></g></g><g id="g-root-cp_3_g-3_4jtv5g1x5807f-stroke" data-item-order="-908310" transform="translate(716.5869750976562, 415.0791015625)"><g id="cp_3_g-3_4jtv5g1x5807f-stroke" fill="none" stroke-linecap="round" stroke-linejoin="round" stroke-miterlimit="4" stroke="#a6da37" stroke-width="2"><g><path d="M 12.0397 164.7458L 63.7823 184.3086L 118.9404 180.1158L 122.356 156.36L 109.2276 157.358L 67.1979 160.5529L 25.9608 144.962L 15.4553 140.9901L 12.0397 164.7458ZM 10 44.7029C 20.656 70.6733 26.5315 99.1108 26.5315 128.9206C 26.5315 134.3148 26.3391 139.6641 25.9608 144.962L 67.1979 160.5529L 109.2276 157.358C 110.0905 147.9947 110.5315 138.5091 110.5315 128.9206C 110.5315 86.7433 101.9983 46.559 86.5641 10L 52.6512 35.6242L 10 44.7029Z"></path></g></g></g><g id="g-root-cp_2_g-2_1qa3vuc1x57yfh-stroke" data-item-order="-908306" transform="translate(638.614990234375, 281.6259765625)"><g id="cp_2_g-2_1qa3vuc1x57yfh-stroke" fill="none" stroke-linecap="round" stroke-linejoin="round" stroke-miterlimit="4" stroke="#43dd93" stroke-width="2"><g><path d="M 174.7583 135.7298L 164.7883 113.8987L 154.3622 121.7766L 120.6532 147.2467L 77.6273 156.4052L 66.5481 158.7635L 76.5181 180.5947L 130.6231 169.0779L 174.7583 135.7298ZM 55.5953 10L 40.8742 50.0141L 10 80.6136C 37.9712 100.2703 61.1993 126.2199 77.6273 156.4052L 120.6532 147.2467L 154.3622 121.7766C 131.0923 76.8734 97.0239 38.4684 55.5953 10Z"></path></g></g></g><g id="g-root-cp_1_g-1_1luadpw1x57z7r-stroke" data-item-order="-908302" transform="translate(520.2430419921875, 228.13623046875)"><g id="cp_1_g-1_1luadpw1x57z7r-stroke" fill="none" stroke-linecap="round" stroke-linejoin="round" stroke-miterlimit="4" stroke="#1ac3fb" stroke-width="2"><g><path d="M 119.9564 142.4442L 159.246 103.5042L 178.3456 51.5889L 158.1555 38.6135L 153.7072 50.7047L 139.0559 90.5289L 107.9575 121.3506L 99.7663 129.4689L 119.9564 142.4442ZM 10.071 10L 19.3742 51.8645L 10 94.0486C 45.421 95.4806 78.7042 105.2119 107.9575 121.3506L 139.0559 90.5289L 153.7072 50.7047C 111.2217 26.1641 62.2882 11.5412 10.071 10Z"></path></g></g></g><g id="g-root-ic_prev_4g36yc1x53rwn-stroke" data-item-order="0" transform="translate(563, 258)"><g id="ic_prev_4g36yc1x53rwn-stroke" fill="none" stroke-linecap="round" stroke-linejoin="round" stroke-miterlimit="4" stroke="#1ac3fb" stroke-width="2"><g><path d="M 43.498001 32L 34.498001 39L 43.498001 46M 34.498001 39L 41.498001 39C 48.12542 39 53.498001 44.372585 53.498001 51L 53.498001 55M 26.5 43L 16.5 43C 15.395431 43 14.5 42.104568 14.5 41L 14.5 21.827999C 14.500113 21.297611 14.710901 20.788986 15.086 20.414L 21.916 13.586C 22.290985 13.210901 22.79961 13.000113 23.33 13L 33.672001 13C 34.202389 13.000113 34.711014 13.210901 35.085999 13.586L 41.916 20.414C 42.290367 20.789312 42.500416 21.297897 42.5 21.827999L 42.5 25M 28.5 13L 28.5 21M 42.32 21L 14.68 21"></path></g></g></g><g id="g-root-ic_serv_5vsac1x58002-stroke" data-item-order="0" transform="translate(416, 258)"><g id="ic_serv_5vsac1x58002-stroke" fill="none" stroke-linecap="round" stroke-linejoin="round" stroke-miterlimit="4" stroke="#1ac3fb" stroke-width="2"><g><path d="M 33.900002 29.300039C 38.318199 29.300039 41.900002 27.50918 41.900002 25.300041C 41.900002 23.0909 38.318199 21.300041 33.900002 21.300041C 29.481621 21.300041 25.8999 23.0909 25.8999 25.300041C 25.8999 27.50918 29.481621 29.300039 33.900002 29.300039ZM 25.8999 25.300041L 25.8999 32.099998C 25.8999 34.299999 29.499901 36.099998 33.900002 36.099998C 38.299999 36.099998 41.900002 34.299999 41.900002 32.099998L 41.900002 25.300041M 25.8999 32.299999L 25.8999 39.099998C 25.8999 41.299999 29.499901 43.099998 33.900002 43.099998C 38.299999 43.099998 41.900002 41.299999 41.900002 39.099998L 41.900002 32.299999M 11.5 17.5L 11.5 11.5L 17.5 11.5M 10 10M 11.5 11.5L 18.5 18.5M 56.5 17.5L 56.5 11.5L 50.5 11.5M 10 10M 56.5 11.5L 49.5 18.5M 11.5 50.5L 11.5 56.5L 17.5 56.5M 10 10M 11.5 56.5L 18.5 49.5M 56.5 50.5L 56.5 56.5L 50.5 56.5M 10 10M 56.5 56.5L 49.5 49.5M 45.900002 43.700001C 50.700001 41.5 53.900002 38.099998 53.900002 34.099998C 53.900002 30.9 51.700001 27.89996 48.099998 25.699959M 20.09992 25.5C 16.299919 27.700001 13.8999 30.700001 13.8999 34.099998C 13.8999 38.099998 17.099899 41.5 21.8999 43.700001"></path></g></g></g><g id="g-root-tx_commandc_zqbeus1x5553g-stroke" data-item-order="0" transform="translate(782, 290)"></g><g id="g-root-tx_querycon_djudbo1x53qx8-stroke" data-item-order="0" transform="translate(98, 314)"></g><g id="g-root-ic_sql_1qbcu0k1x5asy2-stroke" data-item-order="0" transform="translate(287, 338)"><g id="ic_sql_1qbcu0k1x5asy2-stroke" fill="none" stroke-linecap="round" stroke-linejoin="round" stroke-miterlimit="4" stroke="#4f91fc" stroke-width="2"><g><path d="M 13 20.007999L 55 20.007999C 55 20.007999 57 20.007999 57 22.007999L 57 46.007999C 57 46.007999 57 48.007999 55 48.007999L 13 48.007999C 13 48.007999 11 48.007999 11 46.007999L 11 22.007999C 11 22.007999 11 20.007999 13 20.007999M 27 28L 23.6 28C 22.444363 27.98966 21.420609 28.743362 21.08725 29.849924C 20.753895 30.956486 21.190956 32.150269 22.16 32.779999L 25.84 35.234001C 26.795504 35.868446 27.222401 37.054054 26.890669 38.151993C 26.558939 39.249928 25.546957 40.00079 24.4 40L 21 40M 37 36C 37 37.656853 35.656853 39 34 39C 32.343147 39 31 37.656853 31 36L 31 31C 31 29.343147 32.343147 28 34 28C 35.656853 28 37 29.343147 37 31ZM 37 42.007999L 33 38.835999M 41 28L 41 38C 41 39.104568 41.895432 40 43 40L 47 40"></path></g></g></g><g id="g-root-ic_disc_40jck1x52cjp-stroke" data-item-order="0" transform="translate(689, 340)"><g id="ic_disc_40jck1x52cjp-stroke" fill="none" stroke-linecap="round" stroke-linejoin="round" stroke-miterlimit="4" stroke="#43dd93" stroke-width="2"><g><path d="M 39.577999 46.021999L 44.577999 46.021999C 45.682568 46.021999 46.577999 45.126568 46.577999 44.021999L 46.577999 34.021999M 54.515999 11.022L 34.799999 30.738001M 32.577999 36.021999L 18.577999 36.021999C 14.712008 36.022003 11.578 39.156006 11.578 43.022003L 11.578 53.776001C 11.576895 55.56839 13.029607 57.021999 14.822 57.021999L 14.822001 57.021999C 16.053003 57.021191 17.177624 56.324112 17.726 55.222L 20.326 50.560001L 30.826 50.560001L 33.426003 55.222C 34.100021 56.567013 35.609924 57.272617 37.074097 56.926819C 38.538269 56.58102 39.572945 55.274448 39.573997 53.77L 39.573997 43.021999C 39.574001 39.15757 36.442432 36.024208 32.578003 36.022003ZM 30.077999 44.98L 30.077999 44.98M 30.077999 44.98C 29.801857 44.98 29.577999 45.203857 29.577999 45.48C 29.577999 45.756142 29.801857 45.98 30.077999 45.98C 30.354143 45.98 30.577999 45.756142 30.577999 45.48C 30.577999 45.203857 30.354143 44.98 30.077999 44.98M 34.077999 41.021999L 34.077999 41.021999M 34.077999 41.021999C 33.801857 41.021999 33.577999 41.245857 33.577999 41.521999C 33.577999 41.798141 33.801857 42.021999 34.077999 42.021999C 34.354141 42.021999 34.577999 41.798141 34.577999 41.521999C 34.577999 41.245857 34.354141 41.021999 34.077999 41.021999M 37.436001 28.021999L 50.944 28.021999C 54.032883 27.641516 56.36956 25.043785 56.422001 21.931999C 56.422638 20.280239 55.750778 18.699402 54.561127 17.55352C 53.371475 16.407637 51.766579 15.795475 50.116001 15.858C 50.07 15.76 50.021999 15.658 49.972 15.566M 47.330002 12.538C 44.806736 10.7567 41.516273 10.482801 38.733223 11.822404C 35.950172 13.162006 34.11171 15.904676 33.93 18.987999C 32.583305 18.70406 31.180382 19.042713 30.111526 19.909752C 29.042671 20.776791 28.42193 22.079697 28.421999 23.455999C 28.337769 25.826483 30.165661 27.82863 32.533997 27.959999M 18.577999 46.262001L 18.577999 40.141998M 15.516 43.202L 21.638 43.202"></path></g></g></g><g id="g-root-tx_eventpub_1lpx8fo1x557go-stroke" data-item-order="0" transform="translate(428, 914)"></g><g id="g-root-tx_querycon_1hgyy9g1x53si3-stroke" data-item-order="0" transform="translate(86, 254)"></g><g id="g-root-tx_clientse_1lt1lv81x56m11-stroke" data-item-order="0" transform="translate(62, 440)"></g><g id="g-root-tx_commandb_59his1x53s3l-stroke" data-item-order="0" transform="translate(842, 428)"></g><g id="g-root-ic_1_140ik1g1x58006-stroke" data-item-order="0" transform="translate(227, 475)"><g id="ic_1_140ik1g1x58006-stroke" fill="none" stroke-linecap="round" stroke-linejoin="round" stroke-miterlimit="4" stroke="#8769fd" stroke-width="2"><g><path d="M 13 11.008L 55 11.008C 55 11.008 57 11.008 57 13.007999L 57 55.007999C 57 55.007999 57 57.007999 55 57.007999L 13 57.007999C 13 57.007999 11 57.007999 11 55.007999L 11 13.007999C 11 13.007999 11 11.008 13 11.008M 27 32.982002L 22.708 32.982002C 20.993504 32.988117 19.506767 34.168858 19.112568 35.837433C 18.718369 37.506004 19.519508 39.227257 21.049999 40L 24.950001 41.950001C 26.487463 42.719353 27.294447 44.444626 26.899485 46.117855C 26.504522 47.791088 25.011213 48.973381 23.292 48.974003L 19 48.973999M 38.950001 43.958C 38.950001 46.167137 37.159142 47.958 34.950001 47.958C 32.74086 47.958 30.950001 46.167137 30.950001 43.958L 30.950001 36.958C 30.950001 34.748863 32.74086 32.958 34.950001 32.958C 37.159142 32.958 38.950001 34.748863 38.950001 36.958ZM 38.950001 50.958L 32.900002 47.391998M 42.950001 32.958L 42.950001 45.958C 42.950001 47.614857 44.293148 48.958 45.950001 48.958L 50.950001 48.958"></path></g></g></g><g id="g-root-ic_chec_90welw1x5nguj-stroke" data-item-order="0" transform="translate(751, 476)"><g id="ic_chec_90welw1x5nguj-stroke" fill="none" stroke-linecap="round" stroke-linejoin="round" stroke-miterlimit="4" stroke="#a6da37" stroke-width="2"><g><path d="M 45.900002 24.400139L 21.900021 24.400139L 21.900021 56.4002L 45.900002 56.4002L 45.900002 24.400139ZM 49.900002 35.5998L 56.299999 35.5998M 49.900002 43.5998L 56.299999 43.5998M 49.900002 51.5998L 54.299999 51.5998C 55.5 51.5998 56.299999 50.799801 56.299999 49.5998L 56.299999 29.599859C 56.299999 28.39986 55.5 27.599859 54.299999 27.599859L 49.900002 27.599859M 22.900021 34.999802L 45.900002 34.999802M 22.900021 45.999802L 45.900002 45.999802M 17.899981 35.5998L 11.5 35.5998M 17.899981 43.5998L 11.5 43.5998M 17.9 51.5998L 13.5 51.5998C 12.3 51.5998 11.5 50.799801 11.5 49.5998L 11.5 29.599859C 11.5 28.39986 12.3 27.599859 13.5 27.599859L 17.9 27.599859M 10 10M 30.9 13.59986L 33.900002 16.399839L 38.900002 11.599854"></path></g></g></g><g id="g-root-tx_clientin_zmkkc41x56l8u-stroke" data-item-order="0" transform="translate(26, 500)"></g><g id="g-root-tx_commandb_18k2zuc1x53rwi-stroke" data-item-order="0" transform="translate(842, 488)"></g><g id="g-root-tx_commandc_1lwsgdw1x555vn-stroke" data-item-order="0" transform="translate(782, 206)"></g><g id="g-root-tx_cqrsarch_qs6bxw1x58001-stroke" data-item-order="0" transform="translate(368, 38)"></g><g id="g-root-tx_readdbup_1in041x56lmx-stroke" data-item-order="0" transform="translate(26, 620)"></g><g id="g-root-ic_up_18mkt101x59eyw-stroke" data-item-order="0" transform="translate(251, 626)"><g id="ic_up_18mkt101x59eyw-stroke" fill="none" stroke-linecap="round" stroke-linejoin="round" stroke-miterlimit="4" stroke="#cb68f9" stroke-width="2"><g><path d="M 11.5 56.5C 14.48672 56.5 17.473461 56.5 20.46018 53.5C 23.446899 56.5 26.43362 56.5 27.23008 56.5C 28.026541 56.5 31.013201 56.5 34 53.5C 36.986801 56.5 39.9734 56.5 40.77 56.5C 41.566399 56.5 44.553001 56.5 47.539799 53.5C 50.5266 56.5 53.513199 56.5 56.5 56.5M 50.299999 18.79162C 53.9716 18.79162 56.9482 17.15934 56.9482 15.145821C 56.9482 13.13228 53.9716 11.5 50.299999 11.5C 46.628201 11.5 43.651798 13.13228 43.651798 15.145821C 43.651798 17.15934 46.628201 18.79162 50.299999 18.79162ZM 43.651798 15.1457L 43.651798 25.010841C 43.651798 26.940981 46.654202 28.65666 50.299999 28.65666C 53.945801 28.65666 56.9482 26.940981 56.9482 25.010841L 56.9482 15.1457M 14.59252 48.799801C 14.59252 48.137199 14.37164 47.474602 13.70896 46.811798L 12.38358 45.486401C 11.500006 44.823799 11.279104 43.498402 11.720892 42.614799C 12.16268 41.510399 13.04626 41.0686 14.15074 41.0686L 15.9179 41.0686C 16.58058 41.0686 17.46414 40.847801 17.905941 40.405998C 18.347721 39.964199 18.568619 39.312401 18.568619 38.417801L 18.568619 36.650803C 18.568619 35.5462 19.2313 34.441799 20.11488 34.220802C 21.219341 33.779198 22.32382 34 22.9865 34.883598L 24.31188 36.209C 24.75366 36.650803 25.41634 37.092598 26.299919 37.092598C 27.183479 37.092598 27.625259 36.871597 28.287939 36.209L 29.613319 34.883598C 30.275999 34 31.6014 33.779198 32.485001 34.220802C 33.589401 34.662598 34.0312 35.5462 34.0312 36.650803L 34.0312 38.417801C 34.0312 39.080601 34.252197 39.964199 34.693802 40.405998C 35.135597 40.847801 36.019199 41.2896 36.681999 41.0686L 38.448997 41.0686C 39.5536 41.0686 40.658001 41.731201 40.878998 42.614799C 41.320801 43.719398 41.0998 44.823799 40.216202 45.486401L 38.8908 46.811798C 38.448997 47.253601 38.007202 47.916401 38.007202 48.799801M 21.44018 48.799801C 21.44018 46.148998 23.649139 43.7192 26.52076 43.7192C 29.17148 43.7192 31.3804 45.928001 31.3804 48.799801M 50.299999 33.399799L 50.299999 47.999802M 10 10M 46.299999 37.400002L 50.299999 33.400002L 54.299999 37.400002M 56.9482 20.039661C 56.9482 22.095821 53.971802 23.76268 50.299999 23.76268C 46.628201 23.76268 43.651798 22.095821 43.651798 20.039661"></path></g></g></g><g id="g-root-ic_box_1ur6fas1x5m1op-stroke" data-item-order="0" transform="translate(727, 621)"><g id="ic_box_1ur6fas1x5m1op-stroke" fill="none" stroke-linecap="round" stroke-linejoin="round" stroke-miterlimit="4" stroke="#ffe711" stroke-width="2"><g><path d="M 22.1001 29.47998C 24.861519 29.47998 27.1001 27.2414 27.1001 24.47998C 27.1001 21.718559 24.861519 19.47998 22.1001 19.47998C 19.33868 19.47998 17.1001 21.718559 17.1001 24.47998C 17.1001 27.2414 19.33868 29.47998 22.1001 29.47998ZM 10 10M 29.9002 48.48L 28.3002 49.48L 26.100201 54.68C 25.5002 56.279999 23.700199 56.880001 22.100201 56.279999C 20.700199 55.68 20.100201 54.279999 20.300201 52.880001C 20.300201 52.68 20.5002 52.279999 20.5002 52.279999L 22.5002 47.48M 10 10M 28.09992 36.931198L 25.09992 41.5312C 24.09992 42.731201 22.299919 43.3312 20.899921 42.3312C 19.49992 41.5312 19.09992 39.5312 19.899921 38.131203L 25.49992 29.3312C 25.899921 28.9312 26.299919 28.3312 27.09992 28.131201C 29.09992 27.3312 30.5 29.13122 30.700001 29.73122L 35.5 39.5312C 35.700001 39.931198 35.900002 40.5312 35.900002 40.931198L 35.900002 47.3312L 39.299999 51.731201C 40.299999 53.131199 40.099998 54.931198 38.700001 55.931198C 37.5 56.731201 35.900002 56.731201 34.900002 55.731201L 34.5 55.3312L 30.5 50.131199C 30.1 49.731201 29.89992 49.131199 29.89992 48.731201L 29.89992 45.731201M 22.206539 42.838799L 11.5 42.838799L 11.5 34.2388L 22.375 34.2388M 56.500198 35.400002L 51.500198 35.400002C 48.500198 35.400002 45.700199 33.400002 44.9002 30.4C 44.100201 27.4 41.300201 25.4 38.300201 25.4L 35.700199 25.4C 34.100201 25.4 32.700199 24 32.700199 22.4C 32.700199 20.799999 34.100201 19.4 35.700199 19.4L 44.9002 19.4C 45.500198 19.4 46.100201 19 46.500198 18.4C 46.700199 17.799999 46.700199 17.000019 46.100201 16.600019C 44.9002 15.400021 44.9002 13.6 46.100201 12.4C 47.300201 11.2 49.100201 11.2 50.300201 12.4L 56.500198 18.600021"></path></g></g></g><g id="g-root-tx_commandh_qpolx01x56kn7-stroke" data-item-order="0" transform="translate(830, 620)"></g><g id="g-root-tx_readdata_18gc5bo1x56lfu-stroke" data-item-order="0" transform="translate(38, 656)"></g><g id="g-root-tx_clientin_vcdbzo1x53qq6-stroke" data-item-order="0" transform="translate(602, 158)"></g><g id="g-root-tx_readdata_9otw1x56jgu-stroke" data-item-order="0" transform="translate(242, 170)"></g><g id="g-root-tx_commandh_3e29g1x56kn8-stroke" data-item-order="0" transform="translate(830, 680)"></g><g id="g-root-ic_rota_1ur6fas1x5c7ii-stroke" data-item-order="0" transform="translate(344, 734)"><g id="ic_rota_1ur6fas1x5c7ii-stroke" fill="none" stroke-linecap="round" stroke-linejoin="round" stroke-miterlimit="4" stroke="#f366bb" stroke-width="2"><g><path d="M 37.700001 18.88282C 40.720802 22.105141 44.950199 23.917679 49.7836 23.917679C 52.200401 23.917679 54.415798 23.5149 56.4296 22.507919M 52.700001 15.89996C 55.099998 17.699961 56.5 20.49996 56.5 23.699959C 56.5 29.299959 52.099998 33.700001 46.5 33.700001C 40.900002 33.700001 36.5 29.299959 36.5 23.699959C 36.5 18.09996 40.900002 13.69996 46.5 13.69996M 10 10M 42.900002 11.499756L 46.5 13.69976L 44.099998 17.69976M 30.5 34.5C 30.5 37.900002 27.9 40.5 24.5 40.5C 21.1 40.5 18.5 37.900002 18.5 34.5L 18.5 31.5C 18.5 28.1 21.1 25.5 24.5 25.5C 27.9 25.5 30.5 28.1 30.5 31.5L 30.5 34.5ZM 22.5 40.1796L 22.5 43.5C 22.5 43.5 18.5 43.5 16.5 45.5C 16.5 45.5 18.5 51.5 23.5 51.5C 26.299999 51.5 27.1 49.299999 28.700001 47.5L 28.700001 38.851601M 36.5 44.5C 38.5 46.700001 39.5 49.5 39.5 52.5L 39.5 56.5M 16.5 45.5C 16.5 45.5 11.5 48.5 11.5 56.5M 28.8999 47.5C 32.900002 43.5 36.5 44.5 36.5 44.5L 36.5 36.5M 24.5 25.5L 30.5 25.5"></path></g></g></g><g id="g-root-tx_clientse_1utoet01x53t39-stroke" data-item-order="0" transform="translate(602, 98)"></g><g id="g-root-ic_sync_1urswdw1x5kl53-stroke" data-item-order="0" transform="translate(626, 734)"><g id="ic_sync_1urswdw1x5kl53-stroke" fill="none" stroke-linecap="round" stroke-linejoin="round" stroke-miterlimit="4" stroke="#f79438" stroke-width="2"><g><path d="M 22 30L 22 25.501999C 21.997789 21.358625 25.356625 17.998894 29.5 18L 33 18M 26 26.002001L 22 30.002001L 18 26.002001M 30 15.002L 33 18.001999L 30 21.001999M 16 57.001999L 30 57.001999M 23 53.001999L 23 57.001999M 11 47.001999L 35 47.001999M 32 37C 33.656853 37 35 38.343147 35 40L 35 49.824001C 35.04818 51.529293 33.705269 52.950989 31.999998 52.999996L 14 53C 12.296018 52.949898 10.954054 51.530102 11 49.826L 11 40C 11 38.343147 12.343145 37 14 37ZM 41 15.002C 41 17.21114 44.581722 19.001999 49 19.001999C 53.418278 19.001999 57 17.21114 57 15.002C 57 12.792861 53.418278 11.002 49 11.002C 44.581722 11.002 41 12.792861 41 15.002ZM 41 25C 41 27.200001 44.582001 29 49 29C 53.417999 29 57 27.200001 57 25M 41 20C 41 22.200001 44.582001 24 49 24C 53.417999 24 57 22.200001 57 20M 57 15L 57 30C 57 32.200001 53.417999 34 49 34C 44.582001 34 41 32.200001 41 30L 41 15"></path></g></g></g><g id="g-root-tx_eventlis_qofnqs1x55535-stroke" data-item-order="0" transform="translate(170, 782)"></g><g id="g-root-ic_2_141514k1x5f11g-stroke" data-item-order="0" transform="translate(488, 775)"><g id="ic_2_141514k1x5f11g-stroke" fill="none" stroke-linecap="round" stroke-linejoin="round" stroke-miterlimit="4" stroke="#fb6762" stroke-width="2"><g><path d="M 48 48C 50.485283 48 52.5 45.985283 52.5 43.5C 52.5 41.014717 50.485283 39 48 39C 45.514717 39 43.5 41.014717 43.5 43.5C 43.501102 45.984825 45.515175 47.998898 48 48ZM 57 57C 56.283794 54.19162 54.296638 51.879116 51.628006 50.748478C 48.959377 49.617844 45.915749 49.79892 43.399998 51.237999M 20 48C 22.485281 48 24.5 45.985283 24.5 43.5C 24.5 41.014717 22.485281 39 20 39C 17.514719 39 15.5 41.014717 15.5 43.5C 15.501103 45.984825 17.515175 47.998898 20 48ZM 11 56.984001C 11.711522 54.186169 13.684852 51.878967 16.338522 50.742241C 18.992193 49.605511 22.023785 49.768803 24.540001 51.183998M 45 57C 45 50.92487 40.075134 46 34 46C 27.924868 46 23 50.92487 23 57M 28.285999 33.200001C 31.405899 36.43288 36.201378 37.396595 40.327999 35.619999M 33.886002 43C 37.475853 43 40.386002 40.089851 40.386002 36.5C 40.386002 32.910149 37.475853 30.000002 33.886002 30.000002C 30.29615 30.000002 27.386002 32.910149 27.386002 36.5C 27.386 40.089851 30.29615 43 33.886002 43ZM 57 25.838001C 55.522736 24.375895 54.641075 22.417286 54.525997 20.341999L 54.526001 17.6C 54.375278 14.067566 51.467648 11.281357 47.931999 11.281357C 44.396351 11.281357 41.488724 14.067566 41.338001 17.6L 41.337997 20.341999C 41.222137 22.416691 40.341415 24.374809 38.865997 25.837999ZM 45.810001 29.134001C 46.057354 30.102861 46.930061 30.780758 47.93 30.780758C 48.929939 30.780758 49.802647 30.102861 50.049999 29.134001"></path></g></g></g><g id="g-root-tx_writedbu_18f375g1x56j9r-stroke" data-item-order="0" transform="translate(722, 782)"></g><g id="g-root-tx_writedat_m8m5mc1x56j9c-stroke" data-item-order="0" transform="translate(722, 818)"></g><g id="g-root-tx_eventlis_1cw5ng41x5579m-stroke" data-item-order="0" transform="translate(146, 842)"></g><g id="g-root-tx_eventpub_4g36yc1x555an-stroke" data-item-order="0" transform="translate(434, 854)"></g><g id="g-root-tx_readdbre_1d30vec1x555ol-stroke" data-item-order="0" transform="translate(314, 110)"></g></g></g><path id="w4j6v2t1x52brf" d="M65.283 12.757a.35.35 0 0 0 .584.157l5.203-5.141-6.183 3.523.396 1.461zm-2.216-11.7a.35.35 0 0 0-.522.305v3.111l3.276-1.868-2.754-1.548zm3.728 2.105l-4.25 2.421v2.445l6.391-3.644-2.141-1.222zm4.708 3.303a.35.35 0 0 0 0-.609l-1.592-.9-7.365 4.199v1.782a.35.35 0 0 0 .523.305l8.435-4.777z M44.542 2.513c0-.433.355-.783.792-.783s.792.35.792.783-.355.783-.792.783-.792-.35-.792-.783zm59.171 0c0-.433.355-.783.792-.783s.792.35.792.783-.355.783-.792.783-.792-.35-.792-.783zm-85.951 7.636h-1.27v-.487c-.276.201-.864.609-1.881.609-1.202 0-2.274-.794-2.137-2.078.118-1.106 1.153-1.584 1.848-1.727l2.17-.345c0-.539-.29-.956-1.064-1.006s-1.21.305-1.571 1.017l-1.124-.605c1.218-2.631 5.029-1.764 5.029.414v4.207zm-1.27-2.86c.006.396-.062 1.112-.819 1.59-.587.37-1.841.299-1.903-.395-.049-.555.461-.791.906-.898l1.816-.297zm72.662 2.86h-1.27v-.487c-.276.201-.864.609-1.881.609-1.202 0-2.274-.794-2.137-2.078.118-1.106 1.153-1.584 1.848-1.727l2.17-.345c0-.539-.29-.956-1.064-1.006s-1.21.305-1.571 1.017l-1.124-.605c1.218-2.631 5.029-1.764 5.029.414v4.207zm-1.27-2.86c.006.396-.062 1.112-.82 1.59-.587.37-1.841.299-1.903-.395-.049-.555.461-.791.906-.898l1.816-.297zM99.096 10.149H97.85v-8.45h1.246v4.895l2.68-2.559h1.738l-2.633 2.535 2.715 3.578h-1.556l-2.077-2.707-.867.844v1.863zm6.053-6.114h-1.255v6.113h1.255V4.035zm-59.2 0h-1.255v6.113h1.255V4.035zm5.584 6.113V1.697h1.255v2.695c.361-.346 1-.485 1.47-.485 1.452 0 2.477 1.082 2.457 2.448v3.792h-1.27v-3.68c0-.408-.214-1.339-1.315-1.339-.968 0-1.342.756-1.342 1.339v3.681h-1.255zm-4.76-4.894V4.039h.621a.45.45 0 0 0 .45-.45v-.855h1.251v1.305h1.309v1.215h-1.309v3.109c0 .293.105.664.648.664.365 0 .531-.035.736-.07v1.137s-.361.113-.857.113c-1.398 0-1.777-1.051-1.777-1.788V5.254h-1.071zM36.528 4.039h-1.394l2.191 6.106h1.125l1.234-3.918 1.238 3.918h1.129l2.188-6.106h-1.383l-1.359 3.93-1.256-3.93h-1.124l-1.242 3.957-1.348-3.957zM26.212 7.141c-.02 1.566 1.187 3.129 3.223 3.129 1.566 0 2.383-.918 2.734-1.719L31.172 8c-.315.399-.801 1.094-1.738 1.094-1.145 0-1.825-.781-1.891-1.52h4.625c.074-.284.148-.995-.03-1.559-.336-1.064-1.221-2.102-2.839-2.102s-3.088 1.152-3.088 3.227zm1.363-.75h3.348c-.055-.43-.566-1.301-1.623-1.301a1.79 1.79 0 0 0-1.725 1.301zm-8.758.75c.038 1.758 1.277 3.133 3.145 3.133 1.074 0 1.723-.477 1.961-.672v.547h1.242V1.703h-1.258v2.888c-.414-.36-1.062-.68-1.93-.68-1.91 0-3.198 1.473-3.16 3.23zm1.309-.08c0 1.119.723 1.978 1.836 1.978a1.88 1.88 0 0 0 1.94-1.904c0-1.371-1.011-1.99-1.972-1.99s-1.805.798-1.805 1.916zm76.683-.028C96.771 5.275 95.532 3.9 93.664 3.9c-1.074 0-1.723.477-1.961.672v-.547h-1.242v8.22h1.258V9.583c.414.36 1.063.68 1.93.68 1.91 0 3.198-1.473 3.16-3.23zm-1.309.08c0-1.119-.723-1.978-1.836-1.978a1.88 1.88 0 0 0-1.94 1.904c0 1.371 1.011 1.99 1.972 1.99S95.5 8.231 95.5 7.113zM106.441 10.173V4.036h1.254v.382c.361-.346 1-.485 1.47-.485 1.452 0 2.477 1.082 2.457 2.448v3.792h-1.27V6.492c0-.408-.214-1.339-1.315-1.339-.969 0-1.342.756-1.342 1.339v3.681h-1.254zm-30.383-.021V1.824h1.084l4.215 5.777V1.824h1.32v8.328h-1.094l-4.207-5.796v5.796h-1.319zM5.24 10.149H4V2.377h1.014l2.664 3.597 2.654-3.592h1.03v7.766h-1.256V4.762L7.678 8.068 5.24 4.742v5.407z" transform="translate(908, 974)" fill="#ababab88" stroke="none"></path></svg>