<?xml version="1.0" encoding="utf-8" standalone="yes"?>
<!DOCTYPE svg PUBLIC "-//W3C//DTD SVG 1.1//EN" "http://www.w3.org/Graphics/SVG/1.1/DTD/svg11.dtd">
<svg width="828" height="660" viewBox="0 0 828 660" style="fill:none;stroke:none;fill-rule:evenodd;clip-rule:evenodd;stroke-linecap:round;stroke-linejoin:round;stroke-miterlimit:1.5;" version="1.1" xmlns="http://www.w3.org/2000/svg" xmlns:xlink="http://www.w3.org/1999/xlink"><style class="text-font-style fontImports" data-font-family="Roboto">@import url('https://fonts.googleapis.com/css2?family=Roboto:wght@400;700&amp;display=block');</style><g id="items" style="isolation: isolate"><g id="blend" style="mix-blend-mode: normal"><g id="g-root-cp_4_g-4_14142bo1wvgtu6-fill" data-item-order="-439910" transform="translate(176.16299438476562, 110)"></g><g id="g-root-cp_3_g-3_v63j5w1wvgs8w-fill" data-item-order="-439906" transform="translate(164, 332)"></g><g id="g-root-cp_2_g-2_magix01wvgt1m-fill" data-item-order="-439902" transform="translate(386, 358.6099853515625)"></g><g id="g-root-cp_1_g-1_hun0sk1wvgttw-fill" data-item-order="-439898" transform="translate(412.6099853515625, 122.16302490234375)"></g><g id="g-root-tx_cqrsarch_1upa18k1wvgsum-fill" data-item-order="0" transform="translate(260, 38)"><g id="tx_cqrsarch_1upa18k1wvgsum-fill" stroke="none" fill="#f4f4f4"><g><text style="font: bold 25px Roboto, sans-serif; white-space: pre;" font-weight="bold" font-size="25px" font-family="Roboto, sans-serif"><tspan x="14.68" y="42" dominant-baseline="ideographic">CQRS Architecture Cycle</tspan></text></g></g></g><g id="g-root-tx_updatequ_924dz81wvjmkp-fill" data-item-order="0" transform="translate(62, 122)"><g id="tx_updatequ_924dz81wvjmkp-fill" stroke="none" fill="#a6da37"><g><text style="font: bold 20px Roboto, sans-serif; white-space: pre;" font-weight="bold" font-size="20px" font-family="Roboto, sans-serif"><tspan x="17.67" y="34" dominant-baseline="ideographic">Update Query </tspan><tspan x="83.83" y="58" dominant-baseline="ideographic">Model</tspan></text></g></g></g><g id="g-root-tx_executec_hvvyys1wvjmrp-fill" data-item-order="0" transform="translate(614, 134)"><g id="tx_executec_hvvyys1wvjmrp-fill" stroke="none" fill="#fb6762"><g><text style="font: bold 20px Roboto, sans-serif; white-space: pre;" font-weight="bold" font-size="20px" font-family="Roboto, sans-serif"><tspan x="12" y="34" dominant-baseline="ideographic">Execute </tspan><tspan x="12" y="58" dominant-baseline="ideographic">Command</tspan></text></g></g></g><g id="g-root-tx_reflectc_1urrxl01wvjnyi-fill" data-item-order="0" transform="translate(38, 182)"><g id="tx_reflectc_1urrxl01wvjnyi-fill" stroke="none" fill="#f4f4f4"><g><text style="font: 15px Roboto, sans-serif; white-space: pre;" font-size="15px" font-family="Roboto, sans-serif"><tspan x="16.67" y="28" dominant-baseline="ideographic">Reflect changes in the </tspan><tspan x="88.98" y="46" dominant-baseline="ideographic">read model</tspan></text></g></g></g><g id="g-root-ic_serv_1cymhtw1wvgs1z-fill" data-item-order="0" transform="translate(237, 206)"></g><g id="g-root-ic_page_18n6bb81wvi8si-fill" data-item-order="0" transform="translate(524, 206)"></g><g id="g-root-tx_initiate_1uqizes1wvjlse-fill" data-item-order="0" transform="translate(614, 194)"><g id="tx_initiate_1uqizes1wvjlse-fill" stroke="none" fill="#f4f4f4"><g><text style="font: 15px Roboto, sans-serif; white-space: pre;" font-size="15px" font-family="Roboto, sans-serif"><tspan x="12" y="31" dominant-baseline="ideographic">Initiate a write operation</tspan></text></g></g></g><g id="g-root-ic_ware_1d2ztfo1wvgumg-fill" data-item-order="0" transform="translate(237, 446)"></g><g id="g-root-ic_shar_zn5zgk1wvi70p-fill" data-item-order="0" transform="translate(524, 446)"></g><g id="g-root-tx_fetchdat_1cy00qs1wvjlzf-fill" data-item-order="0" transform="translate(86, 482)"><g id="tx_fetchdat_1cy00qs1wvjlzf-fill" stroke="none" fill="#43dd93"><g><text style="font: bold 20px Roboto, sans-serif; white-space: pre;" font-weight="bold" font-size="20px" font-family="Roboto, sans-serif"><tspan x="19.88" y="34" dominant-baseline="ideographic">Fetch Data</tspan></text></g></g></g><g id="g-root-tx_updateco_1czvg041wvjkzr-fill" data-item-order="0" transform="translate(614, 482)"><g id="tx_updateco_1czvg041wvjkzr-fill" stroke="none" fill="#f79438"><g><text style="font: bold 20px Roboto, sans-serif; white-space: pre;" font-weight="bold" font-size="20px" font-family="Roboto, sans-serif"><tspan x="12" y="34" dominant-baseline="ideographic">Update Command </tspan><tspan x="12" y="58" dominant-baseline="ideographic">Model</tspan></text></g></g></g><g id="g-root-tx_retrieve_v7chc41wvjl6s-fill" data-item-order="0" transform="translate(38, 518)"><g id="tx_retrieve_v7chc41wvjl6s-fill" stroke="none" fill="#f4f4f4"><g><text style="font: 15px Roboto, sans-serif; white-space: pre;" font-size="15px" font-family="Roboto, sans-serif"><tspan x="16.34" y="28" dominant-baseline="ideographic">Retrieve data from the </tspan><tspan x="88.98" y="46" dominant-baseline="ideographic">read model</tspan></text></g></g></g><g id="g-root-tx_modifyda_v8lfic1wvjncw-fill" data-item-order="0" transform="translate(614, 542)"><g id="tx_modifyda_v8lfic1wvjncw-fill" stroke="none" fill="#f4f4f4"><g><text style="font: 15px Roboto, sans-serif; white-space: pre;" font-size="15px" font-family="Roboto, sans-serif"><tspan x="12" y="28" dominant-baseline="ideographic">Modify data in the write </tspan><tspan x="12" y="46" dominant-baseline="ideographic">model</tspan></text></g></g></g><g id="g-root-cp_4_g-4_14142bo1wvgtu6-stroke" data-item-order="-439910" transform="translate(176.16299438476562, 110)"><g id="cp_4_g-4_14142bo1wvgtu6-stroke" fill="none" stroke-linecap="round" stroke-linejoin="round" stroke-miterlimit="4" stroke="#a6da37" stroke-width="2"><g><path d="M 243.837 118L 255.837 64L 243.837 10L 219.837 10.000001L 222.6148 22.5001L 231.837 64L 222.32 106.8263L 219.837 118L 243.837 118ZM 231.837 64L 222.6148 22.5001C 106.6574 30.1437 14.3841 124.4778 10 241.2971L 51.837 232L 94.0901 241.3896C 98.2392 171.0352 152.8993 114.264 222.32 106.8263L 231.837 64Z"></path></g></g></g><g id="g-root-cp_3_g-3_v63j5w1wvgs8w-stroke" data-item-order="-439906" transform="translate(164, 332)"><g id="cp_3_g-3_v63j5w1wvgs8w-stroke" fill="none" stroke-linecap="round" stroke-linejoin="round" stroke-miterlimit="4" stroke="#43dd93" stroke-width="2"><g><path d="M 10 22L 64 10L 118 22L 118 46L 106.8263 43.5169L 64 34L 22.5001 43.2222L 10 46L 10 22ZM 241.2971 255.837L 232 214L 241.3896 171.7468C 171.0352 167.5978 114.264 112.9377 106.8263 43.5169L 64 34L 22.5001 43.2222C 30.1437 159.1796 124.4778 251.4529 241.2971 255.837Z"></path></g></g></g><g id="g-root-cp_2_g-2_magix01wvgt1m-stroke" data-item-order="-439902" transform="translate(386, 358.6099853515625)"><g id="cp_2_g-2_magix01wvgt1m-stroke" fill="none" stroke-linecap="round" stroke-linejoin="round" stroke-miterlimit="4" stroke="#f79438" stroke-width="2"><g><path d="M 22 241.3896L 10 187.3896L 22 133.3896L 46 133.3896L 43.517 144.5633L 34 187.3896L 43.2222 228.8895L 46 241.3896L 22 241.3896ZM 255.837 10.0925L 214 19.3896L 171.7468 10C 167.5978 80.3544 112.9377 137.1256 43.517 144.5633L 34 187.3896L 43.2222 228.8895C 159.1795 221.2459 251.4528 126.9118 255.837 10.0925Z"></path></g></g></g><g id="g-root-cp_1_g-1_hun0sk1wvgttw-stroke" data-item-order="-439898" transform="translate(412.6099853515625, 122.16302490234375)"><g id="cp_1_g-1_hun0sk1wvgttw-stroke" fill="none" stroke-linecap="round" stroke-linejoin="round" stroke-miterlimit="4" stroke="#fb6762" stroke-width="2"><g><path d="M 133.3896 243.837L 187.3896 255.837L 241.3896 243.837L 241.3896 219.837L 228.8895 222.6148L 187.3896 231.837L 144.5633 222.32L 133.3896 219.837L 133.3896 243.837ZM 10.0925 10L 19.3896 51.837L 10 94.0901C 80.3544 98.2392 137.1256 152.8992 144.5633 222.32L 187.3896 231.837L 228.8895 222.6148C 221.2459 106.6574 126.9118 14.3841 10.0925 10Z"></path></g></g></g><g id="g-root-tx_cqrsarch_1upa18k1wvgsum-stroke" data-item-order="0" transform="translate(260, 38)"></g><g id="g-root-tx_updatequ_924dz81wvjmkp-stroke" data-item-order="0" transform="translate(62, 122)"></g><g id="g-root-tx_executec_hvvyys1wvjmrp-stroke" data-item-order="0" transform="translate(614, 134)"></g><g id="g-root-tx_reflectc_1urrxl01wvjnyi-stroke" data-item-order="0" transform="translate(38, 182)"></g><g id="g-root-ic_serv_1cymhtw1wvgs1z-stroke" data-item-order="0" transform="translate(237, 206)"><g id="ic_serv_1cymhtw1wvgs1z-stroke" fill="none" stroke-linecap="round" stroke-linejoin="round" stroke-miterlimit="4" stroke="#a6da37" stroke-width="2"><g><path d="M 33.900002 29.300039C 38.318199 29.300039 41.900002 27.50918 41.900002 25.300041C 41.900002 23.0909 38.318199 21.300041 33.900002 21.300041C 29.481621 21.300041 25.8999 23.0909 25.8999 25.300041C 25.8999 27.50918 29.481621 29.300039 33.900002 29.300039ZM 25.8999 25.300041L 25.8999 32.099998C 25.8999 34.299999 29.499901 36.099998 33.900002 36.099998C 38.299999 36.099998 41.900002 34.299999 41.900002 32.099998L 41.900002 25.300041M 25.8999 32.299999L 25.8999 39.099998C 25.8999 41.299999 29.499901 43.099998 33.900002 43.099998C 38.299999 43.099998 41.900002 41.299999 41.900002 39.099998L 41.900002 32.299999M 11.5 17.5L 11.5 11.5L 17.5 11.5M 10 10M 11.5 11.5L 18.5 18.5M 56.5 17.5L 56.5 11.5L 50.5 11.5M 10 10M 56.5 11.5L 49.5 18.5M 11.5 50.5L 11.5 56.5L 17.5 56.5M 10 10M 11.5 56.5L 18.5 49.5M 56.5 50.5L 56.5 56.5L 50.5 56.5M 10 10M 56.5 56.5L 49.5 49.5M 45.900002 43.700001C 50.700001 41.5 53.900002 38.099998 53.900002 34.099998C 53.900002 30.9 51.700001 27.89996 48.099998 25.699959M 20.09992 25.5C 16.299919 27.700001 13.8999 30.700001 13.8999 34.099998C 13.8999 38.099998 17.099899 41.5 21.8999 43.700001"></path></g></g></g><g id="g-root-ic_page_18n6bb81wvi8si-stroke" data-item-order="0" transform="translate(524, 206)"><g id="ic_page_18n6bb81wvi8si-stroke" fill="none" stroke-linecap="round" stroke-linejoin="round" stroke-miterlimit="4" stroke="#fb6762" stroke-width="2"><g><path d="M 39.803001 55.332001C 40.946602 55.332001 41.869598 54.408798 41.869598 53.265202L 41.869598 28.365879C 41.869598 27.81476 41.6492 27.27742 41.249599 26.891621L 37.116199 22.923519C 36.7304 22.53772 36.206802 22.33106 35.669601 22.33106L 15.00228 22.33106C 13.85868 22.33106 12.93554 23.2542 12.93554 24.397781L 12.93554 53.265202C 12.93554 54.408798 13.85868 55.332001 15.00228 55.332001L 39.803001 55.332001ZM 10 10M 45.779202 24.0791L 50.420799 28.720921L 55.062599 24.0791M 39.119202 12.66894L 42.419998 12.66894C 46.8382 12.66894 50.419998 16.25066 50.419998 20.66894L 50.419998 28.72138M 19.61524 30.4072L 31.639799 30.4072M 19.61524 38.831001L 35.1894 38.831001"></path></g></g></g><g id="g-root-tx_initiate_1uqizes1wvjlse-stroke" data-item-order="0" transform="translate(614, 194)"></g><g id="g-root-ic_ware_1d2ztfo1wvgumg-stroke" data-item-order="0" transform="translate(237, 446)"><g id="ic_ware_1d2ztfo1wvgumg-stroke" fill="none" stroke-linecap="round" stroke-linejoin="round" stroke-miterlimit="4" stroke="#43dd93" stroke-width="2"><g><path d="M 34 25.1C 42.615601 25.1 49.599998 22.05554 49.599998 18.299999C 49.599998 14.54446 42.615601 11.5 34 11.5C 25.38438 11.5 18.400021 14.54446 18.400021 18.299999C 18.400021 22.05554 25.38438 25.1 34 25.1ZM 18.400021 18.429939L 18.400021 49.700001C 18.400021 53.5 25.445179 56.5 33.899399 56.5C 42.554798 56.5 49.599998 53.5 49.599998 49.700001L 49.599998 18.429939M 27.200081 39.299999C 28.85692 39.299999 30.200001 37.957001 30.200001 36.299999C 30.200001 34.6432 28.85692 33.299999 27.200081 33.299999C 25.543221 33.299999 24.200081 34.6432 24.200081 36.299999C 24.200081 37.957001 25.543221 39.299999 27.200081 39.299999ZM 35.200001 47.299999C 36.857002 47.299999 38.200001 45.957001 38.200001 44.299999C 38.200001 42.6432 36.857002 41.299999 35.200001 41.299999C 33.543198 41.299999 32.200001 42.6432 32.200001 44.299999C 32.200001 45.957001 33.543198 47.299999 35.200001 47.299999ZM 40.800201 37.299999C 42.457001 37.299999 43.800201 35.957001 43.800201 34.299999C 43.800201 32.6432 42.457001 31.299999 40.800201 31.299999C 39.143402 31.299999 37.800201 32.6432 37.800201 34.299999C 37.800201 35.957001 39.143402 37.299999 40.800201 37.299999ZM 10 10M 39.000198 36.700001L 37.000198 41.900002M 10 10M 29.400021 38.299999L 33 42.299999"></path></g></g></g><g id="g-root-ic_shar_zn5zgk1wvi70p-stroke" data-item-order="0" transform="translate(524, 446)"><g id="ic_shar_zn5zgk1wvi70p-stroke" fill="none" stroke-linecap="round" stroke-linejoin="round" stroke-miterlimit="4" stroke="#f79438" stroke-width="2"><g><path d="M 37.578003 11L 54.956001 11C 54.956001 11 57 11 57 13.044L 57 29.4C 57 29.4 57 31.444 54.956001 31.444L 37.578003 31.444C 37.578003 31.444 35.534 31.444 35.534 29.4L 35.534 13.044C 35.534 13.044 35.534 11 37.578003 11M 35.534 17.962L 57 17.962M 35.534 24.704L 57 24.704M 45.242001 17.962L 45.242001 31.444M 50.998001 17.962L 50.998001 31.444M 20.200001 23.6L 15.6 28L 15.6 23.6C 15.665619 20.278273 18.4123 17.639059 21.734001 17.706001L 29.4 17.705999M 11 23.6L 15.6 28.01M 24.799999 13.29L 29.4 17.705999L 24.799999 22.122M 13.044 33.487999L 24.290001 33.487999C 24.290001 33.487999 26.334 33.487999 26.334 35.532001L 26.334 54.956001C 26.334 54.956001 26.334 57 24.290001 57L 13.044 57C 13.044 57 11 57 11 54.956001L 11 35.532001C 11 35.532001 11 33.487999 13.044 33.487999M 11 50.866001L 26.334 50.866001"></path></g></g></g><g id="g-root-tx_fetchdat_1cy00qs1wvjlzf-stroke" data-item-order="0" transform="translate(86, 482)"></g><g id="g-root-tx_updateco_1czvg041wvjkzr-stroke" data-item-order="0" transform="translate(614, 482)"></g><g id="g-root-tx_retrieve_v7chc41wvjl6s-stroke" data-item-order="0" transform="translate(38, 518)"></g><g id="g-root-tx_modifyda_v8lfic1wvjncw-stroke" data-item-order="0" transform="translate(614, 542)"></g></g></g><path id="w4myev81x57yf5" d="M65.283 12.757a.35.35 0 0 0 .584.157l5.203-5.141-6.183 3.523.396 1.461zm-2.216-11.7a.35.35 0 0 0-.522.305v3.111l3.276-1.868-2.754-1.548zm3.728 2.105l-4.25 2.421v2.445l6.391-3.644-2.141-1.222zm4.708 3.303a.35.35 0 0 0 0-.609l-1.592-.9-7.365 4.199v1.782a.35.35 0 0 0 .523.305l8.435-4.777z M44.542 2.513c0-.433.355-.783.792-.783s.792.35.792.783-.355.783-.792.783-.792-.35-.792-.783zm59.171 0c0-.433.355-.783.792-.783s.792.35.792.783-.355.783-.792.783-.792-.35-.792-.783zm-85.951 7.636h-1.27v-.487c-.276.201-.864.609-1.881.609-1.202 0-2.274-.794-2.137-2.078.118-1.106 1.153-1.584 1.848-1.727l2.17-.345c0-.539-.29-.956-1.064-1.006s-1.21.305-1.571 1.017l-1.124-.605c1.218-2.631 5.029-1.764 5.029.414v4.207zm-1.27-2.86c.006.396-.062 1.112-.819 1.59-.587.37-1.841.299-1.903-.395-.049-.555.461-.791.906-.898l1.816-.297zm72.662 2.86h-1.27v-.487c-.276.201-.864.609-1.881.609-1.202 0-2.274-.794-2.137-2.078.118-1.106 1.153-1.584 1.848-1.727l2.17-.345c0-.539-.29-.956-1.064-1.006s-1.21.305-1.571 1.017l-1.124-.605c1.218-2.631 5.029-1.764 5.029.414v4.207zm-1.27-2.86c.006.396-.062 1.112-.82 1.59-.587.37-1.841.299-1.903-.395-.049-.555.461-.791.906-.898l1.816-.297zM99.096 10.149H97.85v-8.45h1.246v4.895l2.68-2.559h1.738l-2.633 2.535 2.715 3.578h-1.556l-2.077-2.707-.867.844v1.863zm6.053-6.114h-1.255v6.113h1.255V4.035zm-59.2 0h-1.255v6.113h1.255V4.035zm5.584 6.113V1.697h1.255v2.695c.361-.346 1-.485 1.47-.485 1.452 0 2.477 1.082 2.457 2.448v3.792h-1.27v-3.68c0-.408-.214-1.339-1.315-1.339-.968 0-1.342.756-1.342 1.339v3.681h-1.255zm-4.76-4.894V4.039h.621a.45.45 0 0 0 .45-.45v-.855h1.251v1.305h1.309v1.215h-1.309v3.109c0 .293.105.664.648.664.365 0 .531-.035.736-.07v1.137s-.361.113-.857.113c-1.398 0-1.777-1.051-1.777-1.788V5.254h-1.071zM36.528 4.039h-1.394l2.191 6.106h1.125l1.234-3.918 1.238 3.918h1.129l2.188-6.106h-1.383l-1.359 3.93-1.256-3.93h-1.124l-1.242 3.957-1.348-3.957zM26.212 7.141c-.02 1.566 1.187 3.129 3.223 3.129 1.566 0 2.383-.918 2.734-1.719L31.172 8c-.315.399-.801 1.094-1.738 1.094-1.145 0-1.825-.781-1.891-1.52h4.625c.074-.284.148-.995-.03-1.559-.336-1.064-1.221-2.102-2.839-2.102s-3.088 1.152-3.088 3.227zm1.363-.75h3.348c-.055-.43-.566-1.301-1.623-1.301a1.79 1.79 0 0 0-1.725 1.301zm-8.758.75c.038 1.758 1.277 3.133 3.145 3.133 1.074 0 1.723-.477 1.961-.672v.547h1.242V1.703h-1.258v2.888c-.414-.36-1.062-.68-1.93-.68-1.91 0-3.198 1.473-3.16 3.23zm1.309-.08c0 1.119.723 1.978 1.836 1.978a1.88 1.88 0 0 0 1.94-1.904c0-1.371-1.011-1.99-1.972-1.99s-1.805.798-1.805 1.916zm76.683-.028C96.771 5.275 95.532 3.9 93.664 3.9c-1.074 0-1.723.477-1.961.672v-.547h-1.242v8.22h1.258V9.583c.414.36 1.063.68 1.93.68 1.91 0 3.198-1.473 3.16-3.23zm-1.309.08c0-1.119-.723-1.978-1.836-1.978a1.88 1.88 0 0 0-1.94 1.904c0 1.371 1.011 1.99 1.972 1.99S95.5 8.231 95.5 7.113zM106.441 10.173V4.036h1.254v.382c.361-.346 1-.485 1.47-.485 1.452 0 2.477 1.082 2.457 2.448v3.792h-1.27V6.492c0-.408-.214-1.339-1.315-1.339-.969 0-1.342.756-1.342 1.339v3.681h-1.254zm-30.383-.021V1.824h1.084l4.215 5.777V1.824h1.32v8.328h-1.094l-4.207-5.796v5.796h-1.319zM5.24 10.149H4V2.377h1.014l2.664 3.597 2.654-3.592h1.03v7.766h-1.256V4.762L7.678 8.068 5.24 4.742v5.407z" transform="translate(20, 626)" fill="#ababab88" stroke="none"></path></svg>